solid SideWalls
facet normal -3.4364975155024156e-17 -8.044824228451659e-16 1.0
  outer loop
    vertex 78347.08293068071 76022.29518162712 14750.000000000033
    vertex -37652.91706931953 83022.29518162715 14750.000000000033
    vertex -37652.91706931953 76022.29518162712 14750.000000000022
  endloop
endfacet
facet normal -3.4364975155024156e-17 -8.044824228451659e-16 1.0
  outer loop
    vertex -37652.91706931953 83022.29518162715 14750.000000000033
    vertex 78347.08293068071 76022.29518162712 14750.000000000033
    vertex -19652.917069319512 83022.29518162715 14750.000000000033
  endloop
endfacet
facet normal -3.4364975155024156e-17 -8.044824228451659e-16 1.0
  outer loop
    vertex -19652.917069319512 83022.29518162715 14750.000000000033
    vertex 78347.08293068071 76022.29518162712 14750.000000000033
    vertex -19652.917069319512 84022.29518162715 14750.00000000003
  endloop
endfacet
facet normal -3.4364975155024156e-17 -8.044824228451659e-16 1.0
  outer loop
    vertex -19652.917069319512 84022.29518162715 14750.00000000003
    vertex 78347.08293068071 76022.29518162712 14750.000000000033
    vertex 60347.08293068044 83022.29518162715 14750.000000000033
  endloop
endfacet
facet normal -3.4364975155024156e-17 -8.044824228451659e-16 1.0
  outer loop
    vertex 60347.08293068044 83022.29518162715 14750.000000000033
    vertex 78347.08293068071 76022.29518162712 14750.000000000033
    vertex 78347.08293068071 83022.29518162715 14750.000000000033
  endloop
endfacet
facet normal -3.4364975155024156e-17 -8.044824228451659e-16 1.0
  outer loop
    vertex 60347.08293068044 84022.29518162715 14750.00000000003
    vertex -19652.917069319512 84022.29518162715 14750.00000000003
    vertex 60347.08293068044 83022.29518162715 14750.000000000033
  endloop
endfacet
facet normal -1.0 -1.551682150477098e-15 3.2236174805498954e-15
  outer loop
    vertex -37652.91706931948 114022.29518162712 14750.00000000003
    vertex -37652.91706931953 113022.29518162712 7400.000000000021
    vertex -37652.91706931953 113022.29518162712 14750.00000000003
  endloop
endfacet
facet normal -1.0 -1.551682150477098e-15 3.2236174805498954e-15
  outer loop
    vertex -37652.91706931953 113022.29518162712 7400.000000000021
    vertex -37652.91706931948 114022.29518162712 14750.00000000003
    vertex -37652.91706931948 115022.29518162712 13750.000000000033
  endloop
endfacet
facet normal -1.0 -1.551682150477098e-15 3.2236174805498954e-15
  outer loop
    vertex -37652.91706931953 113022.29518162712 7400.000000000021
    vertex -37652.91706931948 115022.29518162712 13750.000000000033
    vertex -37652.91706931953 123022.29518162714 7400.000000000021
  endloop
endfacet
facet normal -1.0 -1.551682150477098e-15 3.2236174805498954e-15
  outer loop
    vertex -37652.91706931953 123022.29518162714 7400.000000000021
    vertex -37652.91706931948 115022.29518162712 13750.000000000033
    vertex -37652.91706931948 116022.29518162714 14750.00000000003
  endloop
endfacet
facet normal -1.0 -1.551682150477098e-15 3.2236174805498954e-15
  outer loop
    vertex -37652.91706931953 123022.29518162714 7400.000000000021
    vertex -37652.91706931948 116022.29518162714 14750.00000000003
    vertex -37652.91706931953 123022.29518162714 14750.00000000003
  endloop
endfacet
facet normal -2.5329829865911266e-32 0.7071067811865529 0.7071067811865421
  outer loop
    vertex -37652.91706931953 134022.29518162712 14750.00000000003
    vertex 78347.08293068071 135022.2951816271 13750.000000000033
    vertex -37652.91706931953 135022.2951816271 13750.000000000033
  endloop
endfacet
facet normal -2.5329829865911266e-32 0.7071067811865529 0.7071067811865421
  outer loop
    vertex 78347.08293068071 135022.2951816271 13750.000000000033
    vertex -37652.91706931953 134022.29518162712 14750.00000000003
    vertex 78347.08293068071 134022.29518162712 14750.00000000003
  endloop
endfacet
facet normal -0.0 0.7071067811865452 0.7071067811865498
  outer loop
    vertex 78347.08293068052 94022.29518162712 14750.00000000003
    vertex -37652.91706931953 95022.29518162712 13750.000000000033
    vertex -37652.91706931953 94022.29518162712 14750.00000000003
  endloop
endfacet
facet normal -0.0 0.7071067811865452 0.7071067811865498
  outer loop
    vertex -37652.91706931953 95022.29518162712 13750.000000000033
    vertex 78347.08293068052 94022.29518162712 14750.00000000003
    vertex 78347.08293068052 95022.29518162712 13750.000000000033
  endloop
endfacet
facet normal -1.5205632681039506e-33 -5.893154445161343e-17 1.0
  outer loop
    vertex 60347.08293068044 86022.29518162711 14750.00000000003
    vertex -19652.917069319512 93022.29518162714 14750.00000000003
    vertex -19652.917069319512 86022.29518162711 14750.00000000003
  endloop
endfacet
facet normal -1.5205632681039506e-33 -5.893154445161343e-17 1.0
  outer loop
    vertex -19652.917069319512 93022.29518162714 14750.00000000003
    vertex -37652.91706931953 94022.29518162712 14750.00000000003
    vertex -37652.91706931953 93022.29518162714 14750.00000000003
  endloop
endfacet
facet normal -1.5205632681039506e-33 -5.893154445161343e-17 1.0
  outer loop
    vertex -37652.91706931953 94022.29518162712 14750.00000000003
    vertex -19652.917069319512 93022.29518162714 14750.00000000003
    vertex 78347.08293068052 94022.29518162712 14750.00000000003
  endloop
endfacet
facet normal -1.5205632681039506e-33 -5.893154445161343e-17 1.0
  outer loop
    vertex 78347.08293068052 94022.29518162712 14750.00000000003
    vertex -19652.917069319512 93022.29518162714 14750.00000000003
    vertex 60347.08293068044 93022.29518162714 14750.00000000003
  endloop
endfacet
facet normal -1.5205632681039506e-33 -5.893154445161343e-17 1.0
  outer loop
    vertex 60347.08293068044 93022.29518162714 14750.00000000003
    vertex -19652.917069319512 93022.29518162714 14750.00000000003
    vertex 60347.08293068044 86022.29518162711 14750.00000000003
  endloop
endfacet
facet normal -1.5205632681039506e-33 -5.893154445161343e-17 1.0
  outer loop
    vertex 78347.08293068052 94022.29518162712 14750.00000000003
    vertex 60347.08293068044 93022.29518162714 14750.00000000003
    vertex 78347.08293068071 93022.29518162714 14750.00000000003
  endloop
endfacet
facet normal -0.0 1.0 -0.0
  outer loop
    vertex -37652.91706931953 83022.29518162715 14750.000000000033
    vertex -19652.917069319512 83022.29518162715 7400.000000000021
    vertex -37652.91706931953 83022.29518162715 7400.000000000021
  endloop
endfacet
facet normal -0.0 1.0 -0.0
  outer loop
    vertex -19652.917069319512 83022.29518162715 7400.000000000021
    vertex -37652.91706931953 83022.29518162715 14750.000000000033
    vertex -19652.917069319512 83022.29518162715 14750.000000000033
  endloop
endfacet
facet normal -1.8913475181139558e-32 9.821924075269785e-18 1.0
  outer loop
    vertex 60347.08293068044 106022.2951816271 14750.00000000003
    vertex -19652.917069319512 113022.29518162712 14750.00000000003
    vertex -19652.917069319512 106022.2951816271 14750.00000000003
  endloop
endfacet
facet normal -1.8913475181139558e-32 9.821924075269785e-18 1.0
  outer loop
    vertex -19652.917069319512 113022.29518162712 14750.00000000003
    vertex -37652.91706931948 114022.29518162712 14750.00000000003
    vertex -37652.91706931953 113022.29518162712 14750.00000000003
  endloop
endfacet
facet normal -1.8913475181139558e-32 9.821924075269785e-18 1.0
  outer loop
    vertex -37652.91706931948 114022.29518162712 14750.00000000003
    vertex -19652.917069319512 113022.29518162712 14750.00000000003
    vertex 78347.08293068071 114022.29518162712 14750.00000000003
  endloop
endfacet
facet normal -1.8913475181139558e-32 9.821924075269785e-18 1.0
  outer loop
    vertex 78347.08293068071 114022.29518162712 14750.00000000003
    vertex -19652.917069319512 113022.29518162712 14750.00000000003
    vertex 60347.08293068044 113022.29518162712 14750.00000000003
  endloop
endfacet
facet normal -1.8913475181139558e-32 9.821924075269785e-18 1.0
  outer loop
    vertex 60347.08293068044 113022.29518162712 14750.00000000003
    vertex -19652.917069319512 113022.29518162712 14750.00000000003
    vertex 60347.08293068044 106022.2951816271 14750.00000000003
  endloop
endfacet
facet normal -1.8913475181139558e-32 9.821924075269785e-18 1.0
  outer loop
    vertex 78347.08293068071 114022.29518162712 14750.00000000003
    vertex 60347.08293068044 113022.29518162712 14750.00000000003
    vertex 78347.08293068071 113022.29518162712 14750.00000000003
  endloop
endfacet
facet normal 5.186359555299685e-19 -0.7071067811865537 0.7071067811865415
  outer loop
    vertex 60347.08293068044 166022.2951816271 14750.000000000024
    vertex -19652.917069319512 165022.29518162712 13750.000000000025
    vertex 60347.08293068044 165022.29518162712 13750.000000000025
  endloop
endfacet
facet normal 5.186359555299685e-19 -0.7071067811865537 0.7071067811865415
  outer loop
    vertex -19652.917069319512 165022.29518162712 13750.000000000025
    vertex 60347.08293068044 166022.2951816271 14750.000000000024
    vertex -19652.917069319512 166022.2951816271 14750.000000000024
  endloop
endfacet
facet normal 5.186359555299384e-19 0.7071067811865455 0.7071067811865496
  outer loop
    vertex 60347.08293068044 164022.29518162712 14750.000000000024
    vertex -19652.917069319512 165022.29518162712 13750.000000000025
    vertex -19652.917069319512 164022.29518162712 14750.000000000024
  endloop
endfacet
facet normal 5.186359555299384e-19 0.7071067811865455 0.7071067811865496
  outer loop
    vertex -19652.917069319512 165022.29518162712 13750.000000000025
    vertex 60347.08293068044 164022.29518162712 14750.000000000024
    vertex 60347.08293068044 165022.29518162712 13750.000000000025
  endloop
endfacet
facet normal -0.0 1.0 -0.0
  outer loop
    vertex 60347.08293068044 163022.29518162712 14750.00000000003
    vertex 78347.08293068071 163022.29518162712 7400.000000000021
    vertex 60347.08293068044 163022.29518162712 7400.000000000021
  endloop
endfacet
facet normal -0.0 1.0 -0.0
  outer loop
    vertex 78347.08293068071 163022.29518162712 7400.000000000021
    vertex 60347.08293068044 163022.29518162712 14750.00000000003
    vertex 78347.08293068071 163022.29518162712 14750.00000000003
  endloop
endfacet
facet normal -2.1307138249924044e-32 -1.1786308890322624e-16 1.0
  outer loop
    vertex 78347.08293068071 136022.29518162712 14750.00000000003
    vertex -37652.91706931953 143022.29518162712 14750.00000000003
    vertex -37652.91706931953 136022.29518162712 14750.00000000003
  endloop
endfacet
facet normal -2.1307138249924044e-32 -1.1786308890322624e-16 1.0
  outer loop
    vertex -37652.91706931953 143022.29518162712 14750.00000000003
    vertex 78347.08293068071 136022.29518162712 14750.00000000003
    vertex -19652.917069319512 143022.29518162712 14750.00000000003
  endloop
endfacet
facet normal -2.1307138249924044e-32 -1.1786308890322624e-16 1.0
  outer loop
    vertex -19652.917069319512 143022.29518162712 14750.00000000003
    vertex 78347.08293068071 136022.29518162712 14750.00000000003
    vertex -19652.917069319512 144022.29518162712 14750.00000000003
  endloop
endfacet
facet normal -2.1307138249924044e-32 -1.1786308890322624e-16 1.0
  outer loop
    vertex -19652.917069319512 144022.29518162712 14750.00000000003
    vertex 78347.08293068071 136022.29518162712 14750.00000000003
    vertex 60347.08293068044 143022.29518162712 14750.00000000003
  endloop
endfacet
facet normal -2.1307138249924044e-32 -1.1786308890322624e-16 1.0
  outer loop
    vertex 60347.08293068044 143022.29518162712 14750.00000000003
    vertex 78347.08293068071 136022.29518162712 14750.00000000003
    vertex 78347.08293068071 143022.29518162712 14750.00000000003
  endloop
endfacet
facet normal -2.1307138249924044e-32 -1.1786308890322624e-16 1.0
  outer loop
    vertex 60347.08293068044 144022.29518162712 14750.00000000003
    vertex -19652.917069319512 144022.29518162712 14750.00000000003
    vertex 60347.08293068044 143022.29518162712 14750.00000000003
  endloop
endfacet
facet normal -2.4926223633113146e-33 -5.893154445161312e-17 1.0
  outer loop
    vertex 78347.08293068052 96022.29518162712 14750.00000000003
    vertex -37652.91706931953 103022.29518162712 14750.00000000003
    vertex -37652.91706931953 96022.29518162712 14750.00000000003
  endloop
endfacet
facet normal -2.4926223633113146e-33 -5.893154445161312e-17 1.0
  outer loop
    vertex -37652.91706931953 103022.29518162712 14750.00000000003
    vertex 78347.08293068052 96022.29518162712 14750.00000000003
    vertex -19652.917069319512 103022.29518162712 14750.00000000003
  endloop
endfacet
facet normal -2.4926223633113146e-33 -5.893154445161312e-17 1.0
  outer loop
    vertex -19652.917069319512 103022.29518162712 14750.00000000003
    vertex 78347.08293068052 96022.29518162712 14750.00000000003
    vertex -19652.917069319512 104022.29518162714 14750.00000000003
  endloop
endfacet
facet normal -2.4926223633113146e-33 -5.893154445161312e-17 1.0
  outer loop
    vertex -19652.917069319512 104022.29518162714 14750.00000000003
    vertex 78347.08293068052 96022.29518162712 14750.00000000003
    vertex 60347.08293068044 103022.29518162712 14750.00000000003
  endloop
endfacet
facet normal -2.4926223633113146e-33 -5.893154445161312e-17 1.0
  outer loop
    vertex 60347.08293068044 103022.29518162712 14750.00000000003
    vertex 78347.08293068052 96022.29518162712 14750.00000000003
    vertex 78347.08293068071 103022.29518162712 14750.00000000003
  endloop
endfacet
facet normal -2.4926223633113146e-33 -5.893154445161312e-17 1.0
  outer loop
    vertex 60347.08293068044 104022.29518162714 14750.00000000003
    vertex -19652.917069319512 104022.29518162714 14750.00000000003
    vertex 60347.08293068044 103022.29518162712 14750.00000000003
  endloop
endfacet
facet normal 1.1820587270758354e-32 0.7071067811865449 0.7071067811865501
  outer loop
    vertex 78347.08293068071 154022.2951816271 14750.00000000003
    vertex -37652.91706931958 155022.29518162712 13750.000000000033
    vertex -37652.91706931958 154022.2951816271 14750.00000000003
  endloop
endfacet
facet normal 1.1820587270758354e-32 0.7071067811865449 0.7071067811865501
  outer loop
    vertex -37652.91706931958 155022.29518162712 13750.000000000033
    vertex 78347.08293068071 154022.2951816271 14750.00000000003
    vertex 78347.08293068071 155022.29518162712 13750.000000000033
  endloop
endfacet
facet normal -7.193632227538932e-33 -1.1786308890322597e-16 1.0
  outer loop
    vertex 60347.08293068044 146022.29518162707 14750.00000000003
    vertex -19652.917069319512 153022.2951816271 14750.00000000003
    vertex -19652.917069319512 146022.29518162707 14750.00000000003
  endloop
endfacet
facet normal -7.193632227538932e-33 -1.1786308890322597e-16 1.0
  outer loop
    vertex -37652.91706931953 153022.2951816271 14750.00000000003
    vertex 78347.08293068071 154022.2951816271 14750.00000000003
    vertex -37652.91706931958 154022.2951816271 14750.00000000003
  endloop
endfacet
facet normal -7.193632227538932e-33 -1.1786308890322597e-16 1.0
  outer loop
    vertex 78347.08293068071 154022.2951816271 14750.00000000003
    vertex -37652.91706931953 153022.2951816271 14750.00000000003
    vertex -19652.917069319512 153022.2951816271 14750.00000000003
  endloop
endfacet
facet normal -7.193632227538932e-33 -1.1786308890322597e-16 1.0
  outer loop
    vertex 78347.08293068071 154022.2951816271 14750.00000000003
    vertex -19652.917069319512 153022.2951816271 14750.00000000003
    vertex 60347.08293068044 153022.2951816271 14750.00000000003
  endloop
endfacet
facet normal -7.193632227538932e-33 -1.1786308890322597e-16 1.0
  outer loop
    vertex 60347.08293068044 153022.2951816271 14750.00000000003
    vertex -19652.917069319512 153022.2951816271 14750.00000000003
    vertex 60347.08293068044 146022.29518162707 14750.00000000003
  endloop
endfacet
facet normal -7.193632227538932e-33 -1.1786308890322597e-16 1.0
  outer loop
    vertex 78347.08293068071 154022.2951816271 14750.00000000003
    vertex 60347.08293068044 153022.2951816271 14750.00000000003
    vertex 78347.08293068071 153022.2951816271 14750.00000000003
  endloop
endfacet
facet normal -1.0 0.0 0.0
  outer loop
    vertex -19652.917069319512 124022.29518162714 14750.00000000003
    vertex -19652.917069319512 123022.29518162714 7400.000000000021
    vertex -19652.917069319512 123022.29518162714 14750.00000000003
  endloop
endfacet
facet normal -1.0 0.0 0.0
  outer loop
    vertex -19652.917069319512 123022.29518162714 7400.000000000021
    vertex -19652.917069319512 124022.29518162714 14750.00000000003
    vertex -19652.917069319512 125022.29518162714 13750.000000000033
  endloop
endfacet
facet normal -1.0 0.0 0.0
  outer loop
    vertex -19652.917069319512 123022.29518162714 7400.000000000021
    vertex -19652.917069319512 125022.29518162714 13750.000000000033
    vertex -19652.917069319512 133022.29518162712 7400.000000000021
  endloop
endfacet
facet normal -1.0 0.0 0.0
  outer loop
    vertex -19652.917069319512 133022.29518162712 7400.000000000021
    vertex -19652.917069319512 125022.29518162714 13750.000000000033
    vertex -19652.917069319512 126022.29518162714 14750.00000000003
  endloop
endfacet
facet normal -1.0 0.0 0.0
  outer loop
    vertex -19652.917069319512 133022.29518162712 7400.000000000021
    vertex -19652.917069319512 126022.29518162714 14750.00000000003
    vertex -19652.917069319512 133022.29518162712 14750.00000000003
  endloop
endfacet
facet normal -2.8189521784552826e-32 -1.1786308890322693e-16 1.0
  outer loop
    vertex -37652.91706931948 116022.29518162714 14750.00000000003
    vertex -19652.917069319512 123022.29518162714 14750.00000000003
    vertex -37652.91706931953 123022.29518162714 14750.00000000003
  endloop
endfacet
facet normal -2.8189521784552826e-32 -1.1786308890322693e-16 1.0
  outer loop
    vertex -19652.917069319512 123022.29518162714 14750.00000000003
    vertex -37652.91706931948 116022.29518162714 14750.00000000003
    vertex 78347.08293068071 116022.29518162714 14750.00000000003
  endloop
endfacet
facet normal -2.8189521784552826e-32 -1.1786308890322693e-16 1.0
  outer loop
    vertex -19652.917069319512 123022.29518162714 14750.00000000003
    vertex 78347.08293068071 116022.29518162714 14750.00000000003
    vertex -19652.917069319512 124022.29518162714 14750.00000000003
  endloop
endfacet
facet normal -2.8189521784552826e-32 -1.1786308890322693e-16 1.0
  outer loop
    vertex -19652.917069319512 124022.29518162714 14750.00000000003
    vertex 78347.08293068071 116022.29518162714 14750.00000000003
    vertex 60347.08293068044 123022.29518162714 14750.00000000003
  endloop
endfacet
facet normal -2.8189521784552826e-32 -1.1786308890322693e-16 1.0
  outer loop
    vertex 60347.08293068044 123022.29518162714 14750.00000000003
    vertex 78347.08293068071 116022.29518162714 14750.00000000003
    vertex 78347.08293068071 123022.29518162714 14750.00000000003
  endloop
endfacet
facet normal -2.8189521784552826e-32 -1.1786308890322693e-16 1.0
  outer loop
    vertex 60347.08293068044 124022.29518162714 14750.00000000003
    vertex -19652.917069319512 124022.29518162714 14750.00000000003
    vertex 60347.08293068044 123022.29518162714 14750.00000000003
  endloop
endfacet
facet normal 2.4667584091793095e-19 -0.7071067811865476 0.7071067811865476
  outer loop
    vertex 78347.08293068071 116022.29518162714 14750.00000000003
    vertex -37652.91706931948 115022.29518162712 13750.000000000033
    vertex 78347.08293068071 115022.29518162712 13750.000000000033
  endloop
endfacet
facet normal 2.4667584091793095e-19 -0.7071067811865476 0.7071067811865476
  outer loop
    vertex -37652.91706931948 115022.29518162712 13750.000000000033
    vertex 78347.08293068071 116022.29518162714 14750.00000000003
    vertex -37652.91706931948 116022.29518162714 14750.00000000003
  endloop
endfacet
facet normal 5.186359555299374e-19 0.7071067811865452 0.7071067811865499
  outer loop
    vertex 60347.08293068044 84022.29518162715 14750.00000000003
    vertex -19652.917069319512 85022.29518162715 13750.000000000033
    vertex -19652.917069319512 84022.29518162715 14750.00000000003
  endloop
endfacet
facet normal 5.186359555299374e-19 0.7071067811865452 0.7071067811865499
  outer loop
    vertex -19652.917069319512 85022.29518162715 13750.000000000033
    vertex 60347.08293068044 84022.29518162715 14750.00000000003
    vertex 60347.08293068044 85022.29518162715 13750.000000000033
  endloop
endfacet
facet normal 5.984956324365106e-32 -0.7071067811865612 0.7071067811865339
  outer loop
    vertex 60347.08293068044 146022.29518162707 14750.00000000003
    vertex -19652.917069319512 145022.29518162712 13750.000000000033
    vertex 60347.08293068044 145022.29518162712 13750.000000000033
  endloop
endfacet
facet normal 5.984956324365106e-32 -0.7071067811865612 0.7071067811865339
  outer loop
    vertex -19652.917069319512 145022.29518162712 13750.000000000033
    vertex 60347.08293068044 146022.29518162707 14750.00000000003
    vertex -19652.917069319512 146022.29518162707 14750.00000000003
  endloop
endfacet
facet normal -0.0 -0.7071067811865452 0.7071067811865498
  outer loop
    vertex 78347.08293068052 95022.29518162712 13750.000000000033
    vertex -37652.91706931953 96022.29518162712 14750.00000000003
    vertex -37652.91706931953 95022.29518162712 13750.000000000033
  endloop
endfacet
facet normal -0.0 -0.7071067811865452 0.7071067811865498
  outer loop
    vertex -37652.91706931953 96022.29518162712 14750.00000000003
    vertex 78347.08293068052 95022.29518162712 13750.000000000033
    vertex 78347.08293068052 96022.29518162712 14750.00000000003
  endloop
endfacet
facet normal -3.5788873407047087e-32 1.5715078520430206e-16 1.0
  outer loop
    vertex 78347.08293068071 156022.29518162712 14750.00000000003
    vertex -37652.91706931953 163022.29518162712 14750.00000000003
    vertex -37652.91706931958 156022.29518162712 14750.00000000003
  endloop
endfacet
facet normal -3.5788873407047087e-32 1.5715078520430206e-16 1.0
  outer loop
    vertex -37652.91706931953 163022.29518162712 14750.00000000003
    vertex 78347.08293068071 156022.29518162712 14750.00000000003
    vertex -19652.917069319512 163022.29518162712 14750.00000000003
  endloop
endfacet
facet normal -3.5788873407047087e-32 1.5715078520430206e-16 1.0
  outer loop
    vertex -19652.917069319512 163022.29518162712 14750.00000000003
    vertex 78347.08293068071 156022.29518162712 14750.00000000003
    vertex -19652.917069319512 164022.29518162712 14750.000000000024
  endloop
endfacet
facet normal -3.5788873407047087e-32 1.5715078520430206e-16 1.0
  outer loop
    vertex -19652.917069319512 164022.29518162712 14750.000000000024
    vertex 78347.08293068071 156022.29518162712 14750.00000000003
    vertex 60347.08293068044 163022.29518162712 14750.00000000003
  endloop
endfacet
facet normal -3.5788873407047087e-32 1.5715078520430206e-16 1.0
  outer loop
    vertex 60347.08293068044 163022.29518162712 14750.00000000003
    vertex 78347.08293068071 156022.29518162712 14750.00000000003
    vertex 78347.08293068071 163022.29518162712 14750.00000000003
  endloop
endfacet
facet normal -3.5788873407047087e-32 1.5715078520430206e-16 1.0
  outer loop
    vertex 60347.08293068044 164022.29518162712 14750.000000000024
    vertex -19652.917069319512 164022.29518162712 14750.000000000024
    vertex 60347.08293068044 163022.29518162712 14750.00000000003
  endloop
endfacet
facet normal 2.4667584091793095e-19 0.7071067811865476 0.7071067811865476
  outer loop
    vertex -37652.91706931948 114022.29518162712 14750.00000000003
    vertex 78347.08293068071 115022.29518162712 13750.000000000033
    vertex -37652.91706931948 115022.29518162712 13750.000000000033
  endloop
endfacet
facet normal 2.4667584091793095e-19 0.7071067811865476 0.7071067811865476
  outer loop
    vertex 78347.08293068071 115022.29518162712 13750.000000000033
    vertex -37652.91706931948 114022.29518162712 14750.00000000003
    vertex 78347.08293068071 114022.29518162712 14750.00000000003
  endloop
endfacet
facet normal -1.033348951486821e-32 -1.1786308890322653e-16 1.0
  outer loop
    vertex 60347.08293068044 126022.29518162714 14750.00000000003
    vertex -19652.917069319512 133022.29518162712 14750.00000000003
    vertex -19652.917069319512 126022.29518162714 14750.00000000003
  endloop
endfacet
facet normal -1.033348951486821e-32 -1.1786308890322653e-16 1.0
  outer loop
    vertex -19652.917069319512 133022.29518162712 14750.00000000003
    vertex -37652.91706931953 134022.29518162712 14750.00000000003
    vertex -37652.91706931953 133022.29518162712 14750.00000000003
  endloop
endfacet
facet normal -1.033348951486821e-32 -1.1786308890322653e-16 1.0
  outer loop
    vertex -37652.91706931953 134022.29518162712 14750.00000000003
    vertex -19652.917069319512 133022.29518162712 14750.00000000003
    vertex 78347.08293068071 134022.29518162712 14750.00000000003
  endloop
endfacet
facet normal -1.033348951486821e-32 -1.1786308890322653e-16 1.0
  outer loop
    vertex 78347.08293068071 134022.29518162712 14750.00000000003
    vertex -19652.917069319512 133022.29518162712 14750.00000000003
    vertex 60347.08293068044 133022.29518162712 14750.00000000003
  endloop
endfacet
facet normal -1.033348951486821e-32 -1.1786308890322653e-16 1.0
  outer loop
    vertex 60347.08293068044 133022.29518162712 14750.00000000003
    vertex -19652.917069319512 133022.29518162712 14750.00000000003
    vertex 60347.08293068044 126022.29518162714 14750.00000000003
  endloop
endfacet
facet normal -1.033348951486821e-32 -1.1786308890322653e-16 1.0
  outer loop
    vertex 78347.08293068071 134022.29518162712 14750.00000000003
    vertex 60347.08293068044 133022.29518162712 14750.00000000003
    vertex 78347.08293068071 133022.29518162712 14750.00000000003
  endloop
endfacet
facet normal -0.6880915830092916 -0.7256238511734349 1.3796580618720071e-15
  outer loop
    vertex 20347.08293068049 21022.295181627138 7400.000000000009
    vertex 16128.901112498666 25022.29518162714 13750.00000000003
    vertex -37652.91706931953 76022.29518162712 7400.000000000021
  endloop
endfacet
facet normal -0.6880915830092916 -0.7256238511734349 1.3796580618720071e-15
  outer loop
    vertex 16128.901112498666 25022.29518162714 13750.00000000003
    vertex 20347.08293068049 21022.295181627138 7400.000000000009
    vertex 20347.08293068049 21022.295181627138 14750.000000000024
  endloop
endfacet
facet normal -0.6880915830092916 -0.7256238511734349 1.3796580618720071e-15
  outer loop
    vertex -37652.91706931953 76022.29518162712 7400.000000000021
    vertex 16128.901112498666 25022.29518162714 13750.00000000003
    vertex -36598.37161477408 75022.29518162712 13750.00000000002
  endloop
endfacet
facet normal -0.6880915830092916 -0.7256238511734349 1.3796580618720071e-15
  outer loop
    vertex -36598.37161477408 75022.29518162712 13750.00000000002
    vertex 16128.901112498666 25022.29518162714 13750.00000000003
    vertex -15507.462523864993 55022.29518162717 13750.000000000025
  endloop
endfacet
facet normal -0.6880915830092916 -0.7256238511734349 1.3796580618720071e-15
  outer loop
    vertex 16128.901112498666 25022.29518162714 13750.00000000003
    vertex 20347.08293068049 21022.295181627138 14750.000000000024
    vertex 17183.44656704412 24022.29518162714 14750.000000000027
  endloop
endfacet
facet normal -0.6880915830092916 -0.7256238511734349 1.3796580618720071e-15
  outer loop
    vertex 15074.355657953174 26022.295181627145 14750.00000000003
    vertex 5583.44656704413 35022.29518162714 13750.00000000003
    vertex 16128.901112498666 25022.29518162714 13750.00000000003
  endloop
endfacet
facet normal -0.6880915830092916 -0.7256238511734349 1.3796580618720071e-15
  outer loop
    vertex 5583.44656704413 35022.29518162714 13750.00000000003
    vertex 15074.355657953174 26022.295181627145 14750.00000000003
    vertex 6637.9920215895745 34022.295181627145 14750.00000000003
  endloop
endfacet
facet normal -0.6880915830092916 -0.7256238511734349 1.3796580618720071e-15
  outer loop
    vertex 4528.901112498663 36022.295181627145 14750.00000000003
    vertex -4962.007978410417 45022.295181627145 13750.00000000003
    vertex 5583.44656704413 35022.29518162714 13750.00000000003
  endloop
endfacet
facet normal -0.6880915830092916 -0.7256238511734349 1.3796580618720071e-15
  outer loop
    vertex -4962.007978410417 45022.295181627145 13750.00000000003
    vertex 4528.901112498663 36022.295181627145 14750.00000000003
    vertex -3907.462523864974 44022.29518162715 14750.00000000003
  endloop
endfacet
facet normal -0.6880915830092916 -0.7256238511734349 1.3796580618720071e-15
  outer loop
    vertex -15507.462523864993 55022.29518162717 13750.000000000025
    vertex -4962.007978410417 45022.295181627145 13750.00000000003
    vertex -14452.917069319556 54022.29518162716 14750.000000000027
  endloop
endfacet
facet normal -0.6880915830092916 -0.7256238511734349 1.3796580618720071e-15
  outer loop
    vertex -4962.007978410417 45022.295181627145 13750.00000000003
    vertex -15507.462523864993 55022.29518162717 13750.000000000025
    vertex 16128.901112498666 25022.29518162714 13750.00000000003
  endloop
endfacet
facet normal -0.6880915830092916 -0.7256238511734349 1.3796580618720071e-15
  outer loop
    vertex -4962.007978410417 45022.295181627145 13750.00000000003
    vertex 16128.901112498666 25022.29518162714 13750.00000000003
    vertex 5583.44656704413 35022.29518162714 13750.00000000003
  endloop
endfacet
facet normal -0.6880915830092916 -0.7256238511734349 1.3796580618720071e-15
  outer loop
    vertex -14452.917069319556 54022.29518162716 14750.000000000027
    vertex -4962.007978410417 45022.295181627145 13750.00000000003
    vertex -6016.553432955884 46022.295181627145 14750.00000000003
  endloop
endfacet
facet normal -0.6880915830092916 -0.7256238511734349 1.3796580618720071e-15
  outer loop
    vertex -16562.00797841046 56022.29518162716 14750.000000000027
    vertex -26052.917069319534 65022.29518162717 13750.00000000003
    vertex -15507.462523864993 55022.29518162717 13750.000000000025
  endloop
endfacet
facet normal -0.6880915830092916 -0.7256238511734349 1.3796580618720071e-15
  outer loop
    vertex -26052.917069319534 65022.29518162717 13750.00000000003
    vertex -16562.00797841046 56022.29518162716 14750.000000000027
    vertex -24998.371614774103 64022.29518162717 14750.000000000024
  endloop
endfacet
facet normal -0.6880915830092916 -0.7256238511734349 1.3796580618720071e-15
  outer loop
    vertex -36598.37161477408 75022.29518162712 13750.00000000002
    vertex -26052.917069319534 65022.29518162717 13750.00000000003
    vertex -35543.82616022862 74022.29518162712 14750.000000000022
  endloop
endfacet
facet normal -0.6880915830092916 -0.7256238511734349 1.3796580618720071e-15
  outer loop
    vertex -26052.917069319534 65022.29518162717 13750.00000000003
    vertex -36598.37161477408 75022.29518162712 13750.00000000002
    vertex -15507.462523864993 55022.29518162717 13750.000000000025
  endloop
endfacet
facet normal -0.6880915830092916 -0.7256238511734349 1.3796580618720071e-15
  outer loop
    vertex -35543.82616022862 74022.29518162712 14750.000000000022
    vertex -26052.917069319534 65022.29518162717 13750.00000000003
    vertex -27107.462523864786 66022.29518162715 14750.00000000003
  endloop
endfacet
facet normal -0.6880915830092916 -0.7256238511734349 1.3796580618720071e-15
  outer loop
    vertex -37652.91706931953 76022.29518162712 14750.000000000022
    vertex -37652.91706931953 76022.29518162712 7400.000000000021
    vertex -36598.37161477408 75022.29518162712 13750.00000000002
  endloop
endfacet
facet normal 2.41236474913436e-34 -0.7071067811865448 0.7071067811865502
  outer loop
    vertex 78347.08293068071 135022.2951816271 13750.000000000033
    vertex -37652.91706931953 136022.29518162712 14750.00000000003
    vertex -37652.91706931953 135022.2951816271 13750.000000000033
  endloop
endfacet
facet normal 2.41236474913436e-34 -0.7071067811865448 0.7071067811865502
  outer loop
    vertex -37652.91706931953 136022.29518162712 14750.00000000003
    vertex 78347.08293068071 135022.2951816271 13750.000000000033
    vertex 78347.08293068071 136022.29518162712 14750.00000000003
  endloop
endfacet
facet normal -1.1919192679879292e-32 -0.7071067811865448 0.7071067811865502
  outer loop
    vertex 60347.08293068044 125022.29518162714 13750.000000000033
    vertex -19652.917069319512 126022.29518162714 14750.00000000003
    vertex -19652.917069319512 125022.29518162714 13750.000000000033
  endloop
endfacet
facet normal -1.1919192679879292e-32 -0.7071067811865448 0.7071067811865502
  outer loop
    vertex -19652.917069319512 126022.29518162714 14750.00000000003
    vertex 60347.08293068044 125022.29518162714 13750.000000000033
    vertex 60347.08293068044 126022.29518162714 14750.00000000003
  endloop
endfacet
facet normal 5.186359555299374e-19 0.7071067811865452 0.7071067811865499
  outer loop
    vertex 60347.08293068044 104022.29518162714 14750.00000000003
    vertex -19652.917069319512 105022.29518162714 13750.000000000033
    vertex -19652.917069319512 104022.29518162714 14750.00000000003
  endloop
endfacet
facet normal 5.186359555299374e-19 0.7071067811865452 0.7071067811865499
  outer loop
    vertex -19652.917069319512 105022.29518162714 13750.000000000033
    vertex 60347.08293068044 104022.29518162714 14750.00000000003
    vertex 60347.08293068044 105022.29518162714 13750.000000000033
  endloop
endfacet
facet normal -1.1919192679879292e-32 0.7071067811865448 0.7071067811865502
  outer loop
    vertex 60347.08293068044 144022.29518162712 14750.00000000003
    vertex -19652.917069319512 145022.29518162712 13750.000000000033
    vertex -19652.917069319512 144022.29518162712 14750.00000000003
  endloop
endfacet
facet normal -1.1919192679879292e-32 0.7071067811865448 0.7071067811865502
  outer loop
    vertex -19652.917069319512 145022.29518162712 13750.000000000033
    vertex 60347.08293068044 144022.29518162712 14750.00000000003
    vertex 60347.08293068044 145022.29518162712 13750.000000000033
  endloop
endfacet
facet normal -1.1919192679879292e-32 0.7071067811865448 0.7071067811865502
  outer loop
    vertex 60347.08293068044 124022.29518162714 14750.00000000003
    vertex -19652.917069319512 125022.29518162714 13750.000000000033
    vertex -19652.917069319512 124022.29518162714 14750.00000000003
  endloop
endfacet
facet normal -1.1919192679879292e-32 0.7071067811865448 0.7071067811865502
  outer loop
    vertex -19652.917069319512 125022.29518162714 13750.000000000033
    vertex 60347.08293068044 124022.29518162714 14750.00000000003
    vertex 60347.08293068044 125022.29518162714 13750.000000000033
  endloop
endfacet
facet normal 5.186359555299971e-19 -0.7071067811865616 0.7071067811865336
  outer loop
    vertex 60347.08293068044 86022.29518162711 14750.00000000003
    vertex -19652.917069319512 85022.29518162715 13750.000000000033
    vertex 60347.08293068044 85022.29518162715 13750.000000000033
  endloop
endfacet
facet normal 5.186359555299971e-19 -0.7071067811865616 0.7071067811865336
  outer loop
    vertex -19652.917069319512 85022.29518162715 13750.000000000033
    vertex 60347.08293068044 86022.29518162711 14750.00000000003
    vertex -19652.917069319512 86022.29518162711 14750.00000000003
  endloop
endfacet
facet normal 1.0 -6.2067286019084376e-15 1.2894469922199577e-14
  outer loop
    vertex 78347.08293068071 103022.29518162712 7400.000000000021
    vertex 78347.08293068071 93022.29518162714 14750.00000000003
    vertex 78347.08293068071 93022.29518162714 7400.000000000021
  endloop
endfacet
facet normal 1.0 -6.2067286019084376e-15 1.2894469922199577e-14
  outer loop
    vertex 78347.08293068071 93022.29518162714 14750.00000000003
    vertex 78347.08293068071 103022.29518162712 7400.000000000021
    vertex 78347.08293068052 95022.29518162712 13750.000000000033
  endloop
endfacet
facet normal 1.0 -6.2067286019084376e-15 1.2894469922199577e-14
  outer loop
    vertex 78347.08293068071 93022.29518162714 14750.00000000003
    vertex 78347.08293068052 95022.29518162712 13750.000000000033
    vertex 78347.08293068052 94022.29518162712 14750.00000000003
  endloop
endfacet
facet normal 1.0 -6.2067286019084376e-15 1.2894469922199577e-14
  outer loop
    vertex 78347.08293068052 95022.29518162712 13750.000000000033
    vertex 78347.08293068071 103022.29518162712 7400.000000000021
    vertex 78347.08293068052 96022.29518162712 14750.00000000003
  endloop
endfacet
facet normal 1.0 -6.2067286019084376e-15 1.2894469922199577e-14
  outer loop
    vertex 78347.08293068052 96022.29518162712 14750.00000000003
    vertex 78347.08293068071 103022.29518162712 7400.000000000021
    vertex 78347.08293068071 103022.29518162712 14750.00000000003
  endloop
endfacet
facet normal -0.0 1.1550582712516146e-15 1.0
  outer loop
    vertex 60347.08293068044 166022.2951816271 14750.000000000024
    vertex -19652.917069319512 168522.29518162712 14750.000000000022
    vertex -19652.917069319512 166022.2951816271 14750.000000000024
  endloop
endfacet
facet normal -0.0 1.1550582712516146e-15 1.0
  outer loop
    vertex -19652.917069319512 168522.29518162712 14750.000000000022
    vertex 60347.08293068044 166022.2951816271 14750.000000000024
    vertex 20347.08293068049 168522.29518162712 14750.000000000022
  endloop
endfacet
facet normal -0.0 1.1550582712516146e-15 1.0
  outer loop
    vertex 20347.08293068049 168522.29518162712 14750.000000000022
    vertex 60347.08293068044 166022.2951816271 14750.000000000024
    vertex 60347.08293068044 168522.29518162712 14750.000000000022
  endloop
endfacet
facet normal 3.420075575652909e-33 2.5847296086363812e-17 -1.0
  outer loop
    vertex 20347.08293068049 168522.29518162712 7400.000000000021
    vertex -19652.917069319512 163022.29518162712 7400.000000000021
    vertex -19652.917069319512 168522.29518162712 7400.000000000021
  endloop
endfacet
facet normal 3.420075575652909e-33 2.5847296086363812e-17 -1.0
  outer loop
    vertex -19652.917069319512 163022.29518162712 7400.000000000021
    vertex 20347.08293068049 168522.29518162712 7400.000000000021
    vertex -19652.917069319512 153022.2951816271 7400.000000000021
  endloop
endfacet
facet normal 3.420075575652909e-33 2.5847296086363812e-17 -1.0
  outer loop
    vertex -19652.917069319512 153022.2951816271 7400.000000000021
    vertex 20347.08293068049 168522.29518162712 7400.000000000021
    vertex -19652.917069319512 143022.29518162712 7400.000000000021
  endloop
endfacet
facet normal 3.420075575652909e-33 2.5847296086363812e-17 -1.0
  outer loop
    vertex -19652.917069319512 143022.29518162712 7400.000000000021
    vertex 20347.08293068049 168522.29518162712 7400.000000000021
    vertex -19652.917069319512 133022.29518162712 7400.000000000021
  endloop
endfacet
facet normal 3.420075575652909e-33 2.5847296086363812e-17 -1.0
  outer loop
    vertex -19652.917069319512 133022.29518162712 7400.000000000021
    vertex 20347.08293068049 168522.29518162712 7400.000000000021
    vertex -19652.917069319512 123022.29518162714 7400.000000000021
  endloop
endfacet
facet normal 3.420075575652909e-33 2.5847296086363812e-17 -1.0
  outer loop
    vertex -19652.917069319512 123022.29518162714 7400.000000000021
    vertex 20347.08293068049 168522.29518162712 7400.000000000021
    vertex -19652.917069319512 113022.29518162712 7400.000000000021
  endloop
endfacet
facet normal 3.420075575652909e-33 2.5847296086363812e-17 -1.0
  outer loop
    vertex -19652.917069319512 113022.29518162712 7400.000000000021
    vertex 20347.08293068049 168522.29518162712 7400.000000000021
    vertex -19652.917069319512 103022.29518162712 7400.000000000021
  endloop
endfacet
facet normal 3.420075575652909e-33 2.5847296086363812e-17 -1.0
  outer loop
    vertex -19652.917069319512 103022.29518162712 7400.000000000021
    vertex 20347.08293068049 168522.29518162712 7400.000000000021
    vertex -19652.917069319512 93022.29518162714 7400.000000000021
  endloop
endfacet
facet normal 3.420075575652909e-33 2.5847296086363812e-17 -1.0
  outer loop
    vertex -19652.917069319512 93022.29518162714 7400.000000000021
    vertex 20347.08293068049 168522.29518162712 7400.000000000021
    vertex -19652.917069319512 83022.29518162715 7400.000000000021
  endloop
endfacet
facet normal 3.420075575652909e-33 2.5847296086363812e-17 -1.0
  outer loop
    vertex 78347.08293068071 163022.29518162712 7400.000000000021
    vertex 60347.08293068044 153022.2951816271 7400.000000000021
    vertex 60347.08293068044 163022.29518162712 7400.000000000021
  endloop
endfacet
facet normal 3.420075575652909e-33 2.5847296086363812e-17 -1.0
  outer loop
    vertex 60347.08293068044 153022.2951816271 7400.000000000021
    vertex 78347.08293068071 163022.29518162712 7400.000000000021
    vertex 78347.08293068071 153022.2951816271 7400.000000000021
  endloop
endfacet
facet normal 3.420075575652909e-33 2.5847296086363812e-17 -1.0
  outer loop
    vertex 78347.08293068071 143022.29518162712 7400.000000000021
    vertex 60347.08293068044 133022.29518162712 7400.000000000021
    vertex 60347.08293068044 143022.29518162712 7400.000000000021
  endloop
endfacet
facet normal 3.420075575652909e-33 2.5847296086363812e-17 -1.0
  outer loop
    vertex 60347.08293068044 133022.29518162712 7400.000000000021
    vertex 78347.08293068071 143022.29518162712 7400.000000000021
    vertex 78347.08293068071 133022.29518162712 7400.000000000021
  endloop
endfacet
facet normal 3.420075575652909e-33 2.5847296086363812e-17 -1.0
  outer loop
    vertex 78347.08293068071 123022.29518162714 7400.000000000021
    vertex 60347.08293068044 113022.29518162712 7400.000000000021
    vertex 60347.08293068044 123022.29518162714 7400.000000000021
  endloop
endfacet
facet normal 3.420075575652909e-33 2.5847296086363812e-17 -1.0
  outer loop
    vertex 60347.08293068044 113022.29518162712 7400.000000000021
    vertex 78347.08293068071 123022.29518162714 7400.000000000021
    vertex 78347.08293068071 113022.29518162712 7400.000000000021
  endloop
endfacet
facet normal 3.420075575652909e-33 2.5847296086363812e-17 -1.0
  outer loop
    vertex 78347.08293068071 103022.29518162712 7400.000000000021
    vertex 60347.08293068044 93022.29518162714 7400.000000000021
    vertex 60347.08293068044 103022.29518162712 7400.000000000021
  endloop
endfacet
facet normal 3.420075575652909e-33 2.5847296086363812e-17 -1.0
  outer loop
    vertex 60347.08293068044 93022.29518162714 7400.000000000021
    vertex 78347.08293068071 103022.29518162712 7400.000000000021
    vertex 78347.08293068071 93022.29518162714 7400.000000000021
  endloop
endfacet
facet normal 3.420075575652909e-33 2.5847296086363812e-17 -1.0
  outer loop
    vertex -19652.917069319512 83022.29518162715 7400.000000000021
    vertex -37652.91706931953 76022.29518162712 7400.000000000021
    vertex -37652.91706931953 83022.29518162715 7400.000000000021
  endloop
endfacet
facet normal 3.420075575652909e-33 2.5847296086363812e-17 -1.0
  outer loop
    vertex -37652.91706931953 76022.29518162712 7400.000000000021
    vertex -19652.917069319512 83022.29518162715 7400.000000000021
    vertex 20347.08293068049 21022.295181627138 7400.000000000009
  endloop
endfacet
facet normal 3.420075575652909e-33 2.5847296086363812e-17 -1.0
  outer loop
    vertex 20347.08293068049 21022.295181627138 7400.000000000009
    vertex -19652.917069319512 83022.29518162715 7400.000000000021
    vertex 20347.08293068049 168522.29518162712 7400.000000000021
  endloop
endfacet
facet normal 3.420075575652909e-33 2.5847296086363812e-17 -1.0
  outer loop
    vertex 20347.08293068049 21022.295181627138 7400.000000000009
    vertex 20347.08293068049 168522.29518162712 7400.000000000021
    vertex 60347.08293068044 168522.29518162712 7400.000000000021
  endloop
endfacet
facet normal 3.420075575652909e-33 2.5847296086363812e-17 -1.0
  outer loop
    vertex 20347.08293068049 21022.295181627138 7400.000000000009
    vertex 60347.08293068044 168522.29518162712 7400.000000000021
    vertex 60347.08293068044 83022.29518162715 7400.000000000021
  endloop
endfacet
facet normal 3.420075575652909e-33 2.5847296086363812e-17 -1.0
  outer loop
    vertex 20347.08293068049 21022.295181627138 7400.000000000009
    vertex 60347.08293068044 83022.29518162715 7400.000000000021
    vertex 78347.08293068071 76022.29518162712 7400.000000000021
  endloop
endfacet
facet normal 3.420075575652909e-33 2.5847296086363812e-17 -1.0
  outer loop
    vertex 60347.08293068044 83022.29518162715 7400.000000000021
    vertex 60347.08293068044 168522.29518162712 7400.000000000021
    vertex 60347.08293068044 163022.29518162712 7400.000000000021
  endloop
endfacet
facet normal 3.420075575652909e-33 2.5847296086363812e-17 -1.0
  outer loop
    vertex 60347.08293068044 83022.29518162715 7400.000000000021
    vertex 60347.08293068044 163022.29518162712 7400.000000000021
    vertex 60347.08293068044 153022.2951816271 7400.000000000021
  endloop
endfacet
facet normal 3.420075575652909e-33 2.5847296086363812e-17 -1.0
  outer loop
    vertex 60347.08293068044 83022.29518162715 7400.000000000021
    vertex 60347.08293068044 153022.2951816271 7400.000000000021
    vertex 60347.08293068044 143022.29518162712 7400.000000000021
  endloop
endfacet
facet normal 3.420075575652909e-33 2.5847296086363812e-17 -1.0
  outer loop
    vertex 60347.08293068044 83022.29518162715 7400.000000000021
    vertex 60347.08293068044 143022.29518162712 7400.000000000021
    vertex 60347.08293068044 133022.29518162712 7400.000000000021
  endloop
endfacet
facet normal 3.420075575652909e-33 2.5847296086363812e-17 -1.0
  outer loop
    vertex 60347.08293068044 83022.29518162715 7400.000000000021
    vertex 60347.08293068044 133022.29518162712 7400.000000000021
    vertex 60347.08293068044 123022.29518162714 7400.000000000021
  endloop
endfacet
facet normal 3.420075575652909e-33 2.5847296086363812e-17 -1.0
  outer loop
    vertex 60347.08293068044 83022.29518162715 7400.000000000021
    vertex 60347.08293068044 123022.29518162714 7400.000000000021
    vertex 60347.08293068044 113022.29518162712 7400.000000000021
  endloop
endfacet
facet normal 3.420075575652909e-33 2.5847296086363812e-17 -1.0
  outer loop
    vertex 60347.08293068044 83022.29518162715 7400.000000000021
    vertex 60347.08293068044 113022.29518162712 7400.000000000021
    vertex 60347.08293068044 103022.29518162712 7400.000000000021
  endloop
endfacet
facet normal 3.420075575652909e-33 2.5847296086363812e-17 -1.0
  outer loop
    vertex 60347.08293068044 83022.29518162715 7400.000000000021
    vertex 60347.08293068044 103022.29518162712 7400.000000000021
    vertex 60347.08293068044 93022.29518162714 7400.000000000021
  endloop
endfacet
facet normal 3.420075575652909e-33 2.5847296086363812e-17 -1.0
  outer loop
    vertex 78347.08293068071 76022.29518162712 7400.000000000021
    vertex 60347.08293068044 83022.29518162715 7400.000000000021
    vertex 78347.08293068071 83022.29518162715 7400.000000000021
  endloop
endfacet
facet normal 3.420075575652909e-33 2.5847296086363812e-17 -1.0
  outer loop
    vertex -19652.917069319512 103022.29518162712 7400.000000000021
    vertex -37652.91706931953 93022.29518162714 7400.000000000021
    vertex -37652.91706931953 103022.29518162712 7400.000000000021
  endloop
endfacet
facet normal 3.420075575652909e-33 2.5847296086363812e-17 -1.0
  outer loop
    vertex -37652.91706931953 93022.29518162714 7400.000000000021
    vertex -19652.917069319512 103022.29518162712 7400.000000000021
    vertex -19652.917069319512 93022.29518162714 7400.000000000021
  endloop
endfacet
facet normal 3.420075575652909e-33 2.5847296086363812e-17 -1.0
  outer loop
    vertex -19652.917069319512 123022.29518162714 7400.000000000021
    vertex -37652.91706931953 113022.29518162712 7400.000000000021
    vertex -37652.91706931953 123022.29518162714 7400.000000000021
  endloop
endfacet
facet normal 3.420075575652909e-33 2.5847296086363812e-17 -1.0
  outer loop
    vertex -37652.91706931953 113022.29518162712 7400.000000000021
    vertex -19652.917069319512 123022.29518162714 7400.000000000021
    vertex -19652.917069319512 113022.29518162712 7400.000000000021
  endloop
endfacet
facet normal 3.420075575652909e-33 2.5847296086363812e-17 -1.0
  outer loop
    vertex -19652.917069319512 143022.29518162712 7400.000000000021
    vertex -37652.91706931953 133022.29518162712 7400.000000000021
    vertex -37652.91706931953 143022.29518162712 7400.000000000021
  endloop
endfacet
facet normal 3.420075575652909e-33 2.5847296086363812e-17 -1.0
  outer loop
    vertex -37652.91706931953 133022.29518162712 7400.000000000021
    vertex -19652.917069319512 143022.29518162712 7400.000000000021
    vertex -19652.917069319512 133022.29518162712 7400.000000000021
  endloop
endfacet
facet normal 3.420075575652909e-33 2.5847296086363812e-17 -1.0
  outer loop
    vertex -19652.917069319512 163022.29518162712 7400.000000000021
    vertex -37652.91706931953 153022.2951816271 7400.000000000021
    vertex -37652.91706931953 163022.29518162712 7400.000000000021
  endloop
endfacet
facet normal 3.420075575652909e-33 2.5847296086363812e-17 -1.0
  outer loop
    vertex -37652.91706931953 153022.2951816271 7400.000000000021
    vertex -19652.917069319512 163022.29518162712 7400.000000000021
    vertex -19652.917069319512 153022.2951816271 7400.000000000021
  endloop
endfacet
facet normal 1.1820587270758354e-32 -0.7071067811865449 0.7071067811865501
  outer loop
    vertex 78347.08293068071 155022.29518162712 13750.000000000033
    vertex -37652.91706931958 156022.29518162712 14750.00000000003
    vertex -37652.91706931958 155022.29518162712 13750.000000000033
  endloop
endfacet
facet normal 1.1820587270758354e-32 -0.7071067811865449 0.7071067811865501
  outer loop
    vertex -37652.91706931958 156022.29518162712 14750.00000000003
    vertex 78347.08293068071 155022.29518162712 13750.000000000033
    vertex 78347.08293068071 156022.29518162712 14750.00000000003
  endloop
endfacet
facet normal -0.0 1.0 -0.0
  outer loop
    vertex -37652.91706931953 123022.29518162714 14750.00000000003
    vertex -19652.917069319512 123022.29518162714 7400.000000000021
    vertex -37652.91706931953 123022.29518162714 7400.000000000021
  endloop
endfacet
facet normal -0.0 1.0 -0.0
  outer loop
    vertex -19652.917069319512 123022.29518162714 7400.000000000021
    vertex -37652.91706931953 123022.29518162714 14750.00000000003
    vertex -19652.917069319512 123022.29518162714 14750.00000000003
  endloop
endfacet
facet normal -0.0 1.0 -0.0
  outer loop
    vertex 20347.08293068049 168522.29518162712 14750.000000000022
    vertex 60347.08293068044 168522.29518162712 7400.000000000021
    vertex 20347.08293068049 168522.29518162712 7400.000000000021
  endloop
endfacet
facet normal -0.0 1.0 -0.0
  outer loop
    vertex 60347.08293068044 168522.29518162712 7400.000000000021
    vertex 20347.08293068049 168522.29518162712 14750.000000000022
    vertex 60347.08293068044 168522.29518162712 14750.000000000022
  endloop
endfacet
facet normal 1.0 -0.0 -0.0
  outer loop
    vertex 60347.08293068044 113022.29518162712 7400.000000000021
    vertex 60347.08293068044 103022.29518162712 14750.00000000003
    vertex 60347.08293068044 103022.29518162712 7400.000000000021
  endloop
endfacet
facet normal 1.0 -0.0 -0.0
  outer loop
    vertex 60347.08293068044 103022.29518162712 14750.00000000003
    vertex 60347.08293068044 113022.29518162712 7400.000000000021
    vertex 60347.08293068044 105022.29518162714 13750.000000000033
  endloop
endfacet
facet normal 1.0 -0.0 -0.0
  outer loop
    vertex 60347.08293068044 103022.29518162712 14750.00000000003
    vertex 60347.08293068044 105022.29518162714 13750.000000000033
    vertex 60347.08293068044 104022.29518162714 14750.00000000003
  endloop
endfacet
facet normal 1.0 -0.0 -0.0
  outer loop
    vertex 60347.08293068044 105022.29518162714 13750.000000000033
    vertex 60347.08293068044 113022.29518162712 7400.000000000021
    vertex 60347.08293068044 106022.2951816271 14750.00000000003
  endloop
endfacet
facet normal 1.0 -0.0 -0.0
  outer loop
    vertex 60347.08293068044 106022.2951816271 14750.00000000003
    vertex 60347.08293068044 113022.29518162712 7400.000000000021
    vertex 60347.08293068044 113022.29518162712 14750.00000000003
  endloop
endfacet
facet normal 5.186359555299971e-19 -0.7071067811865616 0.7071067811865336
  outer loop
    vertex 60347.08293068044 106022.2951816271 14750.00000000003
    vertex -19652.917069319512 105022.29518162714 13750.000000000033
    vertex 60347.08293068044 105022.29518162714 13750.000000000033
  endloop
endfacet
facet normal 5.186359555299971e-19 -0.7071067811865616 0.7071067811865336
  outer loop
    vertex -19652.917069319512 105022.29518162714 13750.000000000033
    vertex 60347.08293068044 106022.2951816271 14750.00000000003
    vertex -19652.917069319512 106022.2951816271 14750.00000000003
  endloop
endfacet
facet normal -1.156601349103935e-16 0.707106781186547 0.707106781186548
  outer loop
    vertex 17183.44656704412 24022.29518162714 14750.000000000027
    vertex 24565.26474886232 25022.29518162714 13750.00000000003
    vertex 16128.901112498666 25022.29518162714 13750.00000000003
  endloop
endfacet
facet normal -1.156601349103935e-16 0.707106781186547 0.707106781186548
  outer loop
    vertex 24565.26474886232 25022.29518162714 13750.00000000003
    vertex 17183.44656704412 24022.29518162714 14750.000000000027
    vertex 23510.719294316874 24022.29518162714 14750.00000000003
  endloop
endfacet
facet normal -2.6360383584497885e-17 1.8047785488306507e-16 1.0
  outer loop
    vertex -6016.553432955884 46022.295181627145 14750.00000000003
    vertex 55147.08293068064 54022.29518162716 14750.00000000003
    vertex -14452.917069319556 54022.29518162716 14750.000000000027
  endloop
endfacet
facet normal -2.6360383584497885e-17 1.8047785488306507e-16 1.0
  outer loop
    vertex 55147.08293068064 54022.29518162716 14750.00000000003
    vertex -6016.553432955884 46022.295181627145 14750.00000000003
    vertex 46710.71929431695 46022.295181627145 14750.00000000003
  endloop
endfacet
facet normal -3.6704333205972775e-17 -0.7071067811865481 0.707106781186547
  outer loop
    vertex 78347.08293068071 76022.29518162712 14750.000000000033
    vertex -36598.37161477408 75022.29518162712 13750.00000000002
    vertex 77292.53747613521 75022.29518162712 13750.00000000002
  endloop
endfacet
facet normal -3.6704333205972775e-17 -0.7071067811865481 0.707106781186547
  outer loop
    vertex -36598.37161477408 75022.29518162712 13750.00000000002
    vertex 78347.08293068071 76022.29518162712 14750.000000000033
    vertex -37652.91706931953 76022.29518162712 14750.000000000022
  endloop
endfacet
facet normal 2.9120279465797633e-32 -0.7071067811865465 0.7071067811865486
  outer loop
    vertex 5583.44656704413 35022.29518162714 13750.00000000003
    vertex 36165.26474886234 36022.295181627145 14750.00000000003
    vertex 4528.901112498663 36022.295181627145 14750.00000000003
  endloop
endfacet
facet normal 2.9120279465797633e-32 -0.7071067811865465 0.7071067811865486
  outer loop
    vertex 36165.26474886234 36022.295181627145 14750.00000000003
    vertex 5583.44656704413 35022.29518162714 13750.00000000003
    vertex 35110.7192943169 35022.29518162714 13750.00000000003
  endloop
endfacet
facet normal -6.624077271043105e-17 0.7071067811865476 0.7071067811865476
  outer loop
    vertex -24998.371614774103 64022.29518162717 14750.000000000024
    vertex 66747.08293068068 65022.29518162717 13750.00000000003
    vertex -26052.917069319534 65022.29518162717 13750.00000000003
  endloop
endfacet
facet normal -6.624077271043105e-17 0.7071067811865476 0.7071067811865476
  outer loop
    vertex 66747.08293068068 65022.29518162717 13750.00000000003
    vertex -24998.371614774103 64022.29518162717 14750.000000000024
    vertex 65692.53747613524 64022.295181627174 14750.00000000003
  endloop
endfacet
facet normal -1.798686983252198e-17 0.7071067811865516 0.7071067811865435
  outer loop
    vertex -35543.82616022862 74022.29518162712 14750.000000000022
    vertex 77292.53747613521 75022.29518162712 13750.00000000002
    vertex -36598.37161477408 75022.29518162712 13750.00000000002
  endloop
endfacet
facet normal -1.798686983252198e-17 0.7071067811865516 0.7071067811865435
  outer loop
    vertex 77292.53747613521 75022.29518162712 13750.00000000002
    vertex -35543.82616022862 74022.29518162712 14750.000000000022
    vertex 76237.99202158979 74022.29518162712 14750.000000000027
  endloop
endfacet
facet normal -1.4292365259420677e-17 0.707106781186547 0.707106781186548
  outer loop
    vertex -14452.917069319556 54022.29518162716 14750.000000000027
    vertex 56201.62838522611 55022.29518162717 13750.000000000025
    vertex -15507.462523864993 55022.29518162717 13750.000000000025
  endloop
endfacet
facet normal -1.4292365259420677e-17 0.707106781186547 0.707106781186548
  outer loop
    vertex 56201.62838522611 55022.29518162717 13750.000000000025
    vertex -14452.917069319556 54022.29518162716 14750.000000000027
    vertex 55147.08293068064 54022.29518162716 14750.00000000003
  endloop
endfacet
facet normal -3.0022566988665654e-17 7.219114195322639e-16 1.0
  outer loop
    vertex -27107.462523864786 66022.29518162715 14750.00000000003
    vertex 76237.99202158979 74022.29518162712 14750.000000000027
    vertex -35543.82616022862 74022.29518162712 14750.000000000022
  endloop
endfacet
facet normal -3.0022566988665654e-17 7.219114195322639e-16 1.0
  outer loop
    vertex 76237.99202158979 74022.29518162712 14750.000000000027
    vertex -27107.462523864786 66022.29518162715 14750.00000000003
    vertex 67801.62838522615 66022.29518162715 14750.00000000003
  endloop
endfacet
facet normal -1.3791816525657971e-33 -0.7071067811865506 0.7071067811865446
  outer loop
    vertex 57256.17383977159 56022.29518162716 14750.000000000027
    vertex -15507.462523864993 55022.29518162717 13750.000000000025
    vertex 56201.62838522611 55022.29518162717 13750.000000000025
  endloop
endfacet
facet normal -1.3791816525657971e-33 -0.7071067811865506 0.7071067811865446
  outer loop
    vertex -15507.462523864993 55022.29518162717 13750.000000000025
    vertex 57256.17383977159 56022.29518162716 14750.000000000027
    vertex -16562.00797841046 56022.29518162716 14750.000000000027
  endloop
endfacet
facet normal 7.074483445075724e-32 -0.7071067811865506 0.7071067811865446
  outer loop
    vertex 67801.62838522615 66022.29518162715 14750.00000000003
    vertex -26052.917069319534 65022.29518162717 13750.00000000003
    vertex 66747.08293068068 65022.29518162717 13750.00000000003
  endloop
endfacet
facet normal 7.074483445075724e-32 -0.7071067811865506 0.7071067811865446
  outer loop
    vertex -26052.917069319534 65022.29518162717 13750.00000000003
    vertex 67801.62838522615 66022.29518162715 14750.00000000003
    vertex -27107.462523864786 66022.29518162715 14750.00000000003
  endloop
endfacet
facet normal -0.0 -0.0 1.0
  outer loop
    vertex 4528.901112498663 36022.295181627145 14750.00000000003
    vertex 44601.628385226046 44022.295181627145 14750.00000000003
    vertex -3907.462523864974 44022.29518162715 14750.00000000003
  endloop
endfacet
facet normal -0.0 -0.0 1.0
  outer loop
    vertex 44601.628385226046 44022.295181627145 14750.00000000003
    vertex 4528.901112498663 36022.295181627145 14750.00000000003
    vertex 36165.26474886234 36022.295181627145 14750.00000000003
  endloop
endfacet
facet normal 4.051734400597647e-17 0.7071067811865495 0.7071067811865456
  outer loop
    vertex -3907.462523864974 44022.29518162715 14750.00000000003
    vertex 45656.1738397715 45022.295181627145 13750.00000000003
    vertex -4962.007978410417 45022.295181627145 13750.00000000003
  endloop
endfacet
facet normal 4.051734400597647e-17 0.7071067811865495 0.7071067811865456
  outer loop
    vertex 45656.1738397715 45022.295181627145 13750.00000000003
    vertex -3907.462523864974 44022.29518162715 14750.00000000003
    vertex 44601.628385226046 44022.295181627145 14750.00000000003
  endloop
endfacet
facet normal 1.0221841353105853e-18 0.7071067811865486 0.7071067811865466
  outer loop
    vertex 6637.9920215895745 34022.295181627145 14750.00000000003
    vertex 35110.7192943169 35022.29518162714 13750.00000000003
    vertex 5583.44656704413 35022.29518162714 13750.00000000003
  endloop
endfacet
facet normal 1.0221841353105853e-18 0.7071067811865486 0.7071067811865466
  outer loop
    vertex 35110.7192943169 35022.29518162714 13750.00000000003
    vertex 6637.9920215895745 34022.295181627145 14750.00000000003
    vertex 34056.17383977146 34022.295181627145 14750.00000000003
  endloop
endfacet
facet normal -6.213109232112615e-19 -0.7071067811865466 0.7071067811865486
  outer loop
    vertex -4962.007978410417 45022.295181627145 13750.00000000003
    vertex 46710.71929431695 46022.295181627145 14750.00000000003
    vertex -6016.553432955884 46022.295181627145 14750.00000000003
  endloop
endfacet
facet normal -6.213109232112615e-19 -0.7071067811865466 0.7071067811865486
  outer loop
    vertex 46710.71929431695 46022.295181627145 14750.00000000003
    vertex -4962.007978410417 45022.295181627145 13750.00000000003
    vertex 45656.1738397715 45022.295181627145 13750.00000000003
  endloop
endfacet
facet normal -0.0 -0.0 1.0
  outer loop
    vertex 15074.355657953174 26022.295181627145 14750.00000000003
    vertex 34056.17383977146 34022.295181627145 14750.00000000003
    vertex 6637.9920215895745 34022.295181627145 14750.00000000003
  endloop
endfacet
facet normal -0.0 -0.0 1.0
  outer loop
    vertex 34056.17383977146 34022.295181627145 14750.00000000003
    vertex 15074.355657953174 26022.295181627145 14750.00000000003
    vertex 25619.810203407793 26022.295181627145 14750.00000000003
  endloop
endfacet
facet normal -4.563807824629223e-16 -1.4438228390645204e-15 1.0
  outer loop
    vertex 23510.719294316874 24022.29518162714 14750.00000000003
    vertex 17183.44656704412 24022.29518162714 14750.000000000027
    vertex 20347.08293068049 21022.295181627138 14750.000000000024
  endloop
endfacet
facet normal -0.0 -0.7071067811865476 0.7071067811865476
  outer loop
    vertex 25619.810203407793 26022.295181627145 14750.00000000003
    vertex 16128.901112498666 25022.29518162714 13750.00000000003
    vertex 24565.26474886232 25022.29518162714 13750.00000000003
  endloop
endfacet
facet normal -0.0 -0.7071067811865476 0.7071067811865476
  outer loop
    vertex 16128.901112498666 25022.29518162714 13750.00000000003
    vertex 25619.810203407793 26022.295181627145 14750.00000000003
    vertex 15074.355657953174 26022.295181627145 14750.00000000003
  endloop
endfacet
facet normal 0.6880915830092902 -0.7256238511734363 8.652092930383718e-16
  outer loop
    vertex 78347.08293068071 76022.29518162712 14750.000000000033
    vertex 77292.53747613521 75022.29518162712 13750.00000000002
    vertex 78347.08293068071 76022.29518162712 7400.000000000021
  endloop
endfacet
facet normal 0.6880915830092902 -0.7256238511734363 8.652092930383718e-16
  outer loop
    vertex 55147.08293068064 54022.29518162716 14750.00000000003
    vertex 45656.1738397715 45022.295181627145 13750.00000000003
    vertex 56201.62838522611 55022.29518162717 13750.000000000025
  endloop
endfacet
facet normal 0.6880915830092902 -0.7256238511734363 8.652092930383718e-16
  outer loop
    vertex 45656.1738397715 45022.295181627145 13750.00000000003
    vertex 55147.08293068064 54022.29518162716 14750.00000000003
    vertex 46710.71929431695 46022.295181627145 14750.00000000003
  endloop
endfacet
facet normal 0.6880915830092902 -0.7256238511734363 8.652092930383718e-16
  outer loop
    vertex 44601.628385226046 44022.295181627145 14750.00000000003
    vertex 35110.7192943169 35022.29518162714 13750.00000000003
    vertex 45656.1738397715 45022.295181627145 13750.00000000003
  endloop
endfacet
facet normal 0.6880915830092902 -0.7256238511734363 8.652092930383718e-16
  outer loop
    vertex 35110.7192943169 35022.29518162714 13750.00000000003
    vertex 44601.628385226046 44022.295181627145 14750.00000000003
    vertex 36165.26474886234 36022.295181627145 14750.00000000003
  endloop
endfacet
facet normal 0.6880915830092902 -0.7256238511734363 8.652092930383718e-16
  outer loop
    vertex 34056.17383977146 34022.295181627145 14750.00000000003
    vertex 24565.26474886232 25022.29518162714 13750.00000000003
    vertex 35110.7192943169 35022.29518162714 13750.00000000003
  endloop
endfacet
facet normal 0.6880915830092902 -0.7256238511734363 8.652092930383718e-16
  outer loop
    vertex 24565.26474886232 25022.29518162714 13750.00000000003
    vertex 34056.17383977146 34022.295181627145 14750.00000000003
    vertex 25619.810203407793 26022.295181627145 14750.00000000003
  endloop
endfacet
facet normal 0.6880915830092902 -0.7256238511734363 8.652092930383718e-16
  outer loop
    vertex 20347.08293068049 21022.295181627138 7400.000000000009
    vertex 24565.26474886232 25022.29518162714 13750.00000000003
    vertex 20347.08293068049 21022.295181627138 14750.000000000024
  endloop
endfacet
facet normal 0.6880915830092902 -0.7256238511734363 8.652092930383718e-16
  outer loop
    vertex 24565.26474886232 25022.29518162714 13750.00000000003
    vertex 20347.08293068049 21022.295181627138 7400.000000000009
    vertex 78347.08293068071 76022.29518162712 7400.000000000021
  endloop
endfacet
facet normal 0.6880915830092902 -0.7256238511734363 8.652092930383718e-16
  outer loop
    vertex 24565.26474886232 25022.29518162714 13750.00000000003
    vertex 78347.08293068071 76022.29518162712 7400.000000000021
    vertex 77292.53747613521 75022.29518162712 13750.00000000002
  endloop
endfacet
facet normal 0.6880915830092902 -0.7256238511734363 8.652092930383718e-16
  outer loop
    vertex 24565.26474886232 25022.29518162714 13750.00000000003
    vertex 77292.53747613521 75022.29518162712 13750.00000000002
    vertex 56201.62838522611 55022.29518162717 13750.000000000025
  endloop
endfacet
facet normal 0.6880915830092902 -0.7256238511734363 8.652092930383718e-16
  outer loop
    vertex 24565.26474886232 25022.29518162714 13750.00000000003
    vertex 56201.62838522611 55022.29518162717 13750.000000000025
    vertex 45656.1738397715 45022.295181627145 13750.00000000003
  endloop
endfacet
facet normal 0.6880915830092902 -0.7256238511734363 8.652092930383718e-16
  outer loop
    vertex 24565.26474886232 25022.29518162714 13750.00000000003
    vertex 45656.1738397715 45022.295181627145 13750.00000000003
    vertex 35110.7192943169 35022.29518162714 13750.00000000003
  endloop
endfacet
facet normal 0.6880915830092902 -0.7256238511734363 8.652092930383718e-16
  outer loop
    vertex 20347.08293068049 21022.295181627138 14750.000000000024
    vertex 24565.26474886232 25022.29518162714 13750.00000000003
    vertex 23510.719294316874 24022.29518162714 14750.00000000003
  endloop
endfacet
facet normal 0.6880915830092902 -0.7256238511734363 8.652092930383718e-16
  outer loop
    vertex 77292.53747613521 75022.29518162712 13750.00000000002
    vertex 66747.08293068068 65022.29518162717 13750.00000000003
    vertex 56201.62838522611 55022.29518162717 13750.000000000025
  endloop
endfacet
facet normal 0.6880915830092902 -0.7256238511734363 8.652092930383718e-16
  outer loop
    vertex 66747.08293068068 65022.29518162717 13750.00000000003
    vertex 77292.53747613521 75022.29518162712 13750.00000000002
    vertex 76237.99202158979 74022.29518162712 14750.000000000027
  endloop
endfacet
facet normal 0.6880915830092902 -0.7256238511734363 8.652092930383718e-16
  outer loop
    vertex 66747.08293068068 65022.29518162717 13750.00000000003
    vertex 76237.99202158979 74022.29518162712 14750.000000000027
    vertex 67801.62838522615 66022.29518162715 14750.00000000003
  endloop
endfacet
facet normal 0.6880915830092902 -0.7256238511734363 8.652092930383718e-16
  outer loop
    vertex 66747.08293068068 65022.29518162717 13750.00000000003
    vertex 57256.17383977159 56022.29518162716 14750.000000000027
    vertex 56201.62838522611 55022.29518162717 13750.000000000025
  endloop
endfacet
facet normal 0.6880915830092902 -0.7256238511734363 8.652092930383718e-16
  outer loop
    vertex 57256.17383977159 56022.29518162716 14750.000000000027
    vertex 66747.08293068068 65022.29518162717 13750.00000000003
    vertex 65692.53747613524 64022.295181627174 14750.00000000003
  endloop
endfacet
facet normal 0.0 -1.0 0.0
  outer loop
    vertex 78347.08293068071 153022.2951816271 14750.00000000003
    vertex 60347.08293068044 153022.2951816271 7400.000000000021
    vertex 78347.08293068071 153022.2951816271 7400.000000000021
  endloop
endfacet
facet normal 0.0 -1.0 0.0
  outer loop
    vertex 60347.08293068044 153022.2951816271 7400.000000000021
    vertex 78347.08293068071 153022.2951816271 14750.00000000003
    vertex 60347.08293068044 153022.2951816271 14750.00000000003
  endloop
endfacet
facet normal 0.0 -1.0 0.0
  outer loop
    vertex -19652.917069319512 133022.29518162712 14750.00000000003
    vertex -37652.91706931953 133022.29518162712 7400.000000000021
    vertex -19652.917069319512 133022.29518162712 7400.000000000021
  endloop
endfacet
facet normal 0.0 -1.0 0.0
  outer loop
    vertex -37652.91706931953 133022.29518162712 7400.000000000021
    vertex -19652.917069319512 133022.29518162712 14750.00000000003
    vertex -37652.91706931953 133022.29518162712 14750.00000000003
  endloop
endfacet
facet normal 1.0 -0.0 -0.0
  outer loop
    vertex 60347.08293068044 153022.2951816271 7400.000000000021
    vertex 60347.08293068044 143022.29518162712 14750.00000000003
    vertex 60347.08293068044 143022.29518162712 7400.000000000021
  endloop
endfacet
facet normal 1.0 -0.0 -0.0
  outer loop
    vertex 60347.08293068044 143022.29518162712 14750.00000000003
    vertex 60347.08293068044 153022.2951816271 7400.000000000021
    vertex 60347.08293068044 145022.29518162712 13750.000000000033
  endloop
endfacet
facet normal 1.0 -0.0 -0.0
  outer loop
    vertex 60347.08293068044 143022.29518162712 14750.00000000003
    vertex 60347.08293068044 145022.29518162712 13750.000000000033
    vertex 60347.08293068044 144022.29518162712 14750.00000000003
  endloop
endfacet
facet normal 1.0 -0.0 -0.0
  outer loop
    vertex 60347.08293068044 145022.29518162712 13750.000000000033
    vertex 60347.08293068044 153022.2951816271 7400.000000000021
    vertex 60347.08293068044 146022.29518162707 14750.00000000003
  endloop
endfacet
facet normal 1.0 -0.0 -0.0
  outer loop
    vertex 60347.08293068044 146022.29518162707 14750.00000000003
    vertex 60347.08293068044 153022.2951816271 7400.000000000021
    vertex 60347.08293068044 153022.2951816271 14750.00000000003
  endloop
endfacet
facet normal -0.0 1.0 -0.0
  outer loop
    vertex 60347.08293068044 103022.29518162712 14750.00000000003
    vertex 78347.08293068071 103022.29518162712 7400.000000000021
    vertex 60347.08293068044 103022.29518162712 7400.000000000021
  endloop
endfacet
facet normal -0.0 1.0 -0.0
  outer loop
    vertex 78347.08293068071 103022.29518162712 7400.000000000021
    vertex 60347.08293068044 103022.29518162712 14750.00000000003
    vertex 78347.08293068071 103022.29518162712 14750.00000000003
  endloop
endfacet
facet normal 1.0 -0.0 -0.0
  outer loop
    vertex 60347.08293068044 133022.29518162712 7400.000000000021
    vertex 60347.08293068044 123022.29518162714 14750.00000000003
    vertex 60347.08293068044 123022.29518162714 7400.000000000021
  endloop
endfacet
facet normal 1.0 -0.0 -0.0
  outer loop
    vertex 60347.08293068044 123022.29518162714 14750.00000000003
    vertex 60347.08293068044 133022.29518162712 7400.000000000021
    vertex 60347.08293068044 125022.29518162714 13750.000000000033
  endloop
endfacet
facet normal 1.0 -0.0 -0.0
  outer loop
    vertex 60347.08293068044 123022.29518162714 14750.00000000003
    vertex 60347.08293068044 125022.29518162714 13750.000000000033
    vertex 60347.08293068044 124022.29518162714 14750.00000000003
  endloop
endfacet
facet normal 1.0 -0.0 -0.0
  outer loop
    vertex 60347.08293068044 125022.29518162714 13750.000000000033
    vertex 60347.08293068044 133022.29518162712 7400.000000000021
    vertex 60347.08293068044 126022.29518162714 14750.00000000003
  endloop
endfacet
facet normal 1.0 -0.0 -0.0
  outer loop
    vertex 60347.08293068044 126022.29518162714 14750.00000000003
    vertex 60347.08293068044 133022.29518162712 7400.000000000021
    vertex 60347.08293068044 133022.29518162712 14750.00000000003
  endloop
endfacet
facet normal -1.0 0.0 0.0
  outer loop
    vertex -37652.91706931953 83022.29518162715 14750.000000000033
    vertex -37652.91706931953 76022.29518162712 7400.000000000021
    vertex -37652.91706931953 76022.29518162712 14750.000000000022
  endloop
endfacet
facet normal -1.0 0.0 0.0
  outer loop
    vertex -37652.91706931953 76022.29518162712 7400.000000000021
    vertex -37652.91706931953 83022.29518162715 14750.000000000033
    vertex -37652.91706931953 83022.29518162715 7400.000000000021
  endloop
endfacet
facet normal 1.0 -0.0 -0.0
  outer loop
    vertex 78347.08293068071 83022.29518162715 7400.000000000021
    vertex 78347.08293068071 76022.29518162712 14750.000000000033
    vertex 78347.08293068071 76022.29518162712 7400.000000000021
  endloop
endfacet
facet normal 1.0 -0.0 -0.0
  outer loop
    vertex 78347.08293068071 76022.29518162712 14750.000000000033
    vertex 78347.08293068071 83022.29518162715 7400.000000000021
    vertex 78347.08293068071 83022.29518162715 14750.000000000033
  endloop
endfacet
facet normal -0.0 1.0 -0.0
  outer loop
    vertex -19652.917069319512 168522.29518162712 14750.000000000022
    vertex 20347.08293068049 168522.29518162712 7400.000000000021
    vertex -19652.917069319512 168522.29518162712 7400.000000000021
  endloop
endfacet
facet normal -0.0 1.0 -0.0
  outer loop
    vertex 20347.08293068049 168522.29518162712 7400.000000000021
    vertex -19652.917069319512 168522.29518162712 14750.000000000022
    vertex 20347.08293068049 168522.29518162712 14750.000000000022
  endloop
endfacet
facet normal -0.0 1.0 -0.0
  outer loop
    vertex 60347.08293068044 143022.29518162712 14750.00000000003
    vertex 78347.08293068071 143022.29518162712 7400.000000000021
    vertex 60347.08293068044 143022.29518162712 7400.000000000021
  endloop
endfacet
facet normal -0.0 1.0 -0.0
  outer loop
    vertex 78347.08293068071 143022.29518162712 7400.000000000021
    vertex 60347.08293068044 143022.29518162712 14750.00000000003
    vertex 78347.08293068071 143022.29518162712 14750.00000000003
  endloop
endfacet
facet normal 1.0 -0.0 -0.0
  outer loop
    vertex 60347.08293068044 93022.29518162714 7400.000000000021
    vertex 60347.08293068044 83022.29518162715 14750.000000000033
    vertex 60347.08293068044 83022.29518162715 7400.000000000021
  endloop
endfacet
facet normal 1.0 -0.0 -0.0
  outer loop
    vertex 60347.08293068044 83022.29518162715 14750.000000000033
    vertex 60347.08293068044 93022.29518162714 7400.000000000021
    vertex 60347.08293068044 85022.29518162715 13750.000000000033
  endloop
endfacet
facet normal 1.0 -0.0 -0.0
  outer loop
    vertex 60347.08293068044 83022.29518162715 14750.000000000033
    vertex 60347.08293068044 85022.29518162715 13750.000000000033
    vertex 60347.08293068044 84022.29518162715 14750.00000000003
  endloop
endfacet
facet normal 1.0 -0.0 -0.0
  outer loop
    vertex 60347.08293068044 85022.29518162715 13750.000000000033
    vertex 60347.08293068044 93022.29518162714 7400.000000000021
    vertex 60347.08293068044 86022.29518162711 14750.00000000003
  endloop
endfacet
facet normal 1.0 -0.0 -0.0
  outer loop
    vertex 60347.08293068044 86022.29518162711 14750.00000000003
    vertex 60347.08293068044 93022.29518162714 7400.000000000021
    vertex 60347.08293068044 93022.29518162714 14750.00000000003
  endloop
endfacet
facet normal 0.0 -1.0 0.0
  outer loop
    vertex -19652.917069319512 153022.2951816271 14750.00000000003
    vertex -37652.91706931953 153022.2951816271 7400.000000000021
    vertex -19652.917069319512 153022.2951816271 7400.000000000021
  endloop
endfacet
facet normal 0.0 -1.0 0.0
  outer loop
    vertex -37652.91706931953 153022.2951816271 7400.000000000021
    vertex -19652.917069319512 153022.2951816271 14750.00000000003
    vertex -37652.91706931953 153022.2951816271 14750.00000000003
  endloop
endfacet
facet normal 0.0 -1.0 0.0
  outer loop
    vertex -19652.917069319512 93022.29518162714 14750.00000000003
    vertex -37652.91706931953 93022.29518162714 7400.000000000021
    vertex -19652.917069319512 93022.29518162714 7400.000000000021
  endloop
endfacet
facet normal 0.0 -1.0 0.0
  outer loop
    vertex -37652.91706931953 93022.29518162714 7400.000000000021
    vertex -19652.917069319512 93022.29518162714 14750.00000000003
    vertex -37652.91706931953 93022.29518162714 14750.00000000003
  endloop
endfacet
facet normal -1.0 0.0 0.0
  outer loop
    vertex -19652.917069319512 164022.29518162712 14750.000000000024
    vertex -19652.917069319512 163022.29518162712 7400.000000000021
    vertex -19652.917069319512 163022.29518162712 14750.00000000003
  endloop
endfacet
facet normal -1.0 0.0 0.0
  outer loop
    vertex -19652.917069319512 163022.29518162712 7400.000000000021
    vertex -19652.917069319512 164022.29518162712 14750.000000000024
    vertex -19652.917069319512 168522.29518162712 7400.000000000021
  endloop
endfacet
facet normal -1.0 0.0 0.0
  outer loop
    vertex -19652.917069319512 168522.29518162712 7400.000000000021
    vertex -19652.917069319512 164022.29518162712 14750.000000000024
    vertex -19652.917069319512 165022.29518162712 13750.000000000025
  endloop
endfacet
facet normal -1.0 0.0 0.0
  outer loop
    vertex -19652.917069319512 168522.29518162712 7400.000000000021
    vertex -19652.917069319512 165022.29518162712 13750.000000000025
    vertex -19652.917069319512 166022.2951816271 14750.000000000024
  endloop
endfacet
facet normal -1.0 0.0 0.0
  outer loop
    vertex -19652.917069319512 168522.29518162712 7400.000000000021
    vertex -19652.917069319512 166022.2951816271 14750.000000000024
    vertex -19652.917069319512 168522.29518162712 14750.000000000022
  endloop
endfacet
facet normal 0.0 -1.0 0.0
  outer loop
    vertex -19652.917069319512 113022.29518162712 14750.00000000003
    vertex -37652.91706931953 113022.29518162712 7400.000000000021
    vertex -19652.917069319512 113022.29518162712 7400.000000000021
  endloop
endfacet
facet normal 0.0 -1.0 0.0
  outer loop
    vertex -37652.91706931953 113022.29518162712 7400.000000000021
    vertex -19652.917069319512 113022.29518162712 14750.00000000003
    vertex -37652.91706931953 113022.29518162712 14750.00000000003
  endloop
endfacet
facet normal -1.0 0.0 0.0
  outer loop
    vertex -37652.91706931953 134022.29518162712 14750.00000000003
    vertex -37652.91706931953 133022.29518162712 7400.000000000021
    vertex -37652.91706931953 133022.29518162712 14750.00000000003
  endloop
endfacet
facet normal -1.0 0.0 0.0
  outer loop
    vertex -37652.91706931953 133022.29518162712 7400.000000000021
    vertex -37652.91706931953 134022.29518162712 14750.00000000003
    vertex -37652.91706931953 135022.2951816271 13750.000000000033
  endloop
endfacet
facet normal -1.0 0.0 0.0
  outer loop
    vertex -37652.91706931953 133022.29518162712 7400.000000000021
    vertex -37652.91706931953 135022.2951816271 13750.000000000033
    vertex -37652.91706931953 143022.29518162712 7400.000000000021
  endloop
endfacet
facet normal -1.0 0.0 0.0
  outer loop
    vertex -37652.91706931953 143022.29518162712 7400.000000000021
    vertex -37652.91706931953 135022.2951816271 13750.000000000033
    vertex -37652.91706931953 136022.29518162712 14750.00000000003
  endloop
endfacet
facet normal -1.0 0.0 0.0
  outer loop
    vertex -37652.91706931953 143022.29518162712 7400.000000000021
    vertex -37652.91706931953 136022.29518162712 14750.00000000003
    vertex -37652.91706931953 143022.29518162712 14750.00000000003
  endloop
endfacet
facet normal -0.0 1.0 -0.0
  outer loop
    vertex -37652.91706931953 103022.29518162712 14750.00000000003
    vertex -19652.917069319512 103022.29518162712 7400.000000000021
    vertex -37652.91706931953 103022.29518162712 7400.000000000021
  endloop
endfacet
facet normal -0.0 1.0 -0.0
  outer loop
    vertex -19652.917069319512 103022.29518162712 7400.000000000021
    vertex -37652.91706931953 103022.29518162712 14750.00000000003
    vertex -19652.917069319512 103022.29518162712 14750.00000000003
  endloop
endfacet
facet normal 0.0 -1.0 0.0
  outer loop
    vertex 78347.08293068071 113022.29518162712 14750.00000000003
    vertex 60347.08293068044 113022.29518162712 7400.000000000021
    vertex 78347.08293068071 113022.29518162712 7400.000000000021
  endloop
endfacet
facet normal 0.0 -1.0 0.0
  outer loop
    vertex 60347.08293068044 113022.29518162712 7400.000000000021
    vertex 78347.08293068071 113022.29518162712 14750.00000000003
    vertex 60347.08293068044 113022.29518162712 14750.00000000003
  endloop
endfacet
facet normal -0.0 1.0 -0.0
  outer loop
    vertex -37652.91706931953 143022.29518162712 14750.00000000003
    vertex -19652.917069319512 143022.29518162712 7400.000000000021
    vertex -37652.91706931953 143022.29518162712 7400.000000000021
  endloop
endfacet
facet normal -0.0 1.0 -0.0
  outer loop
    vertex -19652.917069319512 143022.29518162712 7400.000000000021
    vertex -37652.91706931953 143022.29518162712 14750.00000000003
    vertex -19652.917069319512 143022.29518162712 14750.00000000003
  endloop
endfacet
facet normal 1.0 -0.0 -0.0
  outer loop
    vertex 78347.08293068071 123022.29518162714 7400.000000000021
    vertex 78347.08293068071 113022.29518162712 14750.00000000003
    vertex 78347.08293068071 113022.29518162712 7400.000000000021
  endloop
endfacet
facet normal 1.0 -0.0 -0.0
  outer loop
    vertex 78347.08293068071 113022.29518162712 14750.00000000003
    vertex 78347.08293068071 123022.29518162714 7400.000000000021
    vertex 78347.08293068071 115022.29518162712 13750.000000000033
  endloop
endfacet
facet normal 1.0 -0.0 -0.0
  outer loop
    vertex 78347.08293068071 113022.29518162712 14750.00000000003
    vertex 78347.08293068071 115022.29518162712 13750.000000000033
    vertex 78347.08293068071 114022.29518162712 14750.00000000003
  endloop
endfacet
facet normal 1.0 -0.0 -0.0
  outer loop
    vertex 78347.08293068071 115022.29518162712 13750.000000000033
    vertex 78347.08293068071 123022.29518162714 7400.000000000021
    vertex 78347.08293068071 116022.29518162714 14750.00000000003
  endloop
endfacet
facet normal 1.0 -0.0 -0.0
  outer loop
    vertex 78347.08293068071 116022.29518162714 14750.00000000003
    vertex 78347.08293068071 123022.29518162714 7400.000000000021
    vertex 78347.08293068071 123022.29518162714 14750.00000000003
  endloop
endfacet
facet normal 0.0 -1.0 0.0
  outer loop
    vertex 78347.08293068071 133022.29518162712 14750.00000000003
    vertex 60347.08293068044 133022.29518162712 7400.000000000021
    vertex 78347.08293068071 133022.29518162712 7400.000000000021
  endloop
endfacet
facet normal 0.0 -1.0 0.0
  outer loop
    vertex 60347.08293068044 133022.29518162712 7400.000000000021
    vertex 78347.08293068071 133022.29518162712 14750.00000000003
    vertex 60347.08293068044 133022.29518162712 14750.00000000003
  endloop
endfacet
facet normal -1.0 0.0 0.0
  outer loop
    vertex -19652.917069319512 104022.29518162714 14750.00000000003
    vertex -19652.917069319512 103022.29518162712 7400.000000000021
    vertex -19652.917069319512 103022.29518162712 14750.00000000003
  endloop
endfacet
facet normal -1.0 0.0 0.0
  outer loop
    vertex -19652.917069319512 103022.29518162712 7400.000000000021
    vertex -19652.917069319512 104022.29518162714 14750.00000000003
    vertex -19652.917069319512 105022.29518162714 13750.000000000033
  endloop
endfacet
facet normal -1.0 0.0 0.0
  outer loop
    vertex -19652.917069319512 103022.29518162712 7400.000000000021
    vertex -19652.917069319512 105022.29518162714 13750.000000000033
    vertex -19652.917069319512 113022.29518162712 7400.000000000021
  endloop
endfacet
facet normal -1.0 0.0 0.0
  outer loop
    vertex -19652.917069319512 113022.29518162712 7400.000000000021
    vertex -19652.917069319512 105022.29518162714 13750.000000000033
    vertex -19652.917069319512 106022.2951816271 14750.00000000003
  endloop
endfacet
facet normal -1.0 0.0 0.0
  outer loop
    vertex -19652.917069319512 113022.29518162712 7400.000000000021
    vertex -19652.917069319512 106022.2951816271 14750.00000000003
    vertex -19652.917069319512 113022.29518162712 14750.00000000003
  endloop
endfacet
facet normal 0.0 -1.0 0.0
  outer loop
    vertex 78347.08293068071 93022.29518162714 14750.00000000003
    vertex 60347.08293068044 93022.29518162714 7400.000000000021
    vertex 78347.08293068071 93022.29518162714 7400.000000000021
  endloop
endfacet
facet normal 0.0 -1.0 0.0
  outer loop
    vertex 60347.08293068044 93022.29518162714 7400.000000000021
    vertex 78347.08293068071 93022.29518162714 14750.00000000003
    vertex 60347.08293068044 93022.29518162714 14750.00000000003
  endloop
endfacet
facet normal -1.0 0.0 0.0
  outer loop
    vertex -19652.917069319512 84022.29518162715 14750.00000000003
    vertex -19652.917069319512 83022.29518162715 7400.000000000021
    vertex -19652.917069319512 83022.29518162715 14750.000000000033
  endloop
endfacet
facet normal -1.0 0.0 0.0
  outer loop
    vertex -19652.917069319512 83022.29518162715 7400.000000000021
    vertex -19652.917069319512 84022.29518162715 14750.00000000003
    vertex -19652.917069319512 85022.29518162715 13750.000000000033
  endloop
endfacet
facet normal -1.0 0.0 0.0
  outer loop
    vertex -19652.917069319512 83022.29518162715 7400.000000000021
    vertex -19652.917069319512 85022.29518162715 13750.000000000033
    vertex -19652.917069319512 93022.29518162714 7400.000000000021
  endloop
endfacet
facet normal -1.0 0.0 0.0
  outer loop
    vertex -19652.917069319512 93022.29518162714 7400.000000000021
    vertex -19652.917069319512 85022.29518162715 13750.000000000033
    vertex -19652.917069319512 86022.29518162711 14750.00000000003
  endloop
endfacet
facet normal -1.0 0.0 0.0
  outer loop
    vertex -19652.917069319512 93022.29518162714 7400.000000000021
    vertex -19652.917069319512 86022.29518162711 14750.00000000003
    vertex -19652.917069319512 93022.29518162714 14750.00000000003
  endloop
endfacet
facet normal -1.0 1.551682150477098e-15 -3.223617480549896e-15
  outer loop
    vertex -37652.91706931958 154022.2951816271 14750.00000000003
    vertex -37652.91706931953 153022.2951816271 7400.000000000021
    vertex -37652.91706931953 153022.2951816271 14750.00000000003
  endloop
endfacet
facet normal -1.0 1.551682150477098e-15 -3.223617480549896e-15
  outer loop
    vertex -37652.91706931953 153022.2951816271 7400.000000000021
    vertex -37652.91706931958 154022.2951816271 14750.00000000003
    vertex -37652.91706931958 155022.29518162712 13750.000000000033
  endloop
endfacet
facet normal -1.0 1.551682150477098e-15 -3.223617480549896e-15
  outer loop
    vertex -37652.91706931953 153022.2951816271 7400.000000000021
    vertex -37652.91706931958 155022.29518162712 13750.000000000033
    vertex -37652.91706931953 163022.29518162712 7400.000000000021
  endloop
endfacet
facet normal -1.0 1.551682150477098e-15 -3.223617480549896e-15
  outer loop
    vertex -37652.91706931953 163022.29518162712 7400.000000000021
    vertex -37652.91706931958 155022.29518162712 13750.000000000033
    vertex -37652.91706931958 156022.29518162712 14750.00000000003
  endloop
endfacet
facet normal -1.0 1.551682150477098e-15 -3.223617480549896e-15
  outer loop
    vertex -37652.91706931953 163022.29518162712 7400.000000000021
    vertex -37652.91706931958 156022.29518162712 14750.00000000003
    vertex -37652.91706931953 163022.29518162712 14750.00000000003
  endloop
endfacet
facet normal 1.0 -0.0 -0.0
  outer loop
    vertex 78347.08293068071 143022.29518162712 7400.000000000021
    vertex 78347.08293068071 133022.29518162712 14750.00000000003
    vertex 78347.08293068071 133022.29518162712 7400.000000000021
  endloop
endfacet
facet normal 1.0 -0.0 -0.0
  outer loop
    vertex 78347.08293068071 133022.29518162712 14750.00000000003
    vertex 78347.08293068071 143022.29518162712 7400.000000000021
    vertex 78347.08293068071 135022.2951816271 13750.000000000033
  endloop
endfacet
facet normal 1.0 -0.0 -0.0
  outer loop
    vertex 78347.08293068071 133022.29518162712 14750.00000000003
    vertex 78347.08293068071 135022.2951816271 13750.000000000033
    vertex 78347.08293068071 134022.29518162712 14750.00000000003
  endloop
endfacet
facet normal 1.0 -0.0 -0.0
  outer loop
    vertex 78347.08293068071 135022.2951816271 13750.000000000033
    vertex 78347.08293068071 143022.29518162712 7400.000000000021
    vertex 78347.08293068071 136022.29518162712 14750.00000000003
  endloop
endfacet
facet normal 1.0 -0.0 -0.0
  outer loop
    vertex 78347.08293068071 136022.29518162712 14750.00000000003
    vertex 78347.08293068071 143022.29518162712 7400.000000000021
    vertex 78347.08293068071 143022.29518162712 14750.00000000003
  endloop
endfacet
facet normal -0.0 1.0 -0.0
  outer loop
    vertex -37652.91706931953 163022.29518162712 14750.00000000003
    vertex -19652.917069319512 163022.29518162712 7400.000000000021
    vertex -37652.91706931953 163022.29518162712 7400.000000000021
  endloop
endfacet
facet normal -0.0 1.0 -0.0
  outer loop
    vertex -19652.917069319512 163022.29518162712 7400.000000000021
    vertex -37652.91706931953 163022.29518162712 14750.00000000003
    vertex -19652.917069319512 163022.29518162712 14750.00000000003
  endloop
endfacet
facet normal -1.0 0.0 0.0
  outer loop
    vertex -37652.91706931953 94022.29518162712 14750.00000000003
    vertex -37652.91706931953 93022.29518162714 7400.000000000021
    vertex -37652.91706931953 93022.29518162714 14750.00000000003
  endloop
endfacet
facet normal -1.0 0.0 0.0
  outer loop
    vertex -37652.91706931953 93022.29518162714 7400.000000000021
    vertex -37652.91706931953 94022.29518162712 14750.00000000003
    vertex -37652.91706931953 95022.29518162712 13750.000000000033
  endloop
endfacet
facet normal -1.0 0.0 0.0
  outer loop
    vertex -37652.91706931953 93022.29518162714 7400.000000000021
    vertex -37652.91706931953 95022.29518162712 13750.000000000033
    vertex -37652.91706931953 103022.29518162712 7400.000000000021
  endloop
endfacet
facet normal -1.0 0.0 0.0
  outer loop
    vertex -37652.91706931953 103022.29518162712 7400.000000000021
    vertex -37652.91706931953 95022.29518162712 13750.000000000033
    vertex -37652.91706931953 96022.29518162712 14750.00000000003
  endloop
endfacet
facet normal -1.0 0.0 0.0
  outer loop
    vertex -37652.91706931953 103022.29518162712 7400.000000000021
    vertex -37652.91706931953 96022.29518162712 14750.00000000003
    vertex -37652.91706931953 103022.29518162712 14750.00000000003
  endloop
endfacet
facet normal -1.0 0.0 0.0
  outer loop
    vertex -19652.917069319512 144022.29518162712 14750.00000000003
    vertex -19652.917069319512 143022.29518162712 7400.000000000021
    vertex -19652.917069319512 143022.29518162712 14750.00000000003
  endloop
endfacet
facet normal -1.0 0.0 0.0
  outer loop
    vertex -19652.917069319512 143022.29518162712 7400.000000000021
    vertex -19652.917069319512 144022.29518162712 14750.00000000003
    vertex -19652.917069319512 145022.29518162712 13750.000000000033
  endloop
endfacet
facet normal -1.0 0.0 0.0
  outer loop
    vertex -19652.917069319512 143022.29518162712 7400.000000000021
    vertex -19652.917069319512 145022.29518162712 13750.000000000033
    vertex -19652.917069319512 153022.2951816271 7400.000000000021
  endloop
endfacet
facet normal -1.0 0.0 0.0
  outer loop
    vertex -19652.917069319512 153022.2951816271 7400.000000000021
    vertex -19652.917069319512 145022.29518162712 13750.000000000033
    vertex -19652.917069319512 146022.29518162707 14750.00000000003
  endloop
endfacet
facet normal -1.0 0.0 0.0
  outer loop
    vertex -19652.917069319512 153022.2951816271 7400.000000000021
    vertex -19652.917069319512 146022.29518162707 14750.00000000003
    vertex -19652.917069319512 153022.2951816271 14750.00000000003
  endloop
endfacet
facet normal -0.0 1.0 -0.0
  outer loop
    vertex 60347.08293068044 83022.29518162715 14750.000000000033
    vertex 78347.08293068071 83022.29518162715 7400.000000000021
    vertex 60347.08293068044 83022.29518162715 7400.000000000021
  endloop
endfacet
facet normal -0.0 1.0 -0.0
  outer loop
    vertex 78347.08293068071 83022.29518162715 7400.000000000021
    vertex 60347.08293068044 83022.29518162715 14750.000000000033
    vertex 78347.08293068071 83022.29518162715 14750.000000000033
  endloop
endfacet
facet normal -0.0 1.0 -0.0
  outer loop
    vertex 60347.08293068044 123022.29518162714 14750.00000000003
    vertex 78347.08293068071 123022.29518162714 7400.000000000021
    vertex 60347.08293068044 123022.29518162714 7400.000000000021
  endloop
endfacet
facet normal -0.0 1.0 -0.0
  outer loop
    vertex 78347.08293068071 123022.29518162714 7400.000000000021
    vertex 60347.08293068044 123022.29518162714 14750.00000000003
    vertex 78347.08293068071 123022.29518162714 14750.00000000003
  endloop
endfacet
facet normal 1.0 -0.0 -0.0
  outer loop
    vertex 60347.08293068044 168522.29518162712 7400.000000000021
    vertex 60347.08293068044 163022.29518162712 14750.00000000003
    vertex 60347.08293068044 163022.29518162712 7400.000000000021
  endloop
endfacet
facet normal 1.0 -0.0 -0.0
  outer loop
    vertex 60347.08293068044 163022.29518162712 14750.00000000003
    vertex 60347.08293068044 168522.29518162712 7400.000000000021
    vertex 60347.08293068044 164022.29518162712 14750.000000000024
  endloop
endfacet
facet normal 1.0 -0.0 -0.0
  outer loop
    vertex 60347.08293068044 164022.29518162712 14750.000000000024
    vertex 60347.08293068044 168522.29518162712 7400.000000000021
    vertex 60347.08293068044 165022.29518162712 13750.000000000025
  endloop
endfacet
facet normal 1.0 -0.0 -0.0
  outer loop
    vertex 60347.08293068044 165022.29518162712 13750.000000000025
    vertex 60347.08293068044 168522.29518162712 7400.000000000021
    vertex 60347.08293068044 166022.2951816271 14750.000000000024
  endloop
endfacet
facet normal 1.0 -0.0 -0.0
  outer loop
    vertex 60347.08293068044 166022.2951816271 14750.000000000024
    vertex 60347.08293068044 168522.29518162712 7400.000000000021
    vertex 60347.08293068044 168522.29518162712 14750.000000000022
  endloop
endfacet
facet normal 1.0 -0.0 -0.0
  outer loop
    vertex 78347.08293068071 163022.29518162712 7400.000000000021
    vertex 78347.08293068071 153022.2951816271 14750.00000000003
    vertex 78347.08293068071 153022.2951816271 7400.000000000021
  endloop
endfacet
facet normal 1.0 -0.0 -0.0
  outer loop
    vertex 78347.08293068071 153022.2951816271 14750.00000000003
    vertex 78347.08293068071 163022.29518162712 7400.000000000021
    vertex 78347.08293068071 155022.29518162712 13750.000000000033
  endloop
endfacet
facet normal 1.0 -0.0 -0.0
  outer loop
    vertex 78347.08293068071 153022.2951816271 14750.00000000003
    vertex 78347.08293068071 155022.29518162712 13750.000000000033
    vertex 78347.08293068071 154022.2951816271 14750.00000000003
  endloop
endfacet
facet normal 1.0 -0.0 -0.0
  outer loop
    vertex 78347.08293068071 155022.29518162712 13750.000000000033
    vertex 78347.08293068071 163022.29518162712 7400.000000000021
    vertex 78347.08293068071 156022.29518162712 14750.00000000003
  endloop
endfacet
facet normal 1.0 -0.0 -0.0
  outer loop
    vertex 78347.08293068071 156022.29518162712 14750.00000000003
    vertex 78347.08293068071 163022.29518162712 7400.000000000021
    vertex 78347.08293068071 163022.29518162712 14750.00000000003
  endloop
endfacet
facet normal -3.8303917330980504e-17 -1.8402248285829185e-31 1.0
  outer loop
    vertex -16562.00797841046 56022.29518162716 14750.000000000027
    vertex 65692.53747613524 64022.295181627174 14750.00000000003
    vertex -24998.371614774103 64022.29518162717 14750.000000000024
  endloop
endfacet
facet normal -3.8303917330980504e-17 -1.8402248285829185e-31 1.0
  outer loop
    vertex 65692.53747613524 64022.295181627174 14750.00000000003
    vertex -16562.00797841046 56022.29518162716 14750.000000000027
    vertex 57256.17383977159 56022.29518162716 14750.000000000027
  endloop
endfacet
endsolid SideWalls
