solid Rummikub!
facet normal -0.0 1.0 -0.0
  outer loop
    vertex 192169.55864304624 167930.1621351784 3749.9999999999995
    vertex 231329.5586430462 167930.1621351784 -5.414335646491963e-13
    vertex 192169.55864304624 167930.1621351784 -5.414335646491963e-13
  endloop
endfacet
facet normal -0.0 1.0 -0.0
  outer loop
    vertex 231329.5586430462 167930.1621351784 -5.414335646491963e-13
    vertex 192169.55864304624 167930.1621351784 3749.9999999999995
    vertex 231329.5586430462 167930.1621351784 3749.9999999999995
  endloop
endfacet
facet normal 0.0 -1.0 0.0
  outer loop
    vertex 231329.5586430462 194655.29954859414 3749.9999999999995
    vertex 192169.55864304624 194655.29954859414 -7.219114195322617e-13
    vertex 231329.5586430462 194655.29954859414 -7.219114195322617e-13
  endloop
endfacet
facet normal 0.0 -1.0 0.0
  outer loop
    vertex 192169.55864304624 194655.29954859414 -7.219114195322617e-13
    vertex 231329.5586430462 194655.29954859414 3749.9999999999995
    vertex 192169.55864304624 194655.29954859414 3749.9999999999995
  endloop
endfacet
facet normal -0.0 1.0 -0.0
  outer loop
    vertex 192169.55864304624 203795.47899996274 3749.9999999999995
    vertex 272489.55864304624 203795.47899996274 0.0
    vertex 192169.55864304624 203795.47899996274 0.0
  endloop
endfacet
facet normal -0.0 1.0 -0.0
  outer loop
    vertex 272489.55864304624 203795.47899996274 0.0
    vertex 192169.55864304624 203795.47899996274 3749.9999999999995
    vertex 272489.55864304624 203795.47899996274 3749.9999999999995
  endloop
endfacet
facet normal -1.0 0.0 0.0
  outer loop
    vertex 192169.55864304624 191797.519688749 3749.9999999999995
    vertex 192169.55864304624 182735.06380603623 -7.219114195322617e-13
    vertex 192169.55864304624 182735.06380603623 3749.9999999999995
  endloop
endfacet
facet normal -1.0 0.0 0.0
  outer loop
    vertex 192169.55864304624 182735.06380603623 -7.219114195322617e-13
    vertex 192169.55864304624 191797.519688749 3749.9999999999995
    vertex 192169.55864304624 191797.519688749 -6.31672492090729e-13
  endloop
endfacet
facet normal 0.0 -1.0 0.0
  outer loop
    vertex 231329.5586430462 170787.94199502355 3749.9999999999995
    vertex 192169.55864304624 170787.94199502355 -6.31672492090729e-13
    vertex 231329.5586430462 170787.94199502355 -6.31672492090729e-13
  endloop
endfacet
facet normal 0.0 -1.0 0.0
  outer loop
    vertex 192169.55864304624 170787.94199502355 -6.31672492090729e-13
    vertex 231329.5586430462 170787.94199502355 3749.9999999999995
    vertex 192169.55864304624 170787.94199502355 3749.9999999999995
  endloop
endfacet
facet normal -0.0 1.0 -0.0
  outer loop
    vertex 192169.55864304624 191797.519688749 3749.9999999999995
    vertex 231329.5586430462 191797.519688749 -6.31672492090729e-13
    vertex 192169.55864304624 191797.519688749 -6.31672492090729e-13
  endloop
endfacet
facet normal -0.0 1.0 -0.0
  outer loop
    vertex 231329.5586430462 191797.519688749 -6.31672492090729e-13
    vertex 192169.55864304624 191797.519688749 3749.9999999999995
    vertex 231329.5586430462 191797.519688749 3749.9999999999995
  endloop
endfacet
facet normal 1.0 -0.0 -0.0
  outer loop
    vertex 272489.55864304624 179877.28394619105 -6.31672492090729e-13
    vertex 272489.55864304624 170787.94199502355 3749.9999999999995
    vertex 272489.55864304624 170787.94199502355 -6.31672492090729e-13
  endloop
endfacet
facet normal 1.0 -0.0 -0.0
  outer loop
    vertex 272489.55864304624 170787.94199502355 3749.9999999999995
    vertex 272489.55864304624 179877.28394619105 -6.31672492090729e-13
    vertex 272489.55864304624 179877.28394619105 3749.9999999999995
  endloop
endfacet
facet normal 1.0 -0.0 -0.0
  outer loop
    vertex 233329.5586430462 194655.29954859414 -7.219114195322617e-13
    vertex 233329.5586430462 191797.519688749 3749.9999999999995
    vertex 233329.5586430462 191797.519688749 -6.31672492090729e-13
  endloop
endfacet
facet normal 1.0 -0.0 -0.0
  outer loop
    vertex 233329.5586430462 191797.519688749 3749.9999999999995
    vertex 233329.5586430462 194655.29954859414 -7.219114195322617e-13
    vertex 233329.5586430462 194655.29954859414 3749.9999999999995
  endloop
endfacet
facet normal 0.0 -1.0 0.0
  outer loop
    vertex 272489.55864304624 194655.29954859414 3749.9999999999995
    vertex 233329.5586430462 194655.29954859414 -7.219114195322617e-13
    vertex 272489.55864304624 194655.29954859414 -7.219114195322617e-13
  endloop
endfacet
facet normal 0.0 -1.0 0.0
  outer loop
    vertex 233329.5586430462 194655.29954859414 -7.219114195322617e-13
    vertex 272489.55864304624 194655.29954859414 3749.9999999999995
    vertex 233329.5586430462 194655.29954859414 3749.9999999999995
  endloop
endfacet
facet normal 2.731555084034804e-20 -2.1216407379599146e-18 -1.0
  outer loop
    vertex 272489.55864304624 203795.47899996274 0.0
    vertex 192169.55864304624 194655.29954859414 -7.219114195322617e-13
    vertex 192169.55864304624 203795.47899996274 0.0
  endloop
endfacet
facet normal 2.731555084034804e-20 -2.1216407379599146e-18 -1.0
  outer loop
    vertex 192169.55864304624 194655.29954859414 -7.219114195322617e-13
    vertex 272489.55864304624 203795.47899996274 0.0
    vertex 231329.5586430462 194655.29954859414 -7.219114195322617e-13
  endloop
endfacet
facet normal 2.731555084034804e-20 -2.1216407379599146e-18 -1.0
  outer loop
    vertex 231329.5586430462 194655.29954859414 -7.219114195322617e-13
    vertex 272489.55864304624 203795.47899996274 0.0
    vertex 233329.5586430462 194655.29954859414 -7.219114195322617e-13
  endloop
endfacet
facet normal 2.731555084034804e-20 -2.1216407379599146e-18 -1.0
  outer loop
    vertex 231329.5586430462 194655.29954859414 -7.219114195322617e-13
    vertex 233329.5586430462 194655.29954859414 -7.219114195322617e-13
    vertex 231329.5586430462 191797.519688749 -6.31672492090729e-13
  endloop
endfacet
facet normal 2.731555084034804e-20 -2.1216407379599146e-18 -1.0
  outer loop
    vertex 231329.5586430462 191797.519688749 -6.31672492090729e-13
    vertex 233329.5586430462 194655.29954859414 -7.219114195322617e-13
    vertex 231329.5586430462 182735.06380603623 -7.219114195322617e-13
  endloop
endfacet
facet normal 2.731555084034804e-20 -2.1216407379599146e-18 -1.0
  outer loop
    vertex 231329.5586430462 182735.06380603623 -7.219114195322617e-13
    vertex 233329.5586430462 194655.29954859414 -7.219114195322617e-13
    vertex 231329.5586430462 179877.28394619105 -6.31672492090729e-13
  endloop
endfacet
facet normal 2.731555084034804e-20 -2.1216407379599146e-18 -1.0
  outer loop
    vertex 231329.5586430462 179877.28394619105 -6.31672492090729e-13
    vertex 233329.5586430462 194655.29954859414 -7.219114195322617e-13
    vertex 231329.5586430462 170787.94199502355 -6.31672492090729e-13
  endloop
endfacet
facet normal 2.731555084034804e-20 -2.1216407379599146e-18 -1.0
  outer loop
    vertex 231329.5586430462 170787.94199502355 -6.31672492090729e-13
    vertex 233329.5586430462 194655.29954859414 -7.219114195322617e-13
    vertex 231329.5586430462 167930.1621351784 -5.414335646491963e-13
  endloop
endfacet
facet normal 2.731555084034804e-20 -2.1216407379599146e-18 -1.0
  outer loop
    vertex 233329.5586430462 194655.29954859414 -7.219114195322617e-13
    vertex 272489.55864304624 203795.47899996274 0.0
    vertex 272489.55864304624 194655.29954859414 -7.219114195322617e-13
  endloop
endfacet
facet normal 2.731555084034804e-20 -2.1216407379599146e-18 -1.0
  outer loop
    vertex 272489.55864304624 191797.519688749 -6.31672492090729e-13
    vertex 233329.5586430462 182735.06380603623 -7.219114195322617e-13
    vertex 233329.5586430462 191797.519688749 -6.31672492090729e-13
  endloop
endfacet
facet normal 2.731555084034804e-20 -2.1216407379599146e-18 -1.0
  outer loop
    vertex 233329.5586430462 182735.06380603623 -7.219114195322617e-13
    vertex 272489.55864304624 191797.519688749 -6.31672492090729e-13
    vertex 272489.55864304624 182735.06380603623 -7.219114195322617e-13
  endloop
endfacet
facet normal 2.731555084034804e-20 -2.1216407379599146e-18 -1.0
  outer loop
    vertex 272489.55864304624 179877.28394619105 -6.31672492090729e-13
    vertex 233329.5586430462 170787.94199502355 -6.31672492090729e-13
    vertex 233329.5586430462 179877.28394619105 -6.31672492090729e-13
  endloop
endfacet
facet normal 2.731555084034804e-20 -2.1216407379599146e-18 -1.0
  outer loop
    vertex 233329.5586430462 170787.94199502355 -6.31672492090729e-13
    vertex 272489.55864304624 179877.28394619105 -6.31672492090729e-13
    vertex 272489.55864304624 170787.94199502355 -6.31672492090729e-13
  endloop
endfacet
facet normal 2.731555084034804e-20 -2.1216407379599146e-18 -1.0
  outer loop
    vertex 231329.5586430462 167930.1621351784 -5.414335646491963e-13
    vertex 192169.55864304624 158365.47899996274 0.0
    vertex 192169.55864304624 167930.1621351784 -5.414335646491963e-13
  endloop
endfacet
facet normal 2.731555084034804e-20 -2.1216407379599146e-18 -1.0
  outer loop
    vertex 192169.55864304624 158365.47899996274 0.0
    vertex 231329.5586430462 167930.1621351784 -5.414335646491963e-13
    vertex 272489.55864304624 158365.47899996274 0.0
  endloop
endfacet
facet normal 2.731555084034804e-20 -2.1216407379599146e-18 -1.0
  outer loop
    vertex 272489.55864304624 158365.47899996274 0.0
    vertex 231329.5586430462 167930.1621351784 -5.414335646491963e-13
    vertex 233329.5586430462 167930.1621351784 -5.414335646491963e-13
  endloop
endfacet
facet normal 2.731555084034804e-20 -2.1216407379599146e-18 -1.0
  outer loop
    vertex 233329.5586430462 167930.1621351784 -5.414335646491963e-13
    vertex 231329.5586430462 167930.1621351784 -5.414335646491963e-13
    vertex 233329.5586430462 194655.29954859414 -7.219114195322617e-13
  endloop
endfacet
facet normal 2.731555084034804e-20 -2.1216407379599146e-18 -1.0
  outer loop
    vertex 233329.5586430462 167930.1621351784 -5.414335646491963e-13
    vertex 233329.5586430462 194655.29954859414 -7.219114195322617e-13
    vertex 233329.5586430462 191797.519688749 -6.31672492090729e-13
  endloop
endfacet
facet normal 2.731555084034804e-20 -2.1216407379599146e-18 -1.0
  outer loop
    vertex 233329.5586430462 167930.1621351784 -5.414335646491963e-13
    vertex 233329.5586430462 191797.519688749 -6.31672492090729e-13
    vertex 233329.5586430462 182735.06380603623 -7.219114195322617e-13
  endloop
endfacet
facet normal 2.731555084034804e-20 -2.1216407379599146e-18 -1.0
  outer loop
    vertex 233329.5586430462 167930.1621351784 -5.414335646491963e-13
    vertex 233329.5586430462 182735.06380603623 -7.219114195322617e-13
    vertex 233329.5586430462 179877.28394619105 -6.31672492090729e-13
  endloop
endfacet
facet normal 2.731555084034804e-20 -2.1216407379599146e-18 -1.0
  outer loop
    vertex 233329.5586430462 167930.1621351784 -5.414335646491963e-13
    vertex 233329.5586430462 179877.28394619105 -6.31672492090729e-13
    vertex 233329.5586430462 170787.94199502355 -6.31672492090729e-13
  endloop
endfacet
facet normal 2.731555084034804e-20 -2.1216407379599146e-18 -1.0
  outer loop
    vertex 272489.55864304624 158365.47899996274 0.0
    vertex 233329.5586430462 167930.1621351784 -5.414335646491963e-13
    vertex 272489.55864304624 167930.1621351784 -5.414335646491963e-13
  endloop
endfacet
facet normal 2.731555084034804e-20 -2.1216407379599146e-18 -1.0
  outer loop
    vertex 231329.5586430462 179877.28394619105 -6.31672492090729e-13
    vertex 192169.55864304624 170787.94199502355 -6.31672492090729e-13
    vertex 192169.55864304624 179877.28394619105 -6.31672492090729e-13
  endloop
endfacet
facet normal 2.731555084034804e-20 -2.1216407379599146e-18 -1.0
  outer loop
    vertex 192169.55864304624 170787.94199502355 -6.31672492090729e-13
    vertex 231329.5586430462 179877.28394619105 -6.31672492090729e-13
    vertex 231329.5586430462 170787.94199502355 -6.31672492090729e-13
  endloop
endfacet
facet normal 2.731555084034804e-20 -2.1216407379599146e-18 -1.0
  outer loop
    vertex 231329.5586430462 191797.519688749 -6.31672492090729e-13
    vertex 192169.55864304624 182735.06380603623 -7.219114195322617e-13
    vertex 192169.55864304624 191797.519688749 -6.31672492090729e-13
  endloop
endfacet
facet normal 2.731555084034804e-20 -2.1216407379599146e-18 -1.0
  outer loop
    vertex 192169.55864304624 182735.06380603623 -7.219114195322617e-13
    vertex 231329.5586430462 191797.519688749 -6.31672492090729e-13
    vertex 231329.5586430462 182735.06380603623 -7.219114195322617e-13
  endloop
endfacet
facet normal 1.0 -0.0 -0.0
  outer loop
    vertex 272489.55864304624 203795.47899996274 0.0
    vertex 272489.55864304624 194655.29954859414 3749.9999999999995
    vertex 272489.55864304624 194655.29954859414 -7.219114195322617e-13
  endloop
endfacet
facet normal 1.0 -0.0 -0.0
  outer loop
    vertex 272489.55864304624 194655.29954859414 3749.9999999999995
    vertex 272489.55864304624 203795.47899996274 0.0
    vertex 272489.55864304624 203795.47899996274 3749.9999999999995
  endloop
endfacet
facet normal -1.0 0.0 0.0
  outer loop
    vertex 192169.55864304624 179877.28394619105 3749.9999999999995
    vertex 192169.55864304624 170787.94199502355 -6.31672492090729e-13
    vertex 192169.55864304624 170787.94199502355 3749.9999999999995
  endloop
endfacet
facet normal -1.0 0.0 0.0
  outer loop
    vertex 192169.55864304624 170787.94199502355 -6.31672492090729e-13
    vertex 192169.55864304624 179877.28394619105 3749.9999999999995
    vertex 192169.55864304624 179877.28394619105 -6.31672492090729e-13
  endloop
endfacet
facet normal -1.0 0.0 0.0
  outer loop
    vertex 231329.5586430462 182735.06380603623 3749.9999999999995
    vertex 231329.5586430462 179877.28394619105 -6.31672492090729e-13
    vertex 231329.5586430462 179877.28394619105 3749.9999999999995
  endloop
endfacet
facet normal -1.0 0.0 0.0
  outer loop
    vertex 231329.5586430462 179877.28394619105 -6.31672492090729e-13
    vertex 231329.5586430462 182735.06380603623 3749.9999999999995
    vertex 231329.5586430462 182735.06380603623 -7.219114195322617e-13
  endloop
endfacet
facet normal -0.0 1.0 -0.0
  outer loop
    vertex 192169.55864304624 179877.28394619105 3749.9999999999995
    vertex 231329.5586430462 179877.28394619105 -6.31672492090729e-13
    vertex 192169.55864304624 179877.28394619105 -6.31672492090729e-13
  endloop
endfacet
facet normal -0.0 1.0 -0.0
  outer loop
    vertex 231329.5586430462 179877.28394619105 -6.31672492090729e-13
    vertex 192169.55864304624 179877.28394619105 3749.9999999999995
    vertex 231329.5586430462 179877.28394619105 3749.9999999999995
  endloop
endfacet
facet normal -1.0 0.0 0.0
  outer loop
    vertex 192169.55864304624 203795.47899996274 3749.9999999999995
    vertex 192169.55864304624 194655.29954859414 -7.219114195322617e-13
    vertex 192169.55864304624 194655.29954859414 3749.9999999999995
  endloop
endfacet
facet normal -1.0 0.0 0.0
  outer loop
    vertex 192169.55864304624 194655.29954859414 -7.219114195322617e-13
    vertex 192169.55864304624 203795.47899996274 3749.9999999999995
    vertex 192169.55864304624 203795.47899996274 0.0
  endloop
endfacet
facet normal -1.0 0.0 0.0
  outer loop
    vertex 231329.5586430462 170787.94199502355 3749.9999999999995
    vertex 231329.5586430462 167930.1621351784 -5.414335646491963e-13
    vertex 231329.5586430462 167930.1621351784 3749.9999999999995
  endloop
endfacet
facet normal -1.0 0.0 0.0
  outer loop
    vertex 231329.5586430462 167930.1621351784 -5.414335646491963e-13
    vertex 231329.5586430462 170787.94199502355 3749.9999999999995
    vertex 231329.5586430462 170787.94199502355 -6.31672492090729e-13
  endloop
endfacet
facet normal 0.0 -1.0 0.0
  outer loop
    vertex 231329.5586430462 182735.06380603623 3749.9999999999995
    vertex 192169.55864304624 182735.06380603623 -7.219114195322617e-13
    vertex 231329.5586430462 182735.06380603623 -7.219114195322617e-13
  endloop
endfacet
facet normal 0.0 -1.0 0.0
  outer loop
    vertex 192169.55864304624 182735.06380603623 -7.219114195322617e-13
    vertex 231329.5586430462 182735.06380603623 3749.9999999999995
    vertex 192169.55864304624 182735.06380603623 3749.9999999999995
  endloop
endfacet
facet normal -0.0 -0.0 1.0
  outer loop
    vertex 272489.55864304624 158365.47899996274 3749.9999999999995
    vertex 192169.55864304624 167930.1621351784 3749.9999999999995
    vertex 192169.55864304624 158365.47899996274 3749.9999999999995
  endloop
endfacet
facet normal -0.0 -0.0 1.0
  outer loop
    vertex 192169.55864304624 167930.1621351784 3749.9999999999995
    vertex 272489.55864304624 158365.47899996274 3749.9999999999995
    vertex 231329.5586430462 167930.1621351784 3749.9999999999995
  endloop
endfacet
facet normal -0.0 -0.0 1.0
  outer loop
    vertex 231329.5586430462 167930.1621351784 3749.9999999999995
    vertex 272489.55864304624 158365.47899996274 3749.9999999999995
    vertex 233329.5586430462 167930.1621351784 3749.9999999999995
  endloop
endfacet
facet normal -0.0 -0.0 1.0
  outer loop
    vertex 231329.5586430462 167930.1621351784 3749.9999999999995
    vertex 233329.5586430462 167930.1621351784 3749.9999999999995
    vertex 231329.5586430462 170787.94199502355 3749.9999999999995
  endloop
endfacet
facet normal -0.0 -0.0 1.0
  outer loop
    vertex 231329.5586430462 170787.94199502355 3749.9999999999995
    vertex 233329.5586430462 167930.1621351784 3749.9999999999995
    vertex 231329.5586430462 179877.28394619105 3749.9999999999995
  endloop
endfacet
facet normal -0.0 -0.0 1.0
  outer loop
    vertex 231329.5586430462 179877.28394619105 3749.9999999999995
    vertex 233329.5586430462 167930.1621351784 3749.9999999999995
    vertex 231329.5586430462 182735.06380603623 3749.9999999999995
  endloop
endfacet
facet normal -0.0 -0.0 1.0
  outer loop
    vertex 231329.5586430462 182735.06380603623 3749.9999999999995
    vertex 233329.5586430462 167930.1621351784 3749.9999999999995
    vertex 231329.5586430462 191797.519688749 3749.9999999999995
  endloop
endfacet
facet normal -0.0 -0.0 1.0
  outer loop
    vertex 231329.5586430462 191797.519688749 3749.9999999999995
    vertex 233329.5586430462 167930.1621351784 3749.9999999999995
    vertex 231329.5586430462 194655.29954859414 3749.9999999999995
  endloop
endfacet
facet normal -0.0 -0.0 1.0
  outer loop
    vertex 233329.5586430462 167930.1621351784 3749.9999999999995
    vertex 272489.55864304624 158365.47899996274 3749.9999999999995
    vertex 272489.55864304624 167930.1621351784 3749.9999999999995
  endloop
endfacet
facet normal -0.0 -0.0 1.0
  outer loop
    vertex 272489.55864304624 170787.94199502355 3749.9999999999995
    vertex 233329.5586430462 179877.28394619105 3749.9999999999995
    vertex 233329.5586430462 170787.94199502355 3749.9999999999995
  endloop
endfacet
facet normal -0.0 -0.0 1.0
  outer loop
    vertex 233329.5586430462 179877.28394619105 3749.9999999999995
    vertex 272489.55864304624 170787.94199502355 3749.9999999999995
    vertex 272489.55864304624 179877.28394619105 3749.9999999999995
  endloop
endfacet
facet normal -0.0 -0.0 1.0
  outer loop
    vertex 272489.55864304624 182735.06380603623 3749.9999999999995
    vertex 233329.5586430462 191797.519688749 3749.9999999999995
    vertex 233329.5586430462 182735.06380603623 3749.9999999999995
  endloop
endfacet
facet normal -0.0 -0.0 1.0
  outer loop
    vertex 233329.5586430462 191797.519688749 3749.9999999999995
    vertex 272489.55864304624 182735.06380603623 3749.9999999999995
    vertex 272489.55864304624 191797.519688749 3749.9999999999995
  endloop
endfacet
facet normal -0.0 -0.0 1.0
  outer loop
    vertex 231329.5586430462 194655.29954859414 3749.9999999999995
    vertex 192169.55864304624 203795.47899996274 3749.9999999999995
    vertex 192169.55864304624 194655.29954859414 3749.9999999999995
  endloop
endfacet
facet normal -0.0 -0.0 1.0
  outer loop
    vertex 192169.55864304624 203795.47899996274 3749.9999999999995
    vertex 231329.5586430462 194655.29954859414 3749.9999999999995
    vertex 272489.55864304624 203795.47899996274 3749.9999999999995
  endloop
endfacet
facet normal -0.0 -0.0 1.0
  outer loop
    vertex 272489.55864304624 203795.47899996274 3749.9999999999995
    vertex 231329.5586430462 194655.29954859414 3749.9999999999995
    vertex 233329.5586430462 194655.29954859414 3749.9999999999995
  endloop
endfacet
facet normal -0.0 -0.0 1.0
  outer loop
    vertex 233329.5586430462 194655.29954859414 3749.9999999999995
    vertex 231329.5586430462 194655.29954859414 3749.9999999999995
    vertex 233329.5586430462 167930.1621351784 3749.9999999999995
  endloop
endfacet
facet normal -0.0 -0.0 1.0
  outer loop
    vertex 233329.5586430462 194655.29954859414 3749.9999999999995
    vertex 233329.5586430462 167930.1621351784 3749.9999999999995
    vertex 233329.5586430462 170787.94199502355 3749.9999999999995
  endloop
endfacet
facet normal -0.0 -0.0 1.0
  outer loop
    vertex 233329.5586430462 194655.29954859414 3749.9999999999995
    vertex 233329.5586430462 170787.94199502355 3749.9999999999995
    vertex 233329.5586430462 179877.28394619105 3749.9999999999995
  endloop
endfacet
facet normal -0.0 -0.0 1.0
  outer loop
    vertex 233329.5586430462 194655.29954859414 3749.9999999999995
    vertex 233329.5586430462 179877.28394619105 3749.9999999999995
    vertex 233329.5586430462 182735.06380603623 3749.9999999999995
  endloop
endfacet
facet normal -0.0 -0.0 1.0
  outer loop
    vertex 233329.5586430462 194655.29954859414 3749.9999999999995
    vertex 233329.5586430462 182735.06380603623 3749.9999999999995
    vertex 233329.5586430462 191797.519688749 3749.9999999999995
  endloop
endfacet
facet normal -0.0 -0.0 1.0
  outer loop
    vertex 272489.55864304624 203795.47899996274 3749.9999999999995
    vertex 233329.5586430462 194655.29954859414 3749.9999999999995
    vertex 272489.55864304624 194655.29954859414 3749.9999999999995
  endloop
endfacet
facet normal -0.0 -0.0 1.0
  outer loop
    vertex 231329.5586430462 182735.06380603623 3749.9999999999995
    vertex 192169.55864304624 191797.519688749 3749.9999999999995
    vertex 192169.55864304624 182735.06380603623 3749.9999999999995
  endloop
endfacet
facet normal -0.0 -0.0 1.0
  outer loop
    vertex 192169.55864304624 191797.519688749 3749.9999999999995
    vertex 231329.5586430462 182735.06380603623 3749.9999999999995
    vertex 231329.5586430462 191797.519688749 3749.9999999999995
  endloop
endfacet
facet normal -0.0 -0.0 1.0
  outer loop
    vertex 231329.5586430462 170787.94199502355 3749.9999999999995
    vertex 192169.55864304624 179877.28394619105 3749.9999999999995
    vertex 192169.55864304624 170787.94199502355 3749.9999999999995
  endloop
endfacet
facet normal -0.0 -0.0 1.0
  outer loop
    vertex 192169.55864304624 179877.28394619105 3749.9999999999995
    vertex 231329.5586430462 170787.94199502355 3749.9999999999995
    vertex 231329.5586430462 179877.28394619105 3749.9999999999995
  endloop
endfacet
facet normal 0.0 -1.0 0.0
  outer loop
    vertex 272489.55864304624 158365.47899996274 3749.9999999999995
    vertex 192169.55864304624 158365.47899996274 0.0
    vertex 272489.55864304624 158365.47899996274 0.0
  endloop
endfacet
facet normal 0.0 -1.0 0.0
  outer loop
    vertex 192169.55864304624 158365.47899996274 0.0
    vertex 272489.55864304624 158365.47899996274 3749.9999999999995
    vertex 192169.55864304624 158365.47899996274 3749.9999999999995
  endloop
endfacet
facet normal 1.0 -0.0 -0.0
  outer loop
    vertex 272489.55864304624 167930.1621351784 -5.414335646491963e-13
    vertex 272489.55864304624 158365.47899996274 3749.9999999999995
    vertex 272489.55864304624 158365.47899996274 0.0
  endloop
endfacet
facet normal 1.0 -0.0 -0.0
  outer loop
    vertex 272489.55864304624 158365.47899996274 3749.9999999999995
    vertex 272489.55864304624 167930.1621351784 -5.414335646491963e-13
    vertex 272489.55864304624 167930.1621351784 3749.9999999999995
  endloop
endfacet
facet normal -1.0 0.0 0.0
  outer loop
    vertex 231329.5586430462 194655.29954859414 3749.9999999999995
    vertex 231329.5586430462 191797.519688749 -6.31672492090729e-13
    vertex 231329.5586430462 191797.519688749 3749.9999999999995
  endloop
endfacet
facet normal -1.0 0.0 0.0
  outer loop
    vertex 231329.5586430462 191797.519688749 -6.31672492090729e-13
    vertex 231329.5586430462 194655.29954859414 3749.9999999999995
    vertex 231329.5586430462 194655.29954859414 -7.219114195322617e-13
  endloop
endfacet
facet normal 1.0 -0.0 -0.0
  outer loop
    vertex 272489.55864304624 191797.519688749 -6.31672492090729e-13
    vertex 272489.55864304624 182735.06380603623 3749.9999999999995
    vertex 272489.55864304624 182735.06380603623 -7.219114195322617e-13
  endloop
endfacet
facet normal 1.0 -0.0 -0.0
  outer loop
    vertex 272489.55864304624 182735.06380603623 3749.9999999999995
    vertex 272489.55864304624 191797.519688749 -6.31672492090729e-13
    vertex 272489.55864304624 191797.519688749 3749.9999999999995
  endloop
endfacet
facet normal -1.0 0.0 0.0
  outer loop
    vertex 192169.55864304624 167930.1621351784 3749.9999999999995
    vertex 192169.55864304624 158365.47899996274 0.0
    vertex 192169.55864304624 158365.47899996274 3749.9999999999995
  endloop
endfacet
facet normal -1.0 0.0 0.0
  outer loop
    vertex 192169.55864304624 158365.47899996274 0.0
    vertex 192169.55864304624 167930.1621351784 3749.9999999999995
    vertex 192169.55864304624 167930.1621351784 -5.414335646491963e-13
  endloop
endfacet
facet normal -0.0 1.0 -0.0
  outer loop
    vertex 233329.5586430462 191797.519688749 3749.9999999999995
    vertex 272489.55864304624 191797.519688749 -6.31672492090729e-13
    vertex 233329.5586430462 191797.519688749 -6.31672492090729e-13
  endloop
endfacet
facet normal -0.0 1.0 -0.0
  outer loop
    vertex 272489.55864304624 191797.519688749 -6.31672492090729e-13
    vertex 233329.5586430462 191797.519688749 3749.9999999999995
    vertex 272489.55864304624 191797.519688749 3749.9999999999995
  endloop
endfacet
facet normal 1.0 -0.0 -0.0
  outer loop
    vertex 233329.5586430462 182735.06380603623 -7.219114195322617e-13
    vertex 233329.5586430462 179877.28394619105 3749.9999999999995
    vertex 233329.5586430462 179877.28394619105 -6.31672492090729e-13
  endloop
endfacet
facet normal 1.0 -0.0 -0.0
  outer loop
    vertex 233329.5586430462 179877.28394619105 3749.9999999999995
    vertex 233329.5586430462 182735.06380603623 -7.219114195322617e-13
    vertex 233329.5586430462 182735.06380603623 3749.9999999999995
  endloop
endfacet
facet normal -0.0 1.0 -0.0
  outer loop
    vertex 233329.5586430462 179877.28394619105 3749.9999999999995
    vertex 272489.55864304624 179877.28394619105 -6.31672492090729e-13
    vertex 233329.5586430462 179877.28394619105 -6.31672492090729e-13
  endloop
endfacet
facet normal -0.0 1.0 -0.0
  outer loop
    vertex 272489.55864304624 179877.28394619105 -6.31672492090729e-13
    vertex 233329.5586430462 179877.28394619105 3749.9999999999995
    vertex 272489.55864304624 179877.28394619105 3749.9999999999995
  endloop
endfacet
facet normal -0.0 1.0 -0.0
  outer loop
    vertex 233329.5586430462 167930.1621351784 3749.9999999999995
    vertex 272489.55864304624 167930.1621351784 -5.414335646491963e-13
    vertex 233329.5586430462 167930.1621351784 -5.414335646491963e-13
  endloop
endfacet
facet normal -0.0 1.0 -0.0
  outer loop
    vertex 272489.55864304624 167930.1621351784 -5.414335646491963e-13
    vertex 233329.5586430462 167930.1621351784 3749.9999999999995
    vertex 272489.55864304624 167930.1621351784 3749.9999999999995
  endloop
endfacet
facet normal 0.0 -1.0 0.0
  outer loop
    vertex 272489.55864304624 182735.06380603623 3749.9999999999995
    vertex 233329.5586430462 182735.06380603623 -7.219114195322617e-13
    vertex 272489.55864304624 182735.06380603623 -7.219114195322617e-13
  endloop
endfacet
facet normal 0.0 -1.0 0.0
  outer loop
    vertex 233329.5586430462 182735.06380603623 -7.219114195322617e-13
    vertex 272489.55864304624 182735.06380603623 3749.9999999999995
    vertex 233329.5586430462 182735.06380603623 3749.9999999999995
  endloop
endfacet
facet normal 0.0 -1.0 0.0
  outer loop
    vertex 272489.55864304624 170787.94199502355 3749.9999999999995
    vertex 233329.5586430462 170787.94199502355 -6.31672492090729e-13
    vertex 272489.55864304624 170787.94199502355 -6.31672492090729e-13
  endloop
endfacet
facet normal 0.0 -1.0 0.0
  outer loop
    vertex 233329.5586430462 170787.94199502355 -6.31672492090729e-13
    vertex 272489.55864304624 170787.94199502355 3749.9999999999995
    vertex 233329.5586430462 170787.94199502355 3749.9999999999995
  endloop
endfacet
facet normal 1.0 -0.0 -0.0
  outer loop
    vertex 233329.5586430462 170787.94199502355 -6.31672492090729e-13
    vertex 233329.5586430462 167930.1621351784 3749.9999999999995
    vertex 233329.5586430462 167930.1621351784 -5.414335646491963e-13
  endloop
endfacet
facet normal 1.0 -0.0 -0.0
  outer loop
    vertex 233329.5586430462 167930.1621351784 3749.9999999999995
    vertex 233329.5586430462 170787.94199502355 -6.31672492090729e-13
    vertex 233329.5586430462 170787.94199502355 3749.9999999999995
  endloop
endfacet
endsolid Rummikub!
