solid bird house base
facet normal -1.0471666500827336e-15 -0.7365937979650491 0.6763354025921049
  outer loop
    vertex 269109.85221277043 160057.4703050836 6264.13600761229
    vertex 183574.85221277032 160529.00378837687 6777.680970651818
    vertex 183574.85221277026 160057.47030508379 6264.1360076121855
  endloop
endfacet
facet normal -1.0471666500827336e-15 -0.7365937979650491 0.6763354025921049
  outer loop
    vertex 183574.85221277032 160529.00378837687 6777.680970651818
    vertex 269109.85221277043 160057.4703050836 6264.13600761229
    vertex 269109.85221277026 160529.0037883767 6777.680970651875
  endloop
endfacet
facet normal 1.0 4.896075620121926e-14 1.4296934104565646e-14
  outer loop
    vertex 269109.85221277026 164874.49265817995 -9.183948455581114e-11
    vertex 269109.85221277026 159580.9809507563 4954.985245902525
    vertex 269109.85221277026 159580.9809507563 -9.183948455581114e-11
  endloop
endfacet
facet normal 1.0 4.896075620121926e-14 1.4296934104565646e-14
  outer loop
    vertex 269109.85221277026 159580.9809507563 4954.985245902525
    vertex 269109.85221277026 164874.49265817995 -9.183948455581114e-11
    vertex 269109.8522127703 159734.9191525619 5646.047818971716
  endloop
endfacet
facet normal 1.0 4.896075620121926e-14 1.4296934104565646e-14
  outer loop
    vertex 269109.8522127703 159734.9191525619 5646.047818971716
    vertex 269109.85221277026 164874.49265817995 -9.183948455581114e-11
    vertex 269109.85221277043 160057.4703050836 6264.13600761229
  endloop
endfacet
facet normal 1.0 4.896075620121926e-14 1.4296934104565646e-14
  outer loop
    vertex 269109.85221277043 160057.4703050836 6264.13600761229
    vertex 269109.85221277026 164874.49265817995 -9.183948455581114e-11
    vertex 269109.85221277026 160529.0037883767 6777.680970651875
  endloop
endfacet
facet normal 1.0 4.896075620121926e-14 1.4296934104565646e-14
  outer loop
    vertex 269109.85221277026 160529.0037883767 6777.680970651875
    vertex 269109.85221277026 164874.49265817995 -9.183948455581114e-11
    vertex 269109.85221276985 161117.3853748007 7151.685467532749
  endloop
endfacet
facet normal 1.0 4.896075620121926e-14 1.4296934104565646e-14
  outer loop
    vertex 269109.85221276985 161117.3853748007 7151.685467532749
    vertex 269109.85221277026 164874.49265817995 -9.183948455581114e-11
    vertex 269109.8522127703 161782.51783158738 7360.661709864352
  endloop
endfacet
facet normal 1.0 4.896075620121926e-14 1.4296934104565646e-14
  outer loop
    vertex 269109.8522127703 161782.51783158738 7360.661709864352
    vertex 269109.85221277026 164874.49265817995 -9.183948455581114e-11
    vertex 269109.85221277026 162479.07348099008 7390.36831208065
  endloop
endfacet
facet normal 1.0 4.896075620121926e-14 1.4296934104565646e-14
  outer loop
    vertex 269109.85221277026 162479.07348099008 7390.36831208065
    vertex 269109.85221277026 164874.49265817995 -9.183948455581114e-11
    vertex 269109.85221276997 163159.58320661442 7238.780818333812
  endloop
endfacet
facet normal 1.0 4.896075620121926e-14 1.4296934104565646e-14
  outer loop
    vertex 269109.85221276997 163159.58320661442 7238.780818333812
    vertex 269109.85221277026 164874.49265817995 -9.183948455581114e-11
    vertex 269109.8522127701 163777.67139525508 6916.229665812219
  endloop
endfacet
facet normal 1.0 4.896075620121926e-14 1.4296934104565646e-14
  outer loop
    vertex 269109.8522127701 163777.67139525508 6916.229665812219
    vertex 269109.85221277026 164874.49265817995 -9.183948455581114e-11
    vertex 269109.85221276997 164291.21635829462 6444.696182519066
  endloop
endfacet
facet normal 1.0 4.896075620121926e-14 1.4296934104565646e-14
  outer loop
    vertex 269109.85221276997 164291.21635829462 6444.696182519066
    vertex 269109.85221277026 164874.49265817995 -9.183948455581114e-11
    vertex 269109.85221276997 164665.22085517555 5856.314596094882
  endloop
endfacet
facet normal 1.0 4.896075620121926e-14 1.4296934104565646e-14
  outer loop
    vertex 269109.85221276997 164665.22085517555 5856.314596094882
    vertex 269109.85221277026 164874.49265817995 -9.183948455581114e-11
    vertex 269109.85221277014 164874.19709750699 5191.182139308481
  endloop
endfacet
facet normal 1.0 4.896075620121926e-14 1.4296934104565646e-14
  outer loop
    vertex 269109.85221277014 164874.19709750699 5191.182139308481
    vertex 269109.85221277026 164874.49265817995 -9.183948455581114e-11
    vertex 269109.85221276985 164906.17837136547 4441.290353675754
  endloop
endfacet
facet normal -4.5725973098110395e-16 0.4626453291794038 0.8865434560068002
  outer loop
    vertex 269109.85221276997 163159.58320661442 7238.780818333812
    vertex 183574.85221277009 163777.67139525525 6916.229665812138
    vertex 183574.85221276994 163159.58320661462 7238.780818333916
  endloop
endfacet
facet normal -4.5725973098110395e-16 0.4626453291794038 0.8865434560068002
  outer loop
    vertex 183574.85221277009 163777.67139525525 6916.229665812138
    vertex 269109.85221276997 163159.58320661442 7238.780818333812
    vertex 269109.8522127701 163777.67139525508 6916.229665812219
  endloop
endfacet
facet normal -9.499831291732482e-17 0.6763354025920929 0.73659379796506
  outer loop
    vertex 269109.8522127701 163777.67139525508 6916.229665812219
    vertex 183574.85221277017 164291.21635829483 6444.696182519238
    vertex 183574.85221277009 163777.67139525525 6916.229665812138
  endloop
endfacet
facet normal -9.499831291732482e-17 0.6763354025920929 0.73659379796506
  outer loop
    vertex 183574.85221277017 164291.21635829483 6444.696182519238
    vertex 269109.8522127701 163777.67139525508 6916.229665812219
    vertex 269109.85221276997 164291.21635829462 6444.696182519066
  endloop
endfacet
facet normal -9.846013968630773e-16 -0.2997412400118357 0.9540205391060338
  outer loop
    vertex 269109.85221276985 161117.3853748007 7151.685467532749
    vertex 183574.85221277023 161782.51783158755 7360.66170986411
    vertex 183574.85221277023 161117.38537480088 7151.685467532922
  endloop
endfacet
facet normal -9.846013968630773e-16 -0.2997412400118357 0.9540205391060338
  outer loop
    vertex 183574.85221277023 161782.51783158755 7360.66170986411
    vertex 269109.85221276985 161117.3853748007 7151.685467532749
    vertex 269109.8522127703 161782.51783158738 7360.661709864352
  endloop
endfacet
facet normal 0.0 -1.0 0.0
  outer loop
    vertex 269109.85221277026 159580.9809507563 4954.985245902525
    vertex 183574.85221277023 159580.9809507565 0.0
    vertex 269109.85221277026 159580.9809507563 -9.183948455581114e-11
  endloop
endfacet
facet normal 0.0 -1.0 0.0
  outer loop
    vertex 183574.85221277023 159580.9809507565 0.0
    vertex 269109.85221277026 159580.9809507563 4954.985245902525
    vertex 183574.85221277017 159580.9809507565 4954.985245902582
  endloop
endfacet
facet normal -1.9326653486339916e-16 0.9540205391060043 0.29974124001192914
  outer loop
    vertex 183574.85221277014 164665.22085517575 5856.314596095055
    vertex 269109.85221277014 164874.19709750699 5191.182139308481
    vertex 183574.85221277014 164874.1970975072 5191.182139308306
  endloop
endfacet
facet normal -1.9326653486339916e-16 0.9540205391060043 0.29974124001192914
  outer loop
    vertex 269109.85221277014 164874.19709750699 5191.182139308481
    vertex 183574.85221277014 164665.22085517575 5856.314596095055
    vertex 269109.85221276997 164665.22085517555 5856.314596094882
  endloop
endfacet
facet normal -8.060212674130993e-20 -0.9760766426038705 0.21742674114090968
  outer loop
    vertex 269109.8522127703 159734.9191525619 5646.047818971716
    vertex 183574.85221277017 159580.9809507565 4954.985245902582
    vertex 269109.85221277026 159580.9809507563 4954.985245902525
  endloop
endfacet
facet normal -8.060212674130993e-20 -0.9760766426038705 0.21742674114090968
  outer loop
    vertex 183574.85221277017 159580.9809507565 4954.985245902582
    vertex 269109.8522127703 159734.9191525619 5646.047818971716
    vertex 183574.85221277014 159734.91915256207 5646.047818971773
  endloop
endfacet
facet normal 3.2695958408756517e-20 -0.5364464898709828 0.8439343360150134
  outer loop
    vertex 183574.85221277032 160529.00378837687 6777.680970651818
    vertex 269109.85221276985 161117.3853748007 7151.685467532749
    vertex 183574.85221277023 161117.38537480088 7151.685467532922
  endloop
endfacet
facet normal 3.2695958408756517e-20 -0.5364464898709828 0.8439343360150134
  outer loop
    vertex 269109.85221276985 161117.3853748007 7151.685467532749
    vertex 183574.85221277032 160529.00378837687 6777.680970651818
    vertex 269109.85221277026 160529.0037883767 6777.680970651875
  endloop
endfacet
facet normal -6.322000771299061e-17 0.9990918190504473 0.04260911999171686
  outer loop
    vertex 183574.85221277023 164906.17837136568 4441.290353675777
    vertex 269109.85221277014 164874.19709750699 5191.182139308481
    vertex 269109.85221276985 164906.17837136547 4441.290353675754
  endloop
endfacet
facet normal -6.322000771299061e-17 0.9990918190504473 0.04260911999171686
  outer loop
    vertex 269109.85221277014 164874.19709750699 5191.182139308481
    vertex 183574.85221277023 164906.17837136568 4441.290353675777
    vertex 183574.85221277014 164874.1970975072 5191.182139308306
  endloop
endfacet
facet normal 6.295976212388805e-16 0.2174267411408614 0.9760766426038813
  outer loop
    vertex 183574.85221277009 162479.07348099028 7390.368312080777
    vertex 269109.85221276997 163159.58320661442 7238.780818333812
    vertex 183574.85221276994 163159.58320661462 7238.780818333916
  endloop
endfacet
facet normal 6.295976212388805e-16 0.2174267411408614 0.9760766426038813
  outer loop
    vertex 269109.85221276997 163159.58320661442 7238.780818333812
    vertex 183574.85221277009 162479.07348099028 7390.368312080777
    vertex 269109.85221277026 162479.07348099008 7390.36831208065
  endloop
endfacet
facet normal 1.3404347981350742e-20 0.9999745515071917 -0.007134166944444845
  outer loop
    vertex 183574.85221277023 164874.49265818016 0.0
    vertex 269109.85221276985 164906.17837136547 4441.290353675754
    vertex 269109.85221277026 164874.49265817995 -9.183948455581114e-11
  endloop
endfacet
facet normal 1.3404347981350742e-20 0.9999745515071917 -0.007134166944444845
  outer loop
    vertex 269109.85221276985 164906.17837136547 4441.290353675754
    vertex 183574.85221277023 164874.49265818016 0.0
    vertex 183574.85221277023 164906.17837136568 4441.290353675777
  endloop
endfacet
facet normal -3.87019022031033e-16 0.0 -1.0
  outer loop
    vertex 269109.85221277026 164874.49265817995 -9.183948455581114e-11
    vertex 183574.85221277023 159580.9809507565 0.0
    vertex 183574.85221277023 164874.49265818016 0.0
  endloop
endfacet
facet normal -3.87019022031033e-16 0.0 -1.0
  outer loop
    vertex 183574.85221277023 159580.9809507565 0.0
    vertex 269109.85221277026 164874.49265817995 -9.183948455581114e-11
    vertex 269109.85221277026 159580.9809507563 -9.183948455581114e-11
  endloop
endfacet
facet normal -1.0 -1.4031704112922367e-14 -1.117949820566688e-14
  outer loop
    vertex 183574.85221277014 159734.91915256207 5646.047818971773
    vertex 183574.85221277023 159580.9809507565 0.0
    vertex 183574.85221277017 159580.9809507565 4954.985245902582
  endloop
endfacet
facet normal -1.0 -1.4031704112922367e-14 -1.117949820566688e-14
  outer loop
    vertex 183574.85221277023 159580.9809507565 0.0
    vertex 183574.85221277014 159734.91915256207 5646.047818971773
    vertex 183574.85221277023 164874.49265818016 0.0
  endloop
endfacet
facet normal -1.0 -1.4031704112922367e-14 -1.117949820566688e-14
  outer loop
    vertex 183574.85221277023 164874.49265818016 0.0
    vertex 183574.85221277014 159734.91915256207 5646.047818971773
    vertex 183574.85221277026 160057.47030508379 6264.1360076121855
  endloop
endfacet
facet normal -1.0 -1.4031704112922367e-14 -1.117949820566688e-14
  outer loop
    vertex 183574.85221277023 164874.49265818016 0.0
    vertex 183574.85221277026 160057.47030508379 6264.1360076121855
    vertex 183574.85221277032 160529.00378837687 6777.680970651818
  endloop
endfacet
facet normal -1.0 -1.4031704112922367e-14 -1.117949820566688e-14
  outer loop
    vertex 183574.85221277023 164874.49265818016 0.0
    vertex 183574.85221277032 160529.00378837687 6777.680970651818
    vertex 183574.85221277023 161117.38537480088 7151.685467532922
  endloop
endfacet
facet normal -1.0 -1.4031704112922367e-14 -1.117949820566688e-14
  outer loop
    vertex 183574.85221277023 164874.49265818016 0.0
    vertex 183574.85221277023 161117.38537480088 7151.685467532922
    vertex 183574.85221277023 161782.51783158755 7360.66170986411
  endloop
endfacet
facet normal -1.0 -1.4031704112922367e-14 -1.117949820566688e-14
  outer loop
    vertex 183574.85221277023 164874.49265818016 0.0
    vertex 183574.85221277023 161782.51783158755 7360.66170986411
    vertex 183574.85221277009 162479.07348099028 7390.368312080777
  endloop
endfacet
facet normal -1.0 -1.4031704112922367e-14 -1.117949820566688e-14
  outer loop
    vertex 183574.85221277023 164874.49265818016 0.0
    vertex 183574.85221277009 162479.07348099028 7390.368312080777
    vertex 183574.85221276994 163159.58320661462 7238.780818333916
  endloop
endfacet
facet normal -1.0 -1.4031704112922367e-14 -1.117949820566688e-14
  outer loop
    vertex 183574.85221277023 164874.49265818016 0.0
    vertex 183574.85221276994 163159.58320661462 7238.780818333916
    vertex 183574.85221277009 163777.67139525525 6916.229665812138
  endloop
endfacet
facet normal -1.0 -1.4031704112922367e-14 -1.117949820566688e-14
  outer loop
    vertex 183574.85221277023 164874.49265818016 0.0
    vertex 183574.85221277009 163777.67139525525 6916.229665812138
    vertex 183574.85221277017 164291.21635829483 6444.696182519238
  endloop
endfacet
facet normal -1.0 -1.4031704112922367e-14 -1.117949820566688e-14
  outer loop
    vertex 183574.85221277023 164874.49265818016 0.0
    vertex 183574.85221277017 164291.21635829483 6444.696182519238
    vertex 183574.85221277014 164665.22085517575 5856.314596095055
  endloop
endfacet
facet normal -1.0 -1.4031704112922367e-14 -1.117949820566688e-14
  outer loop
    vertex 183574.85221277023 164874.49265818016 0.0
    vertex 183574.85221277014 164665.22085517575 5856.314596095055
    vertex 183574.85221277014 164874.1970975072 5191.182139308306
  endloop
endfacet
facet normal -1.0 -1.4031704112922367e-14 -1.117949820566688e-14
  outer loop
    vertex 183574.85221277023 164874.49265818016 0.0
    vertex 183574.85221277014 164874.1970975072 5191.182139308306
    vertex 183574.85221277023 164906.17837136568 4441.290353675777
  endloop
endfacet
facet normal 6.919331609453821e-16 0.8439343360151254 0.536446489870807
  outer loop
    vertex 183574.85221277014 164665.22085517575 5856.314596095055
    vertex 269109.85221276997 164291.21635829462 6444.696182519066
    vertex 269109.85221276997 164665.22085517555 5856.314596094882
  endloop
endfacet
facet normal 6.919331609453821e-16 0.8439343360151254 0.536446489870807
  outer loop
    vertex 269109.85221276997 164291.21635829462 6444.696182519066
    vertex 183574.85221277014 164665.22085517575 5856.314596095055
    vertex 183574.85221277017 164291.21635829483 6444.696182519238
  endloop
endfacet
facet normal -1.288895460079106e-15 -0.042609119991666874 0.9990918190504493
  outer loop
    vertex 183574.85221277023 161782.51783158755 7360.66170986411
    vertex 269109.85221277026 162479.07348099008 7390.36831208065
    vertex 183574.85221277009 162479.07348099028 7390.368312080777
  endloop
endfacet
facet normal -1.288895460079106e-15 -0.042609119991666874 0.9990918190504493
  outer loop
    vertex 269109.85221277026 162479.07348099008 7390.36831208065
    vertex 183574.85221277023 161782.51783158755 7360.66170986411
    vertex 269109.8522127703 161782.51783158738 7360.661709864352
  endloop
endfacet
facet normal -4.176490753830832e-16 -0.8865434560067404 0.46264532917951806
  outer loop
    vertex 269109.85221277043 160057.4703050836 6264.13600761229
    vertex 183574.85221277014 159734.91915256207 5646.047818971773
    vertex 269109.8522127703 159734.9191525619 5646.047818971716
  endloop
endfacet
facet normal -4.176490753830832e-16 -0.8865434560067404 0.46264532917951806
  outer loop
    vertex 183574.85221277014 159734.91915256207 5646.047818971773
    vertex 269109.85221277043 160057.4703050836 6264.13600761229
    vertex 183574.85221277026 160057.47030508379 6264.1360076121855
  endloop
endfacet
endsolid bird house base
