solid EricWheel
facet normal 3.523625493433246e-35 -1.6302321156786927e-31 1.0
  outer loop
    vertex -78120.87148260768 1285.3993762491891 6527.952654049767
    vertex -77292.43517692147 2707.7387247844044 6527.952654049767
    vertex -78309.6557116246 2708.722257532919 6527.952654049767
  endloop
endfacet
facet normal 3.523625493433246e-35 -1.6302321156786927e-31 1.0
  outer loop
    vertex -77292.43517692147 2707.7387247844044 6527.952654049767
    vertex -78120.87148260768 1285.3993762491891 6527.952654049767
    vertex -77570.13685119773 -40.564000046380194 6527.952654049767
  endloop
endfacet
facet normal 3.523625493433246e-35 -1.6302321156786927e-31 1.0
  outer loop
    vertex -77292.43517692147 2707.7387247844044 6527.952654049767
    vertex -77570.13685119773 -40.564000046380194 6527.952654049767
    vertex -77292.37207520449 2644.4427246773794 6527.952654049767
  endloop
endfacet
facet normal 3.523625493433246e-35 -1.6302321156786927e-31 1.0
  outer loop
    vertex -77292.37207520449 2644.4427246773794 6527.952654049767
    vertex -77570.13685119773 -40.564000046380194 6527.952654049767
    vertex -77146.86358270739 1547.393633920708 6527.952654049767
  endloop
endfacet
facet normal 3.523625493433246e-35 -1.6302321156786927e-31 1.0
  outer loop
    vertex -77146.86358270739 1547.393633920708 6527.952654049767
    vertex -77570.13685119773 -40.564000046380194 6527.952654049767
    vertex -76694.98347239332 -1178.8056585173008 6527.952654049767
  endloop
endfacet
facet normal 3.523625493433246e-35 -1.6302321156786927e-31 1.0
  outer loop
    vertex -77146.86358270739 1547.393633920708 6527.952654049767
    vertex -76694.98347239332 -1178.8056585173008 6527.952654049767
    vertex -76697.12656926735 464.5948143525031 6527.952654049767
  endloop
endfacet
facet normal 3.523625493433246e-35 -1.6302321156786927e-31 1.0
  outer loop
    vertex -76697.12656926735 464.5948143525031 6527.952654049767
    vertex -76694.98347239332 -1178.8056585173008 6527.952654049767
    vertex -75982.46501642873 -464.9080257779957 6527.952654049767
  endloop
endfacet
facet normal 3.523625493433246e-35 -1.6302321156786927e-31 1.0
  outer loop
    vertex -75982.46501642873 -464.9080257779957 6527.952654049767
    vertex -76694.98347239332 -1178.8056585173008 6527.952654049767
    vertex -75555.0516027007 -2051.7563111720638 6527.952654049767
  endloop
endfacet
facet normal 3.523625493433246e-35 -1.6302321156786927e-31 1.0
  outer loop
    vertex -75982.46501642873 -464.9080257779957 6527.952654049767
    vertex -75555.0516027007 -2051.7563111720638 6527.952654049767
    vertex -75051.58192798341 -1177.7708039918432 6527.952654049767
  endloop
endfacet
facet normal 3.523625493433246e-35 -1.6302321156786927e-31 1.0
  outer loop
    vertex -75051.58192798341 -1177.7708039918432 6527.952654049767
    vertex -75555.0516027007 -2051.7563111720638 6527.952654049767
    vertex -74228.02571521285 -2599.9258136514222 6527.952654049767
  endloop
endfacet
facet normal 3.523625493433246e-35 -1.6302321156786927e-31 1.0
  outer loop
    vertex -75051.58192798341 -1177.7708039918432 6527.952654049767
    vertex -74228.02571521285 -2599.9258136514222 6527.952654049767
    vertex -73967.91544805188 -1625.4131000152863 6527.952654049767
  endloop
endfacet
facet normal 3.523625493433246e-35 -1.6302321156786927e-31 1.0
  outer loop
    vertex -73967.91544805188 -1625.4131000152863 6527.952654049767
    vertex -74228.02571521285 -2599.9258136514222 6527.952654049767
    vertex -72804.34043114813 -2785.9573202543256 6527.952654049767
  endloop
endfacet
facet normal 3.523625493433246e-35 -1.6302321156786927e-31 1.0
  outer loop
    vertex -73967.91544805188 -1625.4131000152863 6527.952654049767
    vertex -72804.34043114813 -2785.9573202543256 6527.952654049767
    vertex -72805.31565639799 -1777.328831138182 6527.952654049767
  endloop
endfacet
facet normal 3.523625493433246e-35 -1.6302321156786927e-31 1.0
  outer loop
    vertex -72805.31565639799 -1777.328831138182 6527.952654049767
    vertex -72804.34043114813 -2785.9573202543256 6527.952654049767
    vertex -71643.01180753589 -1623.1651913371152 6527.952654049767
  endloop
endfacet
facet normal 3.523625493433246e-35 -1.6302321156786927e-31 1.0
  outer loop
    vertex -71643.01180753589 -1623.1651913371152 6527.952654049767
    vertex -72804.34043114813 -2785.9573202543256 6527.952654049767
    vertex -71381.01754986438 -2597.173091237401 6527.952654049767
  endloop
endfacet
facet normal 3.523625493433246e-35 -1.6302321156786927e-31 1.0
  outer loop
    vertex -71643.01180753589 -1623.1651913371152 6527.952654049767
    vertex -71381.01754986438 -2597.173091237401 6527.952654049767
    vertex -70560.21298796768 -1173.4281778970892 6527.952654049767
  endloop
endfacet
facet normal 3.523625493433246e-35 -1.6302321156786927e-31 1.0
  outer loop
    vertex -70560.21298796768 -1173.4281778970892 6527.952654049767
    vertex -71381.01754986438 -2597.173091237401 6527.952654049767
    vertex -70055.05417356882 -2046.4384598274496 6527.952654049767
  endloop
endfacet
facet normal 3.523625493433246e-35 -1.6302321156786927e-31 1.0
  outer loop
    vertex -70560.21298796768 -1173.4281778970892 6527.952654049767
    vertex -70055.05417356882 -2046.4384598274496 6527.952654049767
    vertex -69630.71014783722 -458.7666250584577 6527.952654049767
  endloop
endfacet
facet normal 3.523625493433246e-35 -1.6302321156786927e-31 1.0
  outer loop
    vertex -69630.71014783722 -458.7666250584577 6527.952654049767
    vertex -70055.05417356882 -2046.4384598274496 6527.952654049767
    vertex -68916.81251509789 -1171.2850810230636 6527.952654049767
  endloop
endfacet
facet normal 3.523625493433246e-35 -1.6302321156786927e-31 1.0
  outer loop
    vertex -69630.71014783722 -458.7666250584577 6527.952654049767
    vertex -68916.81251509789 -1171.2850810230636 6527.952654049767
    vertex -68917.84736962337 472.11646338686006 6527.952654049767
  endloop
endfacet
facet normal 3.523625493433246e-35 -1.6302321156786927e-31 1.0
  outer loop
    vertex -68917.84736962337 472.11646338686006 6527.952654049767
    vertex -68916.81251509789 -1171.2850810230636 6527.952654049767
    vertex -68470.20507359992 1555.7829433183679 6527.952654049767
  endloop
endfacet
facet normal 3.523625493433246e-35 -1.6302321156786927e-31 1.0
  outer loop
    vertex -68470.20507359992 1555.7829433183679 6527.952654049767
    vertex -68916.81251509789 -1171.2850810230636 6527.952654049767
    vertex -68043.86186244314 -31.353211330414553 6527.952654049767
  endloop
endfacet
facet normal 3.523625493433246e-35 -1.6302321156786927e-31 1.0
  outer loop
    vertex -68470.20507359992 1555.7829433183679 6527.952654049767
    vertex -68043.86186244314 -31.353211330414553 6527.952654049767
    vertex -68326.81828634701 2653.1113618695967 6527.952654049767
  endloop
endfacet
facet normal 3.523625493433246e-35 -1.6302321156786927e-31 1.0
  outer loop
    vertex -68326.81828634701 2653.1113618695967 6527.952654049767
    vertex -67312.44001512146 2698.089241966609 6527.952654049767
    vertex -68326.88138806401 2699.070087592187 6527.952654049767
  endloop
endfacet
facet normal 3.523625493433246e-35 -1.6302321156786927e-31 1.0
  outer loop
    vertex -67312.44001512146 2698.089241966609 6527.952654049767
    vertex -68326.81828634701 2653.1113618695967 6527.952654049767
    vertex -68043.86186244314 -31.353211330414553 6527.952654049767
  endloop
endfacet
facet normal 3.523625493433246e-35 -1.6302321156786927e-31 1.0
  outer loop
    vertex -67312.44001512146 2698.089241966609 6527.952654049767
    vertex -68043.86186244314 -31.353211330414553 6527.952654049767
    vertex -67495.69235996378 1295.6726761574364 6527.952654049767
  endloop
endfacet
facet normal -1.545759282698833e-19 -3.9033971523521944e-16 -1.0
  outer loop
    vertex -78120.87148260768 4132.045138816648 4527.9526540497645
    vertex -77292.43517692147 2709.7057902814327 4527.952654049771
    vertex -78309.6557116246 2708.722257532919 4527.9526540497645
  endloop
endfacet
facet normal -1.545759282698833e-19 -3.9033971523521944e-16 -1.0
  outer loop
    vertex -77292.43517692147 2709.7057902814327 4527.952654049771
    vertex -78120.87148260768 4132.045138816648 4527.9526540497645
    vertex -77570.13685119773 5458.008515112218 4527.9526540497645
  endloop
endfacet
facet normal -1.545759282698833e-19 -3.9033971523521944e-16 -1.0
  outer loop
    vertex -77292.43517692147 2709.7057902814327 4527.952654049771
    vertex -77570.13685119773 5458.008515112218 4527.9526540497645
    vertex -77292.37207520449 2773.0017903884604 4527.952654049771
  endloop
endfacet
facet normal -1.545759282698833e-19 -3.9033971523521944e-16 -1.0
  outer loop
    vertex -77292.37207520449 2773.0017903884604 4527.952654049771
    vertex -77570.13685119773 5458.008515112218 4527.9526540497645
    vertex -77146.86358270739 3870.05088114513 4527.952654049771
  endloop
endfacet
facet normal -1.545759282698833e-19 -3.9033971523521944e-16 -1.0
  outer loop
    vertex -77146.86358270739 3870.05088114513 4527.952654049771
    vertex -77570.13685119773 5458.008515112218 4527.9526540497645
    vertex -76694.98347239332 6596.250173583138 4527.9526540497645
  endloop
endfacet
facet normal -1.545759282698833e-19 -3.9033971523521944e-16 -1.0
  outer loop
    vertex -77146.86358270739 3870.05088114513 4527.952654049771
    vertex -76694.98347239332 6596.250173583138 4527.9526540497645
    vertex -76697.12656926735 4952.849700713335 4527.952654049771
  endloop
endfacet
facet normal -1.545759282698833e-19 -3.9033971523521944e-16 -1.0
  outer loop
    vertex -76697.12656926735 4952.849700713335 4527.952654049771
    vertex -76694.98347239332 6596.250173583138 4527.9526540497645
    vertex -75982.46501642873 5882.352540843834 4527.952654049771
  endloop
endfacet
facet normal -1.545759282698833e-19 -3.9033971523521944e-16 -1.0
  outer loop
    vertex -75982.46501642873 5882.352540843834 4527.952654049771
    vertex -76694.98347239332 6596.250173583138 4527.9526540497645
    vertex -75555.0516027007 7469.200826237903 4527.9526540497645
  endloop
endfacet
facet normal -1.545759282698833e-19 -3.9033971523521944e-16 -1.0
  outer loop
    vertex -75982.46501642873 5882.352540843834 4527.952654049771
    vertex -75555.0516027007 7469.200826237903 4527.9526540497645
    vertex -75051.58192798341 6595.215319057681 4527.952654049771
  endloop
endfacet
facet normal -1.545759282698833e-19 -3.9033971523521944e-16 -1.0
  outer loop
    vertex -75051.58192798341 6595.215319057681 4527.952654049771
    vertex -75555.0516027007 7469.200826237903 4527.9526540497645
    vertex -74228.02571521285 8017.370328717262 4527.9526540497645
  endloop
endfacet
facet normal -1.545759282698833e-19 -3.9033971523521944e-16 -1.0
  outer loop
    vertex -75051.58192798341 6595.215319057681 4527.952654049771
    vertex -74228.02571521285 8017.370328717262 4527.9526540497645
    vertex -73967.91544805188 7042.857615081126 4527.952654049771
  endloop
endfacet
facet normal -1.545759282698833e-19 -3.9033971523521944e-16 -1.0
  outer loop
    vertex -73967.91544805188 7042.857615081126 4527.952654049771
    vertex -74228.02571521285 8017.370328717262 4527.9526540497645
    vertex -72804.34043114813 8203.401835320163 4527.9526540497645
  endloop
endfacet
facet normal -1.545759282698833e-19 -3.9033971523521944e-16 -1.0
  outer loop
    vertex -73967.91544805188 7042.857615081126 4527.952654049771
    vertex -72804.34043114813 8203.401835320163 4527.9526540497645
    vertex -72805.31565639799 7194.77334620402 4527.952654049771
  endloop
endfacet
facet normal -1.545759282698833e-19 -3.9033971523521944e-16 -1.0
  outer loop
    vertex -72805.31565639799 7194.77334620402 4527.952654049771
    vertex -72804.34043114813 8203.401835320163 4527.9526540497645
    vertex -71643.01180753589 7040.6097064029545 4527.952654049771
  endloop
endfacet
facet normal -1.545759282698833e-19 -3.9033971523521944e-16 -1.0
  outer loop
    vertex -71643.01180753589 7040.6097064029545 4527.952654049771
    vertex -72804.34043114813 8203.401835320163 4527.9526540497645
    vertex -71381.01754986438 8014.61760630324 4527.9526540497645
  endloop
endfacet
facet normal -1.545759282698833e-19 -3.9033971523521944e-16 -1.0
  outer loop
    vertex -71643.01180753589 7040.6097064029545 4527.952654049771
    vertex -71381.01754986438 8014.61760630324 4527.9526540497645
    vertex -70560.21298796768 6590.872692962928 4527.952654049771
  endloop
endfacet
facet normal -1.545759282698833e-19 -3.9033971523521944e-16 -1.0
  outer loop
    vertex -70560.21298796768 6590.872692962928 4527.952654049771
    vertex -71381.01754986438 8014.61760630324 4527.9526540497645
    vertex -70055.05417356882 7463.8829748932885 4527.9526540497645
  endloop
endfacet
facet normal -1.545759282698833e-19 -3.9033971523521944e-16 -1.0
  outer loop
    vertex -70560.21298796768 6590.872692962928 4527.952654049771
    vertex -70055.05417356882 7463.8829748932885 4527.9526540497645
    vertex -69630.71014783722 5876.2111401242955 4527.952654049771
  endloop
endfacet
facet normal -1.545759282698833e-19 -3.9033971523521944e-16 -1.0
  outer loop
    vertex -69630.71014783722 5876.2111401242955 4527.952654049771
    vertex -70055.05417356882 7463.8829748932885 4527.9526540497645
    vertex -68916.81251509789 6588.729596088901 4527.9526540497645
  endloop
endfacet
facet normal -1.545759282698833e-19 -3.9033971523521944e-16 -1.0
  outer loop
    vertex -69630.71014783722 5876.2111401242955 4527.952654049771
    vertex -68916.81251509789 6588.729596088901 4527.9526540497645
    vertex -68917.84736962337 4945.328051678978 4527.952654049771
  endloop
endfacet
facet normal -1.545759282698833e-19 -3.9033971523521944e-16 -1.0
  outer loop
    vertex -68917.84736962337 4945.328051678978 4527.952654049771
    vertex -68916.81251509789 6588.729596088901 4527.9526540497645
    vertex -68470.20507359992 3861.66157174747 4527.952654049771
  endloop
endfacet
facet normal -1.545759282698833e-19 -3.9033971523521944e-16 -1.0
  outer loop
    vertex -68470.20507359992 3861.66157174747 4527.952654049771
    vertex -68916.81251509789 6588.729596088901 4527.9526540497645
    vertex -68043.86186244314 5448.797726396252 4527.9526540497645
  endloop
endfacet
facet normal -1.545759282698833e-19 -3.9033971523521944e-16 -1.0
  outer loop
    vertex -68470.20507359992 3861.66157174747 4527.952654049771
    vertex -68043.86186244314 5448.797726396252 4527.9526540497645
    vertex -68326.81828634701 2764.333153196243 4527.952654049771
  endloop
endfacet
facet normal -1.545759282698833e-19 -3.9033971523521944e-16 -1.0
  outer loop
    vertex -68326.81828634701 2764.333153196243 4527.952654049771
    vertex -67312.44001512146 2719.355273099231 4527.9526540497645
    vertex -68326.88138806401 2718.3744274736505 4527.952654049771
  endloop
endfacet
facet normal -1.545759282698833e-19 -3.9033971523521944e-16 -1.0
  outer loop
    vertex -67312.44001512146 2719.355273099231 4527.9526540497645
    vertex -68326.81828634701 2764.333153196243 4527.952654049771
    vertex -68043.86186244314 5448.797726396252 4527.9526540497645
  endloop
endfacet
facet normal -1.545759282698833e-19 -3.9033971523521944e-16 -1.0
  outer loop
    vertex -67312.44001512146 2719.355273099231 4527.9526540497645
    vertex -68043.86186244314 5448.797726396252 4527.9526540497645
    vertex -67495.69235996378 4121.771838908401 4527.9526540497645
  endloop
endfacet
facet normal -0.0 -0.0 1.0
  outer loop
    vertex -67312.44001512146 2698.089241966609 6527.952654049767
    vertex -68326.87205554965 2708.722257532919 6527.952654049767
    vertex -68326.88138806401 2699.070087592187 6527.952654049767
  endloop
endfacet
facet normal -0.0 -0.0 1.0
  outer loop
    vertex -68326.87205554965 2708.722257532919 6527.952654049767
    vertex -67312.44001512146 2719.355273099231 6527.952654049767
    vertex -68326.88138806401 2718.3744274736505 6527.952654049767
  endloop
endfacet
facet normal -0.0 -0.0 1.0
  outer loop
    vertex -67312.44001512146 2719.355273099231 6527.952654049767
    vertex -68326.87205554965 2708.722257532919 6527.952654049767
    vertex -67312.44001512146 2698.089241966609 6527.952654049767
  endloop
endfacet
facet normal -0.0 -0.0 1.0
  outer loop
    vertex -67312.44001512146 2719.355273099231 6527.952654049767
    vertex -67312.44001512146 2698.089241966609 6527.952654049767
    vertex -67311.05060980297 2708.722257532919 6527.952654049767
  endloop
endfacet
facet normal 1.8792669298310942e-35 8.694571283619693e-32 1.0
  outer loop
    vertex -67312.44001512146 2719.355273099231 6527.952654049767
    vertex -68326.81828634701 2764.333153196243 6527.952654049767
    vertex -68326.88138806401 2718.3744274736505 6527.952654049767
  endloop
endfacet
facet normal 1.8792669298310942e-35 8.694571283619693e-32 1.0
  outer loop
    vertex -68326.81828634701 2764.333153196243 6527.952654049767
    vertex -67312.44001512146 2719.355273099231 6527.952654049767
    vertex -68043.86186244314 5448.797726396252 6527.952654049767
  endloop
endfacet
facet normal 1.8792669298310942e-35 8.694571283619693e-32 1.0
  outer loop
    vertex -68043.86186244314 5448.797726396252 6527.952654049767
    vertex -67312.44001512146 2719.355273099231 6527.952654049767
    vertex -67495.69235996378 4121.771838908401 6527.952654049767
  endloop
endfacet
facet normal 1.8792669298310942e-35 8.694571283619693e-32 1.0
  outer loop
    vertex -77292.43517692147 2709.7057902814327 6527.952654049767
    vertex -78120.87148260768 4132.045138816648 6527.952654049767
    vertex -78309.6557116246 2708.722257532919 6527.952654049767
  endloop
endfacet
facet normal 1.8792669298310942e-35 8.694571283619693e-32 1.0
  outer loop
    vertex -78120.87148260768 4132.045138816648 6527.952654049767
    vertex -77292.43517692147 2709.7057902814327 6527.952654049767
    vertex -77570.13685119773 5458.008515112218 6527.952654049767
  endloop
endfacet
facet normal 1.8792669298310942e-35 8.694571283619693e-32 1.0
  outer loop
    vertex -77570.13685119773 5458.008515112218 6527.952654049767
    vertex -77292.43517692147 2709.7057902814327 6527.952654049767
    vertex -77292.37207520449 2773.0017903884604 6527.952654049767
  endloop
endfacet
facet normal 1.8792669298310942e-35 8.694571283619693e-32 1.0
  outer loop
    vertex -77570.13685119773 5458.008515112218 6527.952654049767
    vertex -77292.37207520449 2773.0017903884604 6527.952654049767
    vertex -77146.86358270739 3870.05088114513 6527.952654049767
  endloop
endfacet
facet normal 1.8792669298310942e-35 8.694571283619693e-32 1.0
  outer loop
    vertex -77570.13685119773 5458.008515112218 6527.952654049767
    vertex -77146.86358270739 3870.05088114513 6527.952654049767
    vertex -76694.98347239332 6596.250173583138 6527.952654049767
  endloop
endfacet
facet normal 1.8792669298310942e-35 8.694571283619693e-32 1.0
  outer loop
    vertex -76694.98347239332 6596.250173583138 6527.952654049767
    vertex -77146.86358270739 3870.05088114513 6527.952654049767
    vertex -76697.12656926735 4952.849700713335 6527.952654049767
  endloop
endfacet
facet normal 1.8792669298310942e-35 8.694571283619693e-32 1.0
  outer loop
    vertex -76694.98347239332 6596.250173583138 6527.952654049767
    vertex -76697.12656926735 4952.849700713335 6527.952654049767
    vertex -75982.46501642873 5882.352540843834 6527.952654049767
  endloop
endfacet
facet normal 1.8792669298310942e-35 8.694571283619693e-32 1.0
  outer loop
    vertex -76694.98347239332 6596.250173583138 6527.952654049767
    vertex -75982.46501642873 5882.352540843834 6527.952654049767
    vertex -75555.0516027007 7469.200826237903 6527.952654049767
  endloop
endfacet
facet normal 1.8792669298310942e-35 8.694571283619693e-32 1.0
  outer loop
    vertex -75555.0516027007 7469.200826237903 6527.952654049767
    vertex -75982.46501642873 5882.352540843834 6527.952654049767
    vertex -75051.58192798341 6595.215319057681 6527.952654049767
  endloop
endfacet
facet normal 1.8792669298310942e-35 8.694571283619693e-32 1.0
  outer loop
    vertex -75555.0516027007 7469.200826237903 6527.952654049767
    vertex -75051.58192798341 6595.215319057681 6527.952654049767
    vertex -74228.02571521285 8017.370328717262 6527.952654049767
  endloop
endfacet
facet normal 1.8792669298310942e-35 8.694571283619693e-32 1.0
  outer loop
    vertex -74228.02571521285 8017.370328717262 6527.952654049767
    vertex -75051.58192798341 6595.215319057681 6527.952654049767
    vertex -73967.91544805188 7042.857615081126 6527.952654049767
  endloop
endfacet
facet normal 1.8792669298310942e-35 8.694571283619693e-32 1.0
  outer loop
    vertex -74228.02571521285 8017.370328717262 6527.952654049767
    vertex -73967.91544805188 7042.857615081126 6527.952654049767
    vertex -72804.34043114813 8203.401835320163 6527.952654049767
  endloop
endfacet
facet normal 1.8792669298310942e-35 8.694571283619693e-32 1.0
  outer loop
    vertex -72804.34043114813 8203.401835320163 6527.952654049767
    vertex -73967.91544805188 7042.857615081126 6527.952654049767
    vertex -72805.31565639799 7194.77334620402 6527.952654049767
  endloop
endfacet
facet normal 1.8792669298310942e-35 8.694571283619693e-32 1.0
  outer loop
    vertex -72804.34043114813 8203.401835320163 6527.952654049767
    vertex -72805.31565639799 7194.77334620402 6527.952654049767
    vertex -71643.01180753589 7040.6097064029545 6527.952654049767
  endloop
endfacet
facet normal 1.8792669298310942e-35 8.694571283619693e-32 1.0
  outer loop
    vertex -72804.34043114813 8203.401835320163 6527.952654049767
    vertex -71643.01180753589 7040.6097064029545 6527.952654049767
    vertex -71381.01754986438 8014.61760630324 6527.952654049767
  endloop
endfacet
facet normal 1.8792669298310942e-35 8.694571283619693e-32 1.0
  outer loop
    vertex -71381.01754986438 8014.61760630324 6527.952654049767
    vertex -71643.01180753589 7040.6097064029545 6527.952654049767
    vertex -70560.21298796768 6590.872692962928 6527.952654049767
  endloop
endfacet
facet normal 1.8792669298310942e-35 8.694571283619693e-32 1.0
  outer loop
    vertex -71381.01754986438 8014.61760630324 6527.952654049767
    vertex -70560.21298796768 6590.872692962928 6527.952654049767
    vertex -70055.05417356882 7463.8829748932885 6527.952654049767
  endloop
endfacet
facet normal 1.8792669298310942e-35 8.694571283619693e-32 1.0
  outer loop
    vertex -70055.05417356882 7463.8829748932885 6527.952654049767
    vertex -70560.21298796768 6590.872692962928 6527.952654049767
    vertex -69630.71014783722 5876.2111401242955 6527.952654049767
  endloop
endfacet
facet normal 1.8792669298310942e-35 8.694571283619693e-32 1.0
  outer loop
    vertex -70055.05417356882 7463.8829748932885 6527.952654049767
    vertex -69630.71014783722 5876.2111401242955 6527.952654049767
    vertex -68916.81251509789 6588.729596088901 6527.952654049767
  endloop
endfacet
facet normal 1.8792669298310942e-35 8.694571283619693e-32 1.0
  outer loop
    vertex -68916.81251509789 6588.729596088901 6527.952654049767
    vertex -69630.71014783722 5876.2111401242955 6527.952654049767
    vertex -68917.84736962337 4945.328051678978 6527.952654049767
  endloop
endfacet
facet normal 1.8792669298310942e-35 8.694571283619693e-32 1.0
  outer loop
    vertex -68916.81251509789 6588.729596088901 6527.952654049767
    vertex -68917.84736962337 4945.328051678978 6527.952654049767
    vertex -68470.20507359992 3861.66157174747 6527.952654049767
  endloop
endfacet
facet normal 1.8792669298310942e-35 8.694571283619693e-32 1.0
  outer loop
    vertex -68916.81251509789 6588.729596088901 6527.952654049767
    vertex -68470.20507359992 3861.66157174747 6527.952654049767
    vertex -68043.86186244314 5448.797726396252 6527.952654049767
  endloop
endfacet
facet normal 1.8792669298310942e-35 8.694571283619693e-32 1.0
  outer loop
    vertex -68043.86186244314 5448.797726396252 6527.952654049767
    vertex -68470.20507359992 3861.66157174747 6527.952654049767
    vertex -68326.81828634701 2764.333153196243 6527.952654049767
  endloop
endfacet
facet normal -1.545759282698913e-19 3.903397152352195e-16 -1.0
  outer loop
    vertex -67312.44001512146 2698.089241966609 4527.9526540497645
    vertex -68326.81828634701 2653.1113618695967 4527.952654049771
    vertex -68326.88138806401 2699.070087592187 4527.952654049771
  endloop
endfacet
facet normal -1.545759282698913e-19 3.903397152352195e-16 -1.0
  outer loop
    vertex -68326.81828634701 2653.1113618695967 4527.952654049771
    vertex -67312.44001512146 2698.089241966609 4527.9526540497645
    vertex -68043.86186244314 -31.353211330414553 4527.9526540497645
  endloop
endfacet
facet normal -1.545759282698913e-19 3.903397152352195e-16 -1.0
  outer loop
    vertex -68043.86186244314 -31.353211330414553 4527.9526540497645
    vertex -67312.44001512146 2698.089241966609 4527.9526540497645
    vertex -67495.69235996378 1295.6726761574364 4527.9526540497645
  endloop
endfacet
facet normal -1.545759282698913e-19 3.903397152352195e-16 -1.0
  outer loop
    vertex -77292.43517692147 2707.7387247844044 4527.952654049771
    vertex -78120.87148260768 1285.3993762491891 4527.9526540497645
    vertex -78309.6557116246 2708.722257532919 4527.9526540497645
  endloop
endfacet
facet normal -1.545759282698913e-19 3.903397152352195e-16 -1.0
  outer loop
    vertex -78120.87148260768 1285.3993762491891 4527.9526540497645
    vertex -77292.43517692147 2707.7387247844044 4527.952654049771
    vertex -77570.13685119773 -40.564000046380194 4527.9526540497645
  endloop
endfacet
facet normal -1.545759282698913e-19 3.903397152352195e-16 -1.0
  outer loop
    vertex -77570.13685119773 -40.564000046380194 4527.9526540497645
    vertex -77292.43517692147 2707.7387247844044 4527.952654049771
    vertex -77292.37207520449 2644.4427246773794 4527.952654049771
  endloop
endfacet
facet normal -1.545759282698913e-19 3.903397152352195e-16 -1.0
  outer loop
    vertex -77570.13685119773 -40.564000046380194 4527.9526540497645
    vertex -77292.37207520449 2644.4427246773794 4527.952654049771
    vertex -77146.86358270739 1547.393633920708 4527.952654049771
  endloop
endfacet
facet normal -1.545759282698913e-19 3.903397152352195e-16 -1.0
  outer loop
    vertex -77570.13685119773 -40.564000046380194 4527.9526540497645
    vertex -77146.86358270739 1547.393633920708 4527.952654049771
    vertex -76694.98347239332 -1178.8056585173008 4527.9526540497645
  endloop
endfacet
facet normal -1.545759282698913e-19 3.903397152352195e-16 -1.0
  outer loop
    vertex -76694.98347239332 -1178.8056585173008 4527.9526540497645
    vertex -77146.86358270739 1547.393633920708 4527.952654049771
    vertex -76697.12656926735 464.5948143525031 4527.952654049771
  endloop
endfacet
facet normal -1.545759282698913e-19 3.903397152352195e-16 -1.0
  outer loop
    vertex -76694.98347239332 -1178.8056585173008 4527.9526540497645
    vertex -76697.12656926735 464.5948143525031 4527.952654049771
    vertex -75982.46501642873 -464.9080257779957 4527.952654049771
  endloop
endfacet
facet normal -1.545759282698913e-19 3.903397152352195e-16 -1.0
  outer loop
    vertex -76694.98347239332 -1178.8056585173008 4527.9526540497645
    vertex -75982.46501642873 -464.9080257779957 4527.952654049771
    vertex -75555.0516027007 -2051.7563111720638 4527.9526540497645
  endloop
endfacet
facet normal -1.545759282698913e-19 3.903397152352195e-16 -1.0
  outer loop
    vertex -75555.0516027007 -2051.7563111720638 4527.9526540497645
    vertex -75982.46501642873 -464.9080257779957 4527.952654049771
    vertex -75051.58192798341 -1177.7708039918432 4527.952654049771
  endloop
endfacet
facet normal -1.545759282698913e-19 3.903397152352195e-16 -1.0
  outer loop
    vertex -75555.0516027007 -2051.7563111720638 4527.9526540497645
    vertex -75051.58192798341 -1177.7708039918432 4527.952654049771
    vertex -74228.02571521285 -2599.9258136514222 4527.9526540497645
  endloop
endfacet
facet normal -1.545759282698913e-19 3.903397152352195e-16 -1.0
  outer loop
    vertex -74228.02571521285 -2599.9258136514222 4527.9526540497645
    vertex -75051.58192798341 -1177.7708039918432 4527.952654049771
    vertex -73967.91544805188 -1625.4131000152863 4527.952654049771
  endloop
endfacet
facet normal -1.545759282698913e-19 3.903397152352195e-16 -1.0
  outer loop
    vertex -74228.02571521285 -2599.9258136514222 4527.9526540497645
    vertex -73967.91544805188 -1625.4131000152863 4527.952654049771
    vertex -72804.34043114813 -2785.9573202543256 4527.9526540497645
  endloop
endfacet
facet normal -1.545759282698913e-19 3.903397152352195e-16 -1.0
  outer loop
    vertex -72804.34043114813 -2785.9573202543256 4527.9526540497645
    vertex -73967.91544805188 -1625.4131000152863 4527.952654049771
    vertex -72805.31565639799 -1777.328831138182 4527.952654049771
  endloop
endfacet
facet normal -1.545759282698913e-19 3.903397152352195e-16 -1.0
  outer loop
    vertex -72804.34043114813 -2785.9573202543256 4527.9526540497645
    vertex -72805.31565639799 -1777.328831138182 4527.952654049771
    vertex -71643.01180753589 -1623.1651913371152 4527.952654049771
  endloop
endfacet
facet normal -1.545759282698913e-19 3.903397152352195e-16 -1.0
  outer loop
    vertex -72804.34043114813 -2785.9573202543256 4527.9526540497645
    vertex -71643.01180753589 -1623.1651913371152 4527.952654049771
    vertex -71381.01754986438 -2597.173091237401 4527.9526540497645
  endloop
endfacet
facet normal -1.545759282698913e-19 3.903397152352195e-16 -1.0
  outer loop
    vertex -71381.01754986438 -2597.173091237401 4527.9526540497645
    vertex -71643.01180753589 -1623.1651913371152 4527.952654049771
    vertex -70560.21298796768 -1173.4281778970892 4527.952654049771
  endloop
endfacet
facet normal -1.545759282698913e-19 3.903397152352195e-16 -1.0
  outer loop
    vertex -71381.01754986438 -2597.173091237401 4527.9526540497645
    vertex -70560.21298796768 -1173.4281778970892 4527.952654049771
    vertex -70055.05417356882 -2046.4384598274496 4527.9526540497645
  endloop
endfacet
facet normal -1.545759282698913e-19 3.903397152352195e-16 -1.0
  outer loop
    vertex -70055.05417356882 -2046.4384598274496 4527.9526540497645
    vertex -70560.21298796768 -1173.4281778970892 4527.952654049771
    vertex -69630.71014783722 -458.7666250584577 4527.952654049771
  endloop
endfacet
facet normal -1.545759282698913e-19 3.903397152352195e-16 -1.0
  outer loop
    vertex -70055.05417356882 -2046.4384598274496 4527.9526540497645
    vertex -69630.71014783722 -458.7666250584577 4527.952654049771
    vertex -68916.81251509789 -1171.2850810230636 4527.9526540497645
  endloop
endfacet
facet normal -1.545759282698913e-19 3.903397152352195e-16 -1.0
  outer loop
    vertex -68916.81251509789 -1171.2850810230636 4527.9526540497645
    vertex -69630.71014783722 -458.7666250584577 4527.952654049771
    vertex -68917.84736962337 472.11646338686006 4527.952654049771
  endloop
endfacet
facet normal -1.545759282698913e-19 3.903397152352195e-16 -1.0
  outer loop
    vertex -68916.81251509789 -1171.2850810230636 4527.9526540497645
    vertex -68917.84736962337 472.11646338686006 4527.952654049771
    vertex -68470.20507359992 1555.7829433183679 4527.952654049771
  endloop
endfacet
facet normal -1.545759282698913e-19 3.903397152352195e-16 -1.0
  outer loop
    vertex -68916.81251509789 -1171.2850810230636 4527.9526540497645
    vertex -68470.20507359992 1555.7829433183679 4527.952654049771
    vertex -68043.86186244314 -31.353211330414553 4527.9526540497645
  endloop
endfacet
facet normal -1.545759282698913e-19 3.903397152352195e-16 -1.0
  outer loop
    vertex -68043.86186244314 -31.353211330414553 4527.9526540497645
    vertex -68470.20507359992 1555.7829433183679 4527.952654049771
    vertex -68326.81828634701 2653.1113618695967 4527.952654049771
  endloop
endfacet
facet normal -0.9999990574252839 0.0013730071171338194 1.1191731407712768e-21
  outer loop
    vertex -68326.81828634701 2764.333153196243 6527.952654049767
    vertex -68326.88138806401 2718.3744274736505 4527.952654049771
    vertex -68326.88138806401 2718.3744274736505 6527.952654049767
  endloop
endfacet
facet normal -0.9999990574252839 0.0013730071171338194 1.1191731407712768e-21
  outer loop
    vertex -68326.88138806401 2718.3744274736505 4527.952654049771
    vertex -68326.81828634701 2764.333153196243 6527.952654049767
    vertex -68326.81828634701 2764.333153196243 4527.952654049771
  endloop
endfacet
facet normal -0.0 -0.0 1.0
  outer loop
    vertex -67309.66085336088 2698.086554843696 6527.952654049767
    vertex -67311.05060980297 2708.722257532919 6527.952654049767
    vertex -67312.44001512146 2698.089241966609 6527.952654049767
  endloop
endfacet
facet normal -0.0 -0.0 1.0
  outer loop
    vertex -67309.66085336088 2719.357960222141 4527.9526540497645
    vertex -67312.44001512146 2719.355273099231 4527.9526540497645
    vertex -67311.05060980297 2708.722257532919 4527.9526540497645
  endloop
endfacet
facet normal -5.690490289295289e-15 -9.755720318265959e-30 -1.0
  outer loop
    vertex -67312.44001512146 2719.355273099231 4527.9526540497645
    vertex -68326.87205554965 2708.722257532919 4527.952654049771
    vertex -68326.88138806401 2718.3744274736505 4527.952654049771
  endloop
endfacet
facet normal -5.690490289295289e-15 -9.755720318265959e-30 -1.0
  outer loop
    vertex -68326.87205554965 2708.722257532919 4527.952654049771
    vertex -67312.44001512146 2698.089241966609 4527.9526540497645
    vertex -68326.88138806401 2699.070087592187 4527.952654049771
  endloop
endfacet
facet normal -5.690490289295289e-15 -9.755720318265959e-30 -1.0
  outer loop
    vertex -67312.44001512146 2698.089241966609 4527.9526540497645
    vertex -68326.87205554965 2708.722257532919 4527.952654049771
    vertex -67312.44001512146 2719.355273099231 4527.9526540497645
  endloop
endfacet
facet normal -5.690490289295289e-15 -9.755720318265959e-30 -1.0
  outer loop
    vertex -67312.44001512146 2698.089241966609 4527.9526540497645
    vertex -67312.44001512146 2719.355273099231 4527.9526540497645
    vertex -67311.05060980297 2708.722257532919 4527.9526540497645
  endloop
endfacet
facet normal -0.9235090909153211 0.38357653603519265 3.850339151733832e-30
  outer loop
    vertex -77570.13685119773 5458.008515112218 6527.952654049767
    vertex -78120.87148260768 4132.045138816648 4527.9526540497645
    vertex -78120.87148260768 4132.045138816648 6527.952654049767
  endloop
endfacet
facet normal -0.9235090909153211 0.38357653603519265 3.850339151733832e-30
  outer loop
    vertex -78120.87148260768 4132.045138816648 4527.9526540497645
    vertex -77570.13685119773 5458.008515112218 6527.952654049767
    vertex -77570.13685119773 5458.008515112218 4527.9526540497645
  endloop
endfacet
facet normal -0.3817899709391165 0.9242491104081781 -1.4001421826100555e-17
  outer loop
    vertex -75555.0516027007 7469.200826237903 6527.952654049767
    vertex -74228.02571521285 8017.370328717262 4527.9526540497645
    vertex -75555.0516027007 7469.200826237903 4527.9526540497645
  endloop
endfacet
facet normal -0.3817899709391165 0.9242491104081781 -1.4001421826100555e-17
  outer loop
    vertex -74228.02571521285 8017.370328717262 4527.9526540497645
    vertex -75555.0516027007 7469.200826237903 6527.952654049767
    vertex -74228.02571521285 8017.370328717262 6527.952654049767
  endloop
endfacet
facet normal -0.9913181945082096 0.13148474146068645 0.0
  outer loop
    vertex -78120.87148260768 4132.045138816648 6527.952654049767
    vertex -78309.6557116246 2708.722257532919 4527.9526540497645
    vertex -78309.6557116246 2708.722257532919 6527.952654049767
  endloop
endfacet
facet normal -0.9913181945082096 0.13148474146068645 0.0
  outer loop
    vertex -78309.6557116246 2708.722257532919 4527.9526540497645
    vertex -78120.87148260768 4132.045138816648 6527.952654049767
    vertex -78120.87148260768 4132.045138816648 4527.9526540497645
  endloop
endfacet
facet normal -0.12956752095553875 0.9915706013761382 -2.583815325793634e-31
  outer loop
    vertex -74228.02571521285 8017.370328717262 6527.952654049767
    vertex -72804.34043114813 8203.401835320163 4527.9526540497645
    vertex -74228.02571521285 8017.370328717262 4527.9526540497645
  endloop
endfacet
facet normal -0.12956752095553875 0.9915706013761382 -2.583815325793634e-31
  outer loop
    vertex -72804.34043114813 8203.401835320163 4527.9526540497645
    vertex -74228.02571521285 8017.370328717262 6527.952654049767
    vertex -72804.34043114813 8203.401835320163 6527.952654049767
  endloop
endfacet
facet normal 0.3835765360351983 0.9235090909153187 -1.4066940706723804e-17
  outer loop
    vertex -71381.01754986438 8014.61760630324 6527.952654049767
    vertex -70055.05417356882 7463.8829748932885 4527.9526540497645
    vertex -71381.01754986438 8014.61760630324 4527.9526540497645
  endloop
endfacet
facet normal 0.3835765360351983 0.9235090909153187 -1.4066940706723804e-17
  outer loop
    vertex -70055.05417356882 7463.8829748932885 4527.9526540497645
    vertex -71381.01754986438 8014.61760630324 6527.952654049767
    vertex -70055.05417356882 7463.8829748932885 6527.952654049767
  endloop
endfacet
facet normal 0.38178997093910527 -0.9242491104081827 -8.473770038661546e-18
  outer loop
    vertex -73967.91544805188 7042.857615081126 6527.952654049767
    vertex -75051.58192798341 6595.215319057681 4527.952654049771
    vertex -73967.91544805188 7042.857615081126 4527.952654049771
  endloop
endfacet
facet normal 0.38178997093910527 -0.9242491104081827 -8.473770038661546e-18
  outer loop
    vertex -75051.58192798341 6595.215319057681 4527.952654049771
    vertex -73967.91544805188 7042.857615081126 6527.952654049767
    vertex -75051.58192798341 6595.215319057681 6527.952654049767
  endloop
endfacet
facet normal 0.12956752095554203 -0.9915706013761377 2.375821333648082e-18
  outer loop
    vertex -72805.31565639799 7194.77334620402 6527.952654049767
    vertex -73967.91544805188 7042.857615081126 4527.952654049771
    vertex -72805.31565639799 7194.77334620402 4527.952654049771
  endloop
endfacet
facet normal 0.12956752095554203 -0.9915706013761377 2.375821333648082e-18
  outer loop
    vertex -73967.91544805188 7042.857615081126 4527.952654049771
    vertex -72805.31565639799 7194.77334620402 6527.952654049767
    vertex -73967.91544805188 7042.857615081126 6527.952654049767
  endloop
endfacet
facet normal 0.13148474146069178 0.9913181945082089 4.5443389237851635e-18
  outer loop
    vertex -72804.34043114813 8203.401835320163 6527.952654049767
    vertex -71381.01754986438 8014.61760630324 4527.9526540497645
    vertex -72804.34043114813 8203.401835320163 4527.9526540497645
  endloop
endfacet
facet normal 0.13148474146069178 0.9913181945082089 4.5443389237851635e-18
  outer loop
    vertex -71381.01754986438 8014.61760630324 4527.9526540497645
    vertex -72804.34043114813 8203.401835320163 6527.952654049767
    vertex -71381.01754986438 8014.61760630324 6527.952654049767
  endloop
endfacet
facet normal -0.6079940653409529 0.793941569959768 2.068837451816039e-31
  outer loop
    vertex -76694.98347239332 6596.250173583138 6527.952654049767
    vertex -75555.0516027007 7469.200826237903 4527.9526540497645
    vertex -76694.98347239332 6596.250173583138 4527.9526540497645
  endloop
endfacet
facet normal -0.6079940653409529 0.793941569959768 2.068837451816039e-31
  outer loop
    vertex -75555.0516027007 7469.200826237903 4527.9526540497645
    vertex -76694.98347239332 6596.250173583138 6527.952654049767
    vertex -75555.0516027007 7469.200826237903 6527.952654049767
  endloop
endfacet
facet normal 0.0 0.0 -1.0
  outer loop
    vertex -67309.66085336088 2698.086554843696 4527.9526540497645
    vertex -67312.44001512146 2698.089241966609 4527.9526540497645
    vertex -67311.05060980297 2708.722257532919 4527.9526540497645
  endloop
endfacet
facet normal 0.7939415699597795 0.6079940653409378 -0.0
  outer loop
    vertex -68916.81251509789 6588.729596088901 4527.9526540497645
    vertex -68043.86186244314 5448.797726396252 6527.952654049767
    vertex -68043.86186244314 5448.797726396252 4527.9526540497645
  endloop
endfacet
facet normal 0.7939415699597795 0.6079940653409378 -0.0
  outer loop
    vertex -68043.86186244314 5448.797726396252 6527.952654049767
    vertex -68916.81251509789 6588.729596088901 4527.9526540497645
    vertex -68916.81251509789 6588.729596088901 6527.952654049767
  endloop
endfacet
facet normal 0.607994065340936 -0.7939415699597808 0.0
  outer loop
    vertex -75051.58192798341 6595.215319057681 6527.952654049767
    vertex -75982.46501642873 5882.352540843834 4527.952654049771
    vertex -75051.58192798341 6595.215319057681 4527.952654049771
  endloop
endfacet
facet normal 0.607994065340936 -0.7939415699597808 0.0
  outer loop
    vertex -75982.46501642873 5882.352540843834 4527.952654049771
    vertex -75051.58192798341 6595.215319057681 6527.952654049767
    vertex -75982.46501642873 5882.352540843834 6527.952654049767
  endloop
endfacet
facet normal -0.13148474146069697 -0.9913181945082084 2.4109765434105345e-18
  outer loop
    vertex -71643.01180753589 7040.6097064029545 6527.952654049767
    vertex -72805.31565639799 7194.77334620402 4527.952654049771
    vertex -71643.01180753589 7040.6097064029545 4527.952654049771
  endloop
endfacet
facet normal -0.13148474146069697 -0.9913181945082084 2.4109765434105345e-18
  outer loop
    vertex -72805.31565639799 7194.77334620402 4527.952654049771
    vertex -71643.01180753589 7040.6097064029545 6527.952654049767
    vertex -72805.31565639799 7194.77334620402 6527.952654049767
  endloop
endfacet
facet normal 0.9915706013761371 0.12956752095554716 4.597032660504362e-18
  outer loop
    vertex -67311.05060980297 2708.722257532919 4527.9526540497645
    vertex -67309.66085336088 2698.086554843696 6527.952654049767
    vertex -67309.66085336088 2698.086554843696 4527.9526540497645
  endloop
endfacet
facet normal 0.9915706013761371 0.12956752095554716 4.597032660504362e-18
  outer loop
    vertex -67309.66085336088 2698.086554843696 6527.952654049767
    vertex -67311.05060980297 2708.722257532919 4527.9526540497645
    vertex -67311.05060980297 2708.722257532919 6527.952654049767
  endloop
endfacet
facet normal 0.9915706013761371 0.12956752095554716 4.597032660504362e-18
  outer loop
    vertex -67311.05060980297 2708.722257532919 6527.952654049767
    vertex -67311.05060980297 2708.722257532919 4527.9526540497645
    vertex -67312.44001512146 2719.355273099231 4527.9526540497645
  endloop
endfacet
facet normal 0.9915706013761371 0.12956752095554716 4.597032660504362e-18
  outer loop
    vertex -67311.05060980297 2708.722257532919 6527.952654049767
    vertex -67312.44001512146 2719.355273099231 4527.9526540497645
    vertex -67312.44001512146 2719.355273099231 6527.952654049767
  endloop
endfacet
facet normal 0.9915706013761371 0.12956752095554716 4.597032660504362e-18
  outer loop
    vertex -67312.44001512146 2719.355273099231 6527.952654049767
    vertex -67312.44001512146 2719.355273099231 4527.9526540497645
    vertex -67495.69235996378 4121.771838908401 4527.9526540497645
  endloop
endfacet
facet normal 0.9915706013761371 0.12956752095554716 4.597032660504362e-18
  outer loop
    vertex -67312.44001512146 2719.355273099231 6527.952654049767
    vertex -67495.69235996378 4121.771838908401 4527.9526540497645
    vertex -67495.69235996378 4121.771838908401 6527.952654049767
  endloop
endfacet
facet normal -0.792764368947475 0.6095282235691073 0.0
  outer loop
    vertex -76694.98347239332 6596.250173583138 6527.952654049767
    vertex -77570.13685119773 5458.008515112218 4527.9526540497645
    vertex -77570.13685119773 5458.008515112218 6527.952654049767
  endloop
endfacet
facet normal -0.792764368947475 0.6095282235691073 0.0
  outer loop
    vertex -77570.13685119773 5458.008515112218 4527.9526540497645
    vertex -76694.98347239332 6596.250173583138 6527.952654049767
    vertex -76694.98347239332 6596.250173583138 4527.9526540497645
  endloop
endfacet
facet normal 0.9242491104081799 0.3817899709391122 -0.0
  outer loop
    vertex -68043.86186244314 5448.797726396252 4527.9526540497645
    vertex -67495.69235996378 4121.771838908401 6527.952654049767
    vertex -67495.69235996378 4121.771838908401 4527.9526540497645
  endloop
endfacet
facet normal 0.9242491104081799 0.3817899709391122 -0.0
  outer loop
    vertex -67495.69235996378 4121.771838908401 6527.952654049767
    vertex -68043.86186244314 5448.797726396252 4527.9526540497645
    vertex -68043.86186244314 5448.797726396252 6527.952654049767
  endloop
endfacet
facet normal -0.3835765360351953 -0.9235090909153199 -7.03347035336149e-18
  outer loop
    vertex -70560.21298796768 6590.872692962928 6527.952654049767
    vertex -71643.01180753589 7040.6097064029545 4527.952654049771
    vertex -70560.21298796768 6590.872692962928 4527.952654049771
  endloop
endfacet
facet normal -0.3835765360351953 -0.9235090909153199 -7.03347035336149e-18
  outer loop
    vertex -71643.01180753589 7040.6097064029545 4527.952654049771
    vertex -70560.21298796768 6590.872692962928 6527.952654049767
    vertex -71643.01180753589 7040.6097064029545 6527.952654049767
  endloop
endfacet
facet normal -0.60952822356909 -0.7927643689474884 1.2706374016138654e-30
  outer loop
    vertex -69630.71014783722 5876.2111401242955 6527.952654049767
    vertex -70560.21298796768 6590.872692962928 4527.952654049771
    vertex -69630.71014783722 5876.2111401242955 4527.952654049771
  endloop
endfacet
facet normal -0.60952822356909 -0.7927643689474884 1.2706374016138654e-30
  outer loop
    vertex -70560.21298796768 6590.872692962928 4527.952654049771
    vertex -69630.71014783722 5876.2111401242955 6527.952654049767
    vertex -70560.21298796768 6590.872692962928 6527.952654049767
  endloop
endfacet
facet normal 0.9999995030650974 -0.0009969300668906172 -0.0
  outer loop
    vertex -77292.37207520449 2773.0017903884604 4527.952654049771
    vertex -77292.43517692147 2709.7057902814327 6527.952654049767
    vertex -77292.43517692147 2709.7057902814327 4527.952654049771
  endloop
endfacet
facet normal 0.9999995030650974 -0.0009969300668906172 -0.0
  outer loop
    vertex -77292.43517692147 2709.7057902814327 6527.952654049767
    vertex -77292.37207520449 2773.0017903884604 4527.952654049771
    vertex -77292.37207520449 2773.0017903884604 6527.952654049767
  endloop
endfacet
facet normal 0.9913181945082089 -0.13148474146069147 -0.0
  outer loop
    vertex -77146.86358270739 3870.05088114513 4527.952654049771
    vertex -77292.37207520449 2773.0017903884604 6527.952654049767
    vertex -77292.37207520449 2773.0017903884604 4527.952654049771
  endloop
endfacet
facet normal 0.9913181945082089 -0.13148474146069147 -0.0
  outer loop
    vertex -77292.37207520449 2773.0017903884604 6527.952654049767
    vertex -77146.86358270739 3870.05088114513 4527.952654049771
    vertex -77146.86358270739 3870.05088114513 6527.952654049767
  endloop
endfacet
facet normal 0.7927643689474996 -0.6095282235690755 -0.0
  outer loop
    vertex -75982.46501642873 5882.352540843834 4527.952654049771
    vertex -76697.12656926735 4952.849700713335 6527.952654049767
    vertex -76697.12656926735 4952.849700713335 4527.952654049771
  endloop
endfacet
facet normal 0.7927643689474996 -0.6095282235690755 -0.0
  outer loop
    vertex -76697.12656926735 4952.849700713335 6527.952654049767
    vertex -75982.46501642873 5882.352540843834 4527.952654049771
    vertex -75982.46501642873 5882.352540843834 6527.952654049767
  endloop
endfacet
facet normal 0.6095282235690932 0.792764368947486 1.4772143940526128e-30
  outer loop
    vertex -70055.05417356882 7463.8829748932885 6527.952654049767
    vertex -68916.81251509789 6588.729596088901 4527.9526540497645
    vertex -70055.05417356882 7463.8829748932885 4527.9526540497645
  endloop
endfacet
facet normal 0.6095282235690932 0.792764368947486 1.4772143940526128e-30
  outer loop
    vertex -68916.81251509789 6588.729596088901 4527.9526540497645
    vertex -70055.05417356882 7463.8829748932885 6527.952654049767
    vertex -68916.81251509789 6588.729596088901 6527.952654049767
  endloop
endfacet
facet normal -0.7939415699597818 -0.6079940653409349 0.0
  outer loop
    vertex -69630.71014783722 5876.2111401242955 6527.952654049767
    vertex -68917.84736962337 4945.328051678978 4527.952654049771
    vertex -68917.84736962337 4945.328051678978 6527.952654049767
  endloop
endfacet
facet normal -0.7939415699597818 -0.6079940653409349 0.0
  outer loop
    vertex -68917.84736962337 4945.328051678978 4527.952654049771
    vertex -69630.71014783722 5876.2111401242955 6527.952654049767
    vertex -69630.71014783722 5876.2111401242955 4527.952654049771
  endloop
endfacet
facet normal -0.0 -0.0 1.0
  outer loop
    vertex -77292.43517692147 2707.7387247844044 6527.952654049767
    vertex -77292.43517692147 2709.7057902814327 6527.952654049767
    vertex -78309.6557116246 2708.722257532919 6527.952654049767
  endloop
endfacet
facet normal -0.0 -0.0 1.0
  outer loop
    vertex -77292.43517692147 2709.7057902814327 6527.952654049767
    vertex -77292.43517692147 2707.7387247844044 6527.952654049767
    vertex -77292.43422596084 2708.722257532919 6527.952654049767
  endloop
endfacet
facet normal 0.3835765360351983 -0.9235090909153187 -1.4066940706723804e-17
  outer loop
    vertex -70055.05417356882 -2046.4384598274496 6527.952654049767
    vertex -71381.01754986438 -2597.173091237401 4527.9526540497645
    vertex -70055.05417356882 -2046.4384598274496 4527.9526540497645
  endloop
endfacet
facet normal 0.3835765360351983 -0.9235090909153187 -1.4066940706723804e-17
  outer loop
    vertex -71381.01754986438 -2597.173091237401 4527.9526540497645
    vertex -70055.05417356882 -2046.4384598274496 6527.952654049767
    vertex -71381.01754986438 -2597.173091237401 6527.952654049767
  endloop
endfacet
facet normal 0.3817899709391042 0.9242491104081834 -0.0
  outer loop
    vertex -75051.58192798341 -1177.7708039918432 6527.952654049767
    vertex -73967.91544805188 -1625.4131000152863 4527.952654049771
    vertex -75051.58192798341 -1177.7708039918432 4527.952654049771
  endloop
endfacet
facet normal 0.3817899709391042 0.9242491104081834 -0.0
  outer loop
    vertex -73967.91544805188 -1625.4131000152863 4527.952654049771
    vertex -75051.58192798341 -1177.7708039918432 6527.952654049767
    vertex -73967.91544805188 -1625.4131000152863 6527.952654049767
  endloop
endfacet
facet normal 0.12956752095554325 0.9915706013761375 -2.3758213336483627e-18
  outer loop
    vertex -73967.91544805188 -1625.4131000152863 6527.952654049767
    vertex -72805.31565639799 -1777.328831138182 4527.952654049771
    vertex -73967.91544805188 -1625.4131000152863 4527.952654049771
  endloop
endfacet
facet normal 0.12956752095554325 0.9915706013761375 -2.3758213336483627e-18
  outer loop
    vertex -72805.31565639799 -1777.328831138182 4527.952654049771
    vertex -73967.91544805188 -1625.4131000152863 6527.952654049767
    vertex -72805.31565639799 -1777.328831138182 6527.952654049767
  endloop
endfacet
facet normal -0.9242491104081775 -0.381789970939118 8.473770038663666e-18
  outer loop
    vertex -68917.84736962337 4945.328051678978 6527.952654049767
    vertex -68470.20507359992 3861.66157174747 4527.952654049771
    vertex -68470.20507359992 3861.66157174747 6527.952654049767
  endloop
endfacet
facet normal -0.9242491104081775 -0.381789970939118 8.473770038663666e-18
  outer loop
    vertex -68470.20507359992 3861.66157174747 4527.952654049771
    vertex -68917.84736962337 4945.328051678978 6527.952654049767
    vertex -68917.84736962337 4945.328051678978 4527.952654049771
  endloop
endfacet
facet normal 0.1314847414606928 -0.9913181945082089 0.0
  outer loop
    vertex -71381.01754986438 -2597.173091237401 6527.952654049767
    vertex -72804.34043114813 -2785.9573202543256 4527.9526540497645
    vertex -71381.01754986438 -2597.173091237401 4527.9526540497645
  endloop
endfacet
facet normal 0.1314847414606928 -0.9913181945082089 0.0
  outer loop
    vertex -72804.34043114813 -2785.9573202543256 4527.9526540497645
    vertex -71381.01754986438 -2597.173091237401 6527.952654049767
    vertex -72804.34043114813 -2785.9573202543256 6527.952654049767
  endloop
endfacet
facet normal 5.677519632691957e-15 0.0 -1.0
  outer loop
    vertex -77292.43517692147 2709.7057902814327 4527.952654049771
    vertex -77292.43517692147 2707.7387247844044 4527.952654049771
    vertex -78309.6557116246 2708.722257532919 4527.9526540497645
  endloop
endfacet
facet normal 5.677519632691957e-15 0.0 -1.0
  outer loop
    vertex -77292.43517692147 2707.7387247844044 4527.952654049771
    vertex -77292.43517692147 2709.7057902814327 4527.952654049771
    vertex -77292.43422596084 2708.722257532919 4527.952654049771
  endloop
endfacet
facet normal -0.13148474146069813 0.9913181945082081 2.410976543410298e-18
  outer loop
    vertex -72805.31565639799 -1777.328831138182 6527.952654049767
    vertex -71643.01180753589 -1623.1651913371152 4527.952654049771
    vertex -72805.31565639799 -1777.328831138182 4527.952654049771
  endloop
endfacet
facet normal -0.13148474146069813 0.9913181945082081 2.410976543410298e-18
  outer loop
    vertex -71643.01180753589 -1623.1651913371152 4527.952654049771
    vertex -72805.31565639799 -1777.328831138182 6527.952654049767
    vertex -71643.01180753589 -1623.1651913371152 6527.952654049767
  endloop
endfacet
facet normal 0.9915706013761371 -0.12956752095554716 -2.478894671507595e-18
  outer loop
    vertex -67312.44001512146 2698.089241966609 4527.9526540497645
    vertex -67495.69235996378 1295.6726761574364 6527.952654049767
    vertex -67495.69235996378 1295.6726761574364 4527.9526540497645
  endloop
endfacet
facet normal 0.9915706013761371 -0.12956752095554716 -2.478894671507595e-18
  outer loop
    vertex -67495.69235996378 1295.6726761574364 6527.952654049767
    vertex -67312.44001512146 2698.089241966609 4527.9526540497645
    vertex -67312.44001512146 2698.089241966609 6527.952654049767
  endloop
endfacet
facet normal 0.9915706013761371 -0.12956752095554716 -2.478894671507595e-18
  outer loop
    vertex -67312.44001512146 2698.089241966609 6527.952654049767
    vertex -67312.44001512146 2698.089241966609 4527.9526540497645
    vertex -67311.05060980297 2708.722257532919 4527.9526540497645
  endloop
endfacet
facet normal 0.9915706013761371 -0.12956752095554716 -2.478894671507595e-18
  outer loop
    vertex -67312.44001512146 2698.089241966609 6527.952654049767
    vertex -67311.05060980297 2708.722257532919 4527.9526540497645
    vertex -67311.05060980297 2708.722257532919 6527.952654049767
  endloop
endfacet
facet normal 0.9915706013761371 -0.12956752095554716 -2.478894671507595e-18
  outer loop
    vertex -67311.05060980297 2708.722257532919 6527.952654049767
    vertex -67311.05060980297 2708.722257532919 4527.9526540497645
    vertex -67309.66085336088 2719.357960222141 4527.9526540497645
  endloop
endfacet
facet normal 0.9915706013761371 -0.12956752095554716 -2.478894671507595e-18
  outer loop
    vertex -67311.05060980297 2708.722257532919 6527.952654049767
    vertex -67309.66085336088 2719.357960222141 4527.9526540497645
    vertex -67309.66085336088 2719.357960222141 6527.952654049767
  endloop
endfacet
facet normal -0.0009668820626434269 -0.9999995325694293 -1.7485796715590668e-20
  outer loop
    vertex -67309.66085336088 2698.086554843696 6527.952654049767
    vertex -67312.44001512146 2698.089241966609 4527.9526540497645
    vertex -67309.66085336088 2698.086554843696 4527.9526540497645
  endloop
endfacet
facet normal -0.0009668820626434269 -0.9999995325694293 -1.7485796715590668e-20
  outer loop
    vertex -67312.44001512146 2698.089241966609 4527.9526540497645
    vertex -67309.66085336088 2698.086554843696 6527.952654049767
    vertex -68326.88138806401 2699.070087592187 4527.952654049771
  endloop
endfacet
facet normal -0.0009668820626434269 -0.9999995325694293 -1.7485796715590668e-20
  outer loop
    vertex -68326.88138806401 2699.070087592187 4527.952654049771
    vertex -67309.66085336088 2698.086554843696 6527.952654049767
    vertex -68326.88138806401 2699.070087592187 6527.952654049767
  endloop
endfacet
facet normal -0.0009668820626434269 -0.9999995325694293 -1.7485796715590668e-20
  outer loop
    vertex -68326.88138806401 2699.070087592187 6527.952654049767
    vertex -67309.66085336088 2698.086554843696 6527.952654049767
    vertex -67312.44001512146 2698.089241966609 6527.952654049767
  endloop
endfacet
facet normal -0.12956752095553975 -0.991570601376138 4.75164266729657e-18
  outer loop
    vertex -72804.34043114813 -2785.9573202543256 6527.952654049767
    vertex -74228.02571521285 -2599.9258136514222 4527.9526540497645
    vertex -72804.34043114813 -2785.9573202543256 4527.9526540497645
  endloop
endfacet
facet normal -0.12956752095553975 -0.991570601376138 4.75164266729657e-18
  outer loop
    vertex -74228.02571521285 -2599.9258136514222 4527.9526540497645
    vertex -72804.34043114813 -2785.9573202543256 6527.952654049767
    vertex -74228.02571521285 -2599.9258136514222 6527.952654049767
  endloop
endfacet
facet normal -0.9915706013761373 -0.1295675209555459 -2.067052260634918e-30
  outer loop
    vertex -68470.20507359992 3861.66157174747 6527.952654049767
    vertex -68326.81828634701 2764.333153196243 4527.952654049771
    vertex -68326.81828634701 2764.333153196243 6527.952654049767
  endloop
endfacet
facet normal -0.9915706013761373 -0.1295675209555459 -2.067052260634918e-30
  outer loop
    vertex -68326.81828634701 2764.333153196243 4527.952654049771
    vertex -68470.20507359992 3861.66157174747 6527.952654049767
    vertex -68470.20507359992 3861.66157174747 4527.952654049771
  endloop
endfacet
facet normal -0.6079940653409522 -0.7939415699597685 0.0
  outer loop
    vertex -75555.0516027007 -2051.7563111720638 6527.952654049767
    vertex -76694.98347239332 -1178.8056585173008 4527.9526540497645
    vertex -75555.0516027007 -2051.7563111720638 4527.9526540497645
  endloop
endfacet
facet normal -0.6079940653409522 -0.7939415699597685 0.0
  outer loop
    vertex -76694.98347239332 -1178.8056585173008 4527.9526540497645
    vertex -75555.0516027007 -2051.7563111720638 6527.952654049767
    vertex -76694.98347239332 -1178.8056585173008 6527.952654049767
  endloop
endfacet
facet normal 0.7939415699597795 -0.6079940653409378 -0.0
  outer loop
    vertex -68043.86186244314 -31.353211330414553 4527.9526540497645
    vertex -68916.81251509789 -1171.2850810230636 6527.952654049767
    vertex -68916.81251509789 -1171.2850810230636 4527.9526540497645
  endloop
endfacet
facet normal 0.7939415699597795 -0.6079940653409378 -0.0
  outer loop
    vertex -68916.81251509789 -1171.2850810230636 6527.952654049767
    vertex -68043.86186244314 -31.353211330414553 4527.9526540497645
    vertex -68043.86186244314 -31.353211330414553 6527.952654049767
  endloop
endfacet
facet normal 0.923509090915316 -0.38357653603520514 -1.9251695758669162e-30
  outer loop
    vertex -76697.12656926735 4952.849700713335 4527.952654049771
    vertex -77146.86358270739 3870.05088114513 6527.952654049767
    vertex -77146.86358270739 3870.05088114513 4527.952654049771
  endloop
endfacet
facet normal 0.923509090915316 -0.38357653603520514 -1.9251695758669162e-30
  outer loop
    vertex -77146.86358270739 3870.05088114513 6527.952654049767
    vertex -76697.12656926735 4952.849700713335 4527.952654049771
    vertex -76697.12656926735 4952.849700713335 6527.952654049767
  endloop
endfacet
facet normal -1.0 0.0 -1.3897495937362324e-30
  outer loop
    vertex -68326.87205554965 2708.722257532919 6527.952654049767
    vertex -68326.88138806401 2699.070087592187 4527.952654049771
    vertex -68326.88138806401 2699.070087592187 6527.952654049767
  endloop
endfacet
facet normal -1.0 0.0 -1.3897495937362324e-30
  outer loop
    vertex -68326.88138806401 2699.070087592187 4527.952654049771
    vertex -68326.87205554965 2708.722257532919 6527.952654049767
    vertex -68326.87205554965 2708.722257532919 4527.952654049771
  endloop
endfacet
facet normal -1.0 0.0 -1.3897495937362324e-30
  outer loop
    vertex -68326.87205554965 2708.722257532919 4527.952654049771
    vertex -68326.87205554965 2708.722257532919 6527.952654049767
    vertex -68326.88138806401 2718.3744274736505 6527.952654049767
  endloop
endfacet
facet normal -1.0 0.0 -1.3897495937362324e-30
  outer loop
    vertex -68326.87205554965 2708.722257532919 4527.952654049771
    vertex -68326.88138806401 2718.3744274736505 6527.952654049767
    vertex -68326.88138806401 2718.3744274736505 4527.952654049771
  endloop
endfacet
facet normal -0.3817899709391165 -0.9242491104081781 0.0
  outer loop
    vertex -74228.02571521285 -2599.9258136514222 6527.952654049767
    vertex -75555.0516027007 -2051.7563111720638 4527.9526540497645
    vertex -74228.02571521285 -2599.9258136514222 4527.9526540497645
  endloop
endfacet
facet normal -0.3817899709391165 -0.9242491104081781 0.0
  outer loop
    vertex -75555.0516027007 -2051.7563111720638 4527.9526540497645
    vertex -74228.02571521285 -2599.9258136514222 6527.952654049767
    vertex -75555.0516027007 -2051.7563111720638 6527.952654049767
  endloop
endfacet
facet normal -0.9913181945082096 -0.1314847414606865 0.0
  outer loop
    vertex -78309.6557116246 2708.722257532919 6527.952654049767
    vertex -78120.87148260768 1285.3993762491891 4527.9526540497645
    vertex -78120.87148260768 1285.3993762491891 6527.952654049767
  endloop
endfacet
facet normal -0.9913181945082096 -0.1314847414606865 0.0
  outer loop
    vertex -78120.87148260768 1285.3993762491891 4527.9526540497645
    vertex -78309.6557116246 2708.722257532919 6527.952654049767
    vertex -78309.6557116246 2708.722257532919 4527.9526540497645
  endloop
endfacet
facet normal -0.9235090909153211 -0.38357653603519265 0.0
  outer loop
    vertex -78120.87148260768 1285.3993762491891 6527.952654049767
    vertex -77570.13685119773 -40.564000046380194 4527.9526540497645
    vertex -77570.13685119773 -40.564000046380194 6527.952654049767
  endloop
endfacet
facet normal -0.9235090909153211 -0.38357653603519265 0.0
  outer loop
    vertex -77570.13685119773 -40.564000046380194 4527.9526540497645
    vertex -78120.87148260768 1285.3993762491891 6527.952654049767
    vertex -78120.87148260768 1285.3993762491891 4527.9526540497645
  endloop
endfacet
facet normal 0.607994065340936 0.7939415699597808 -0.0
  outer loop
    vertex -75982.46501642873 -464.9080257779957 6527.952654049767
    vertex -75051.58192798341 -1177.7708039918432 4527.952654049771
    vertex -75982.46501642873 -464.9080257779957 4527.952654049771
  endloop
endfacet
facet normal 0.607994065340936 0.7939415699597808 -0.0
  outer loop
    vertex -75051.58192798341 -1177.7708039918432 4527.952654049771
    vertex -75982.46501642873 -464.9080257779957 6527.952654049767
    vertex -75051.58192798341 -1177.7708039918432 6527.952654049767
  endloop
endfacet
facet normal 0.0 0.0 -1.0
  outer loop
    vertex -67309.66085336088 2719.357960222141 6527.952654049767
    vertex -67311.05060980297 2708.722257532919 6527.952654049767
    vertex -67312.44001512146 2719.355273099231 6527.952654049767
  endloop
endfacet
facet normal -0.3835765360351953 0.9235090909153199 -7.03347035336149e-18
  outer loop
    vertex -71643.01180753589 -1623.1651913371152 6527.952654049767
    vertex -70560.21298796768 -1173.4281778970892 4527.952654049771
    vertex -71643.01180753589 -1623.1651913371152 4527.952654049771
  endloop
endfacet
facet normal -0.3835765360351953 0.9235090909153199 -7.03347035336149e-18
  outer loop
    vertex -70560.21298796768 -1173.4281778970892 4527.952654049771
    vertex -71643.01180753589 -1623.1651913371152 6527.952654049767
    vertex -70560.21298796768 -1173.4281778970892 6527.952654049767
  endloop
endfacet
facet normal -0.6095282235690891 0.792764368947489 1.2706374016138635e-30
  outer loop
    vertex -70560.21298796768 -1173.4281778970892 6527.952654049767
    vertex -69630.71014783722 -458.7666250584577 4527.952654049771
    vertex -70560.21298796768 -1173.4281778970892 4527.952654049771
  endloop
endfacet
facet normal -0.6095282235690891 0.792764368947489 1.2706374016138635e-30
  outer loop
    vertex -69630.71014783722 -458.7666250584577 4527.952654049771
    vertex -70560.21298796768 -1173.4281778970892 6527.952654049767
    vertex -69630.71014783722 -458.7666250584577 6527.952654049767
  endloop
endfacet
facet normal -0.9242491104081775 0.381789970939118 8.473770038663666e-18
  outer loop
    vertex -68470.20507359992 1555.7829433183679 6527.952654049767
    vertex -68917.84736962337 472.11646338686006 4527.952654049771
    vertex -68917.84736962337 472.11646338686006 6527.952654049767
  endloop
endfacet
facet normal -0.9242491104081775 0.381789970939118 8.473770038663666e-18
  outer loop
    vertex -68917.84736962337 472.11646338686006 4527.952654049771
    vertex -68470.20507359992 1555.7829433183679 6527.952654049767
    vertex -68470.20507359992 1555.7829433183679 4527.952654049771
  endloop
endfacet
facet normal -0.9915706013761373 0.1295675209555456 -2.083933486535797e-30
  outer loop
    vertex -68326.81828634701 2653.1113618695967 6527.952654049767
    vertex -68470.20507359992 1555.7829433183679 4527.952654049771
    vertex -68470.20507359992 1555.7829433183679 6527.952654049767
  endloop
endfacet
facet normal -0.9915706013761373 0.1295675209555456 -2.083933486535797e-30
  outer loop
    vertex -68470.20507359992 1555.7829433183679 4527.952654049771
    vertex -68326.81828634701 2653.1113618695967 6527.952654049767
    vertex -68326.81828634701 2653.1113618695967 4527.952654049771
  endloop
endfacet
facet normal 0.923509090915316 0.383576536035205 -1.9251695758669162e-30
  outer loop
    vertex -77146.86358270739 1547.393633920708 4527.952654049771
    vertex -76697.12656926735 464.5948143525031 6527.952654049767
    vertex -76697.12656926735 464.5948143525031 4527.952654049771
  endloop
endfacet
facet normal 0.923509090915316 0.383576536035205 -1.9251695758669162e-30
  outer loop
    vertex -76697.12656926735 464.5948143525031 6527.952654049767
    vertex -77146.86358270739 1547.393633920708 4527.952654049771
    vertex -77146.86358270739 1547.393633920708 6527.952654049767
  endloop
endfacet
facet normal -0.792764368947475 -0.6095282235691073 1.4536563533916593e-17
  outer loop
    vertex -77570.13685119773 -40.564000046380194 6527.952654049767
    vertex -76694.98347239332 -1178.8056585173008 4527.9526540497645
    vertex -76694.98347239332 -1178.8056585173008 6527.952654049767
  endloop
endfacet
facet normal -0.792764368947475 -0.6095282235691073 1.4536563533916593e-17
  outer loop
    vertex -76694.98347239332 -1178.8056585173008 4527.9526540497645
    vertex -77570.13685119773 -40.564000046380194 6527.952654049767
    vertex -77570.13685119773 -40.564000046380194 4527.9526540497645
  endloop
endfacet
facet normal 0.0009668820626448423 -0.9999995325694293 -6.389908342285651e-21
  outer loop
    vertex -67309.66085336088 2719.357960222141 6527.952654049767
    vertex -67312.44001512146 2719.355273099231 4527.9526540497645
    vertex -67309.66085336088 2719.357960222141 4527.9526540497645
  endloop
endfacet
facet normal 0.0009668820626448423 -0.9999995325694293 -6.389908342285651e-21
  outer loop
    vertex -67312.44001512146 2719.355273099231 4527.9526540497645
    vertex -67309.66085336088 2719.357960222141 6527.952654049767
    vertex -68326.88138806401 2718.3744274736505 4527.952654049771
  endloop
endfacet
facet normal 0.0009668820626448423 -0.9999995325694293 -6.389908342285651e-21
  outer loop
    vertex -68326.88138806401 2718.3744274736505 4527.952654049771
    vertex -67309.66085336088 2719.357960222141 6527.952654049767
    vertex -68326.88138806401 2718.3744274736505 6527.952654049767
  endloop
endfacet
facet normal 0.0009668820626448423 -0.9999995325694293 -6.389908342285651e-21
  outer loop
    vertex -68326.88138806401 2718.3744274736505 6527.952654049767
    vertex -67309.66085336088 2719.357960222141 6527.952654049767
    vertex -67312.44001512146 2719.355273099231 6527.952654049767
  endloop
endfacet
facet normal 0.9242491104081799 -0.3817899709391122 -0.0
  outer loop
    vertex -67495.69235996378 1295.6726761574364 4527.9526540497645
    vertex -68043.86186244314 -31.353211330414553 6527.952654049767
    vertex -68043.86186244314 -31.353211330414553 4527.9526540497645
  endloop
endfacet
facet normal 0.9242491104081799 -0.3817899709391122 -0.0
  outer loop
    vertex -68043.86186244314 -31.353211330414553 6527.952654049767
    vertex -67495.69235996378 1295.6726761574364 4527.9526540497645
    vertex -67495.69235996378 1295.6726761574364 6527.952654049767
  endloop
endfacet
facet normal 0.6095282235690924 -0.7927643689474865 1.2706374016138631e-30
  outer loop
    vertex -68916.81251509789 -1171.2850810230636 6527.952654049767
    vertex -70055.05417356882 -2046.4384598274496 4527.9526540497645
    vertex -68916.81251509789 -1171.2850810230636 4527.9526540497645
  endloop
endfacet
facet normal 0.6095282235690924 -0.7927643689474865 1.2706374016138631e-30
  outer loop
    vertex -70055.05417356882 -2046.4384598274496 4527.9526540497645
    vertex -68916.81251509789 -1171.2850810230636 6527.952654049767
    vertex -70055.05417356882 -2046.4384598274496 6527.952654049767
  endloop
endfacet
facet normal 0.9999995235797277 0.0009761353993340114 -1.6785160263790604e-21
  outer loop
    vertex -77292.43517692147 2707.7387247844044 4527.952654049771
    vertex -77292.37207520449 2644.4427246773794 6527.952654049767
    vertex -77292.37207520449 2644.4427246773794 4527.952654049771
  endloop
endfacet
facet normal 0.9999995235797277 0.0009761353993340114 -1.6785160263790604e-21
  outer loop
    vertex -77292.37207520449 2644.4427246773794 6527.952654049767
    vertex -77292.43517692147 2707.7387247844044 4527.952654049771
    vertex -77292.43517692147 2707.7387247844044 6527.952654049767
  endloop
endfacet
facet normal 0.9999995235797277 0.0009761353993340114 -1.6785160263790604e-21
  outer loop
    vertex -77292.43517692147 2707.7387247844044 6527.952654049767
    vertex -77292.43517692147 2707.7387247844044 4527.952654049771
    vertex -77292.43422596084 2708.722257532919 4527.952654049771
  endloop
endfacet
facet normal 0.9999995235797277 0.0009761353993340114 -1.6785160263790604e-21
  outer loop
    vertex -77292.43517692147 2707.7387247844044 6527.952654049767
    vertex -77292.43422596084 2708.722257532919 4527.952654049771
    vertex -77292.43422596084 2708.722257532919 6527.952654049767
  endloop
endfacet
facet normal 0.9999995235797277 0.0009761353993340114 -1.6785160263790604e-21
  outer loop
    vertex -77292.43422596084 2708.722257532919 6527.952654049767
    vertex -77292.43422596084 2708.722257532919 4527.952654049771
    vertex -77292.43517692147 2709.7057902814327 4527.952654049771
  endloop
endfacet
facet normal 0.9999995235797277 0.0009761353993340114 -1.6785160263790604e-21
  outer loop
    vertex -77292.43422596084 2708.722257532919 6527.952654049767
    vertex -77292.43517692147 2709.7057902814327 4527.952654049771
    vertex -77292.43517692147 2709.7057902814327 6527.952654049767
  endloop
endfacet
facet normal -0.7939415699597818 0.6079940653409349 0.0
  outer loop
    vertex -68917.84736962337 472.11646338686006 6527.952654049767
    vertex -69630.71014783722 -458.7666250584577 4527.952654049771
    vertex -69630.71014783722 -458.7666250584577 6527.952654049767
  endloop
endfacet
facet normal -0.7939415699597818 0.6079940653409349 0.0
  outer loop
    vertex -69630.71014783722 -458.7666250584577 4527.952654049771
    vertex -68917.84736962337 472.11646338686006 6527.952654049767
    vertex -68917.84736962337 472.11646338686006 4527.952654049771
  endloop
endfacet
facet normal -0.9999995014550317 -0.0009985437838860034 2.5191862891263826e-23
  outer loop
    vertex -68326.88138806401 2699.070087592187 6527.952654049767
    vertex -68326.81828634701 2653.1113618695967 4527.952654049771
    vertex -68326.81828634701 2653.1113618695967 6527.952654049767
  endloop
endfacet
facet normal -0.9999995014550317 -0.0009985437838860034 2.5191862891263826e-23
  outer loop
    vertex -68326.81828634701 2653.1113618695967 4527.952654049771
    vertex -68326.88138806401 2699.070087592187 6527.952654049767
    vertex -68326.88138806401 2699.070087592187 4527.952654049771
  endloop
endfacet
facet normal -0.9999995014550317 -0.0009985437838860034 2.5191862891263826e-23
  outer loop
    vertex -68326.88138806401 2699.070087592187 4527.952654049771
    vertex -68326.88138806401 2699.070087592187 6527.952654049767
    vertex -68326.87205554965 2708.722257532919 6527.952654049767
  endloop
endfacet
facet normal -0.9999995014550317 -0.0009985437838860034 2.5191862891263826e-23
  outer loop
    vertex -68326.88138806401 2699.070087592187 4527.952654049771
    vertex -68326.87205554965 2708.722257532919 6527.952654049767
    vertex -68326.87205554965 2708.722257532919 4527.952654049771
  endloop
endfacet
facet normal -0.9999995014550317 -0.0009985437838860034 2.5191862891263826e-23
  outer loop
    vertex -68326.87205554965 2708.722257532919 4527.952654049771
    vertex -68326.87205554965 2708.722257532919 6527.952654049767
    vertex -68326.88138806401 2718.3744274736505 6527.952654049767
  endloop
endfacet
facet normal -0.9999995014550317 -0.0009985437838860034 2.5191862891263826e-23
  outer loop
    vertex -68326.87205554965 2708.722257532919 4527.952654049771
    vertex -68326.88138806401 2718.3744274736505 6527.952654049767
    vertex -68326.88138806401 2718.3744274736505 4527.952654049771
  endloop
endfacet
facet normal 0.9913181945082091 0.13148474146069125 -0.0
  outer loop
    vertex -77292.37207520449 2644.4427246773794 4527.952654049771
    vertex -77146.86358270739 1547.393633920708 6527.952654049767
    vertex -77146.86358270739 1547.393633920708 4527.952654049771
  endloop
endfacet
facet normal 0.9913181945082091 0.13148474146069125 -0.0
  outer loop
    vertex -77146.86358270739 1547.393633920708 6527.952654049767
    vertex -77292.37207520449 2644.4427246773794 4527.952654049771
    vertex -77292.37207520449 2644.4427246773794 6527.952654049767
  endloop
endfacet
facet normal 0.7927643689474996 0.6095282235690755 -0.0
  outer loop
    vertex -76697.12656926735 464.5948143525031 4527.952654049771
    vertex -75982.46501642873 -464.9080257779957 6527.952654049767
    vertex -75982.46501642873 -464.9080257779957 4527.952654049771
  endloop
endfacet
facet normal 0.7927643689474996 0.6095282235690755 -0.0
  outer loop
    vertex -75982.46501642873 -464.9080257779957 6527.952654049767
    vertex -76697.12656926735 464.5948143525031 4527.952654049771
    vertex -76697.12656926735 464.5948143525031 6527.952654049767
  endloop
endfacet
endsolid EricWheel
