solid Rummikub!
facet normal -0.99144486137381 0.13052619222005393 0.0
  outer loop
    vertex 139469.95390783867 183966.64117433972 78197.30093928937
    vertex 139265.5088655731 182413.72690372457 4987.300939289292
    vertex 139265.5088655731 182413.72690372457 78197.30093928937
  endloop
endfacet
facet normal -0.99144486137381 0.13052619222005393 0.0
  outer loop
    vertex 139265.5088655731 182413.72690372457 4987.300939289292
    vertex 139469.95390783867 183966.64117433972 78197.30093928937
    vertex 139469.95390783867 183966.64117433972 4987.300939289292
  endloop
endfacet
facet normal 0.9914448613738106 -0.13052619222005052 0.0
  outer loop
    vertex 151265.5088655731 182413.72690372457 4987.300939289292
    vertex 151061.0638233075 180860.81263310948 78197.30093928937
    vertex 151061.0638233075 180860.81263310948 4987.300939289292
  endloop
endfacet
facet normal 0.9914448613738106 -0.13052619222005052 0.0
  outer loop
    vertex 151061.0638233075 180860.81263310948 78197.30093928937
    vertex 151265.5088655731 182413.72690372457 4987.300939289292
    vertex 151265.5088655731 182413.72690372457 78197.30093928937
  endloop
endfacet
facet normal -0.9914448613738106 -0.13052619222005052 -0.0
  outer loop
    vertex 139265.5088655731 182413.72690372457 78197.30093928937
    vertex 139469.95390783867 180860.81263310948 4987.300939289292
    vertex 139469.95390783867 180860.81263310948 78197.30093928937
  endloop
endfacet
facet normal -0.9914448613738106 -0.13052619222005052 -0.0
  outer loop
    vertex 139469.95390783867 180860.81263310948 4987.300939289292
    vertex 139265.5088655731 182413.72690372457 78197.30093928937
    vertex 139265.5088655731 182413.72690372457 4987.300939289292
  endloop
endfacet
facet normal 0.6087614290087214 0.7933533402912346 0.0
  outer loop
    vertex 148265.50886557307 187609.8793264312 78197.30093928937
    vertex 149508.1495526924 186656.36759084385 4987.300939289292
    vertex 148265.50886557307 187609.8793264312 4987.300939289292
  endloop
endfacet
facet normal 0.6087614290087214 0.7933533402912346 0.0
  outer loop
    vertex 149508.1495526924 186656.36759084385 4987.300939289292
    vertex 148265.50886557307 187609.8793264312 78197.30093928937
    vertex 149508.1495526924 186656.36759084385 78197.30093928937
  endloop
endfacet
facet normal -0.13052619222005585 -0.9914448613738099 -0.0
  outer loop
    vertex 145265.5088655731 176413.72690372457 78197.30093928937
    vertex 143712.59459495795 176618.17194599015 4987.300939289292
    vertex 145265.5088655731 176413.72690372457 4987.300939289292
  endloop
endfacet
facet normal -0.13052619222005585 -0.9914448613738099 -0.0
  outer loop
    vertex 143712.59459495795 176618.17194599015 4987.300939289292
    vertex 145265.5088655731 176413.72690372457 78197.30093928937
    vertex 143712.59459495795 176618.17194599015 78197.30093928937
  endloop
endfacet
facet normal -0.7933533402912326 0.6087614290087239 0.0
  outer loop
    vertex 141022.8681784538 186656.36759084385 78197.30093928937
    vertex 140069.35644286647 185413.7269037246 4987.300939289292
    vertex 140069.35644286647 185413.7269037246 78197.30093928937
  endloop
endfacet
facet normal -0.7933533402912326 0.6087614290087239 0.0
  outer loop
    vertex 140069.35644286647 185413.7269037246 4987.300939289292
    vertex 141022.8681784538 186656.36759084385 78197.30093928937
    vertex 141022.8681784538 186656.36759084385 4987.300939289292
  endloop
endfacet
facet normal 0.7933533402912326 -0.6087614290087239 0.0
  outer loop
    vertex 150461.66128827972 179413.72690372457 4987.300939289292
    vertex 149508.1495526924 178171.0862166053 78197.30093928937
    vertex 149508.1495526924 178171.0862166053 4987.300939289292
  endloop
endfacet
facet normal 0.7933533402912326 -0.6087614290087239 0.0
  outer loop
    vertex 149508.1495526924 178171.0862166053 78197.30093928937
    vertex 150461.66128827972 179413.72690372457 4987.300939289292
    vertex 150461.66128827972 179413.72690372457 78197.30093928937
  endloop
endfacet
facet normal 0.9238795325112875 -0.3826834323650879 0.0
  outer loop
    vertex 151061.0638233075 180860.81263310948 4987.300939289292
    vertex 150461.66128827972 179413.72690372457 78197.30093928937
    vertex 150461.66128827972 179413.72690372457 4987.300939289292
  endloop
endfacet
facet normal 0.9238795325112875 -0.3826834323650879 0.0
  outer loop
    vertex 150461.66128827972 179413.72690372457 78197.30093928937
    vertex 151061.0638233075 180860.81263310948 4987.300939289292
    vertex 151061.0638233075 180860.81263310948 78197.30093928937
  endloop
endfacet
facet normal -0.13052619222005585 0.9914448613738099 0.0
  outer loop
    vertex 143712.59459495795 188209.281861459 78197.30093928937
    vertex 145265.5088655731 188413.7269037246 4987.300939289292
    vertex 143712.59459495795 188209.281861459 4987.300939289292
  endloop
endfacet
facet normal -0.13052619222005585 0.9914448613738099 0.0
  outer loop
    vertex 145265.5088655731 188413.7269037246 4987.300939289292
    vertex 143712.59459495795 188209.281861459 78197.30093928937
    vertex 145265.5088655731 188413.7269037246 78197.30093928937
  endloop
endfacet
facet normal -0.923879532511286 0.38268343236509206 0.0
  outer loop
    vertex 140069.35644286647 185413.7269037246 78197.30093928937
    vertex 139469.95390783867 183966.64117433972 4987.300939289292
    vertex 139469.95390783867 183966.64117433972 78197.30093928937
  endloop
endfacet
facet normal -0.923879532511286 0.38268343236509206 0.0
  outer loop
    vertex 139469.95390783867 183966.64117433972 4987.300939289292
    vertex 140069.35644286647 185413.7269037246 78197.30093928937
    vertex 140069.35644286647 185413.7269037246 4987.300939289292
  endloop
endfacet
facet normal 0.13052619222005585 0.9914448613738099 0.0
  outer loop
    vertex 145265.5088655731 188413.7269037246 78197.30093928937
    vertex 146818.4231361882 188209.281861459 4987.300939289292
    vertex 145265.5088655731 188413.7269037246 4987.300939289292
  endloop
endfacet
facet normal 0.13052619222005585 0.9914448613738099 0.0
  outer loop
    vertex 146818.4231361882 188209.281861459 4987.300939289292
    vertex 145265.5088655731 188413.7269037246 78197.30093928937
    vertex 146818.4231361882 188209.281861459 78197.30093928937
  endloop
endfacet
facet normal 0.9914448613738106 0.13052619222005052 0.0
  outer loop
    vertex 151061.0638233075 183966.6411743397 4987.300939289292
    vertex 151265.5088655731 182413.72690372457 78197.30093928937
    vertex 151265.5088655731 182413.72690372457 4987.300939289292
  endloop
endfacet
facet normal 0.9914448613738106 0.13052619222005052 0.0
  outer loop
    vertex 151265.5088655731 182413.72690372457 78197.30093928937
    vertex 151061.0638233075 183966.6411743397 4987.300939289292
    vertex 151061.0638233075 183966.6411743397 78197.30093928937
  endloop
endfacet
facet normal 0.13052619222005585 -0.9914448613738099 0.0
  outer loop
    vertex 146818.4231361882 176618.17194599015 78197.30093928937
    vertex 145265.5088655731 176413.72690372457 4987.300939289292
    vertex 146818.4231361882 176618.17194599015 4987.300939289292
  endloop
endfacet
facet normal 0.13052619222005585 -0.9914448613738099 0.0
  outer loop
    vertex 145265.5088655731 176413.72690372457 4987.300939289292
    vertex 146818.4231361882 176618.17194599015 78197.30093928937
    vertex 145265.5088655731 176413.72690372457 78197.30093928937
  endloop
endfacet
facet normal -0.38268343236510194 0.9238795325112816 0.0
  outer loop
    vertex 142265.5088655731 187609.8793264312 78197.30093928937
    vertex 143712.59459495795 188209.281861459 4987.300939289292
    vertex 142265.5088655731 187609.8793264312 4987.300939289292
  endloop
endfacet
facet normal -0.38268343236510194 0.9238795325112816 0.0
  outer loop
    vertex 143712.59459495795 188209.281861459 4987.300939289292
    vertex 142265.5088655731 187609.8793264312 78197.30093928937
    vertex 143712.59459495795 188209.281861459 78197.30093928937
  endloop
endfacet
facet normal -0.6087614290087214 -0.7933533402912346 -0.0
  outer loop
    vertex 142265.5088655731 177217.57448101795 78197.30093928937
    vertex 141022.8681784538 178171.0862166053 4987.300939289292
    vertex 142265.5088655731 177217.57448101795 4987.300939289292
  endloop
endfacet
facet normal -0.6087614290087214 -0.7933533402912346 -0.0
  outer loop
    vertex 141022.8681784538 178171.0862166053 4987.300939289292
    vertex 142265.5088655731 177217.57448101795 78197.30093928937
    vertex 141022.8681784538 178171.0862166053 78197.30093928937
  endloop
endfacet
facet normal 0.0 0.0 1.0
  outer loop
    vertex 139469.95390783867 180860.81263310948 78197.30093928937
    vertex 139469.95390783867 183966.64117433972 78197.30093928937
    vertex 139265.5088655731 182413.72690372457 78197.30093928937
  endloop
endfacet
facet normal 0.0 0.0 1.0
  outer loop
    vertex 139469.95390783867 183966.64117433972 78197.30093928937
    vertex 139469.95390783867 180860.81263310948 78197.30093928937
    vertex 140069.35644286647 179413.72690372457 78197.30093928937
  endloop
endfacet
facet normal 0.0 0.0 1.0
  outer loop
    vertex 139469.95390783867 183966.64117433972 78197.30093928937
    vertex 140069.35644286647 179413.72690372457 78197.30093928937
    vertex 140069.35644286647 185413.7269037246 78197.30093928937
  endloop
endfacet
facet normal 0.0 0.0 1.0
  outer loop
    vertex 140069.35644286647 185413.7269037246 78197.30093928937
    vertex 140069.35644286647 179413.72690372457 78197.30093928937
    vertex 141022.8681784538 178171.0862166053 78197.30093928937
  endloop
endfacet
facet normal 0.0 0.0 1.0
  outer loop
    vertex 140069.35644286647 185413.7269037246 78197.30093928937
    vertex 141022.8681784538 178171.0862166053 78197.30093928937
    vertex 141022.8681784538 186656.36759084385 78197.30093928937
  endloop
endfacet
facet normal 0.0 0.0 1.0
  outer loop
    vertex 141022.8681784538 186656.36759084385 78197.30093928937
    vertex 141022.8681784538 178171.0862166053 78197.30093928937
    vertex 142265.5088655731 177217.57448101795 78197.30093928937
  endloop
endfacet
facet normal 0.0 0.0 1.0
  outer loop
    vertex 141022.8681784538 186656.36759084385 78197.30093928937
    vertex 142265.5088655731 177217.57448101795 78197.30093928937
    vertex 142265.5088655731 187609.8793264312 78197.30093928937
  endloop
endfacet
facet normal 0.0 0.0 1.0
  outer loop
    vertex 142265.5088655731 187609.8793264312 78197.30093928937
    vertex 142265.5088655731 177217.57448101795 78197.30093928937
    vertex 143712.59459495795 176618.17194599015 78197.30093928937
  endloop
endfacet
facet normal 0.0 0.0 1.0
  outer loop
    vertex 142265.5088655731 187609.8793264312 78197.30093928937
    vertex 143712.59459495795 176618.17194599015 78197.30093928937
    vertex 143712.59459495795 188209.281861459 78197.30093928937
  endloop
endfacet
facet normal 0.0 0.0 1.0
  outer loop
    vertex 143712.59459495795 188209.281861459 78197.30093928937
    vertex 143712.59459495795 176618.17194599015 78197.30093928937
    vertex 145265.5088655731 176413.72690372457 78197.30093928937
  endloop
endfacet
facet normal 0.0 0.0 1.0
  outer loop
    vertex 143712.59459495795 188209.281861459 78197.30093928937
    vertex 145265.5088655731 176413.72690372457 78197.30093928937
    vertex 145265.5088655731 188413.7269037246 78197.30093928937
  endloop
endfacet
facet normal 0.0 0.0 1.0
  outer loop
    vertex 145265.5088655731 188413.7269037246 78197.30093928937
    vertex 145265.5088655731 176413.72690372457 78197.30093928937
    vertex 146818.4231361882 176618.17194599015 78197.30093928937
  endloop
endfacet
facet normal 0.0 0.0 1.0
  outer loop
    vertex 145265.5088655731 188413.7269037246 78197.30093928937
    vertex 146818.4231361882 176618.17194599015 78197.30093928937
    vertex 146818.4231361882 188209.281861459 78197.30093928937
  endloop
endfacet
facet normal 0.0 0.0 1.0
  outer loop
    vertex 146818.4231361882 188209.281861459 78197.30093928937
    vertex 146818.4231361882 176618.17194599015 78197.30093928937
    vertex 148265.50886557307 177217.57448101795 78197.30093928937
  endloop
endfacet
facet normal 0.0 0.0 1.0
  outer loop
    vertex 146818.4231361882 188209.281861459 78197.30093928937
    vertex 148265.50886557307 177217.57448101795 78197.30093928937
    vertex 148265.50886557307 187609.8793264312 78197.30093928937
  endloop
endfacet
facet normal 0.0 0.0 1.0
  outer loop
    vertex 148265.50886557307 187609.8793264312 78197.30093928937
    vertex 148265.50886557307 177217.57448101795 78197.30093928937
    vertex 149508.1495526924 178171.0862166053 78197.30093928937
  endloop
endfacet
facet normal 0.0 0.0 1.0
  outer loop
    vertex 148265.50886557307 187609.8793264312 78197.30093928937
    vertex 149508.1495526924 178171.0862166053 78197.30093928937
    vertex 149508.1495526924 186656.36759084385 78197.30093928937
  endloop
endfacet
facet normal 0.0 0.0 1.0
  outer loop
    vertex 149508.1495526924 186656.36759084385 78197.30093928937
    vertex 149508.1495526924 178171.0862166053 78197.30093928937
    vertex 150461.66128827972 179413.72690372457 78197.30093928937
  endloop
endfacet
facet normal 0.0 0.0 1.0
  outer loop
    vertex 149508.1495526924 186656.36759084385 78197.30093928937
    vertex 150461.66128827972 179413.72690372457 78197.30093928937
    vertex 150461.66128827975 185413.7269037246 78197.30093928937
  endloop
endfacet
facet normal 0.0 0.0 1.0
  outer loop
    vertex 150461.66128827975 185413.7269037246 78197.30093928937
    vertex 150461.66128827972 179413.72690372457 78197.30093928937
    vertex 151061.0638233075 180860.81263310948 78197.30093928937
  endloop
endfacet
facet normal 0.0 0.0 1.0
  outer loop
    vertex 150461.66128827975 185413.7269037246 78197.30093928937
    vertex 151061.0638233075 180860.81263310948 78197.30093928937
    vertex 151061.0638233075 183966.6411743397 78197.30093928937
  endloop
endfacet
facet normal 0.0 0.0 1.0
  outer loop
    vertex 151061.0638233075 183966.6411743397 78197.30093928937
    vertex 151061.0638233075 180860.81263310948 78197.30093928937
    vertex 151265.5088655731 182413.72690372457 78197.30093928937
  endloop
endfacet
facet normal -0.38268343236510194 -0.9238795325112816 -0.0
  outer loop
    vertex 143712.59459495795 176618.17194599015 78197.30093928937
    vertex 142265.5088655731 177217.57448101795 4987.300939289292
    vertex 143712.59459495795 176618.17194599015 4987.300939289292
  endloop
endfacet
facet normal -0.38268343236510194 -0.9238795325112816 -0.0
  outer loop
    vertex 142265.5088655731 177217.57448101795 4987.300939289292
    vertex 143712.59459495795 176618.17194599015 78197.30093928937
    vertex 142265.5088655731 177217.57448101795 78197.30093928937
  endloop
endfacet
facet normal 0.0 0.0 -1.0
  outer loop
    vertex 139469.95390783867 183966.64117433972 4987.300939289292
    vertex 139469.95390783867 180860.81263310948 4987.300939289292
    vertex 139265.5088655731 182413.72690372457 4987.300939289292
  endloop
endfacet
facet normal 0.0 0.0 -1.0
  outer loop
    vertex 139469.95390783867 180860.81263310948 4987.300939289292
    vertex 139469.95390783867 183966.64117433972 4987.300939289292
    vertex 140069.35644286647 185413.7269037246 4987.300939289292
  endloop
endfacet
facet normal 0.0 0.0 -1.0
  outer loop
    vertex 139469.95390783867 180860.81263310948 4987.300939289292
    vertex 140069.35644286647 185413.7269037246 4987.300939289292
    vertex 140069.35644286647 179413.72690372457 4987.300939289292
  endloop
endfacet
facet normal 0.0 0.0 -1.0
  outer loop
    vertex 140069.35644286647 179413.72690372457 4987.300939289292
    vertex 140069.35644286647 185413.7269037246 4987.300939289292
    vertex 141022.8681784538 186656.36759084385 4987.300939289292
  endloop
endfacet
facet normal 0.0 0.0 -1.0
  outer loop
    vertex 140069.35644286647 179413.72690372457 4987.300939289292
    vertex 141022.8681784538 186656.36759084385 4987.300939289292
    vertex 141022.8681784538 178171.0862166053 4987.300939289292
  endloop
endfacet
facet normal 0.0 0.0 -1.0
  outer loop
    vertex 141022.8681784538 178171.0862166053 4987.300939289292
    vertex 141022.8681784538 186656.36759084385 4987.300939289292
    vertex 142265.5088655731 187609.8793264312 4987.300939289292
  endloop
endfacet
facet normal 0.0 0.0 -1.0
  outer loop
    vertex 141022.8681784538 178171.0862166053 4987.300939289292
    vertex 142265.5088655731 187609.8793264312 4987.300939289292
    vertex 142265.5088655731 177217.57448101795 4987.300939289292
  endloop
endfacet
facet normal 0.0 0.0 -1.0
  outer loop
    vertex 142265.5088655731 177217.57448101795 4987.300939289292
    vertex 142265.5088655731 187609.8793264312 4987.300939289292
    vertex 143712.59459495795 188209.281861459 4987.300939289292
  endloop
endfacet
facet normal 0.0 0.0 -1.0
  outer loop
    vertex 142265.5088655731 177217.57448101795 4987.300939289292
    vertex 143712.59459495795 188209.281861459 4987.300939289292
    vertex 143712.59459495795 176618.17194599015 4987.300939289292
  endloop
endfacet
facet normal 0.0 0.0 -1.0
  outer loop
    vertex 143712.59459495795 176618.17194599015 4987.300939289292
    vertex 143712.59459495795 188209.281861459 4987.300939289292
    vertex 145265.5088655731 188413.7269037246 4987.300939289292
  endloop
endfacet
facet normal 0.0 0.0 -1.0
  outer loop
    vertex 143712.59459495795 176618.17194599015 4987.300939289292
    vertex 145265.5088655731 188413.7269037246 4987.300939289292
    vertex 145265.5088655731 176413.72690372457 4987.300939289292
  endloop
endfacet
facet normal 0.0 0.0 -1.0
  outer loop
    vertex 145265.5088655731 176413.72690372457 4987.300939289292
    vertex 145265.5088655731 188413.7269037246 4987.300939289292
    vertex 146818.4231361882 188209.281861459 4987.300939289292
  endloop
endfacet
facet normal 0.0 0.0 -1.0
  outer loop
    vertex 145265.5088655731 176413.72690372457 4987.300939289292
    vertex 146818.4231361882 188209.281861459 4987.300939289292
    vertex 146818.4231361882 176618.17194599015 4987.300939289292
  endloop
endfacet
facet normal 0.0 0.0 -1.0
  outer loop
    vertex 146818.4231361882 176618.17194599015 4987.300939289292
    vertex 146818.4231361882 188209.281861459 4987.300939289292
    vertex 148265.50886557307 187609.8793264312 4987.300939289292
  endloop
endfacet
facet normal 0.0 0.0 -1.0
  outer loop
    vertex 146818.4231361882 176618.17194599015 4987.300939289292
    vertex 148265.50886557307 187609.8793264312 4987.300939289292
    vertex 148265.50886557307 177217.57448101795 4987.300939289292
  endloop
endfacet
facet normal 0.0 0.0 -1.0
  outer loop
    vertex 148265.50886557307 177217.57448101795 4987.300939289292
    vertex 148265.50886557307 187609.8793264312 4987.300939289292
    vertex 149508.1495526924 186656.36759084385 4987.300939289292
  endloop
endfacet
facet normal 0.0 0.0 -1.0
  outer loop
    vertex 148265.50886557307 177217.57448101795 4987.300939289292
    vertex 149508.1495526924 186656.36759084385 4987.300939289292
    vertex 149508.1495526924 178171.0862166053 4987.300939289292
  endloop
endfacet
facet normal 0.0 0.0 -1.0
  outer loop
    vertex 149508.1495526924 178171.0862166053 4987.300939289292
    vertex 149508.1495526924 186656.36759084385 4987.300939289292
    vertex 150461.66128827975 185413.7269037246 4987.300939289292
  endloop
endfacet
facet normal 0.0 0.0 -1.0
  outer loop
    vertex 149508.1495526924 178171.0862166053 4987.300939289292
    vertex 150461.66128827975 185413.7269037246 4987.300939289292
    vertex 150461.66128827972 179413.72690372457 4987.300939289292
  endloop
endfacet
facet normal 0.0 0.0 -1.0
  outer loop
    vertex 150461.66128827972 179413.72690372457 4987.300939289292
    vertex 150461.66128827975 185413.7269037246 4987.300939289292
    vertex 151061.0638233075 180860.81263310948 4987.300939289292
  endloop
endfacet
facet normal 0.0 0.0 -1.0
  outer loop
    vertex 151061.0638233075 180860.81263310948 4987.300939289292
    vertex 150461.66128827975 185413.7269037246 4987.300939289292
    vertex 151061.0638233075 183966.6411743397 4987.300939289292
  endloop
endfacet
facet normal 0.0 0.0 -1.0
  outer loop
    vertex 151061.0638233075 180860.81263310948 4987.300939289292
    vertex 151061.0638233075 183966.6411743397 4987.300939289292
    vertex 151265.5088655731 182413.72690372457 4987.300939289292
  endloop
endfacet
facet normal -0.6087614290087214 0.7933533402912346 0.0
  outer loop
    vertex 141022.8681784538 186656.36759084385 78197.30093928937
    vertex 142265.5088655731 187609.8793264312 4987.300939289292
    vertex 141022.8681784538 186656.36759084385 4987.300939289292
  endloop
endfacet
facet normal -0.6087614290087214 0.7933533402912346 0.0
  outer loop
    vertex 142265.5088655731 187609.8793264312 4987.300939289292
    vertex 141022.8681784538 186656.36759084385 78197.30093928937
    vertex 142265.5088655731 187609.8793264312 78197.30093928937
  endloop
endfacet
facet normal 0.6087614290087214 -0.7933533402912346 0.0
  outer loop
    vertex 149508.1495526924 178171.0862166053 78197.30093928937
    vertex 148265.50886557307 177217.57448101795 4987.300939289292
    vertex 149508.1495526924 178171.0862166053 4987.300939289292
  endloop
endfacet
facet normal 0.6087614290087214 -0.7933533402912346 0.0
  outer loop
    vertex 148265.50886557307 177217.57448101795 4987.300939289292
    vertex 149508.1495526924 178171.0862166053 78197.30093928937
    vertex 148265.50886557307 177217.57448101795 78197.30093928937
  endloop
endfacet
facet normal 0.38268343236510194 0.9238795325112816 0.0
  outer loop
    vertex 146818.4231361882 188209.281861459 78197.30093928937
    vertex 148265.50886557307 187609.8793264312 4987.300939289292
    vertex 146818.4231361882 188209.281861459 4987.300939289292
  endloop
endfacet
facet normal 0.38268343236510194 0.9238795325112816 0.0
  outer loop
    vertex 148265.50886557307 187609.8793264312 4987.300939289292
    vertex 146818.4231361882 188209.281861459 78197.30093928937
    vertex 148265.50886557307 187609.8793264312 78197.30093928937
  endloop
endfacet
facet normal -0.9238795325112875 -0.3826834323650879 -0.0
  outer loop
    vertex 139469.95390783867 180860.81263310948 78197.30093928937
    vertex 140069.35644286647 179413.72690372457 4987.300939289292
    vertex 140069.35644286647 179413.72690372457 78197.30093928937
  endloop
endfacet
facet normal -0.9238795325112875 -0.3826834323650879 -0.0
  outer loop
    vertex 140069.35644286647 179413.72690372457 4987.300939289292
    vertex 139469.95390783867 180860.81263310948 78197.30093928937
    vertex 139469.95390783867 180860.81263310948 4987.300939289292
  endloop
endfacet
facet normal -0.7933533402912326 -0.6087614290087239 -0.0
  outer loop
    vertex 140069.35644286647 179413.72690372457 78197.30093928937
    vertex 141022.8681784538 178171.0862166053 4987.300939289292
    vertex 141022.8681784538 178171.0862166053 78197.30093928937
  endloop
endfacet
facet normal -0.7933533402912326 -0.6087614290087239 -0.0
  outer loop
    vertex 141022.8681784538 178171.0862166053 4987.300939289292
    vertex 140069.35644286647 179413.72690372457 78197.30093928937
    vertex 140069.35644286647 179413.72690372457 4987.300939289292
  endloop
endfacet
facet normal 0.9238795325112901 0.38268343236508157 0.0
  outer loop
    vertex 150461.66128827975 185413.7269037246 4987.300939289292
    vertex 151061.0638233075 183966.6411743397 78197.30093928937
    vertex 151061.0638233075 183966.6411743397 4987.300939289292
  endloop
endfacet
facet normal 0.9238795325112901 0.38268343236508157 0.0
  outer loop
    vertex 151061.0638233075 183966.6411743397 78197.30093928937
    vertex 150461.66128827975 185413.7269037246 4987.300939289292
    vertex 150461.66128827975 185413.7269037246 78197.30093928937
  endloop
endfacet
facet normal 0.7933533402912292 0.6087614290087286 0.0
  outer loop
    vertex 149508.1495526924 186656.36759084385 4987.300939289292
    vertex 150461.66128827975 185413.7269037246 78197.30093928937
    vertex 150461.66128827975 185413.7269037246 4987.300939289292
  endloop
endfacet
facet normal 0.7933533402912292 0.6087614290087286 0.0
  outer loop
    vertex 150461.66128827975 185413.7269037246 78197.30093928937
    vertex 149508.1495526924 186656.36759084385 4987.300939289292
    vertex 149508.1495526924 186656.36759084385 78197.30093928937
  endloop
endfacet
facet normal 0.38268343236510194 -0.9238795325112816 0.0
  outer loop
    vertex 148265.50886557307 177217.57448101795 78197.30093928937
    vertex 146818.4231361882 176618.17194599015 4987.300939289292
    vertex 148265.50886557307 177217.57448101795 4987.300939289292
  endloop
endfacet
facet normal 0.38268343236510194 -0.9238795325112816 0.0
  outer loop
    vertex 146818.4231361882 176618.17194599015 4987.300939289292
    vertex 148265.50886557307 177217.57448101795 78197.30093928937
    vertex 146818.4231361882 176618.17194599015 78197.30093928937
  endloop
endfacet
endsolid Rummikub!
