solid Rummikub!
facet normal 0.6087614290087214 -0.7933533402912346 0.0
  outer loop
    vertex 230628.2691967488 124659.6616167374 76159.09636341683
    vertex 229385.6285096295 123706.14988115006 2949.096363416743
    vertex 230628.2691967488 124659.6616167374 2949.096363416743
  endloop
endfacet
facet normal 0.6087614290087214 -0.7933533402912346 0.0
  outer loop
    vertex 229385.6285096295 123706.14988115006 2949.096363416743
    vertex 230628.2691967488 124659.6616167374 76159.09636341683
    vertex 229385.6285096295 123706.14988115006 76159.09636341683
  endloop
endfacet
facet normal 0.13052619222005585 -0.9914448613738099 0.0
  outer loop
    vertex 227938.54278024464 123106.74734612225 76159.09636341683
    vertex 226385.62850962952 122902.30230385666 2949.096363416743
    vertex 227938.54278024464 123106.74734612225 2949.096363416743
  endloop
endfacet
facet normal 0.13052619222005585 -0.9914448613738099 0.0
  outer loop
    vertex 226385.62850962952 122902.30230385666 2949.096363416743
    vertex 227938.54278024464 123106.74734612225 76159.09636341683
    vertex 226385.62850962952 122902.30230385666 76159.09636341683
  endloop
endfacet
facet normal 0.9914448613738106 0.13052619222005052 0.0
  outer loop
    vertex 232181.1834673639 130455.2165744718 2949.096363416743
    vertex 232385.6285096295 128902.30230385669 76159.09636341683
    vertex 232385.6285096295 128902.30230385669 2949.096363416743
  endloop
endfacet
facet normal 0.9914448613738106 0.13052619222005052 0.0
  outer loop
    vertex 232385.6285096295 128902.30230385669 76159.09636341683
    vertex 232181.1834673639 130455.2165744718 2949.096363416743
    vertex 232181.1834673639 130455.2165744718 76159.09636341683
  endloop
endfacet
facet normal -0.38268343236510205 -0.9238795325112819 -0.0
  outer loop
    vertex 224832.71423901437 123106.74734612225 76159.09636341683
    vertex 223385.62850962952 123706.14988115006 2949.096363416743
    vertex 224832.71423901437 123106.74734612225 2949.096363416743
  endloop
endfacet
facet normal -0.38268343236510205 -0.9238795325112819 -0.0
  outer loop
    vertex 223385.62850962952 123706.14988115006 2949.096363416743
    vertex 224832.71423901437 123106.74734612225 76159.09636341683
    vertex 223385.62850962952 123706.14988115006 76159.09636341683
  endloop
endfacet
facet normal 0.7933533402912326 -0.6087614290087239 0.0
  outer loop
    vertex 231581.7809323361 125902.30230385668 2949.096363416743
    vertex 230628.2691967488 124659.6616167374 76159.09636341683
    vertex 230628.2691967488 124659.6616167374 2949.096363416743
  endloop
endfacet
facet normal 0.7933533402912326 -0.6087614290087239 0.0
  outer loop
    vertex 230628.2691967488 124659.6616167374 76159.09636341683
    vertex 231581.7809323361 125902.30230385668 2949.096363416743
    vertex 231581.7809323361 125902.30230385668 76159.09636341683
  endloop
endfacet
facet normal -0.6087614290087214 0.7933533402912346 0.0
  outer loop
    vertex 222142.98782251021 133144.94299097595 76159.09636341683
    vertex 223385.62850962952 134098.4547265633 2949.096363416743
    vertex 222142.98782251021 133144.94299097595 2949.096363416743
  endloop
endfacet
facet normal -0.6087614290087214 0.7933533402912346 0.0
  outer loop
    vertex 223385.62850962952 134098.4547265633 2949.096363416743
    vertex 222142.98782251021 133144.94299097595 76159.09636341683
    vertex 223385.62850962952 134098.4547265633 76159.09636341683
  endloop
endfacet
facet normal 0.9238795325112903 0.3826834323650817 0.0
  outer loop
    vertex 231581.78093233614 131902.3023038567 2949.096363416743
    vertex 232181.1834673639 130455.2165744718 76159.09636341683
    vertex 232181.1834673639 130455.2165744718 2949.096363416743
  endloop
endfacet
facet normal 0.9238795325112903 0.3826834323650817 0.0
  outer loop
    vertex 232181.1834673639 130455.2165744718 76159.09636341683
    vertex 231581.78093233614 131902.3023038567 2949.096363416743
    vertex 231581.78093233614 131902.3023038567 76159.09636341683
  endloop
endfacet
facet normal -0.7933533402912326 0.6087614290087239 0.0
  outer loop
    vertex 222142.98782251021 133144.94299097595 76159.09636341683
    vertex 221189.47608692286 131902.3023038567 2949.096363416743
    vertex 221189.47608692286 131902.3023038567 76159.09636341683
  endloop
endfacet
facet normal -0.7933533402912326 0.6087614290087239 0.0
  outer loop
    vertex 221189.47608692286 131902.3023038567 2949.096363416743
    vertex 222142.98782251021 133144.94299097595 76159.09636341683
    vertex 222142.98782251021 133144.94299097595 2949.096363416743
  endloop
endfacet
facet normal -0.13052619222005585 -0.9914448613738099 -0.0
  outer loop
    vertex 226385.62850962952 122902.30230385666 76159.09636341683
    vertex 224832.71423901437 123106.74734612225 2949.096363416743
    vertex 226385.62850962952 122902.30230385666 2949.096363416743
  endloop
endfacet
facet normal -0.13052619222005585 -0.9914448613738099 -0.0
  outer loop
    vertex 224832.71423901437 123106.74734612225 2949.096363416743
    vertex 226385.62850962952 122902.30230385666 76159.09636341683
    vertex 224832.71423901437 123106.74734612225 76159.09636341683
  endloop
endfacet
facet normal -0.6087614290087214 -0.7933533402912346 -0.0
  outer loop
    vertex 223385.62850962952 123706.14988115006 76159.09636341683
    vertex 222142.98782251021 124659.6616167374 2949.096363416743
    vertex 223385.62850962952 123706.14988115006 2949.096363416743
  endloop
endfacet
facet normal -0.6087614290087214 -0.7933533402912346 -0.0
  outer loop
    vertex 222142.98782251021 124659.6616167374 2949.096363416743
    vertex 223385.62850962952 123706.14988115006 76159.09636341683
    vertex 222142.98782251021 124659.6616167374 76159.09636341683
  endloop
endfacet
facet normal 0.0 0.0 -1.0
  outer loop
    vertex 220590.0735518951 130455.21657447184 2949.096363416743
    vertex 220590.0735518951 127349.38803324159 2949.096363416743
    vertex 220385.6285096295 128902.30230385669 2949.096363416743
  endloop
endfacet
facet normal 0.0 0.0 -1.0
  outer loop
    vertex 220590.0735518951 127349.38803324159 2949.096363416743
    vertex 220590.0735518951 130455.21657447184 2949.096363416743
    vertex 221189.47608692286 131902.3023038567 2949.096363416743
  endloop
endfacet
facet normal 0.0 0.0 -1.0
  outer loop
    vertex 220590.0735518951 127349.38803324159 2949.096363416743
    vertex 221189.47608692286 131902.3023038567 2949.096363416743
    vertex 221189.47608692286 125902.30230385668 2949.096363416743
  endloop
endfacet
facet normal 0.0 0.0 -1.0
  outer loop
    vertex 221189.47608692286 125902.30230385668 2949.096363416743
    vertex 221189.47608692286 131902.3023038567 2949.096363416743
    vertex 222142.98782251021 133144.94299097595 2949.096363416743
  endloop
endfacet
facet normal 0.0 0.0 -1.0
  outer loop
    vertex 221189.47608692286 125902.30230385668 2949.096363416743
    vertex 222142.98782251021 133144.94299097595 2949.096363416743
    vertex 222142.98782251021 124659.6616167374 2949.096363416743
  endloop
endfacet
facet normal 0.0 0.0 -1.0
  outer loop
    vertex 222142.98782251021 124659.6616167374 2949.096363416743
    vertex 222142.98782251021 133144.94299097595 2949.096363416743
    vertex 223385.62850962952 134098.4547265633 2949.096363416743
  endloop
endfacet
facet normal 0.0 0.0 -1.0
  outer loop
    vertex 222142.98782251021 124659.6616167374 2949.096363416743
    vertex 223385.62850962952 134098.4547265633 2949.096363416743
    vertex 223385.62850962952 123706.14988115006 2949.096363416743
  endloop
endfacet
facet normal 0.0 0.0 -1.0
  outer loop
    vertex 223385.62850962952 123706.14988115006 2949.096363416743
    vertex 223385.62850962952 134098.4547265633 2949.096363416743
    vertex 224832.71423901437 134697.8572615911 2949.096363416743
  endloop
endfacet
facet normal 0.0 0.0 -1.0
  outer loop
    vertex 223385.62850962952 123706.14988115006 2949.096363416743
    vertex 224832.71423901437 134697.8572615911 2949.096363416743
    vertex 224832.71423901437 123106.74734612225 2949.096363416743
  endloop
endfacet
facet normal 0.0 0.0 -1.0
  outer loop
    vertex 224832.71423901437 123106.74734612225 2949.096363416743
    vertex 224832.71423901437 134697.8572615911 2949.096363416743
    vertex 226385.62850962952 134902.3023038567 2949.096363416743
  endloop
endfacet
facet normal 0.0 0.0 -1.0
  outer loop
    vertex 224832.71423901437 123106.74734612225 2949.096363416743
    vertex 226385.62850962952 134902.3023038567 2949.096363416743
    vertex 226385.62850962952 122902.30230385666 2949.096363416743
  endloop
endfacet
facet normal 0.0 0.0 -1.0
  outer loop
    vertex 226385.62850962952 122902.30230385666 2949.096363416743
    vertex 226385.62850962952 134902.3023038567 2949.096363416743
    vertex 227938.54278024464 134697.8572615911 2949.096363416743
  endloop
endfacet
facet normal 0.0 0.0 -1.0
  outer loop
    vertex 226385.62850962952 122902.30230385666 2949.096363416743
    vertex 227938.54278024464 134697.8572615911 2949.096363416743
    vertex 227938.54278024464 123106.74734612225 2949.096363416743
  endloop
endfacet
facet normal 0.0 0.0 -1.0
  outer loop
    vertex 227938.54278024464 123106.74734612225 2949.096363416743
    vertex 227938.54278024464 134697.8572615911 2949.096363416743
    vertex 229385.6285096295 134098.4547265633 2949.096363416743
  endloop
endfacet
facet normal 0.0 0.0 -1.0
  outer loop
    vertex 227938.54278024464 123106.74734612225 2949.096363416743
    vertex 229385.6285096295 134098.4547265633 2949.096363416743
    vertex 229385.6285096295 123706.14988115006 2949.096363416743
  endloop
endfacet
facet normal 0.0 0.0 -1.0
  outer loop
    vertex 229385.6285096295 123706.14988115006 2949.096363416743
    vertex 229385.6285096295 134098.4547265633 2949.096363416743
    vertex 230628.2691967488 133144.94299097595 2949.096363416743
  endloop
endfacet
facet normal 0.0 0.0 -1.0
  outer loop
    vertex 229385.6285096295 123706.14988115006 2949.096363416743
    vertex 230628.2691967488 133144.94299097595 2949.096363416743
    vertex 230628.2691967488 124659.6616167374 2949.096363416743
  endloop
endfacet
facet normal 0.0 0.0 -1.0
  outer loop
    vertex 230628.2691967488 124659.6616167374 2949.096363416743
    vertex 230628.2691967488 133144.94299097595 2949.096363416743
    vertex 231581.78093233614 131902.3023038567 2949.096363416743
  endloop
endfacet
facet normal 0.0 0.0 -1.0
  outer loop
    vertex 230628.2691967488 124659.6616167374 2949.096363416743
    vertex 231581.78093233614 131902.3023038567 2949.096363416743
    vertex 231581.7809323361 125902.30230385668 2949.096363416743
  endloop
endfacet
facet normal 0.0 0.0 -1.0
  outer loop
    vertex 231581.7809323361 125902.30230385668 2949.096363416743
    vertex 231581.78093233614 131902.3023038567 2949.096363416743
    vertex 232181.1834673639 127349.38803324159 2949.096363416743
  endloop
endfacet
facet normal 0.0 0.0 -1.0
  outer loop
    vertex 232181.1834673639 127349.38803324159 2949.096363416743
    vertex 231581.78093233614 131902.3023038567 2949.096363416743
    vertex 232181.1834673639 130455.2165744718 2949.096363416743
  endloop
endfacet
facet normal 0.0 0.0 -1.0
  outer loop
    vertex 232181.1834673639 127349.38803324159 2949.096363416743
    vertex 232181.1834673639 130455.2165744718 2949.096363416743
    vertex 232385.6285096295 128902.30230385669 2949.096363416743
  endloop
endfacet
facet normal 0.6087614290087214 0.7933533402912346 0.0
  outer loop
    vertex 229385.6285096295 134098.4547265633 76159.09636341683
    vertex 230628.2691967488 133144.94299097595 2949.096363416743
    vertex 229385.6285096295 134098.4547265633 2949.096363416743
  endloop
endfacet
facet normal 0.6087614290087214 0.7933533402912346 0.0
  outer loop
    vertex 230628.2691967488 133144.94299097595 2949.096363416743
    vertex 229385.6285096295 134098.4547265633 76159.09636341683
    vertex 230628.2691967488 133144.94299097595 76159.09636341683
  endloop
endfacet
facet normal 0.9914448613738106 -0.13052619222005052 0.0
  outer loop
    vertex 232385.6285096295 128902.30230385669 2949.096363416743
    vertex 232181.1834673639 127349.38803324159 76159.09636341683
    vertex 232181.1834673639 127349.38803324159 2949.096363416743
  endloop
endfacet
facet normal 0.9914448613738106 -0.13052619222005052 0.0
  outer loop
    vertex 232181.1834673639 127349.38803324159 76159.09636341683
    vertex 232385.6285096295 128902.30230385669 2949.096363416743
    vertex 232385.6285096295 128902.30230385669 76159.09636341683
  endloop
endfacet
facet normal 0.7933533402912292 0.6087614290087286 0.0
  outer loop
    vertex 230628.2691967488 133144.94299097595 2949.096363416743
    vertex 231581.78093233614 131902.3023038567 76159.09636341683
    vertex 231581.78093233614 131902.3023038567 2949.096363416743
  endloop
endfacet
facet normal 0.7933533402912292 0.6087614290087286 0.0
  outer loop
    vertex 231581.78093233614 131902.3023038567 76159.09636341683
    vertex 230628.2691967488 133144.94299097595 2949.096363416743
    vertex 230628.2691967488 133144.94299097595 76159.09636341683
  endloop
endfacet
facet normal 0.38268343236510205 0.9238795325112819 0.0
  outer loop
    vertex 227938.54278024464 134697.8572615911 76159.09636341683
    vertex 229385.6285096295 134098.4547265633 2949.096363416743
    vertex 227938.54278024464 134697.8572615911 2949.096363416743
  endloop
endfacet
facet normal 0.38268343236510205 0.9238795325112819 0.0
  outer loop
    vertex 229385.6285096295 134098.4547265633 2949.096363416743
    vertex 227938.54278024464 134697.8572615911 76159.09636341683
    vertex 229385.6285096295 134098.4547265633 76159.09636341683
  endloop
endfacet
facet normal 0.38268343236510205 -0.9238795325112819 0.0
  outer loop
    vertex 229385.6285096295 123706.14988115006 76159.09636341683
    vertex 227938.54278024464 123106.74734612225 2949.096363416743
    vertex 229385.6285096295 123706.14988115006 2949.096363416743
  endloop
endfacet
facet normal 0.38268343236510205 -0.9238795325112819 0.0
  outer loop
    vertex 227938.54278024464 123106.74734612225 2949.096363416743
    vertex 229385.6285096295 123706.14988115006 76159.09636341683
    vertex 227938.54278024464 123106.74734612225 76159.09636341683
  endloop
endfacet
facet normal -0.7933533402912326 -0.6087614290087239 -0.0
  outer loop
    vertex 221189.47608692286 125902.30230385668 76159.09636341683
    vertex 222142.98782251021 124659.6616167374 2949.096363416743
    vertex 222142.98782251021 124659.6616167374 76159.09636341683
  endloop
endfacet
facet normal -0.7933533402912326 -0.6087614290087239 -0.0
  outer loop
    vertex 222142.98782251021 124659.6616167374 2949.096363416743
    vertex 221189.47608692286 125902.30230385668 76159.09636341683
    vertex 221189.47608692286 125902.30230385668 2949.096363416743
  endloop
endfacet
facet normal 0.13052619222005585 0.9914448613738099 0.0
  outer loop
    vertex 226385.62850962952 134902.3023038567 76159.09636341683
    vertex 227938.54278024464 134697.8572615911 2949.096363416743
    vertex 226385.62850962952 134902.3023038567 2949.096363416743
  endloop
endfacet
facet normal 0.13052619222005585 0.9914448613738099 0.0
  outer loop
    vertex 227938.54278024464 134697.8572615911 2949.096363416743
    vertex 226385.62850962952 134902.3023038567 76159.09636341683
    vertex 227938.54278024464 134697.8572615911 76159.09636341683
  endloop
endfacet
facet normal 0.0 0.0 1.0
  outer loop
    vertex 220590.0735518951 127349.38803324159 76159.09636341683
    vertex 220590.0735518951 130455.21657447184 76159.09636341683
    vertex 220385.6285096295 128902.30230385669 76159.09636341683
  endloop
endfacet
facet normal 0.0 0.0 1.0
  outer loop
    vertex 220590.0735518951 130455.21657447184 76159.09636341683
    vertex 220590.0735518951 127349.38803324159 76159.09636341683
    vertex 221189.47608692286 125902.30230385668 76159.09636341683
  endloop
endfacet
facet normal 0.0 0.0 1.0
  outer loop
    vertex 220590.0735518951 130455.21657447184 76159.09636341683
    vertex 221189.47608692286 125902.30230385668 76159.09636341683
    vertex 221189.47608692286 131902.3023038567 76159.09636341683
  endloop
endfacet
facet normal 0.0 0.0 1.0
  outer loop
    vertex 221189.47608692286 131902.3023038567 76159.09636341683
    vertex 221189.47608692286 125902.30230385668 76159.09636341683
    vertex 222142.98782251021 124659.6616167374 76159.09636341683
  endloop
endfacet
facet normal 0.0 0.0 1.0
  outer loop
    vertex 221189.47608692286 131902.3023038567 76159.09636341683
    vertex 222142.98782251021 124659.6616167374 76159.09636341683
    vertex 222142.98782251021 133144.94299097595 76159.09636341683
  endloop
endfacet
facet normal 0.0 0.0 1.0
  outer loop
    vertex 222142.98782251021 133144.94299097595 76159.09636341683
    vertex 222142.98782251021 124659.6616167374 76159.09636341683
    vertex 223385.62850962952 123706.14988115006 76159.09636341683
  endloop
endfacet
facet normal 0.0 0.0 1.0
  outer loop
    vertex 222142.98782251021 133144.94299097595 76159.09636341683
    vertex 223385.62850962952 123706.14988115006 76159.09636341683
    vertex 223385.62850962952 134098.4547265633 76159.09636341683
  endloop
endfacet
facet normal 0.0 0.0 1.0
  outer loop
    vertex 223385.62850962952 134098.4547265633 76159.09636341683
    vertex 223385.62850962952 123706.14988115006 76159.09636341683
    vertex 224832.71423901437 123106.74734612225 76159.09636341683
  endloop
endfacet
facet normal 0.0 0.0 1.0
  outer loop
    vertex 223385.62850962952 134098.4547265633 76159.09636341683
    vertex 224832.71423901437 123106.74734612225 76159.09636341683
    vertex 224832.71423901437 134697.8572615911 76159.09636341683
  endloop
endfacet
facet normal 0.0 0.0 1.0
  outer loop
    vertex 224832.71423901437 134697.8572615911 76159.09636341683
    vertex 224832.71423901437 123106.74734612225 76159.09636341683
    vertex 226385.62850962952 122902.30230385666 76159.09636341683
  endloop
endfacet
facet normal 0.0 0.0 1.0
  outer loop
    vertex 224832.71423901437 134697.8572615911 76159.09636341683
    vertex 226385.62850962952 122902.30230385666 76159.09636341683
    vertex 226385.62850962952 134902.3023038567 76159.09636341683
  endloop
endfacet
facet normal 0.0 0.0 1.0
  outer loop
    vertex 226385.62850962952 134902.3023038567 76159.09636341683
    vertex 226385.62850962952 122902.30230385666 76159.09636341683
    vertex 227938.54278024464 123106.74734612225 76159.09636341683
  endloop
endfacet
facet normal 0.0 0.0 1.0
  outer loop
    vertex 226385.62850962952 134902.3023038567 76159.09636341683
    vertex 227938.54278024464 123106.74734612225 76159.09636341683
    vertex 227938.54278024464 134697.8572615911 76159.09636341683
  endloop
endfacet
facet normal 0.0 0.0 1.0
  outer loop
    vertex 227938.54278024464 134697.8572615911 76159.09636341683
    vertex 227938.54278024464 123106.74734612225 76159.09636341683
    vertex 229385.6285096295 123706.14988115006 76159.09636341683
  endloop
endfacet
facet normal 0.0 0.0 1.0
  outer loop
    vertex 227938.54278024464 134697.8572615911 76159.09636341683
    vertex 229385.6285096295 123706.14988115006 76159.09636341683
    vertex 229385.6285096295 134098.4547265633 76159.09636341683
  endloop
endfacet
facet normal 0.0 0.0 1.0
  outer loop
    vertex 229385.6285096295 134098.4547265633 76159.09636341683
    vertex 229385.6285096295 123706.14988115006 76159.09636341683
    vertex 230628.2691967488 124659.6616167374 76159.09636341683
  endloop
endfacet
facet normal 0.0 0.0 1.0
  outer loop
    vertex 229385.6285096295 134098.4547265633 76159.09636341683
    vertex 230628.2691967488 124659.6616167374 76159.09636341683
    vertex 230628.2691967488 133144.94299097595 76159.09636341683
  endloop
endfacet
facet normal 0.0 0.0 1.0
  outer loop
    vertex 230628.2691967488 133144.94299097595 76159.09636341683
    vertex 230628.2691967488 124659.6616167374 76159.09636341683
    vertex 231581.7809323361 125902.30230385668 76159.09636341683
  endloop
endfacet
facet normal 0.0 0.0 1.0
  outer loop
    vertex 230628.2691967488 133144.94299097595 76159.09636341683
    vertex 231581.7809323361 125902.30230385668 76159.09636341683
    vertex 231581.78093233614 131902.3023038567 76159.09636341683
  endloop
endfacet
facet normal 0.0 0.0 1.0
  outer loop
    vertex 231581.78093233614 131902.3023038567 76159.09636341683
    vertex 231581.7809323361 125902.30230385668 76159.09636341683
    vertex 232181.1834673639 127349.38803324159 76159.09636341683
  endloop
endfacet
facet normal 0.0 0.0 1.0
  outer loop
    vertex 231581.78093233614 131902.3023038567 76159.09636341683
    vertex 232181.1834673639 127349.38803324159 76159.09636341683
    vertex 232181.1834673639 130455.2165744718 76159.09636341683
  endloop
endfacet
facet normal 0.0 0.0 1.0
  outer loop
    vertex 232181.1834673639 130455.2165744718 76159.09636341683
    vertex 232181.1834673639 127349.38803324159 76159.09636341683
    vertex 232385.6285096295 128902.30230385669 76159.09636341683
  endloop
endfacet
facet normal -0.9238795325112875 -0.3826834323650879 -0.0
  outer loop
    vertex 220590.0735518951 127349.38803324159 76159.09636341683
    vertex 221189.47608692286 125902.30230385668 2949.096363416743
    vertex 221189.47608692286 125902.30230385668 76159.09636341683
  endloop
endfacet
facet normal -0.9238795325112875 -0.3826834323650879 -0.0
  outer loop
    vertex 221189.47608692286 125902.30230385668 2949.096363416743
    vertex 220590.0735518951 127349.38803324159 76159.09636341683
    vertex 220590.0735518951 127349.38803324159 2949.096363416743
  endloop
endfacet
facet normal -0.38268343236510205 0.9238795325112819 0.0
  outer loop
    vertex 223385.62850962952 134098.4547265633 76159.09636341683
    vertex 224832.71423901437 134697.8572615911 2949.096363416743
    vertex 223385.62850962952 134098.4547265633 2949.096363416743
  endloop
endfacet
facet normal -0.38268343236510205 0.9238795325112819 0.0
  outer loop
    vertex 224832.71423901437 134697.8572615911 2949.096363416743
    vertex 223385.62850962952 134098.4547265633 76159.09636341683
    vertex 224832.71423901437 134697.8572615911 76159.09636341683
  endloop
endfacet
facet normal -0.13052619222005585 0.9914448613738099 0.0
  outer loop
    vertex 224832.71423901437 134697.8572615911 76159.09636341683
    vertex 226385.62850962952 134902.3023038567 2949.096363416743
    vertex 224832.71423901437 134697.8572615911 2949.096363416743
  endloop
endfacet
facet normal -0.13052619222005585 0.9914448613738099 0.0
  outer loop
    vertex 226385.62850962952 134902.3023038567 2949.096363416743
    vertex 224832.71423901437 134697.8572615911 76159.09636341683
    vertex 226385.62850962952 134902.3023038567 76159.09636341683
  endloop
endfacet
facet normal -0.9914448613738103 0.13052619222005396 0.0
  outer loop
    vertex 220590.0735518951 130455.21657447184 76159.09636341683
    vertex 220385.6285096295 128902.30230385669 2949.096363416743
    vertex 220385.6285096295 128902.30230385669 76159.09636341683
  endloop
endfacet
facet normal -0.9914448613738103 0.13052619222005396 0.0
  outer loop
    vertex 220385.6285096295 128902.30230385669 2949.096363416743
    vertex 220590.0735518951 130455.21657447184 76159.09636341683
    vertex 220590.0735518951 130455.21657447184 2949.096363416743
  endloop
endfacet
facet normal -0.923879532511286 0.38268343236509206 0.0
  outer loop
    vertex 221189.47608692286 131902.3023038567 76159.09636341683
    vertex 220590.0735518951 130455.21657447184 2949.096363416743
    vertex 220590.0735518951 130455.21657447184 76159.09636341683
  endloop
endfacet
facet normal -0.923879532511286 0.38268343236509206 0.0
  outer loop
    vertex 220590.0735518951 130455.21657447184 2949.096363416743
    vertex 221189.47608692286 131902.3023038567 76159.09636341683
    vertex 221189.47608692286 131902.3023038567 2949.096363416743
  endloop
endfacet
facet normal -0.9914448613738106 -0.13052619222005052 -0.0
  outer loop
    vertex 220385.6285096295 128902.30230385669 76159.09636341683
    vertex 220590.0735518951 127349.38803324159 2949.096363416743
    vertex 220590.0735518951 127349.38803324159 76159.09636341683
  endloop
endfacet
facet normal -0.9914448613738106 -0.13052619222005052 -0.0
  outer loop
    vertex 220590.0735518951 127349.38803324159 2949.096363416743
    vertex 220385.6285096295 128902.30230385669 76159.09636341683
    vertex 220385.6285096295 128902.30230385669 2949.096363416743
  endloop
endfacet
facet normal 0.9238795325112875 -0.3826834323650879 0.0
  outer loop
    vertex 232181.1834673639 127349.38803324159 2949.096363416743
    vertex 231581.7809323361 125902.30230385668 76159.09636341683
    vertex 231581.7809323361 125902.30230385668 2949.096363416743
  endloop
endfacet
facet normal 0.9238795325112875 -0.3826834323650879 0.0
  outer loop
    vertex 231581.7809323361 125902.30230385668 76159.09636341683
    vertex 232181.1834673639 127349.38803324159 2949.096363416743
    vertex 232181.1834673639 127349.38803324159 76159.09636341683
  endloop
endfacet
endsolid Rummikub!
