solid ScrabbleShield
facet normal -0.19274530403092788 -2.632077621393264e-17 0.9812488205210875
  outer loop
    vertex 34655.47913672863 -2132.951137177907 37821.18850428912
    vertex 25383.974023984 367.048862822091 35999.99999999999
    vertex 25383.974023984 -2132.951137177907 35999.99999999999
  endloop
endfacet
facet normal -0.19274530403092788 -2.632077621393264e-17 0.9812488205210875
  outer loop
    vertex 25383.974023984 367.048862822091 35999.99999999999
    vertex 34655.47913672863 -2132.951137177907 37821.18850428912
    vertex 34655.47913672863 367.0488628220906 37821.18850428912
  endloop
endfacet
facet normal -2.566796158336943e-15 -1.0 -6.079254059219036e-16
  outer loop
    vertex 383.97402398399817 161367.0488628221 1500.0
    vertex -2616.025976015997 161367.04886282212 0.0
    vertex 383.9740239839935 161367.04886282212 0.0
  endloop
endfacet
facet normal -2.566796158336943e-15 -1.0 -6.079254059219036e-16
  outer loop
    vertex -2616.025976015997 161367.04886282212 0.0
    vertex 383.97402398399817 161367.0488628221 1500.0
    vertex -2616.025976015997 161367.04886282212 2500.0000000000005
  endloop
endfacet
facet normal -2.566796158336943e-15 -1.0 -6.079254059219036e-16
  outer loop
    vertex -2616.025976015997 161367.04886282212 2500.0000000000005
    vertex 383.97402398399817 161367.0488628221 1500.0
    vertex 383.9740239839935 161367.04886282212 2500.0000000000005
  endloop
endfacet
facet normal 0.9681118573780328 -5.073126882988802e-16 -0.25051832588466527
  outer loop
    vertex 25383.974023984 177867.0488628221 0.0
    vertex 34653.31366299411 175367.04886282273 35820.7631433769
    vertex 25383.974023984003 175367.0488628227 -5.336732455293648e-13
  endloop
endfacet
facet normal 0.9681118573780328 -5.073126882988802e-16 -0.25051832588466527
  outer loop
    vertex 34653.31366299411 175367.04886282273 35820.7631433769
    vertex 25383.974023984 177867.0488628221 0.0
    vertex 34653.31366299411 177867.0488628221 35820.7631433769
  endloop
endfacet
facet normal 4.248166423891794e-14 -1.0 -9.27463588115452e-16
  outer loop
    vertex 34653.31366299411 175367.04886282273 35820.7631433769
    vertex 25383.974023984 175367.0488628221 1500.0
    vertex 25383.974023984003 175367.0488628227 -5.336732455293648e-13
  endloop
endfacet
facet normal 4.248166423891794e-14 -1.0 -9.27463588115452e-16
  outer loop
    vertex 25383.974023984 175367.0488628221 1500.0
    vertex 34653.31366299411 175367.04886282273 35820.7631433769
    vertex 25383.974023984 175367.0488628221 28499.999999999996
  endloop
endfacet
facet normal 4.248166423891794e-14 -1.0 -9.27463588115452e-16
  outer loop
    vertex 25383.974023984 175367.0488628221 28499.999999999996
    vertex 34653.31366299411 175367.04886282273 35820.7631433769
    vertex 25383.97402398402 175367.0488628226 33999.999999999935
  endloop
endfacet
facet normal -0.1927453040309276 1.8369766617971715e-17 0.9812488205210875
  outer loop
    vertex 34655.47913672863 367.0488628220906 37821.18850428912
    vertex 25383.974023984 15367.048862822088 35999.99999999999
    vertex 25383.974023984 367.048862822091 35999.99999999999
  endloop
endfacet
facet normal -0.1927453040309276 1.8369766617971715e-17 0.9812488205210875
  outer loop
    vertex 25383.974023984 15367.048862822088 35999.99999999999
    vertex 34655.47913672863 367.0488628220906 37821.18850428912
    vertex 25383.974023984003 175367.0488628227 35999.99999999999
  endloop
endfacet
facet normal -0.1927453040309276 1.8369766617971715e-17 0.9812488205210875
  outer loop
    vertex 25383.974023984003 175367.0488628227 35999.99999999999
    vertex 34655.47913672863 367.0488628220906 37821.18850428912
    vertex 34653.31366299411 175367.0488628227 37820.76314337697
  endloop
endfacet
facet normal 1.0 -0.0 -0.0
  outer loop
    vertex 34655.47913672863 367.0488628220906 35821.18850428913
    vertex 34655.47913672863 -2132.951137177907 37821.18850428912
    vertex 34655.47913672863 -2132.951137177907 35821.18850428913
  endloop
endfacet
facet normal 1.0 -0.0 -0.0
  outer loop
    vertex 34655.47913672863 -2132.951137177907 37821.18850428912
    vertex 34655.47913672863 367.0488628220906 35821.18850428913
    vertex 34655.47913672863 367.0488628220906 37821.18850428912
  endloop
endfacet
facet normal -0.0 1.0 -0.0
  outer loop
    vertex -2616.025976015997 14367.048862822092 2500.0000000000005
    vertex 383.9740239839935 14367.048862822092 1.4438228390645235e-12
    vertex -2616.025976015997 14367.048862822092 1.4438228390645235e-12
  endloop
endfacet
facet normal -0.0 1.0 -0.0
  outer loop
    vertex 383.9740239839935 14367.048862822092 1.4438228390645235e-12
    vertex -2616.025976015997 14367.048862822092 2500.0000000000005
    vertex 383.9740239839935 14367.048862822092 2500.0000000000005
  endloop
endfacet
facet normal 1.0 -1.6758657953426806e-16 -4.692424226959738e-15
  outer loop
    vertex 383.9740239839935 161367.04886282212 0.0
    vertex 383.9740239840029 175367.0488628221 1500.0
    vertex 383.97402398399817 161367.0488628221 1500.0
  endloop
endfacet
facet normal 1.0 -1.6758657953426806e-16 -4.692424226959738e-15
  outer loop
    vertex 383.9740239840029 175367.0488628221 1500.0
    vertex 383.9740239839935 161367.04886282212 0.0
    vertex 383.9740239839935 175367.0488628227 0.0
  endloop
endfacet
facet normal -1.0 0.0 0.0
  outer loop
    vertex -2616.025976015997 -2132.951137177907 28499.999999999996
    vertex -2616.025976015997 4367.048862822093 21999.999999999996
    vertex -2616.025976015997 -2132.951137177907 1.4438228390645235e-12
  endloop
endfacet
facet normal -1.0 0.0 0.0
  outer loop
    vertex -2616.025976015997 4367.048862822093 21999.999999999996
    vertex -2616.025976015997 -2132.951137177907 28499.999999999996
    vertex -2616.025976015997 177867.0488628221 28499.999999999996
  endloop
endfacet
facet normal -1.0 0.0 0.0
  outer loop
    vertex -2616.025976015997 4367.048862822093 21999.999999999996
    vertex -2616.025976015997 177867.0488628221 28499.999999999996
    vertex -2616.025976015997 171367.0488628221 21999.999999999996
  endloop
endfacet
facet normal -1.0 0.0 0.0
  outer loop
    vertex -2616.025976015997 171367.0488628221 21999.999999999996
    vertex -2616.025976015997 161367.04886282212 0.0
    vertex -2616.025976015997 161367.04886282212 2500.0000000000005
  endloop
endfacet
facet normal -1.0 0.0 0.0
  outer loop
    vertex -2616.025976015997 161367.04886282212 0.0
    vertex -2616.025976015997 171367.0488628221 21999.999999999996
    vertex -2616.025976015997 177867.0488628221 0.0
  endloop
endfacet
facet normal -1.0 0.0 0.0
  outer loop
    vertex -2616.025976015997 177867.0488628221 0.0
    vertex -2616.025976015997 171367.0488628221 21999.999999999996
    vertex -2616.025976015997 177867.0488628221 28499.999999999996
  endloop
endfacet
facet normal -1.0 0.0 0.0
  outer loop
    vertex -2616.025976015997 4367.048862822093 21999.999999999996
    vertex -2616.025976015997 14367.048862822092 1.4438228390645235e-12
    vertex -2616.025976015997 -2132.951137177907 1.4438228390645235e-12
  endloop
endfacet
facet normal -1.0 0.0 0.0
  outer loop
    vertex -2616.025976015997 14367.048862822092 1.4438228390645235e-12
    vertex -2616.025976015997 4367.048862822093 21999.999999999996
    vertex -2616.025976015997 14367.048862822092 2500.0000000000005
  endloop
endfacet
facet normal 1.0 -0.0 -0.0
  outer loop
    vertex 383.9740239839935 171367.0488628221 21999.999999999996
    vertex 383.9740239839935 161367.04886282212 2500.0000000000005
    vertex 383.9740239839935 171367.0488628221 2500.0000000000005
  endloop
endfacet
facet normal -7.495126521631164e-16 1.0 2.369837794460049e-16
  outer loop
    vertex 25383.974023984 177867.04886282203 28499.999999999996
    vertex 34653.31366299411 177867.0488628221 35820.7631433769
    vertex 25383.974023984 177867.0488628221 0.0
  endloop
endfacet
facet normal -7.495126521631164e-16 1.0 2.369837794460049e-16
  outer loop
    vertex 34653.31366299411 177867.0488628221 35820.7631433769
    vertex 25383.974023984 177867.04886282203 28499.999999999996
    vertex 25383.974023984 177867.0488628221 33999.99999999999
  endloop
endfacet
facet normal -7.495126521631164e-16 1.0 2.369837794460049e-16
  outer loop
    vertex 34653.31366299411 177867.0488628221 35820.7631433769
    vertex 25383.974023984 177867.0488628221 33999.99999999999
    vertex 25383.974023984 177867.0488628221 35999.99999999999
  endloop
endfacet
facet normal -7.495126521631164e-16 1.0 2.369837794460049e-16
  outer loop
    vertex 34653.31366299411 177867.0488628221 35820.7631433769
    vertex 25383.974023984 177867.0488628221 35999.99999999999
    vertex 34653.31366299411 177867.04886282206 37820.76314337697
  endloop
endfacet
facet normal -0.19274530403092716 1.0857320188253064e-16 0.9812488205210875
  outer loop
    vertex 25383.974023984003 175367.0488628227 35999.99999999999
    vertex 34653.31366299411 177867.04886282206 37820.76314337697
    vertex 25383.974023984 177867.0488628221 35999.99999999999
  endloop
endfacet
facet normal -0.19274530403092716 1.0857320188253064e-16 0.9812488205210875
  outer loop
    vertex 34653.31366299411 177867.04886282206 37820.76314337697
    vertex 25383.974023984003 175367.0488628227 35999.99999999999
    vertex 34653.31366299411 175367.0488628227 37820.76314337697
  endloop
endfacet
facet normal 0.9680983836842525 1.7535777864252057e-16 -0.2505703883301816
  outer loop
    vertex 25383.974023984 367.048862822091 0.0
    vertex 34655.47913672863 -2132.951137177907 35821.18850428913
    vertex 25383.974023984 -2132.951137177907 0.0
  endloop
endfacet
facet normal 0.9680983836842525 1.7535777864252057e-16 -0.2505703883301816
  outer loop
    vertex 34655.47913672863 -2132.951137177907 35821.18850428913
    vertex 25383.974023984 367.048862822091 0.0
    vertex 34655.47913672863 367.0488628220906 35821.18850428913
  endloop
endfacet
facet normal 0.0 -1.0 0.0
  outer loop
    vertex 34655.47913672863 -2132.951137177907 35821.18850428913
    vertex 25383.974023984 -2132.951137177907 28499.999999999996
    vertex 25383.974023984 -2132.951137177907 0.0
  endloop
endfacet
facet normal 0.0 -1.0 0.0
  outer loop
    vertex 25383.974023984 -2132.951137177907 28499.999999999996
    vertex 34655.47913672863 -2132.951137177907 35821.18850428913
    vertex 25383.974023984 -2132.951137177907 33999.99999999999
  endloop
endfacet
facet normal 0.0 -1.0 0.0
  outer loop
    vertex 25383.974023984 -2132.951137177907 33999.99999999999
    vertex 34655.47913672863 -2132.951137177907 35821.18850428913
    vertex 25383.974023984 -2132.951137177907 35999.99999999999
  endloop
endfacet
facet normal 0.0 -1.0 0.0
  outer loop
    vertex 25383.974023984 -2132.951137177907 35999.99999999999
    vertex 34655.47913672863 -2132.951137177907 35821.18850428913
    vertex 34655.47913672863 -2132.951137177907 37821.18850428912
  endloop
endfacet
facet normal -4.97252315694848e-30 -1.0 -4.0042020070056113e-13
  outer loop
    vertex 25383.974023984 175367.0488628221 1500.0
    vertex 383.9740239839935 175367.0488628227 0.0
    vertex 25383.974023984003 175367.0488628227 -5.336732455293648e-13
  endloop
endfacet
facet normal -4.97252315694848e-30 -1.0 -4.0042020070056113e-13
  outer loop
    vertex 383.9740239839935 175367.0488628227 0.0
    vertex 25383.974023984 175367.0488628221 1500.0
    vertex 383.9740239840029 175367.0488628221 1500.0
  endloop
endfacet
facet normal -1.0675645123296006e-17 2.4986794938658627e-18 -1.0
  outer loop
    vertex 383.9740239839935 161367.04886282212 0.0
    vertex -2616.025976015997 161367.04886282212 0.0
    vertex 383.9740239839935 175367.0488628227 0.0
  endloop
endfacet
facet normal -1.0675645123296006e-17 2.4986794938658627e-18 -1.0
  outer loop
    vertex -2616.025976015997 177867.0488628221 0.0
    vertex 383.9740239839935 175367.0488628227 0.0
    vertex -2616.025976015997 161367.04886282212 0.0
  endloop
endfacet
facet normal -1.0675645123296006e-17 2.4986794938658627e-18 -1.0
  outer loop
    vertex 383.9740239839935 175367.0488628227 0.0
    vertex -2616.025976015997 177867.0488628221 0.0
    vertex 25383.974023984 177867.0488628221 0.0
  endloop
endfacet
facet normal -1.0675645123296006e-17 2.4986794938658627e-18 -1.0
  outer loop
    vertex 383.9740239839935 175367.0488628227 0.0
    vertex 25383.974023984 177867.0488628221 0.0
    vertex 25383.974023984003 175367.0488628227 -5.336732455293648e-13
  endloop
endfacet
facet normal 1.0 -0.0 -0.0
  outer loop
    vertex 383.9740239839935 14367.048862822092 2500.0000000000005
    vertex 383.9740239839935 4367.048862822093 21999.999999999996
    vertex 383.9740239839935 4367.048862822093 2500.0000000000005
  endloop
endfacet
facet normal -5.356733669857416e-17 1.4156261777706663e-18 -1.0
  outer loop
    vertex 383.9740239839935 14367.048862822092 1.4438228390645235e-12
    vertex -2616.025976015997 -2132.951137177907 1.4438228390645235e-12
    vertex -2616.025976015997 14367.048862822092 1.4438228390645235e-12
  endloop
endfacet
facet normal -5.356733669857416e-17 1.4156261777706663e-18 -1.0
  outer loop
    vertex -2616.025976015997 -2132.951137177907 1.4438228390645235e-12
    vertex 383.9740239839935 14367.048862822092 1.4438228390645235e-12
    vertex 383.9740239840029 367.04886282209026 1.4438228390645235e-12
  endloop
endfacet
facet normal -5.356733669857416e-17 1.4156261777706663e-18 -1.0
  outer loop
    vertex -2616.025976015997 -2132.951137177907 1.4438228390645235e-12
    vertex 383.9740239840029 367.04886282209026 1.4438228390645235e-12
    vertex 25383.974023984 -2132.951137177907 0.0
  endloop
endfacet
facet normal -5.356733669857416e-17 1.4156261777706663e-18 -1.0
  outer loop
    vertex 25383.974023984 -2132.951137177907 0.0
    vertex 383.9740239840029 367.04886282209026 1.4438228390645235e-12
    vertex 25383.974023984 367.048862822091 0.0
  endloop
endfacet
facet normal -4.947355796010722e-17 1.0 2.2576664358652172e-17
  outer loop
    vertex 25383.974023984 367.04886282209026 28499.999999999996
    vertex 34655.47913672863 367.0488628220906 35821.18850428913
    vertex 25383.974023984 367.048862822091 0.0
  endloop
endfacet
facet normal -4.947355796010722e-17 1.0 2.2576664358652172e-17
  outer loop
    vertex 34655.47913672863 367.0488628220906 35821.18850428913
    vertex 25383.974023984 367.04886282209026 28499.999999999996
    vertex 25383.974023984 367.04886282209026 33999.99999999999
  endloop
endfacet
facet normal 0.19274530403092802 -4.3479113429581725e-16 -0.9812488205210873
  outer loop
    vertex 25383.97402398402 175367.0488628226 33999.999999999935
    vertex 25383.974023984 367.04886282209026 33999.99999999999
    vertex 25383.974023984 5367.04886282209 33999.999999999985
  endloop
endfacet
facet normal 0.19274530403092802 -4.3479113429581725e-16 -0.9812488205210873
  outer loop
    vertex 25383.974023984 367.04886282209026 33999.99999999999
    vertex 25383.97402398402 175367.0488628226 33999.999999999935
    vertex 34655.47913672863 367.0488628220906 35821.18850428913
  endloop
endfacet
facet normal 0.19274530403092802 -4.3479113429581725e-16 -0.9812488205210873
  outer loop
    vertex 34655.47913672863 367.0488628220906 35821.18850428913
    vertex 25383.97402398402 175367.0488628226 33999.999999999935
    vertex 34653.31366299411 175367.04886282273 35820.7631433769
  endloop
endfacet
facet normal 0.0 -0.8898174628127371 0.4563166475962751
  outer loop
    vertex 383.9740239839935 171367.0488628221 21999.999999999996
    vertex -2616.025976015997 161367.04886282212 2500.0000000000005
    vertex 383.9740239839935 161367.04886282212 2500.0000000000005
  endloop
endfacet
facet normal 0.0 -0.8898174628127371 0.4563166475962751
  outer loop
    vertex -2616.025976015997 161367.04886282212 2500.0000000000005
    vertex 383.9740239839935 171367.0488628221 21999.999999999996
    vertex -2616.025976015997 171367.0488628221 21999.999999999996
  endloop
endfacet
facet normal -0.0 0.8898174628127371 0.4563166475962754
  outer loop
    vertex -2616.025976015997 4367.048862822093 21999.999999999996
    vertex 383.9740239839935 14367.048862822092 2500.0000000000005
    vertex -2616.025976015997 14367.048862822092 2500.0000000000005
  endloop
endfacet
facet normal -0.0 0.8898174628127371 0.4563166475962754
  outer loop
    vertex 383.9740239839935 14367.048862822092 2500.0000000000005
    vertex -2616.025976015997 4367.048862822093 21999.999999999996
    vertex 383.9740239839935 4367.048862822093 21999.999999999996
  endloop
endfacet
facet normal 0.9999999999234404 1.2374135624926858e-05 4.845571536199616e-20
  outer loop
    vertex 34653.31366299411 175367.04886282273 35820.7631433769
    vertex 34655.47913672863 367.0488628220906 37821.18850428912
    vertex 34655.47913672863 367.0488628220906 35821.18850428913
  endloop
endfacet
facet normal 0.9999999999234404 1.2374135624926858e-05 4.845571536199616e-20
  outer loop
    vertex 34655.47913672863 367.0488628220906 37821.18850428912
    vertex 34653.31366299411 175367.04886282273 35820.7631433769
    vertex 34653.31366299411 175367.0488628227 37820.76314337697
  endloop
endfacet
facet normal 1.0 -2.310116542503848e-15 -2.6601808463531365e-29
  outer loop
    vertex 34653.31366299411 175367.04886282273 35820.7631433769
    vertex 34653.31366299411 177867.04886282206 37820.76314337697
    vertex 34653.31366299411 175367.0488628227 37820.76314337697
  endloop
endfacet
facet normal 1.0 -2.310116542503848e-15 -2.6601808463531365e-29
  outer loop
    vertex 34653.31366299411 177867.04886282206 37820.76314337697
    vertex 34653.31366299411 175367.04886282273 35820.7631433769
    vertex 34653.31366299411 177867.0488628221 35820.7631433769
  endloop
endfacet
facet normal 0.0 -1.0 0.0
  outer loop
    vertex 25383.974023984 -2132.951137177907 33999.99999999999
    vertex -2616.025976015997 -2132.951137177907 30500.0
    vertex -2616.025976015997 -2132.951137177907 28499.999999999996
  endloop
endfacet
facet normal 0.0 -1.0 0.0
  outer loop
    vertex -2616.025976015997 -2132.951137177907 30500.0
    vertex 25383.974023984 -2132.951137177907 33999.99999999999
    vertex 21473.190791329478 -2132.951137177907 35231.81043644286
  endloop
endfacet
facet normal 0.0 -1.0 0.0
  outer loop
    vertex 21473.190791329478 -2132.951137177907 35231.81043644286
    vertex 25383.974023984 -2132.951137177907 33999.99999999999
    vertex 25383.974023984 -2132.951137177907 35999.99999999999
  endloop
endfacet
facet normal 7.510825717130744e-16 1.0 5.084308421486351e-16
  outer loop
    vertex -2616.025976015997 177867.0488628221 30500.0
    vertex 25383.974023984 177867.0488628221 33999.99999999999
    vertex -2616.025976015997 177867.0488628221 28499.999999999996
  endloop
endfacet
facet normal 7.510825717130744e-16 1.0 5.084308421486351e-16
  outer loop
    vertex 25383.974023984 177867.0488628221 33999.99999999999
    vertex -2616.025976015997 177867.0488628221 30500.0
    vertex 21372.773054734957 177867.0488628221 35212.085523897505
  endloop
endfacet
facet normal 7.510825717130744e-16 1.0 5.084308421486351e-16
  outer loop
    vertex 25383.974023984 177867.0488628221 33999.99999999999
    vertex 21372.773054734957 177867.0488628221 35212.085523897505
    vertex 25383.974023984 177867.0488628221 35999.99999999999
  endloop
endfacet
facet normal -0.19274530403092782 -1.79702020613367e-18 0.9812488205210875
  outer loop
    vertex 21473.190791329478 -2132.951137177907 35231.81043644286
    vertex -2616.025976015997 177867.0488628221 30500.0
    vertex -2616.025976015997 -2132.951137177907 30500.0
  endloop
endfacet
facet normal -0.19274530403092782 -1.79702020613367e-18 0.9812488205210875
  outer loop
    vertex -2616.025976015997 177867.0488628221 30500.0
    vertex 21473.190791329478 -2132.951137177907 35231.81043644286
    vertex 21372.773054734957 177867.0488628221 35212.085523897505
  endloop
endfacet
facet normal -0.19274530403092782 -1.79702020613367e-18 0.9812488205210875
  outer loop
    vertex 21372.773054734957 177867.0488628221 35212.085523897505
    vertex 21473.190791329478 -2132.951137177907 35231.81043644286
    vertex 25383.974023984 177867.0488628221 35999.99999999999
  endloop
endfacet
facet normal -0.19274530403092782 -1.79702020613367e-18 0.9812488205210875
  outer loop
    vertex 25383.974023984 177867.0488628221 35999.99999999999
    vertex 21473.190791329478 -2132.951137177907 35231.81043644286
    vertex 25383.974023984 -2132.951137177907 35999.99999999999
  endloop
endfacet
facet normal -0.19274530403092782 -1.79702020613367e-18 0.9812488205210875
  outer loop
    vertex 25383.974023984 177867.0488628221 35999.99999999999
    vertex 25383.974023984 -2132.951137177907 35999.99999999999
    vertex 25383.974023984 367.048862822091 35999.99999999999
  endloop
endfacet
facet normal -0.19274530403092782 -1.79702020613367e-18 0.9812488205210875
  outer loop
    vertex 25383.974023984 177867.0488628221 35999.99999999999
    vertex 25383.974023984 367.048862822091 35999.99999999999
    vertex 25383.974023984 15367.048862822088 35999.99999999999
  endloop
endfacet
facet normal -0.19274530403092782 -1.79702020613367e-18 0.9812488205210875
  outer loop
    vertex 25383.974023984 177867.0488628221 35999.99999999999
    vertex 25383.974023984 15367.048862822088 35999.99999999999
    vertex 25383.974023984003 175367.0488628227 35999.99999999999
  endloop
endfacet
facet normal 2.4751248669677545e-15 1.0 -8.400423790920868e-15
  outer loop
    vertex 25383.974023984 177867.0488628221 33999.99999999999
    vertex 25383.974023984 177867.04886282203 28499.999999999996
    vertex -2616.025976015997 177867.0488628221 28499.999999999996
  endloop
endfacet
facet normal 0.19274530403092802 -2.165227341129627e-16 -0.9812488205210873
  outer loop
    vertex 25383.97402398402 175367.0488628226 33999.999999999935
    vertex 383.9740239840029 367.04886282209026 29089.285714285677
    vertex 383.9740239840029 175367.0488628221 29089.285714285677
  endloop
endfacet
facet normal 0.19274530403092802 -2.165227341129627e-16 -0.9812488205210873
  outer loop
    vertex 383.9740239840029 367.04886282209026 29089.285714285677
    vertex 25383.97402398402 175367.0488628226 33999.999999999935
    vertex 20542.731033023127 367.04886282209026 33049.04155534696
  endloop
endfacet
facet normal 0.19274530403092802 -2.165227341129627e-16 -0.9812488205210873
  outer loop
    vertex 20542.731033023127 367.04886282209026 33049.04155534696
    vertex 25383.97402398402 175367.0488628226 33999.999999999935
    vertex 25383.974023984 5367.04886282209 33999.999999999985
  endloop
endfacet
facet normal 0.19274530403092802 -2.165227341129627e-16 -0.9812488205210873
  outer loop
    vertex 25383.974023984 367.04886282209026 33999.99999999999
    vertex 20542.731033023127 367.04886282209026 33049.04155534696
    vertex 25383.974023984 5367.04886282209 33999.999999999985
  endloop
endfacet
facet normal -1.0 -2.2506538885076932e-17 1.5340617665061278e-15
  outer loop
    vertex -2616.025976015997 177867.0488628221 30500.0
    vertex -2616.025976015997 -2132.951137177907 28499.999999999996
    vertex -2616.025976015997 -2132.951137177907 30500.0
  endloop
endfacet
facet normal -1.0 -2.2506538885076932e-17 1.5340617665061278e-15
  outer loop
    vertex -2616.025976015997 -2132.951137177907 28499.999999999996
    vertex -2616.025976015997 177867.0488628221 30500.0
    vertex -2616.025976015997 177867.0488628221 28499.999999999996
  endloop
endfacet
facet normal -0.0 1.0 -0.0
  outer loop
    vertex 383.9740239840029 367.04886282209026 29089.285714285677
    vertex 25383.974023984 367.04886282209026 28499.999999999996
    vertex 383.9740239840029 367.04886282209026 28499.999999999996
  endloop
endfacet
facet normal -0.0 1.0 -0.0
  outer loop
    vertex 25383.974023984 367.04886282209026 28499.999999999996
    vertex 383.9740239840029 367.04886282209026 29089.285714285677
    vertex 20542.731033023127 367.04886282209026 33049.04155534696
  endloop
endfacet
facet normal -0.0 1.0 -0.0
  outer loop
    vertex 25383.974023984 367.04886282209026 28499.999999999996
    vertex 20542.731033023127 367.04886282209026 33049.04155534696
    vertex 25383.974023984 367.04886282209026 33999.99999999999
  endloop
endfacet
facet normal 1.0 -4.304546518247417e-18 -1.0659217072851419e-16
  outer loop
    vertex 383.9740239840029 367.04886282209026 1.4438228390645235e-12
    vertex 383.9740239839935 4367.048862822093 2500.0000000000005
    vertex 383.9740239840029 367.04886282209026 28499.999999999996
  endloop
endfacet
facet normal 1.0 -4.304546518247417e-18 -1.0659217072851419e-16
  outer loop
    vertex 383.9740239839935 4367.048862822093 2500.0000000000005
    vertex 383.9740239840029 367.04886282209026 1.4438228390645235e-12
    vertex 383.9740239839935 14367.048862822092 1.4438228390645235e-12
  endloop
endfacet
facet normal 1.0 -4.304546518247417e-18 -1.0659217072851419e-16
  outer loop
    vertex 383.9740239839935 4367.048862822093 2500.0000000000005
    vertex 383.9740239839935 14367.048862822092 1.4438228390645235e-12
    vertex 383.9740239839935 14367.048862822092 2500.0000000000005
  endloop
endfacet
facet normal 1.0 -4.304546518247417e-18 -1.0659217072851419e-16
  outer loop
    vertex 383.9740239840029 175367.0488628221 1500.0
    vertex 383.9740239839935 161367.04886282212 2500.0000000000005
    vertex 383.97402398399817 161367.0488628221 1500.0
  endloop
endfacet
facet normal 1.0 -4.304546518247417e-18 -1.0659217072851419e-16
  outer loop
    vertex 383.9740239839935 161367.04886282212 2500.0000000000005
    vertex 383.9740239840029 175367.0488628221 1500.0
    vertex 383.9740239839935 171367.0488628221 2500.0000000000005
  endloop
endfacet
facet normal 1.0 -4.304546518247417e-18 -1.0659217072851419e-16
  outer loop
    vertex 383.9740239839935 171367.0488628221 2500.0000000000005
    vertex 383.9740239840029 175367.0488628221 1500.0
    vertex 383.9740239839935 171367.0488628221 21999.999999999996
  endloop
endfacet
facet normal 1.0 -4.304546518247417e-18 -1.0659217072851419e-16
  outer loop
    vertex 383.9740239840029 367.04886282209026 28499.999999999996
    vertex 383.9740239839935 4367.048862822093 21999.999999999996
    vertex 383.9740239840029 175367.0488628221 28499.999999999996
  endloop
endfacet
facet normal 1.0 -4.304546518247417e-18 -1.0659217072851419e-16
  outer loop
    vertex 383.9740239839935 4367.048862822093 21999.999999999996
    vertex 383.9740239840029 367.04886282209026 28499.999999999996
    vertex 383.9740239839935 4367.048862822093 2500.0000000000005
  endloop
endfacet
facet normal 1.0 -4.304546518247417e-18 -1.0659217072851419e-16
  outer loop
    vertex 383.9740239840029 175367.0488628221 28499.999999999996
    vertex 383.9740239839935 4367.048862822093 21999.999999999996
    vertex 383.9740239839935 171367.0488628221 21999.999999999996
  endloop
endfacet
facet normal 1.0 -4.304546518247417e-18 -1.0659217072851419e-16
  outer loop
    vertex 383.9740239840029 175367.0488628221 28499.999999999996
    vertex 383.9740239839935 171367.0488628221 21999.999999999996
    vertex 383.9740239840029 175367.0488628221 1500.0
  endloop
endfacet
facet normal 0.0 -1.0 0.0
  outer loop
    vertex 25383.974023984 -2132.951137177907 33999.99999999999
    vertex -2616.025976015997 -2132.951137177907 28499.999999999996
    vertex 25383.974023984 -2132.951137177907 28499.999999999996
  endloop
endfacet
facet normal -1.443822839064524e-17 1.0 1.2665112623373015e-17
  outer loop
    vertex 383.9740239840029 367.04886282209026 1.4438228390645235e-12
    vertex 25383.974023984 367.04886282209026 28499.999999999996
    vertex 25383.974023984 367.048862822091 0.0
  endloop
endfacet
facet normal -1.443822839064524e-17 1.0 1.2665112623373015e-17
  outer loop
    vertex 25383.974023984 367.04886282209026 28499.999999999996
    vertex 383.9740239840029 367.04886282209026 1.4438228390645235e-12
    vertex 383.9740239840029 367.04886282209026 28499.999999999996
  endloop
endfacet
facet normal 0.0 0.0 -1.0
  outer loop
    vertex 383.9740239839935 171367.0488628221 21999.999999999996
    vertex -2616.025976015997 4367.048862822093 21999.999999999996
    vertex -2616.025976015997 171367.0488628221 21999.999999999996
  endloop
endfacet
facet normal 0.0 0.0 -1.0
  outer loop
    vertex -2616.025976015997 4367.048862822093 21999.999999999996
    vertex 383.9740239839935 171367.0488628221 21999.999999999996
    vertex 383.9740239839935 4367.048862822093 21999.999999999996
  endloop
endfacet
facet normal 0.0 -1.0 0.0
  outer loop
    vertex 25383.974023984 -2132.951137177907 28499.999999999996
    vertex -2616.025976015997 -2132.951137177907 1.4438228390645235e-12
    vertex 25383.974023984 -2132.951137177907 0.0
  endloop
endfacet
facet normal 0.0 -1.0 0.0
  outer loop
    vertex -2616.025976015997 -2132.951137177907 1.4438228390645235e-12
    vertex 25383.974023984 -2132.951137177907 28499.999999999996
    vertex -2616.025976015997 -2132.951137177907 28499.999999999996
  endloop
endfacet
facet normal 1.137870771124487e-15 -1.0 8.720339047523513e-14
  outer loop
    vertex 25383.97402398402 175367.0488628226 33999.999999999935
    vertex 383.9740239840029 175367.0488628221 28499.999999999996
    vertex 25383.974023984 175367.0488628221 28499.999999999996
  endloop
endfacet
facet normal 1.137870771124487e-15 -1.0 8.720339047523513e-14
  outer loop
    vertex 383.9740239840029 175367.0488628221 28499.999999999996
    vertex 25383.97402398402 175367.0488628226 33999.999999999935
    vertex 383.9740239840029 175367.0488628221 29089.285714285677
  endloop
endfacet
facet normal 0.0 -1.0 0.0
  outer loop
    vertex 25383.974023984 175367.0488628221 28499.999999999996
    vertex 383.9740239840029 175367.0488628221 1500.0
    vertex 25383.974023984 175367.0488628221 1500.0
  endloop
endfacet
facet normal 0.0 -1.0 0.0
  outer loop
    vertex 383.9740239840029 175367.0488628221 1500.0
    vertex 25383.974023984 175367.0488628221 28499.999999999996
    vertex 383.9740239840029 175367.0488628221 28499.999999999996
  endloop
endfacet
facet normal 1.65008324464517e-15 1.0 8.10567207895873e-16
  outer loop
    vertex -2616.025976015997 177867.0488628221 28499.999999999996
    vertex 25383.974023984 177867.0488628221 0.0
    vertex -2616.025976015997 177867.0488628221 0.0
  endloop
endfacet
facet normal 1.65008324464517e-15 1.0 8.10567207895873e-16
  outer loop
    vertex 25383.974023984 177867.0488628221 0.0
    vertex -2616.025976015997 177867.0488628221 28499.999999999996
    vertex 25383.974023984 177867.04886282203 28499.999999999996
  endloop
endfacet
facet normal 1.0 -0.0 -0.0
  outer loop
    vertex 383.9740239840029 175367.0488628221 28499.999999999996
    vertex 383.9740239840029 367.04886282209026 29089.285714285677
    vertex 383.9740239840029 367.04886282209026 28499.999999999996
  endloop
endfacet
facet normal 1.0 -0.0 -0.0
  outer loop
    vertex 383.9740239840029 367.04886282209026 29089.285714285677
    vertex 383.9740239840029 175367.0488628221 28499.999999999996
    vertex 383.9740239840029 175367.0488628221 29089.285714285677
  endloop
endfacet
endsolid ScrabbleShield
