solid Rummikub!
facet normal 0.0 -1.0 0.0
  outer loop
    vertex 27792.381197214876 15132.958387619454 36339.79777666237
    vertex 26292.38119721487 15132.958387619454 0.0
    vertex 27792.381197214876 15132.958387619454 0.0
  endloop
endfacet
facet normal 0.0 -1.0 0.0
  outer loop
    vertex 26292.38119721487 15132.958387619454 0.0
    vertex 27792.381197214876 15132.958387619454 36339.79777666237
    vertex 26292.38119721487 15132.958387619454 36339.79777666237
  endloop
endfacet
facet normal 1.0 0.0 0.0
  outer loop
    vertex 67792.38119721488 78072.95838761947 0.0
    vertex 67792.38119721488 68932.77893625085 3750.0000000000014
    vertex 67792.38119721488 68932.77893625085 7.219114195322617e-13
  endloop
endfacet
facet normal 1.0 0.0 0.0
  outer loop
    vertex 67792.38119721488 68932.77893625085 3750.0000000000014
    vertex 67792.38119721488 78072.95838761947 0.0
    vertex 67792.38119721488 78072.95838761947 3750.0000000000014
  endloop
endfacet
facet normal 1.0 0.0 0.0
  outer loop
    vertex 67792.38119721488 54154.76333384775 8.121503469737945e-13
    vertex 67792.38119721488 45065.42138268029 3750.0000000000014
    vertex 67792.38119721488 45065.42138268029 8.121503469737945e-13
  endloop
endfacet
facet normal 1.0 0.0 0.0
  outer loop
    vertex 67792.38119721488 45065.42138268029 3750.0000000000014
    vertex 67792.38119721488 54154.76333384775 8.121503469737945e-13
    vertex 67792.38119721488 54154.76333384775 3750.0000000000014
  endloop
endfacet
facet normal 0.0 0.0 1.0
  outer loop
    vertex 67792.38119721488 45065.42138268029 3750.0000000000014
    vertex 27792.38119721488 54154.76333384775 3750.0000000000014
    vertex 27792.38119721488 45065.42138268029 3750.0000000000014
  endloop
endfacet
facet normal 0.0 0.0 1.0
  outer loop
    vertex 27792.38119721488 54154.76333384775 3750.0000000000014
    vertex 67792.38119721488 45065.42138268029 3750.0000000000014
    vertex 67792.38119721488 54154.76333384775 3750.0000000000014
  endloop
endfacet
facet normal 1.0 0.0 0.0
  outer loop
    vertex 67792.38119721488 66074.99907640567 8.121503469737945e-13
    vertex 67792.38119721488 57012.54319369292 3750.0000000000014
    vertex 67792.38119721488 57012.54319369292 7.219114195322617e-13
  endloop
endfacet
facet normal 1.0 0.0 0.0
  outer loop
    vertex 67792.38119721488 57012.54319369292 3750.0000000000014
    vertex 67792.38119721488 66074.99907640567 8.121503469737945e-13
    vertex 67792.38119721488 66074.99907640567 3750.0000000000014
  endloop
endfacet
facet normal 0.0 0.0 1.0
  outer loop
    vertex 67792.38119721488 68932.77893625085 3750.0000000000014
    vertex 27792.381197214876 78072.95838761947 3750.0000000000014
    vertex 27792.381197214876 68932.77893625085 3750.0000000000014
  endloop
endfacet
facet normal 0.0 0.0 1.0
  outer loop
    vertex 27792.381197214876 78072.95838761947 3750.0000000000014
    vertex 67792.38119721488 68932.77893625085 3750.0000000000014
    vertex 67792.38119721488 78072.95838761947 3750.0000000000014
  endloop
endfacet
facet normal 0.0 0.0 1.0
  outer loop
    vertex 27792.38119721488 57012.54319369292 3750.0000000000014
    vertex 67792.38119721488 66074.99907640567 3750.0000000000014
    vertex 27792.381197214876 66074.99907640567 3750.0000000000014
  endloop
endfacet
facet normal 0.0 0.0 1.0
  outer loop
    vertex 67792.38119721488 66074.99907640567 3750.0000000000014
    vertex 27792.38119721488 57012.54319369292 3750.0000000000014
    vertex 67792.38119721488 57012.54319369292 3750.0000000000014
  endloop
endfacet
facet normal 0.0 -1.0 0.0
  outer loop
    vertex 67792.38119721488 45065.42138268029 3750.0000000000014
    vertex 27792.38119721488 45065.42138268029 8.121503469737945e-13
    vertex 67792.38119721488 45065.42138268029 8.121503469737945e-13
  endloop
endfacet
facet normal 0.0 -1.0 0.0
  outer loop
    vertex 27792.38119721488 45065.42138268029 8.121503469737945e-13
    vertex 67792.38119721488 45065.42138268029 3750.0000000000014
    vertex 27792.38119721488 45065.42138268029 3750.0000000000014
  endloop
endfacet
facet normal 0.0 1.0 0.0
  outer loop
    vertex 27792.381197214876 66074.99907640567 3750.0000000000014
    vertex 67792.38119721488 66074.99907640567 8.121503469737945e-13
    vertex 27792.381197214876 66074.99907640567 8.121503469737945e-13
  endloop
endfacet
facet normal 0.0 1.0 0.0
  outer loop
    vertex 67792.38119721488 66074.99907640567 8.121503469737945e-13
    vertex 27792.381197214876 66074.99907640567 3750.0000000000014
    vertex 67792.38119721488 66074.99907640567 3750.0000000000014
  endloop
endfacet
facet normal 0.0 -1.0 0.0
  outer loop
    vertex 67792.38119721488 68932.77893625085 3750.0000000000014
    vertex 27792.381197214876 68932.77893625085 7.219114195322617e-13
    vertex 67792.38119721488 68932.77893625085 7.219114195322617e-13
  endloop
endfacet
facet normal 0.0 -1.0 0.0
  outer loop
    vertex 27792.381197214876 68932.77893625085 7.219114195322617e-13
    vertex 67792.38119721488 68932.77893625085 3750.0000000000014
    vertex 27792.381197214876 68932.77893625085 3750.0000000000014
  endloop
endfacet
facet normal 5.083629363302211e-18 -8.214054019000628e-19 -1.0
  outer loop
    vertex 67792.38119721488 78072.95838761947 0.0
    vertex 27792.381197214876 68932.77893625085 7.219114195322617e-13
    vertex 27792.381197214876 78072.95838761947 0.0
  endloop
endfacet
facet normal 5.083629363302211e-18 -8.214054019000628e-19 -1.0
  outer loop
    vertex 27792.381197214876 68932.77893625085 7.219114195322617e-13
    vertex 67792.38119721488 78072.95838761947 0.0
    vertex 67792.38119721488 68932.77893625085 7.219114195322617e-13
  endloop
endfacet
facet normal 5.083629363302211e-18 -8.214054019000628e-19 -1.0
  outer loop
    vertex 27792.381197214876 101232.95838761944 0.0
    vertex 26292.38119721487 15132.958387619454 0.0
    vertex 26292.38119721487 101232.95838761944 0.0
  endloop
endfacet
facet normal 5.083629363302211e-18 -8.214054019000628e-19 -1.0
  outer loop
    vertex 26292.38119721487 15132.958387619454 0.0
    vertex 27792.381197214876 101232.95838761944 0.0
    vertex 27792.381197214876 15132.958387619454 0.0
  endloop
endfacet
facet normal 5.083629363302211e-18 -8.214054019000628e-19 -1.0
  outer loop
    vertex 27792.381197214876 15132.958387619454 0.0
    vertex 27792.381197214876 101232.95838761944 0.0
    vertex 27792.381197214876 78072.95838761947 0.0
  endloop
endfacet
facet normal 5.083629363302211e-18 -8.214054019000628e-19 -1.0
  outer loop
    vertex 27792.381197214876 15132.958387619454 0.0
    vertex 27792.381197214876 78072.95838761947 0.0
    vertex 27792.381197214876 68932.77893625085 7.219114195322617e-13
  endloop
endfacet
facet normal 5.083629363302211e-18 -8.214054019000628e-19 -1.0
  outer loop
    vertex 27792.381197214876 15132.958387619454 0.0
    vertex 27792.381197214876 68932.77893625085 7.219114195322617e-13
    vertex 27792.381197214876 66074.99907640567 8.121503469737945e-13
  endloop
endfacet
facet normal 5.083629363302211e-18 -8.214054019000628e-19 -1.0
  outer loop
    vertex 27792.381197214876 15132.958387619454 0.0
    vertex 27792.381197214876 66074.99907640567 8.121503469737945e-13
    vertex 27792.381197214876 32642.958387619445 0.0
  endloop
endfacet
facet normal 5.083629363302211e-18 -8.214054019000628e-19 -1.0
  outer loop
    vertex 27792.381197214876 66074.99907640567 8.121503469737945e-13
    vertex 27792.38119721488 57012.54319369292 7.219114195322617e-13
    vertex 27792.381197214876 32642.958387619445 0.0
  endloop
endfacet
facet normal 5.083629363302211e-18 -8.214054019000628e-19 -1.0
  outer loop
    vertex 27792.38119721488 57012.54319369292 7.219114195322617e-13
    vertex 27792.381197214876 66074.99907640567 8.121503469737945e-13
    vertex 67792.38119721488 66074.99907640567 8.121503469737945e-13
  endloop
endfacet
facet normal 5.083629363302211e-18 -8.214054019000628e-19 -1.0
  outer loop
    vertex 27792.38119721488 57012.54319369292 7.219114195322617e-13
    vertex 67792.38119721488 66074.99907640567 8.121503469737945e-13
    vertex 67792.38119721488 57012.54319369292 7.219114195322617e-13
  endloop
endfacet
facet normal 5.083629363302211e-18 -8.214054019000628e-19 -1.0
  outer loop
    vertex 67792.38119721488 54154.76333384775 8.121503469737945e-13
    vertex 27792.38119721488 45065.42138268029 8.121503469737945e-13
    vertex 27792.38119721488 54154.76333384775 8.121503469737945e-13
  endloop
endfacet
facet normal 5.083629363302211e-18 -8.214054019000628e-19 -1.0
  outer loop
    vertex 27792.38119721488 45065.42138268029 8.121503469737945e-13
    vertex 67792.38119721488 54154.76333384775 8.121503469737945e-13
    vertex 67792.38119721488 45065.42138268029 8.121503469737945e-13
  endloop
endfacet
facet normal 5.083629363302211e-18 -8.214054019000628e-19 -1.0
  outer loop
    vertex 27792.381197214876 32642.958387619445 0.0
    vertex 27792.38119721488 42207.64152283512 9.023892744153272e-13
    vertex 67792.38119721488 32642.958387619445 0.0
  endloop
endfacet
facet normal 5.083629363302211e-18 -8.214054019000628e-19 -1.0
  outer loop
    vertex 27792.38119721488 42207.64152283512 9.023892744153272e-13
    vertex 27792.381197214876 32642.958387619445 0.0
    vertex 27792.38119721488 57012.54319369292 7.219114195322617e-13
  endloop
endfacet
facet normal 5.083629363302211e-18 -8.214054019000628e-19 -1.0
  outer loop
    vertex 27792.38119721488 42207.64152283512 9.023892744153272e-13
    vertex 27792.38119721488 57012.54319369292 7.219114195322617e-13
    vertex 27792.38119721488 54154.76333384775 8.121503469737945e-13
  endloop
endfacet
facet normal 5.083629363302211e-18 -8.214054019000628e-19 -1.0
  outer loop
    vertex 27792.38119721488 42207.64152283512 9.023892744153272e-13
    vertex 27792.38119721488 54154.76333384775 8.121503469737945e-13
    vertex 27792.38119721488 45065.42138268029 8.121503469737945e-13
  endloop
endfacet
facet normal 5.083629363302211e-18 -8.214054019000628e-19 -1.0
  outer loop
    vertex 67792.38119721488 32642.958387619445 0.0
    vertex 27792.38119721488 42207.64152283512 9.023892744153272e-13
    vertex 67792.38119721488 42207.64152283512 9.023892744153272e-13
  endloop
endfacet
facet normal -1.0 0.0 0.0
  outer loop
    vertex 26292.38119721487 101232.95838761944 12920.000000000013
    vertex 26292.38119721487 15132.958387619454 0.0
    vertex 26292.38119721487 15132.958387619454 36339.79777666237
  endloop
endfacet
facet normal -1.0 0.0 0.0
  outer loop
    vertex 26292.38119721487 15132.958387619454 0.0
    vertex 26292.38119721487 101232.95838761944 12920.000000000013
    vertex 26292.38119721487 101232.95838761944 0.0
  endloop
endfacet
facet normal 1.0 0.0 0.0
  outer loop
    vertex 67792.38119721488 42207.64152283512 9.023892744153272e-13
    vertex 67792.38119721488 32642.958387619445 3750.0000000000014
    vertex 67792.38119721488 32642.958387619445 0.0
  endloop
endfacet
facet normal 1.0 0.0 0.0
  outer loop
    vertex 67792.38119721488 32642.958387619445 3750.0000000000014
    vertex 67792.38119721488 42207.64152283512 9.023892744153272e-13
    vertex 67792.38119721488 42207.64152283512 3750.0000000000014
  endloop
endfacet
facet normal 0.0 1.0 0.0
  outer loop
    vertex 27792.38119721488 54154.76333384775 3750.0000000000014
    vertex 67792.38119721488 54154.76333384775 8.121503469737945e-13
    vertex 27792.38119721488 54154.76333384775 8.121503469737945e-13
  endloop
endfacet
facet normal 0.0 1.0 0.0
  outer loop
    vertex 67792.38119721488 54154.76333384775 8.121503469737945e-13
    vertex 27792.38119721488 54154.76333384775 3750.0000000000014
    vertex 67792.38119721488 54154.76333384775 3750.0000000000014
  endloop
endfacet
facet normal 0.0 0.2624703920458345 0.964940046479213
  outer loop
    vertex 27792.381197214876 15132.958387619454 36339.79777666237
    vertex 26292.38119721487 101232.95838761944 12920.000000000013
    vertex 26292.38119721487 15132.958387619454 36339.79777666237
  endloop
endfacet
facet normal 0.0 0.2624703920458345 0.964940046479213
  outer loop
    vertex 26292.38119721487 101232.95838761944 12920.000000000013
    vertex 27792.381197214876 15132.958387619454 36339.79777666237
    vertex 27792.381197214876 101232.95838761944 12920.000000000013
  endloop
endfacet
facet normal 0.0 1.0 0.0
  outer loop
    vertex 27792.381197214876 78072.95838761947 3750.0000000000014
    vertex 67792.38119721488 78072.95838761947 0.0
    vertex 27792.381197214876 78072.95838761947 0.0
  endloop
endfacet
facet normal 0.0 1.0 0.0
  outer loop
    vertex 67792.38119721488 78072.95838761947 0.0
    vertex 27792.381197214876 78072.95838761947 3750.0000000000014
    vertex 67792.38119721488 78072.95838761947 3750.0000000000014
  endloop
endfacet
facet normal 0.0 -1.0 0.0
  outer loop
    vertex 67792.38119721488 57012.54319369292 3750.0000000000014
    vertex 27792.38119721488 57012.54319369292 7.219114195322617e-13
    vertex 67792.38119721488 57012.54319369292 7.219114195322617e-13
  endloop
endfacet
facet normal 0.0 -1.0 0.0
  outer loop
    vertex 27792.38119721488 57012.54319369292 7.219114195322617e-13
    vertex 67792.38119721488 57012.54319369292 3750.0000000000014
    vertex 27792.38119721488 57012.54319369292 3750.0000000000014
  endloop
endfacet
facet normal 0.0 0.0 1.0
  outer loop
    vertex 67792.38119721488 32642.958387619445 3750.0000000000014
    vertex 27792.38119721488 42207.64152283512 3750.0000000000014
    vertex 27792.381197214876 32642.958387619445 3750.0000000000014
  endloop
endfacet
facet normal 0.0 0.0 1.0
  outer loop
    vertex 27792.38119721488 42207.64152283512 3750.0000000000014
    vertex 67792.38119721488 32642.958387619445 3750.0000000000014
    vertex 67792.38119721488 42207.64152283512 3750.0000000000014
  endloop
endfacet
facet normal 0.0 -1.0 0.0
  outer loop
    vertex 67792.38119721488 32642.958387619445 3750.0000000000014
    vertex 27792.381197214876 32642.958387619445 0.0
    vertex 67792.38119721488 32642.958387619445 0.0
  endloop
endfacet
facet normal 0.0 -1.0 0.0
  outer loop
    vertex 27792.381197214876 32642.958387619445 0.0
    vertex 67792.38119721488 32642.958387619445 3750.0000000000014
    vertex 27792.381197214876 32642.958387619445 3750.0000000000014
  endloop
endfacet
facet normal 1.0 3.6640276811883154e-17 1.0121499114787848e-16
  outer loop
    vertex 27792.38119721488 45065.42138268029 8.121503469737945e-13
    vertex 27792.38119721488 42207.64152283512 3750.0000000000014
    vertex 27792.38119721488 42207.64152283512 9.023892744153272e-13
  endloop
endfacet
facet normal 1.0 3.6640276811883154e-17 1.0121499114787848e-16
  outer loop
    vertex 27792.38119721488 57012.54319369292 7.219114195322617e-13
    vertex 27792.38119721488 54154.76333384775 3750.0000000000014
    vertex 27792.38119721488 54154.76333384775 8.121503469737945e-13
  endloop
endfacet
facet normal 1.0 3.6640276811883154e-17 1.0121499114787848e-16
  outer loop
    vertex 27792.381197214876 68932.77893625085 7.219114195322617e-13
    vertex 27792.381197214876 66074.99907640567 3750.0000000000014
    vertex 27792.381197214876 66074.99907640567 8.121503469737945e-13
  endloop
endfacet
facet normal 1.0 3.6640276811883154e-17 1.0121499114787848e-16
  outer loop
    vertex 27792.381197214876 101232.95838761944 0.0
    vertex 27792.381197214876 78072.95838761947 3750.0000000000014
    vertex 27792.381197214876 78072.95838761947 0.0
  endloop
endfacet
facet normal 1.0 3.6640276811883154e-17 1.0121499114787848e-16
  outer loop
    vertex 27792.381197214876 32642.958387619445 0.0
    vertex 27792.381197214876 15132.958387619454 36339.79777666237
    vertex 27792.381197214876 15132.958387619454 0.0
  endloop
endfacet
facet normal 1.0 3.6640276811883154e-17 1.0121499114787848e-16
  outer loop
    vertex 27792.381197214876 15132.958387619454 36339.79777666237
    vertex 27792.381197214876 32642.958387619445 0.0
    vertex 27792.381197214876 32642.958387619445 3750.0000000000014
  endloop
endfacet
facet normal 1.0 3.6640276811883154e-17 1.0121499114787848e-16
  outer loop
    vertex 27792.381197214876 15132.958387619454 36339.79777666237
    vertex 27792.381197214876 32642.958387619445 3750.0000000000014
    vertex 27792.381197214876 101232.95838761944 12920.000000000013
  endloop
endfacet
facet normal 1.0 3.6640276811883154e-17 1.0121499114787848e-16
  outer loop
    vertex 27792.381197214876 101232.95838761944 12920.000000000013
    vertex 27792.381197214876 32642.958387619445 3750.0000000000014
    vertex 27792.38119721488 42207.64152283512 3750.0000000000014
  endloop
endfacet
facet normal 1.0 3.6640276811883154e-17 1.0121499114787848e-16
  outer loop
    vertex 27792.381197214876 101232.95838761944 12920.000000000013
    vertex 27792.38119721488 42207.64152283512 3750.0000000000014
    vertex 27792.38119721488 45065.42138268029 3750.0000000000014
  endloop
endfacet
facet normal 1.0 3.6640276811883154e-17 1.0121499114787848e-16
  outer loop
    vertex 27792.38119721488 45065.42138268029 3750.0000000000014
    vertex 27792.38119721488 42207.64152283512 3750.0000000000014
    vertex 27792.38119721488 45065.42138268029 8.121503469737945e-13
  endloop
endfacet
facet normal 1.0 3.6640276811883154e-17 1.0121499114787848e-16
  outer loop
    vertex 27792.381197214876 101232.95838761944 12920.000000000013
    vertex 27792.38119721488 45065.42138268029 3750.0000000000014
    vertex 27792.38119721488 54154.76333384775 3750.0000000000014
  endloop
endfacet
facet normal 1.0 3.6640276811883154e-17 1.0121499114787848e-16
  outer loop
    vertex 27792.381197214876 101232.95838761944 12920.000000000013
    vertex 27792.38119721488 54154.76333384775 3750.0000000000014
    vertex 27792.38119721488 57012.54319369292 3750.0000000000014
  endloop
endfacet
facet normal 1.0 3.6640276811883154e-17 1.0121499114787848e-16
  outer loop
    vertex 27792.38119721488 57012.54319369292 3750.0000000000014
    vertex 27792.38119721488 54154.76333384775 3750.0000000000014
    vertex 27792.38119721488 57012.54319369292 7.219114195322617e-13
  endloop
endfacet
facet normal 1.0 3.6640276811883154e-17 1.0121499114787848e-16
  outer loop
    vertex 27792.381197214876 101232.95838761944 12920.000000000013
    vertex 27792.38119721488 57012.54319369292 3750.0000000000014
    vertex 27792.381197214876 66074.99907640567 3750.0000000000014
  endloop
endfacet
facet normal 1.0 3.6640276811883154e-17 1.0121499114787848e-16
  outer loop
    vertex 27792.381197214876 101232.95838761944 12920.000000000013
    vertex 27792.381197214876 66074.99907640567 3750.0000000000014
    vertex 27792.381197214876 68932.77893625085 3750.0000000000014
  endloop
endfacet
facet normal 1.0 3.6640276811883154e-17 1.0121499114787848e-16
  outer loop
    vertex 27792.381197214876 68932.77893625085 3750.0000000000014
    vertex 27792.381197214876 66074.99907640567 3750.0000000000014
    vertex 27792.381197214876 68932.77893625085 7.219114195322617e-13
  endloop
endfacet
facet normal 1.0 3.6640276811883154e-17 1.0121499114787848e-16
  outer loop
    vertex 27792.381197214876 101232.95838761944 12920.000000000013
    vertex 27792.381197214876 68932.77893625085 3750.0000000000014
    vertex 27792.381197214876 78072.95838761947 3750.0000000000014
  endloop
endfacet
facet normal 1.0 3.6640276811883154e-17 1.0121499114787848e-16
  outer loop
    vertex 27792.381197214876 101232.95838761944 12920.000000000013
    vertex 27792.381197214876 78072.95838761947 3750.0000000000014
    vertex 27792.381197214876 101232.95838761944 0.0
  endloop
endfacet
facet normal 0.0 1.0 0.0
  outer loop
    vertex 26292.38119721487 101232.95838761944 12920.000000000013
    vertex 27792.381197214876 101232.95838761944 0.0
    vertex 26292.38119721487 101232.95838761944 0.0
  endloop
endfacet
facet normal 0.0 1.0 0.0
  outer loop
    vertex 27792.381197214876 101232.95838761944 0.0
    vertex 26292.38119721487 101232.95838761944 12920.000000000013
    vertex 27792.381197214876 101232.95838761944 12920.000000000013
  endloop
endfacet
facet normal 0.0 1.0 0.0
  outer loop
    vertex 27792.38119721488 42207.64152283512 3750.0000000000014
    vertex 67792.38119721488 42207.64152283512 9.023892744153272e-13
    vertex 27792.38119721488 42207.64152283512 9.023892744153272e-13
  endloop
endfacet
facet normal 0.0 1.0 0.0
  outer loop
    vertex 67792.38119721488 42207.64152283512 9.023892744153272e-13
    vertex 27792.38119721488 42207.64152283512 3750.0000000000014
    vertex 67792.38119721488 42207.64152283512 3750.0000000000014
  endloop
endfacet
endsolid Rummikub!
