solid Rummikub!
facet normal 1.0 0.0 0.0
  outer loop
    vertex 530551.1632447095 94585.82688227834 -0.0010219851531725259
    vertex 530551.1632447095 8485.827423738245 36339.798037559885
    vertex 530551.1632447095 8485.826882278354 0.00026089751067956966
  endloop
endfacet
facet normal 1.0 0.0 0.0
  outer loop
    vertex 530551.1632447095 8485.827423738245 36339.798037559885
    vertex 530551.1632447095 94585.82688227834 -0.0010219851531725259
    vertex 530551.1632447095 94585.82707478524 12919.99897801486
  endloop
endfacet
facet normal -1.0 0.0 0.0
  outer loop
    vertex 489051.16324470943 50365.411744226505 3749.9996368952666
    vertex 489051.16324470943 59427.86757106458 -0.0004981345542561535
    vertex 489051.16324470943 50365.41168835182 -0.00036310473386025273
  endloop
endfacet
facet normal -1.0 0.0 0.0
  outer loop
    vertex 489051.16324470943 59427.86757106458 -0.0004981345542561535
    vertex 489051.16324470943 50365.411744226505 3749.9996368952666
    vertex 489051.16324470943 59427.867626939245 3749.9995018654463
  endloop
endfacet
facet normal 0.0 -1.0 1.4899914795030147e-08
  outer loop
    vertex 529051.1632447094 50365.411744226505 3749.9996368952666
    vertex 489051.16324470943 50365.41168835182 -0.00036310473386025273
    vertex 529051.1632447094 50365.41168835182 -0.00036310473386025273
  endloop
endfacet
facet normal 0.0 -1.0 1.4899914795030147e-08
  outer loop
    vertex 489051.16324470943 50365.41168835182 -0.00036310473386025273
    vertex 529051.1632447094 50365.411744226505 3749.9996368952666
    vertex 489051.16324470943 50365.411744226505 3749.9996368952666
  endloop
endfacet
facet normal 0.0 -1.0 1.4899914795030147e-08
  outer loop
    vertex 529051.1632447094 38418.28993321387 3749.9998149063636
    vertex 489051.16324470943 38418.289877339186 -0.00018509363674007933
    vertex 529051.1632447094 38418.289877339186 -0.00018509363674007933
  endloop
endfacet
facet normal 0.0 -1.0 1.4899914795030147e-08
  outer loop
    vertex 489051.16324470943 38418.289877339186 -0.00018509363674007933
    vertex 529051.1632447094 38418.28993321387 3749.9998149063636
    vertex 489051.16324470943 38418.28993321387 3749.9998149063636
  endloop
endfacet
facet normal 0.0 1.4899914795030147e-08 1.0
  outer loop
    vertex 529051.1632447094 50365.411744226505 3749.9996368952666
    vertex 489051.16324470943 59427.867626939245 3749.9995018654463
    vertex 489051.16324470943 50365.411744226505 3749.9996368952666
  endloop
endfacet
facet normal 0.0 1.4899914795030147e-08 1.0
  outer loop
    vertex 489051.16324470943 59427.867626939245 3749.9995018654463
    vertex 529051.1632447094 50365.411744226505 3749.9996368952666
    vertex 529051.1632447094 59427.867626939245 3749.9995018654463
  endloop
endfacet
facet normal -1.0 0.0 0.0
  outer loop
    vertex 489051.16324470943 38418.28993321387 3749.9998149063636
    vertex 489051.16324470943 47507.63182850666 -0.0003205240573553676
    vertex 489051.16324470943 38418.289877339186 -0.00018509363674007933
  endloop
endfacet
facet normal -1.0 0.0 0.0
  outer loop
    vertex 489051.16324470943 47507.63182850666 -0.0003205240573553676
    vertex 489051.16324470943 38418.28993321387 3749.9998149063636
    vertex 489051.16324470943 47507.631884381335 3749.999679475943
  endloop
endfacet
facet normal 0.0 1.4899914795030147e-08 1.0
  outer loop
    vertex 529051.1632447094 25995.826938153023 3750.000000000004
    vertex 489051.16324470943 35560.5100733687 3749.9998574870397
    vertex 489051.16324470943 25995.826938153023 3750.000000000004
  endloop
endfacet
facet normal 0.0 1.4899914795030147e-08 1.0
  outer loop
    vertex 489051.16324470943 35560.5100733687 3749.9998574870397
    vertex 529051.1632447094 25995.826938153023 3750.000000000004
    vertex 529051.1632447094 35560.5100733687 3749.9998574870397
  endloop
endfacet
facet normal 0.0 1.0 -1.4899914795030147e-08
  outer loop
    vertex 489051.16324470943 47507.631884381335 3749.999679475943
    vertex 529051.1632447094 47507.63182850666 -0.0003205240573553676
    vertex 489051.16324470943 47507.63182850666 -0.0003205240573553676
  endloop
endfacet
facet normal 0.0 1.0 -1.4899914795030147e-08
  outer loop
    vertex 529051.1632447094 47507.63182850666 -0.0003205240573553676
    vertex 489051.16324470943 47507.631884381335 3749.999679475943
    vertex 529051.1632447094 47507.631884381335 3749.999679475943
  endloop
endfacet
facet normal 0.0 1.4899914795030147e-08 1.0
  outer loop
    vertex 529051.1632447094 38418.28993321387 3749.9998149063636
    vertex 489051.16324470943 47507.631884381335 3749.999679475943
    vertex 489051.16324470943 38418.28993321387 3749.9998149063636
  endloop
endfacet
facet normal 0.0 1.4899914795030147e-08 1.0
  outer loop
    vertex 489051.16324470943 47507.631884381335 3749.999679475943
    vertex 529051.1632447094 38418.28993321387 3749.9998149063636
    vertex 529051.1632447094 47507.631884381335 3749.999679475943
  endloop
endfacet
facet normal -1.0 0.0 0.0
  outer loop
    vertex 489051.16324470943 25995.826938153023 3750.000000000004
    vertex 489051.16324470943 35560.51001749402 -0.00014251296023519414
    vertex 489051.16324470943 25995.826882278347 2.6185919342044732e-12
  endloop
endfacet
facet normal -1.0 0.0 0.0
  outer loop
    vertex 489051.16324470943 35560.51001749402 -0.00014251296023519414
    vertex 489051.16324470943 25995.826938153023 3750.000000000004
    vertex 489051.16324470943 35560.5100733687 3749.9998574870397
  endloop
endfacet
facet normal 0.0 -1.0 1.4899914795030147e-08
  outer loop
    vertex 529051.1632447094 25995.826938153023 3750.000000000004
    vertex 489051.16324470943 25995.826882278347 2.6185919342044732e-12
    vertex 529051.1632447094 25995.826882278347 2.6185919342044732e-12
  endloop
endfacet
facet normal 0.0 -1.0 1.4899914795030147e-08
  outer loop
    vertex 489051.16324470943 25995.826882278347 2.6185919342044732e-12
    vertex 529051.1632447094 25995.826938153023 3750.000000000004
    vertex 489051.16324470943 25995.826938153023 3750.000000000004
  endloop
endfacet
facet normal 0.0 1.0 -1.4899914795030147e-08
  outer loop
    vertex 489051.16324470943 59427.867626939245 3749.9995018654463
    vertex 529051.1632447094 59427.86757106458 -0.0004981345542561535
    vertex 489051.16324470943 59427.86757106458 -0.0004981345542561535
  endloop
endfacet
facet normal 0.0 1.0 -1.4899914795030147e-08
  outer loop
    vertex 529051.1632447094 59427.86757106458 -0.0004981345542561535
    vertex 489051.16324470943 59427.867626939245 3749.9995018654463
    vertex 529051.1632447094 59427.867626939245 3749.9995018654463
  endloop
endfacet
facet normal 0.0 -1.0 1.4899914795030147e-08
  outer loop
    vertex 530551.1632447095 8485.827423738245 36339.798037559885
    vertex 529051.1632447094 8485.826882278354 0.00026089751067956966
    vertex 530551.1632447095 8485.826882278354 0.00026089751067956966
  endloop
endfacet
facet normal 0.0 -1.0 1.4899914795030147e-08
  outer loop
    vertex 529051.1632447094 8485.826882278354 0.00026089751067956966
    vertex 530551.1632447095 8485.827423738245 36339.798037559885
    vertex 529051.1632447094 8485.827423738245 36339.798037559885
  endloop
endfacet
facet normal 0.0 -1.0 1.4899914795030147e-08
  outer loop
    vertex 529051.1632447094 62285.64748678443 3749.9994592847693
    vertex 489051.16324470943 62285.64743090974 -0.0005407152307610387
    vertex 529051.1632447094 62285.64743090974 -0.0005407152307610387
  endloop
endfacet
facet normal 0.0 -1.0 1.4899914795030147e-08
  outer loop
    vertex 489051.16324470943 62285.64743090974 -0.0005407152307610387
    vertex 529051.1632447094 62285.64748678443 3749.9994592847693
    vertex 489051.16324470943 62285.64748678443 3749.9994592847693
  endloop
endfacet
facet normal 0.0 1.0 -1.4899914795030147e-08
  outer loop
    vertex 489051.16324470943 35560.5100733687 3749.9998574870397
    vertex 529051.1632447094 35560.51001749402 -0.00014251296023519414
    vertex 489051.16324470943 35560.51001749402 -0.00014251296023519414
  endloop
endfacet
facet normal 0.0 1.0 -1.4899914795030147e-08
  outer loop
    vertex 529051.1632447094 35560.51001749402 -0.00014251296023519414
    vertex 489051.16324470943 35560.5100733687 3749.9998574870397
    vertex 529051.1632447094 35560.5100733687 3749.9998574870397
  endloop
endfacet
facet normal -5.083629363302211e-18 -1.4899914795851552e-08 -1.0
  outer loop
    vertex 530551.1632447095 94585.82688227834 -0.0010219851531725259
    vertex 529051.1632447094 71425.82688227836 -0.000676903126519628
    vertex 529051.1632447094 94585.82688227834 -0.0010219851531725259
  endloop
endfacet
facet normal -5.083629363302211e-18 -1.4899914795851552e-08 -1.0
  outer loop
    vertex 529051.1632447094 71425.82688227836 -0.000676903126519628
    vertex 530551.1632447095 94585.82688227834 -0.0010219851531725259
    vertex 529051.1632447094 62285.64743090974 -0.0005407152307610387
  endloop
endfacet
facet normal -5.083629363302211e-18 -1.4899914795851552e-08 -1.0
  outer loop
    vertex 529051.1632447094 62285.64743090974 -0.0005407152307610387
    vertex 530551.1632447095 94585.82688227834 -0.0010219851531725259
    vertex 529051.1632447094 59427.86757106458 -0.0004981345542561535
  endloop
endfacet
facet normal -5.083629363302211e-18 -1.4899914795851552e-08 -1.0
  outer loop
    vertex 529051.1632447094 59427.86757106458 -0.0004981345542561535
    vertex 530551.1632447095 94585.82688227834 -0.0010219851531725259
    vertex 529051.1632447094 50365.41168835182 -0.00036310473386025273
  endloop
endfacet
facet normal -5.083629363302211e-18 -1.4899914795851552e-08 -1.0
  outer loop
    vertex 529051.1632447094 50365.41168835182 -0.00036310473386025273
    vertex 530551.1632447095 94585.82688227834 -0.0010219851531725259
    vertex 529051.1632447094 47507.63182850666 -0.0003205240573553676
  endloop
endfacet
facet normal -5.083629363302211e-18 -1.4899914795851552e-08 -1.0
  outer loop
    vertex 529051.1632447094 47507.63182850666 -0.0003205240573553676
    vertex 530551.1632447095 94585.82688227834 -0.0010219851531725259
    vertex 529051.1632447094 38418.289877339186 -0.00018509363674007933
  endloop
endfacet
facet normal -5.083629363302211e-18 -1.4899914795851552e-08 -1.0
  outer loop
    vertex 529051.1632447094 38418.289877339186 -0.00018509363674007933
    vertex 530551.1632447095 94585.82688227834 -0.0010219851531725259
    vertex 529051.1632447094 35560.51001749402 -0.00014251296023519414
  endloop
endfacet
facet normal -5.083629363302211e-18 -1.4899914795851552e-08 -1.0
  outer loop
    vertex 529051.1632447094 35560.51001749402 -0.00014251296023519414
    vertex 530551.1632447095 94585.82688227834 -0.0010219851531725259
    vertex 529051.1632447094 25995.826882278347 2.6185919342044732e-12
  endloop
endfacet
facet normal -5.083629363302211e-18 -1.4899914795851552e-08 -1.0
  outer loop
    vertex 529051.1632447094 25995.826882278347 2.6185919342044732e-12
    vertex 530551.1632447095 94585.82688227834 -0.0010219851531725259
    vertex 529051.1632447094 8485.826882278354 0.00026089751067956966
  endloop
endfacet
facet normal -5.083629363302211e-18 -1.4899914795851552e-08 -1.0
  outer loop
    vertex 529051.1632447094 8485.826882278354 0.00026089751067956966
    vertex 530551.1632447095 94585.82688227834 -0.0010219851531725259
    vertex 530551.1632447095 8485.826882278354 0.00026089751067956966
  endloop
endfacet
facet normal -5.083629363302211e-18 -1.4899914795851552e-08 -1.0
  outer loop
    vertex 529051.1632447094 35560.51001749402 -0.00014251296023519414
    vertex 489051.16324470943 25995.826882278347 2.6185919342044732e-12
    vertex 489051.16324470943 35560.51001749402 -0.00014251296023519414
  endloop
endfacet
facet normal -5.083629363302211e-18 -1.4899914795851552e-08 -1.0
  outer loop
    vertex 489051.16324470943 25995.826882278347 2.6185919342044732e-12
    vertex 529051.1632447094 35560.51001749402 -0.00014251296023519414
    vertex 529051.1632447094 25995.826882278347 2.6185919342044732e-12
  endloop
endfacet
facet normal -5.083629363302211e-18 -1.4899914795851552e-08 -1.0
  outer loop
    vertex 529051.1632447094 47507.63182850666 -0.0003205240573553676
    vertex 489051.16324470943 38418.289877339186 -0.00018509363674007933
    vertex 489051.16324470943 47507.63182850666 -0.0003205240573553676
  endloop
endfacet
facet normal -5.083629363302211e-18 -1.4899914795851552e-08 -1.0
  outer loop
    vertex 489051.16324470943 38418.289877339186 -0.00018509363674007933
    vertex 529051.1632447094 47507.63182850666 -0.0003205240573553676
    vertex 529051.1632447094 38418.289877339186 -0.00018509363674007933
  endloop
endfacet
facet normal -5.083629363302211e-18 -1.4899914795851552e-08 -1.0
  outer loop
    vertex 529051.1632447094 59427.86757106458 -0.0004981345542561535
    vertex 489051.16324470943 50365.41168835182 -0.00036310473386025273
    vertex 489051.16324470943 59427.86757106458 -0.0004981345542561535
  endloop
endfacet
facet normal -5.083629363302211e-18 -1.4899914795851552e-08 -1.0
  outer loop
    vertex 489051.16324470943 50365.41168835182 -0.00036310473386025273
    vertex 529051.1632447094 59427.86757106458 -0.0004981345542561535
    vertex 529051.1632447094 50365.41168835182 -0.00036310473386025273
  endloop
endfacet
facet normal -5.083629363302211e-18 -1.4899914795851552e-08 -1.0
  outer loop
    vertex 529051.1632447094 71425.82688227836 -0.000676903126519628
    vertex 489051.16324470943 62285.64743090974 -0.0005407152307610387
    vertex 489051.16324470943 71425.82688227836 -0.000676903126519628
  endloop
endfacet
facet normal -5.083629363302211e-18 -1.4899914795851552e-08 -1.0
  outer loop
    vertex 489051.16324470943 62285.64743090974 -0.0005407152307610387
    vertex 529051.1632447094 71425.82688227836 -0.000676903126519628
    vertex 529051.1632447094 62285.64743090974 -0.0005407152307610387
  endloop
endfacet
facet normal -1.0 3.66402783199779e-17 1.0121499060194147e-16
  outer loop
    vertex 529051.1632447094 8485.827423738245 36339.798037559885
    vertex 529051.1632447094 25995.826882278347 2.6185919342044732e-12
    vertex 529051.1632447094 8485.826882278354 0.00026089751067956966
  endloop
endfacet
facet normal -1.0 3.66402783199779e-17 1.0121499060194147e-16
  outer loop
    vertex 529051.1632447094 25995.826882278347 2.6185919342044732e-12
    vertex 529051.1632447094 8485.827423738245 36339.798037559885
    vertex 529051.1632447094 25995.826938153023 3750.000000000004
  endloop
endfacet
facet normal -1.0 3.66402783199779e-17 1.0121499060194147e-16
  outer loop
    vertex 529051.1632447094 25995.826938153023 3750.000000000004
    vertex 529051.1632447094 8485.827423738245 36339.798037559885
    vertex 529051.1632447094 94585.82707478524 12919.99897801486
  endloop
endfacet
facet normal -1.0 3.66402783199779e-17 1.0121499060194147e-16
  outer loop
    vertex 529051.1632447094 25995.826938153023 3750.000000000004
    vertex 529051.1632447094 94585.82707478524 12919.99897801486
    vertex 529051.1632447094 35560.5100733687 3749.9998574870397
  endloop
endfacet
facet normal -1.0 3.66402783199779e-17 1.0121499060194147e-16
  outer loop
    vertex 529051.1632447094 35560.5100733687 3749.9998574870397
    vertex 529051.1632447094 94585.82707478524 12919.99897801486
    vertex 529051.1632447094 38418.28993321387 3749.9998149063636
  endloop
endfacet
facet normal -1.0 3.66402783199779e-17 1.0121499060194147e-16
  outer loop
    vertex 529051.1632447094 35560.5100733687 3749.9998574870397
    vertex 529051.1632447094 38418.28993321387 3749.9998149063636
    vertex 529051.1632447094 38418.289877339186 -0.00018509363674007933
  endloop
endfacet
facet normal -1.0 3.66402783199779e-17 1.0121499060194147e-16
  outer loop
    vertex 529051.1632447094 38418.28993321387 3749.9998149063636
    vertex 529051.1632447094 94585.82707478524 12919.99897801486
    vertex 529051.1632447094 47507.631884381335 3749.999679475943
  endloop
endfacet
facet normal -1.0 3.66402783199779e-17 1.0121499060194147e-16
  outer loop
    vertex 529051.1632447094 47507.631884381335 3749.999679475943
    vertex 529051.1632447094 94585.82707478524 12919.99897801486
    vertex 529051.1632447094 50365.411744226505 3749.9996368952666
  endloop
endfacet
facet normal -1.0 3.66402783199779e-17 1.0121499060194147e-16
  outer loop
    vertex 529051.1632447094 47507.631884381335 3749.999679475943
    vertex 529051.1632447094 50365.411744226505 3749.9996368952666
    vertex 529051.1632447094 50365.41168835182 -0.00036310473386025273
  endloop
endfacet
facet normal -1.0 3.66402783199779e-17 1.0121499060194147e-16
  outer loop
    vertex 529051.1632447094 50365.411744226505 3749.9996368952666
    vertex 529051.1632447094 94585.82707478524 12919.99897801486
    vertex 529051.1632447094 59427.867626939245 3749.9995018654463
  endloop
endfacet
facet normal -1.0 3.66402783199779e-17 1.0121499060194147e-16
  outer loop
    vertex 529051.1632447094 59427.867626939245 3749.9995018654463
    vertex 529051.1632447094 94585.82707478524 12919.99897801486
    vertex 529051.1632447094 62285.64748678443 3749.9994592847693
  endloop
endfacet
facet normal -1.0 3.66402783199779e-17 1.0121499060194147e-16
  outer loop
    vertex 529051.1632447094 59427.867626939245 3749.9995018654463
    vertex 529051.1632447094 62285.64748678443 3749.9994592847693
    vertex 529051.1632447094 62285.64743090974 -0.0005407152307610387
  endloop
endfacet
facet normal -1.0 3.66402783199779e-17 1.0121499060194147e-16
  outer loop
    vertex 529051.1632447094 62285.64748678443 3749.9994592847693
    vertex 529051.1632447094 94585.82707478524 12919.99897801486
    vertex 529051.1632447094 71425.82693815304 3749.9993230968744
  endloop
endfacet
facet normal -1.0 3.66402783199779e-17 1.0121499060194147e-16
  outer loop
    vertex 529051.1632447094 71425.82693815304 3749.9993230968744
    vertex 529051.1632447094 94585.82707478524 12919.99897801486
    vertex 529051.1632447094 94585.82688227834 -0.0010219851531725259
  endloop
endfacet
facet normal -1.0 3.66402783199779e-17 1.0121499060194147e-16
  outer loop
    vertex 529051.1632447094 94585.82688227834 -0.0010219851531725259
    vertex 529051.1632447094 71425.82688227836 -0.000676903126519628
    vertex 529051.1632447094 71425.82693815304 3749.9993230968744
  endloop
endfacet
facet normal -1.0 3.66402783199779e-17 1.0121499060194147e-16
  outer loop
    vertex 529051.1632447094 62285.64743090974 -0.0005407152307610387
    vertex 529051.1632447094 59427.86757106458 -0.0004981345542561535
    vertex 529051.1632447094 59427.867626939245 3749.9995018654463
  endloop
endfacet
facet normal -1.0 3.66402783199779e-17 1.0121499060194147e-16
  outer loop
    vertex 529051.1632447094 50365.41168835182 -0.00036310473386025273
    vertex 529051.1632447094 47507.63182850666 -0.0003205240573553676
    vertex 529051.1632447094 47507.631884381335 3749.999679475943
  endloop
endfacet
facet normal -1.0 3.66402783199779e-17 1.0121499060194147e-16
  outer loop
    vertex 529051.1632447094 38418.289877339186 -0.00018509363674007933
    vertex 529051.1632447094 35560.51001749402 -0.00014251296023519414
    vertex 529051.1632447094 35560.5100733687 3749.9998574870397
  endloop
endfacet
facet normal 0.0 0.26247040642335895 0.9649400425684266
  outer loop
    vertex 530551.1632447095 8485.827423738245 36339.798037559885
    vertex 529051.1632447094 94585.82707478524 12919.99897801486
    vertex 529051.1632447094 8485.827423738245 36339.798037559885
  endloop
endfacet
facet normal 0.0 0.26247040642335895 0.9649400425684266
  outer loop
    vertex 529051.1632447094 94585.82707478524 12919.99897801486
    vertex 530551.1632447095 8485.827423738245 36339.798037559885
    vertex 530551.1632447095 94585.82707478524 12919.99897801486
  endloop
endfacet
facet normal 0.0 1.0 -1.4899914795030147e-08
  outer loop
    vertex 529051.1632447094 94585.82707478524 12919.99897801486
    vertex 530551.1632447095 94585.82688227834 -0.0010219851531725259
    vertex 529051.1632447094 94585.82688227834 -0.0010219851531725259
  endloop
endfacet
facet normal 0.0 1.0 -1.4899914795030147e-08
  outer loop
    vertex 530551.1632447095 94585.82688227834 -0.0010219851531725259
    vertex 529051.1632447094 94585.82707478524 12919.99897801486
    vertex 530551.1632447095 94585.82707478524 12919.99897801486
  endloop
endfacet
facet normal 0.0 1.0 -1.4899914795030147e-08
  outer loop
    vertex 489051.16324470943 71425.82693815304 3749.9993230968744
    vertex 529051.1632447094 71425.82688227836 -0.000676903126519628
    vertex 489051.16324470943 71425.82688227836 -0.000676903126519628
  endloop
endfacet
facet normal 0.0 1.0 -1.4899914795030147e-08
  outer loop
    vertex 529051.1632447094 71425.82688227836 -0.000676903126519628
    vertex 489051.16324470943 71425.82693815304 3749.9993230968744
    vertex 529051.1632447094 71425.82693815304 3749.9993230968744
  endloop
endfacet
facet normal -1.0 0.0 0.0
  outer loop
    vertex 489051.16324470943 62285.64748678443 3749.9994592847693
    vertex 489051.16324470943 71425.82688227836 -0.000676903126519628
    vertex 489051.16324470943 62285.64743090974 -0.0005407152307610387
  endloop
endfacet
facet normal -1.0 0.0 0.0
  outer loop
    vertex 489051.16324470943 71425.82688227836 -0.000676903126519628
    vertex 489051.16324470943 62285.64748678443 3749.9994592847693
    vertex 489051.16324470943 71425.82693815304 3749.9993230968744
  endloop
endfacet
facet normal 0.0 1.4899914795030147e-08 1.0
  outer loop
    vertex 529051.1632447094 62285.64748678443 3749.9994592847693
    vertex 489051.16324470943 71425.82693815304 3749.9993230968744
    vertex 489051.16324470943 62285.64748678443 3749.9994592847693
  endloop
endfacet
facet normal 0.0 1.4899914795030147e-08 1.0
  outer loop
    vertex 489051.16324470943 71425.82693815304 3749.9993230968744
    vertex 529051.1632447094 62285.64748678443 3749.9994592847693
    vertex 529051.1632447094 71425.82693815304 3749.9993230968744
  endloop
endfacet
endsolid Rummikub!
