solid AdamsEricHomework5 (1)
facet normal 0.9754742930973177 -0.22011338783974085 0.0
  outer loop
    vertex 119.84706114450235 49.256183781500134 0.0
    vertex 117.54861615479221 39.07018817457698 80.0
    vertex 117.54861615479221 39.07018817457698 0.0
  endloop
endfacet
facet normal 0.9754742930973177 -0.22011338783974085 0.0
  outer loop
    vertex 117.54861615479221 39.07018817457698 80.0
    vertex 119.84706114450235 49.256183781500134 0.0
    vertex 119.84706114450235 49.256183781500134 80.0
  endloop
endfacet
facet normal -0.4650845310878924 -0.8852662757288088 -0.0
  outer loop
    vertex 100.17076358224632 81.45169327628139 80.0
    vertex 92.09220385880559 85.69585490747963 2.0
    vertex 100.17076358224632 81.45169327628139 2.0
  endloop
endfacet
facet normal -0.4650845310878924 -0.8852662757288088 -0.0
  outer loop
    vertex 92.09220385880559 85.69585490747963 2.0
    vertex 100.17076358224632 81.45169327628139 80.0
    vertex 92.09220385880559 85.69585490747963 80.0
  endloop
endfacet
facet normal 0.2971133609663859 -0.9548422124808151 0.0
  outer loop
    vertex 74.07212575997949 87.34078705323904 80.0
    vertex 65.35864592744201 84.62945816044561 2.0
    vertex 74.07212575997949 87.34078705323904 2.0
  endloop
endfacet
facet normal 0.2971133609663859 -0.9548422124808151 0.0
  outer loop
    vertex 65.35864592744201 84.62945816044561 2.0
    vertex 74.07212575997949 87.34078705323904 80.0
    vertex 65.35864592744201 84.62945816044561 80.0
  endloop
endfacet
facet normal -0.29711336096638513 0.9548422124808154 0.0
  outer loop
    vertex 85.95323351582825 18.444007886301446 80.0
    vertex 94.66671334836566 21.15533677909484 2.0
    vertex 85.95323351582825 18.444007886301446 2.0
  endloop
endfacet
facet normal -0.29711336096638513 0.9548422124808154 0.0
  outer loop
    vertex 94.66671334836566 21.15533677909484 2.0
    vertex 85.95323351582825 18.444007886301446 80.0
    vertex 94.66671334836566 21.15533677909484 80.0
  endloop
endfacet
facet normal -0.7347288246410738 0.6783609321309315 0.0
  outer loop
    vertex 54.416709707035196 83.63075011427719 80.0
    vertex 47.33320015328354 75.95864165070009 0.0
    vertex 47.33320015328354 75.95864165070009 80.0
  endloop
endfacet
facet normal -0.7347288246410738 0.6783609321309315 0.0
  outer loop
    vertex 47.33320015328354 75.95864165070009 0.0
    vertex 54.416709707035196 83.63075011427719 80.0
    vertex 54.416709707035196 83.63075011427719 0.0
  endloop
endfacet
facet normal 0.03985811903511578 -0.9992053494387342 0.0
  outer loop
    vertex 86.81026351028528 13.474218243708311 80.0
    vertex 76.37646594963375 13.058015963171734 0.0
    vertex 86.81026351028528 13.474218243708311 0.0
  endloop
endfacet
facet normal 0.03985811903511578 -0.9992053494387342 0.0
  outer loop
    vertex 76.37646594963375 13.058015963171734 0.0
    vertex 86.81026351028528 13.474218243708311 80.0
    vertex 76.37646594963375 13.058015963171734 80.0
  endloop
endfacet
facet normal -0.999205349438734 -0.039858119035115824 -0.0
  outer loop
    vertex 114.46106922137265 58.832951347694554 80.0
    vertex 114.82479729270814 49.714632585606 2.0
    vertex 114.82479729270814 49.714632585606 80.0
  endloop
endfacet
facet normal -0.999205349438734 -0.039858119035115824 -0.0
  outer loop
    vertex 114.82479729270814 49.714632585606 2.0
    vertex 114.46106922137265 58.832951347694554 80.0
    vertex 114.46106922137265 58.832951347694554 2.0
  endloop
endfacet
facet normal -0.22011338783974096 -0.9754742930973177 -0.0
  outer loop
    vertex 76.37646594963375 13.058015963171734 80.0
    vertex 66.1904703427106 15.356460952881877 0.0
    vertex 76.37646594963375 13.058015963171734 0.0
  endloop
endfacet
facet normal -0.22011338783974096 -0.9754742930973177 -0.0
  outer loop
    vertex 66.1904703427106 15.356460952881877 0.0
    vertex 76.37646594963375 13.058015963171734 80.0
    vertex 66.1904703427106 15.356460952881877 80.0
  endloop
endfacet
facet normal 0.0 0.0 1.0
  outer loop
    vertex 45.564290054435055 46.95184359184585 2.0
    vertex 47.20922220019445 64.97192169067199 2.0
    vertex 45.200561983099554 56.070162353934435 2.0
  endloop
endfacet
facet normal 0.0 0.0 1.0
  outer loop
    vertex 47.20922220019445 64.97192169067199 2.0
    vertex 45.564290054435055 46.95184359184585 2.0
    vertex 48.27561894722848 38.23836375930839 2.0
  endloop
endfacet
facet normal 0.0 0.0 1.0
  outer loop
    vertex 47.20922220019445 64.97192169067199 2.0
    vertex 48.27561894722848 38.23836375930839 2.0
    vertex 51.453383831392635 73.05048141411264 2.0
  endloop
endfacet
facet normal 0.0 0.0 1.0
  outer loop
    vertex 51.453383831392635 73.05048141411264 2.0
    vertex 48.27561894722848 38.23836375930839 2.0
    vertex 53.14977607811881 30.523532107203188 2.0
  endloop
endfacet
facet normal 0.0 0.0 1.0
  outer loop
    vertex 51.453383831392635 73.05048141411264 2.0
    vertex 53.14977607811881 30.523532107203188 2.0
    vertex 57.64381427533682 79.7553010295553 2.0
  endloop
endfacet
facet normal 0.0 0.0 1.0
  outer loop
    vertex 57.64381427533682 79.7553010295553 2.0
    vertex 53.14977607811881 30.523532107203188 2.0
    vertex 59.85459569356142 24.33310166325904 2.0
  endloop
endfacet
facet normal 0.0 0.0 1.0
  outer loop
    vertex 57.64381427533682 79.7553010295553 2.0
    vertex 59.85459569356142 24.33310166325904 2.0
    vertex 65.35864592744201 84.62945816044561 2.0
  endloop
endfacet
facet normal 0.0 0.0 1.0
  outer loop
    vertex 65.35864592744201 84.62945816044561 2.0
    vertex 59.85459569356142 24.33310166325904 2.0
    vertex 67.93315541700207 20.08894003206085 2.0
  endloop
endfacet
facet normal 0.0 0.0 1.0
  outer loop
    vertex 65.35864592744201 84.62945816044561 2.0
    vertex 67.93315541700207 20.08894003206085 2.0
    vertex 74.07212575997949 87.34078705323904 2.0
  endloop
endfacet
facet normal 0.0 0.0 1.0
  outer loop
    vertex 74.07212575997949 87.34078705323904 2.0
    vertex 67.93315541700207 20.08894003206085 2.0
    vertex 76.83491475373967 18.080279814965944 2.0
  endloop
endfacet
facet normal 0.0 0.0 1.0
  outer loop
    vertex 74.07212575997949 87.34078705323904 2.0
    vertex 76.83491475373967 18.080279814965944 2.0
    vertex 83.190444522068 87.70451512457453 2.0
  endloop
endfacet
facet normal 0.0 0.0 1.0
  outer loop
    vertex 83.190444522068 87.70451512457453 2.0
    vertex 76.83491475373967 18.080279814965944 2.0
    vertex 85.95323351582825 18.444007886301446 2.0
  endloop
endfacet
facet normal 0.0 0.0 1.0
  outer loop
    vertex 83.190444522068 87.70451512457453 2.0
    vertex 85.95323351582825 18.444007886301446 2.0
    vertex 92.09220385880559 85.69585490747963 2.0
  endloop
endfacet
facet normal 0.0 0.0 1.0
  outer loop
    vertex 92.09220385880559 85.69585490747963 2.0
    vertex 85.95323351582825 18.444007886301446 2.0
    vertex 94.66671334836566 21.15533677909484 2.0
  endloop
endfacet
facet normal 0.0 0.0 1.0
  outer loop
    vertex 92.09220385880559 85.69585490747963 2.0
    vertex 94.66671334836566 21.15533677909484 2.0
    vertex 100.17076358224632 81.45169327628139 2.0
  endloop
endfacet
facet normal 0.0 0.0 1.0
  outer loop
    vertex 100.17076358224632 81.45169327628139 2.0
    vertex 94.66671334836566 21.15533677909484 2.0
    vertex 102.38154500047091 26.029493909985195 2.0
  endloop
endfacet
facet normal 0.0 0.0 1.0
  outer loop
    vertex 100.17076358224632 81.45169327628139 2.0
    vertex 102.38154500047091 26.029493909985195 2.0
    vertex 106.87558319768888 75.26126283233731 2.0
  endloop
endfacet
facet normal 0.0 0.0 1.0
  outer loop
    vertex 106.87558319768888 75.26126283233731 2.0
    vertex 102.38154500047091 26.029493909985195 2.0
    vertex 108.57197544441505 32.73431352542783 2.0
  endloop
endfacet
facet normal 0.0 0.0 1.0
  outer loop
    vertex 106.87558319768888 75.26126283233731 2.0
    vertex 108.57197544441505 32.73431352542783 2.0
    vertex 111.74974032857921 67.54643118023206 2.0
  endloop
endfacet
facet normal 0.0 0.0 1.0
  outer loop
    vertex 111.74974032857921 67.54643118023206 2.0
    vertex 108.57197544441505 32.73431352542783 2.0
    vertex 112.81613707561326 40.81287324886853 2.0
  endloop
endfacet
facet normal 0.0 0.0 1.0
  outer loop
    vertex 111.74974032857921 67.54643118023206 2.0
    vertex 112.81613707561326 40.81287324886853 2.0
    vertex 114.46106922137265 58.832951347694554 2.0
  endloop
endfacet
facet normal 0.0 0.0 1.0
  outer loop
    vertex 114.46106922137265 58.832951347694554 2.0
    vertex 112.81613707561326 40.81287324886853 2.0
    vertex 114.82479729270814 49.714632585606 2.0
  endloop
endfacet
facet normal -0.46508453108789166 -0.8852662757288091 -0.0
  outer loop
    vertex 66.1904703427106 15.356460952881877 80.0
    vertex 56.94643545697399 20.21291798514993 0.0
    vertex 66.1904703427106 15.356460952881877 0.0
  endloop
endfacet
facet normal -0.46508453108789166 -0.8852662757288091 -0.0
  outer loop
    vertex 56.94643545697399 20.21291798514993 0.0
    vertex 66.1904703427106 15.356460952881877 80.0
    vertex 56.94643545697399 20.21291798514993 80.0
  endloop
endfacet
facet normal -0.8454081566936941 -0.5341208183508397 -0.0
  outer loop
    vertex 106.87558319768888 75.26126283233731 80.0
    vertex 111.74974032857921 67.54643118023206 2.0
    vertex 111.74974032857921 67.54643118023206 80.0
  endloop
endfacet
facet normal -0.8454081566936941 -0.5341208183508397 -0.0
  outer loop
    vertex 111.74974032857921 67.54643118023206 2.0
    vertex 106.87558319768888 75.26126283233731 80.0
    vertex 106.87558319768888 75.26126283233731 2.0
  endloop
endfacet
facet normal -0.734728824641075 0.6783609321309303 0.0
  outer loop
    vertex 108.57197544441505 32.73431352542783 80.0
    vertex 102.38154500047091 26.029493909985195 2.0
    vertex 102.38154500047091 26.029493909985195 80.0
  endloop
endfacet
facet normal -0.734728824641075 0.6783609321309303 0.0
  outer loop
    vertex 102.38154500047091 26.029493909985195 2.0
    vertex 108.57197544441505 32.73431352542783 80.0
    vertex 108.57197544441505 32.73431352542783 2.0
  endloop
endfacet
facet normal 0.7347288246410739 -0.6783609321309313 0.0
  outer loop
    vertex 57.64381427533682 79.7553010295553 2.0
    vertex 51.453383831392635 73.05048141411264 80.0
    vertex 51.453383831392635 73.05048141411264 2.0
  endloop
endfacet
facet normal 0.7347288246410739 -0.6783609321309313 0.0
  outer loop
    vertex 51.453383831392635 73.05048141411264 80.0
    vertex 57.64381427533682 79.7553010295553 2.0
    vertex 57.64381427533682 79.7553010295553 80.0
  endloop
endfacet
facet normal -0.9548422124808148 -0.29711336096638685 -0.0
  outer loop
    vertex 40.59450041184192 46.09481359738881 80.0
    vertex 43.69698646501346 36.12426014410159 0.0
    vertex 43.69698646501346 36.12426014410159 80.0
  endloop
endfacet
facet normal -0.9548422124808148 -0.29711336096638685 -0.0
  outer loop
    vertex 43.69698646501346 36.12426014410159 0.0
    vertex 40.59450041184192 46.09481359738881 80.0
    vertex 40.59450041184192 46.09481359738881 0.0
  endloop
endfacet
facet normal 0.8852662757288089 -0.46508453108789205 0.0
  outer loop
    vertex 51.453383831392635 73.05048141411264 2.0
    vertex 47.20922220019445 64.97192169067199 80.0
    vertex 47.20922220019445 64.97192169067199 2.0
  endloop
endfacet
facet normal 0.8852662757288089 -0.46508453108789205 0.0
  outer loop
    vertex 47.20922220019445 64.97192169067199 80.0
    vertex 51.453383831392635 73.05048141411264 2.0
    vertex 51.453383831392635 73.05048141411264 80.0
  endloop
endfacet
facet normal 0.22011338783974124 0.9754742930973178 0.0
  outer loop
    vertex 83.64889332617398 92.72677897636873 80.0
    vertex 93.8348889330971 90.4283339866586 0.0
    vertex 83.64889332617398 92.72677897636873 0.0
  endloop
endfacet
facet normal 0.22011338783974124 0.9754742930973178 0.0
  outer loop
    vertex 93.8348889330971 90.4283339866586 0.0
    vertex 83.64889332617398 92.72677897636873 80.0
    vertex 93.8348889330971 90.4283339866586 80.0
  endloop
endfacet
facet normal 0.9548422124808152 0.2971133609663856 0.0
  outer loop
    vertex 116.32837281079425 69.66053479543886 0.0
    vertex 119.43085886396577 59.68998134215165 80.0
    vertex 119.43085886396577 59.68998134215165 0.0
  endloop
endfacet
facet normal 0.9548422124808152 0.2971133609663856 0.0
  outer loop
    vertex 119.43085886396577 59.68998134215165 80.0
    vertex 116.32837281079425 69.66053479543886 0.0
    vertex 116.32837281079425 69.66053479543886 80.0
  endloop
endfacet
facet normal 0.6783609321309313 0.7347288246410741 0.0
  outer loop
    vertex 103.0789238188337 85.57187695439053 80.0
    vertex 110.7510322824108 78.4883674006389 0.0
    vertex 103.0789238188337 85.57187695439053 0.0
  endloop
endfacet
facet normal 0.6783609321309313 0.7347288246410741 0.0
  outer loop
    vertex 110.7510322824108 78.4883674006389 0.0
    vertex 103.0789238188337 85.57187695439053 80.0
    vertex 110.7510322824108 78.4883674006389 80.0
  endloop
endfacet
facet normal 0.7347288246410741 -0.6783609321309312 0.0
  outer loop
    vertex 112.69215912252415 29.826153288840377 0.0
    vertex 105.60864956877252 22.154044825263295 80.0
    vertex 105.60864956877252 22.154044825263295 0.0
  endloop
endfacet
facet normal 0.7347288246410741 -0.6783609321309312 0.0
  outer loop
    vertex 105.60864956877252 22.154044825263295 80.0
    vertex 112.69215912252415 29.826153288840377 0.0
    vertex 112.69215912252415 29.826153288840377 80.0
  endloop
endfacet
facet normal -0.9992053494387341 -0.039858119035115824 -0.0
  outer loop
    vertex 40.17829813130535 56.52861115804032 80.0
    vertex 40.59450041184192 46.09481359738881 0.0
    vertex 40.59450041184192 46.09481359738881 80.0
  endloop
endfacet
facet normal -0.9992053494387341 -0.039858119035115824 -0.0
  outer loop
    vertex 40.59450041184192 46.09481359738881 0.0
    vertex 40.17829813130535 56.52861115804032 80.0
    vertex 40.17829813130535 56.52861115804032 0.0
  endloop
endfacet
facet normal -0.9548422124808148 -0.2971133609663868 -0.0
  outer loop
    vertex 111.74974032857921 67.54643118023206 80.0
    vertex 114.46106922137265 58.832951347694554 2.0
    vertex 114.46106922137265 58.832951347694554 80.0
  endloop
endfacet
facet normal -0.9548422124808148 -0.2971133609663868 -0.0
  outer loop
    vertex 114.46106922137265 58.832951347694554 2.0
    vertex 111.74974032857921 67.54643118023206 80.0
    vertex 111.74974032857921 67.54643118023206 2.0
  endloop
endfacet
facet normal -0.22011338783974008 -0.975474293097318 -0.0
  outer loop
    vertex 92.09220385880559 85.69585490747963 80.0
    vertex 83.190444522068 87.70451512457453 2.0
    vertex 92.09220385880559 85.69585490747963 2.0
  endloop
endfacet
facet normal -0.22011338783974008 -0.975474293097318 -0.0
  outer loop
    vertex 83.190444522068 87.70451512457453 2.0
    vertex 92.09220385880559 85.69585490747963 80.0
    vertex 83.190444522068 87.70451512457453 80.0
  endloop
endfacet
facet normal 0.5341208183508419 -0.8454081566936925 0.0
  outer loop
    vertex 65.35864592744201 84.62945816044561 80.0
    vertex 57.64381427533682 79.7553010295553 2.0
    vertex 65.35864592744201 84.62945816044561 2.0
  endloop
endfacet
facet normal 0.5341208183508419 -0.8454081566936925 0.0
  outer loop
    vertex 57.64381427533682 79.7553010295553 2.0
    vertex 65.35864592744201 84.62945816044561 80.0
    vertex 57.64381427533682 79.7553010295553 80.0
  endloop
endfacet
facet normal 0.9754742930973179 -0.2201133878397409 0.0
  outer loop
    vertex 47.20922220019445 64.97192169067199 2.0
    vertex 45.200561983099554 56.070162353934435 80.0
    vertex 45.200561983099554 56.070162353934435 2.0
  endloop
endfacet
facet normal 0.9754742930973179 -0.2201133878397409 0.0
  outer loop
    vertex 45.200561983099554 56.070162353934435 80.0
    vertex 47.20922220019445 64.97192169067199 2.0
    vertex 47.20922220019445 64.97192169067199 80.0
  endloop
endfacet
facet normal 0.8454081566936931 0.5341208183508411 0.0
  outer loop
    vertex 110.7510322824108 78.4883674006389 0.0
    vertex 116.32837281079425 69.66053479543886 80.0
    vertex 116.32837281079425 69.66053479543886 0.0
  endloop
endfacet
facet normal 0.8454081566936931 0.5341208183508411 0.0
  outer loop
    vertex 116.32837281079425 69.66053479543886 80.0
    vertex 110.7510322824108 78.4883674006389 0.0
    vertex 110.7510322824108 78.4883674006389 80.0
  endloop
endfacet
facet normal 0.9992053494387341 0.03985811903511633 0.0
  outer loop
    vertex 45.200561983099554 56.070162353934435 2.0
    vertex 45.564290054435055 46.95184359184585 80.0
    vertex 45.564290054435055 46.95184359184585 2.0
  endloop
endfacet
facet normal 0.9992053494387341 0.03985811903511633 0.0
  outer loop
    vertex 45.564290054435055 46.95184359184585 80.0
    vertex 45.200561983099554 56.070162353934435 2.0
    vertex 45.200561983099554 56.070162353934435 80.0
  endloop
endfacet
facet normal 0.039858119035116005 -0.9992053494387341 0.0
  outer loop
    vertex 83.190444522068 87.70451512457453 80.0
    vertex 74.07212575997949 87.34078705323904 2.0
    vertex 83.190444522068 87.70451512457453 2.0
  endloop
endfacet
facet normal 0.039858119035116005 -0.9992053494387341 0.0
  outer loop
    vertex 74.07212575997949 87.34078705323904 2.0
    vertex 83.190444522068 87.70451512457453 80.0
    vertex 74.07212575997949 87.34078705323904 80.0
  endloop
endfacet
facet normal 0.9548422124808148 0.29711336096638685 0.0
  outer loop
    vertex 45.564290054435055 46.95184359184585 2.0
    vertex 48.27561894722848 38.23836375930839 80.0
    vertex 48.27561894722848 38.23836375930839 2.0
  endloop
endfacet
facet normal 0.9548422124808148 0.29711336096638685 0.0
  outer loop
    vertex 48.27561894722848 38.23836375930839 80.0
    vertex 45.564290054435055 46.95184359184585 2.0
    vertex 45.564290054435055 46.95184359184585 80.0
  endloop
endfacet
facet normal -0.9754742930973178 0.22011338783974044 0.0
  outer loop
    vertex 42.47674312101548 66.71460676496348 80.0
    vertex 40.17829813130535 56.52861115804032 0.0
    vertex 40.17829813130535 56.52861115804032 80.0
  endloop
endfacet
facet normal -0.9754742930973178 0.22011338783974044 0.0
  outer loop
    vertex 40.17829813130535 56.52861115804032 0.0
    vertex 42.47674312101548 66.71460676496348 80.0
    vertex 42.47674312101548 66.71460676496348 0.0
  endloop
endfacet
facet normal 0.8454081566936923 0.5341208183508422 0.0
  outer loop
    vertex 48.27561894722848 38.23836375930839 2.0
    vertex 53.14977607811881 30.523532107203188 80.0
    vertex 53.14977607811881 30.523532107203188 2.0
  endloop
endfacet
facet normal 0.8454081566936923 0.5341208183508422 0.0
  outer loop
    vertex 53.14977607811881 30.523532107203188 80.0
    vertex 48.27561894722848 38.23836375930839 2.0
    vertex 48.27561894722848 38.23836375930839 80.0
  endloop
endfacet
facet normal 0.6783609321309318 0.7347288246410735 0.0
  outer loop
    vertex 53.14977607811881 30.523532107203188 80.0
    vertex 59.85459569356142 24.33310166325904 2.0
    vertex 53.14977607811881 30.523532107203188 2.0
  endloop
endfacet
facet normal 0.6783609321309318 0.7347288246410735 0.0
  outer loop
    vertex 59.85459569356142 24.33310166325904 2.0
    vertex 53.14977607811881 30.523532107203188 80.0
    vertex 59.85459569356142 24.33310166325904 80.0
  endloop
endfacet
facet normal 0.4650845310878923 0.8852662757288088 0.0
  outer loop
    vertex 59.85459569356142 24.33310166325904 80.0
    vertex 67.93315541700207 20.08894003206085 2.0
    vertex 59.85459569356142 24.33310166325904 2.0
  endloop
endfacet
facet normal 0.4650845310878923 0.8852662757288088 0.0
  outer loop
    vertex 67.93315541700207 20.08894003206085 2.0
    vertex 59.85459569356142 24.33310166325904 80.0
    vertex 67.93315541700207 20.08894003206085 80.0
  endloop
endfacet
facet normal -0.5341208183508411 0.8454081566936931 0.0
  outer loop
    vertex 54.416709707035196 83.63075011427719 80.0
    vertex 63.24454231223522 89.20809064266064 0.0
    vertex 54.416709707035196 83.63075011427719 0.0
  endloop
endfacet
facet normal -0.5341208183508411 0.8454081566936931 0.0
  outer loop
    vertex 63.24454231223522 89.20809064266064 0.0
    vertex 54.416709707035196 83.63075011427719 80.0
    vertex 63.24454231223522 89.20809064266064 80.0
  endloop
endfacet
facet normal -0.5341208183508418 0.8454081566936926 0.0
  outer loop
    vertex 94.66671334836566 21.15533677909484 80.0
    vertex 102.38154500047091 26.029493909985195 2.0
    vertex 94.66671334836566 21.15533677909484 2.0
  endloop
endfacet
facet normal -0.5341208183508418 0.8454081566936926 0.0
  outer loop
    vertex 102.38154500047091 26.029493909985195 2.0
    vertex 94.66671334836566 21.15533677909484 80.0
    vertex 102.38154500047091 26.029493909985195 80.0
  endloop
endfacet
facet normal 0.220113387839741 0.9754742930973179 0.0
  outer loop
    vertex 67.93315541700207 20.08894003206085 80.0
    vertex 76.83491475373967 18.080279814965944 2.0
    vertex 67.93315541700207 20.08894003206085 2.0
  endloop
endfacet
facet normal 0.220113387839741 0.9754742930973179 0.0
  outer loop
    vertex 76.83491475373967 18.080279814965944 2.0
    vertex 67.93315541700207 20.08894003206085 80.0
    vertex 76.83491475373967 18.080279814965944 80.0
  endloop
endfacet
facet normal -0.03985811903511665 0.9992053494387341 0.0
  outer loop
    vertex 76.83491475373967 18.080279814965944 80.0
    vertex 85.95323351582825 18.444007886301446 2.0
    vertex 76.83491475373967 18.080279814965944 2.0
  endloop
endfacet
facet normal -0.03985811903511665 0.9992053494387341 0.0
  outer loop
    vertex 85.95323351582825 18.444007886301446 2.0
    vertex 76.83491475373967 18.080279814965944 80.0
    vertex 85.95323351582825 18.444007886301446 80.0
  endloop
endfacet
facet normal -0.8852662757288093 0.4650845310878912 0.0
  outer loop
    vertex 112.81613707561326 40.81287324886853 80.0
    vertex 108.57197544441505 32.73431352542783 2.0
    vertex 108.57197544441505 32.73431352542783 80.0
  endloop
endfacet
facet normal -0.8852662757288093 0.4650845310878912 0.0
  outer loop
    vertex 108.57197544441505 32.73431352542783 2.0
    vertex 112.81613707561326 40.81287324886853 80.0
    vertex 112.81613707561326 40.81287324886853 2.0
  endloop
endfacet
facet normal 0.0 0.0 -1.0
  outer loop
    vertex 42.47674312101548 66.71460676496348 0.0
    vertex 40.59450041184192 46.09481359738881 0.0
    vertex 40.17829813130535 56.52861115804032 0.0
  endloop
endfacet
facet normal 0.0 0.0 -1.0
  outer loop
    vertex 40.59450041184192 46.09481359738881 0.0
    vertex 42.47674312101548 66.71460676496348 0.0
    vertex 43.69698646501346 36.12426014410159 0.0
  endloop
endfacet
facet normal 0.0 0.0 -1.0
  outer loop
    vertex 43.69698646501346 36.12426014410159 0.0
    vertex 42.47674312101548 66.71460676496348 0.0
    vertex 47.33320015328354 75.95864165070009 0.0
  endloop
endfacet
facet normal 0.0 0.0 -1.0
  outer loop
    vertex 43.69698646501346 36.12426014410159 0.0
    vertex 47.33320015328354 75.95864165070009 0.0
    vertex 49.27432699339691 27.29642753890156 0.0
  endloop
endfacet
facet normal 0.0 0.0 -1.0
  outer loop
    vertex 49.27432699339691 27.29642753890156 0.0
    vertex 47.33320015328354 75.95864165070009 0.0
    vertex 54.416709707035196 83.63075011427719 0.0
  endloop
endfacet
facet normal 0.0 0.0 -1.0
  outer loop
    vertex 49.27432699339691 27.29642753890156 0.0
    vertex 54.416709707035196 83.63075011427719 0.0
    vertex 56.94643545697399 20.21291798514993 0.0
  endloop
endfacet
facet normal 0.0 0.0 -1.0
  outer loop
    vertex 56.94643545697399 20.21291798514993 0.0
    vertex 54.416709707035196 83.63075011427719 0.0
    vertex 63.24454231223522 89.20809064266064 0.0
  endloop
endfacet
facet normal 0.0 0.0 -1.0
  outer loop
    vertex 56.94643545697399 20.21291798514993 0.0
    vertex 63.24454231223522 89.20809064266064 0.0
    vertex 66.1904703427106 15.356460952881877 0.0
  endloop
endfacet
facet normal 0.0 0.0 -1.0
  outer loop
    vertex 66.1904703427106 15.356460952881877 0.0
    vertex 63.24454231223522 89.20809064266064 0.0
    vertex 73.21509576552242 92.31057669583215 0.0
  endloop
endfacet
facet normal 0.0 0.0 -1.0
  outer loop
    vertex 66.1904703427106 15.356460952881877 0.0
    vertex 73.21509576552242 92.31057669583215 0.0
    vertex 76.37646594963375 13.058015963171734 0.0
  endloop
endfacet
facet normal 0.0 0.0 -1.0
  outer loop
    vertex 76.37646594963375 13.058015963171734 0.0
    vertex 73.21509576552242 92.31057669583215 0.0
    vertex 83.64889332617398 92.72677897636873 0.0
  endloop
endfacet
facet normal 0.0 0.0 -1.0
  outer loop
    vertex 76.37646594963375 13.058015963171734 0.0
    vertex 83.64889332617398 92.72677897636873 0.0
    vertex 86.81026351028528 13.474218243708311 0.0
  endloop
endfacet
facet normal 0.0 0.0 -1.0
  outer loop
    vertex 86.81026351028528 13.474218243708311 0.0
    vertex 83.64889332617398 92.72677897636873 0.0
    vertex 93.8348889330971 90.4283339866586 0.0
  endloop
endfacet
facet normal 0.0 0.0 -1.0
  outer loop
    vertex 86.81026351028528 13.474218243708311 0.0
    vertex 93.8348889330971 90.4283339866586 0.0
    vertex 96.78081696357249 16.576704296879832 0.0
  endloop
endfacet
facet normal 0.0 0.0 -1.0
  outer loop
    vertex 96.78081696357249 16.576704296879832 0.0
    vertex 93.8348889330971 90.4283339866586 0.0
    vertex 103.0789238188337 85.57187695439053 0.0
  endloop
endfacet
facet normal 0.0 0.0 -1.0
  outer loop
    vertex 96.78081696357249 16.576704296879832 0.0
    vertex 103.0789238188337 85.57187695439053 0.0
    vertex 105.60864956877252 22.154044825263295 0.0
  endloop
endfacet
facet normal 0.0 0.0 -1.0
  outer loop
    vertex 105.60864956877252 22.154044825263295 0.0
    vertex 103.0789238188337 85.57187695439053 0.0
    vertex 110.7510322824108 78.4883674006389 0.0
  endloop
endfacet
facet normal 0.0 0.0 -1.0
  outer loop
    vertex 105.60864956877252 22.154044825263295 0.0
    vertex 110.7510322824108 78.4883674006389 0.0
    vertex 112.69215912252415 29.826153288840377 0.0
  endloop
endfacet
facet normal 0.0 0.0 -1.0
  outer loop
    vertex 112.69215912252415 29.826153288840377 0.0
    vertex 110.7510322824108 78.4883674006389 0.0
    vertex 116.32837281079425 69.66053479543886 0.0
  endloop
endfacet
facet normal 0.0 0.0 -1.0
  outer loop
    vertex 112.69215912252415 29.826153288840377 0.0
    vertex 116.32837281079425 69.66053479543886 0.0
    vertex 117.54861615479221 39.07018817457698 0.0
  endloop
endfacet
facet normal 0.0 0.0 -1.0
  outer loop
    vertex 117.54861615479221 39.07018817457698 0.0
    vertex 116.32837281079425 69.66053479543886 0.0
    vertex 119.43085886396577 59.68998134215165 0.0
  endloop
endfacet
facet normal 0.0 0.0 -1.0
  outer loop
    vertex 117.54861615479221 39.07018817457698 0.0
    vertex 119.43085886396577 59.68998134215165 0.0
    vertex 119.84706114450235 49.256183781500134 0.0
  endloop
endfacet
facet normal 0.9992053494387341 0.039858119035115866 0.0
  outer loop
    vertex 119.43085886396577 59.68998134215165 0.0
    vertex 119.84706114450235 49.256183781500134 80.0
    vertex 119.84706114450235 49.256183781500134 0.0
  endloop
endfacet
facet normal 0.9992053494387341 0.039858119035115866 0.0
  outer loop
    vertex 119.84706114450235 49.256183781500134 80.0
    vertex 119.43085886396577 59.68998134215165 0.0
    vertex 119.43085886396577 59.68998134215165 80.0
  endloop
endfacet
facet normal -0.8852662757288091 0.4650845310878916 0.0
  outer loop
    vertex 47.33320015328354 75.95864165070009 80.0
    vertex 42.47674312101548 66.71460676496348 0.0
    vertex 42.47674312101548 66.71460676496348 80.0
  endloop
endfacet
facet normal -0.8852662757288091 0.4650845310878916 0.0
  outer loop
    vertex 42.47674312101548 66.71460676496348 0.0
    vertex 47.33320015328354 75.95864165070009 80.0
    vertex 47.33320015328354 75.95864165070009 0.0
  endloop
endfacet
facet normal -0.8454081566936925 -0.5341208183508418 -0.0
  outer loop
    vertex 43.69698646501346 36.12426014410159 80.0
    vertex 49.27432699339691 27.29642753890156 0.0
    vertex 49.27432699339691 27.29642753890156 80.0
  endloop
endfacet
facet normal -0.8454081566936925 -0.5341208183508418 -0.0
  outer loop
    vertex 49.27432699339691 27.29642753890156 0.0
    vertex 43.69698646501346 36.12426014410159 80.0
    vertex 43.69698646501346 36.12426014410159 0.0
  endloop
endfacet
facet normal -0.6783609321309317 -0.7347288246410736 -0.0
  outer loop
    vertex 56.94643545697399 20.21291798514993 80.0
    vertex 49.27432699339691 27.29642753890156 0.0
    vertex 56.94643545697399 20.21291798514993 0.0
  endloop
endfacet
facet normal -0.6783609321309317 -0.7347288246410736 -0.0
  outer loop
    vertex 49.27432699339691 27.29642753890156 0.0
    vertex 56.94643545697399 20.21291798514993 80.0
    vertex 49.27432699339691 27.29642753890156 80.0
  endloop
endfacet
facet normal 0.29711336096638585 -0.9548422124808152 0.0
  outer loop
    vertex 96.78081696357249 16.576704296879832 80.0
    vertex 86.81026351028528 13.474218243708311 0.0
    vertex 96.78081696357249 16.576704296879832 0.0
  endloop
endfacet
facet normal 0.29711336096638585 -0.9548422124808152 0.0
  outer loop
    vertex 86.81026351028528 13.474218243708311 0.0
    vertex 96.78081696357249 16.576704296879832 80.0
    vertex 86.81026351028528 13.474218243708311 80.0
  endloop
endfacet
facet normal 0.5341208183508422 -0.8454081566936924 0.0
  outer loop
    vertex 105.60864956877252 22.154044825263295 80.0
    vertex 96.78081696357249 16.576704296879832 0.0
    vertex 105.60864956877252 22.154044825263295 0.0
  endloop
endfacet
facet normal 0.5341208183508422 -0.8454081566936924 0.0
  outer loop
    vertex 96.78081696357249 16.576704296879832 0.0
    vertex 105.60864956877252 22.154044825263295 80.0
    vertex 96.78081696357249 16.576704296879832 80.0
  endloop
endfacet
facet normal 0.46508453108789255 0.8852662757288087 0.0
  outer loop
    vertex 93.8348889330971 90.4283339866586 80.0
    vertex 103.0789238188337 85.57187695439053 0.0
    vertex 93.8348889330971 90.4283339866586 0.0
  endloop
endfacet
facet normal 0.46508453108789255 0.8852662757288087 0.0
  outer loop
    vertex 103.0789238188337 85.57187695439053 0.0
    vertex 93.8348889330971 90.4283339866586 80.0
    vertex 103.0789238188337 85.57187695439053 80.0
  endloop
endfacet
facet normal -0.039858119035115686 0.9992053494387341 0.0
  outer loop
    vertex 73.21509576552242 92.31057669583215 80.0
    vertex 83.64889332617398 92.72677897636873 0.0
    vertex 73.21509576552242 92.31057669583215 0.0
  endloop
endfacet
facet normal -0.039858119035115686 0.9992053494387341 0.0
  outer loop
    vertex 83.64889332617398 92.72677897636873 0.0
    vertex 73.21509576552242 92.31057669583215 80.0
    vertex 83.64889332617398 92.72677897636873 80.0
  endloop
endfacet
facet normal -0.2971133609663862 0.9548422124808151 0.0
  outer loop
    vertex 63.24454231223522 89.20809064266064 80.0
    vertex 73.21509576552242 92.31057669583215 0.0
    vertex 63.24454231223522 89.20809064266064 0.0
  endloop
endfacet
facet normal -0.2971133609663862 0.9548422124808151 0.0
  outer loop
    vertex 73.21509576552242 92.31057669583215 0.0
    vertex 63.24454231223522 89.20809064266064 80.0
    vertex 73.21509576552242 92.31057669583215 80.0
  endloop
endfacet
facet normal -0.9754742930973177 0.22011338783974171 0.0
  outer loop
    vertex 114.82479729270814 49.714632585606 80.0
    vertex 112.81613707561326 40.81287324886853 2.0
    vertex 112.81613707561326 40.81287324886853 80.0
  endloop
endfacet
facet normal -0.9754742930973177 0.22011338783974171 0.0
  outer loop
    vertex 112.81613707561326 40.81287324886853 2.0
    vertex 114.82479729270814 49.714632585606 80.0
    vertex 114.82479729270814 49.714632585606 2.0
  endloop
endfacet
facet normal -0.6783609321309313 -0.734728824641074 -0.0
  outer loop
    vertex 106.87558319768888 75.26126283233731 80.0
    vertex 100.17076358224632 81.45169327628139 2.0
    vertex 106.87558319768888 75.26126283233731 2.0
  endloop
endfacet
facet normal -0.6783609321309313 -0.734728824641074 -0.0
  outer loop
    vertex 100.17076358224632 81.45169327628139 2.0
    vertex 106.87558319768888 75.26126283233731 80.0
    vertex 100.17076358224632 81.45169327628139 80.0
  endloop
endfacet
facet normal 0.8852662757288089 -0.4650845310878924 0.0
  outer loop
    vertex 117.54861615479221 39.07018817457698 0.0
    vertex 112.69215912252415 29.826153288840377 80.0
    vertex 112.69215912252415 29.826153288840377 0.0
  endloop
endfacet
facet normal 0.8852662757288089 -0.4650845310878924 0.0
  outer loop
    vertex 112.69215912252415 29.826153288840377 80.0
    vertex 117.54861615479221 39.07018817457698 0.0
    vertex 117.54861615479221 39.07018817457698 80.0
  endloop
endfacet
facet normal 0.0 0.0 1.0
  outer loop
    vertex 43.69698646501346 36.12426014410159 80.0
    vertex 45.564290054435055 46.95184359184585 80.0
    vertex 45.200561983099554 56.070162353934435 80.0
  endloop
endfacet
facet normal 0.0 0.0 1.0
  outer loop
    vertex 45.564290054435055 46.95184359184585 80.0
    vertex 43.69698646501346 36.12426014410159 80.0
    vertex 49.27432699339691 27.29642753890156 80.0
  endloop
endfacet
facet normal 0.0 0.0 1.0
  outer loop
    vertex 45.564290054435055 46.95184359184585 80.0
    vertex 49.27432699339691 27.29642753890156 80.0
    vertex 48.27561894722848 38.23836375930839 80.0
  endloop
endfacet
facet normal 0.0 0.0 1.0
  outer loop
    vertex 48.27561894722848 38.23836375930839 80.0
    vertex 49.27432699339691 27.29642753890156 80.0
    vertex 53.14977607811881 30.523532107203188 80.0
  endloop
endfacet
facet normal 0.0 0.0 1.0
  outer loop
    vertex 53.14977607811881 30.523532107203188 80.0
    vertex 49.27432699339691 27.29642753890156 80.0
    vertex 56.94643545697399 20.21291798514993 80.0
  endloop
endfacet
facet normal 0.0 0.0 1.0
  outer loop
    vertex 53.14977607811881 30.523532107203188 80.0
    vertex 56.94643545697399 20.21291798514993 80.0
    vertex 59.85459569356142 24.33310166325904 80.0
  endloop
endfacet
facet normal 0.0 0.0 1.0
  outer loop
    vertex 59.85459569356142 24.33310166325904 80.0
    vertex 56.94643545697399 20.21291798514993 80.0
    vertex 66.1904703427106 15.356460952881877 80.0
  endloop
endfacet
facet normal 0.0 0.0 1.0
  outer loop
    vertex 59.85459569356142 24.33310166325904 80.0
    vertex 66.1904703427106 15.356460952881877 80.0
    vertex 67.93315541700207 20.08894003206085 80.0
  endloop
endfacet
facet normal 0.0 0.0 1.0
  outer loop
    vertex 67.93315541700207 20.08894003206085 80.0
    vertex 66.1904703427106 15.356460952881877 80.0
    vertex 76.37646594963375 13.058015963171734 80.0
  endloop
endfacet
facet normal 0.0 0.0 1.0
  outer loop
    vertex 67.93315541700207 20.08894003206085 80.0
    vertex 76.37646594963375 13.058015963171734 80.0
    vertex 76.83491475373967 18.080279814965944 80.0
  endloop
endfacet
facet normal 0.0 0.0 1.0
  outer loop
    vertex 76.83491475373967 18.080279814965944 80.0
    vertex 76.37646594963375 13.058015963171734 80.0
    vertex 86.81026351028528 13.474218243708311 80.0
  endloop
endfacet
facet normal 0.0 0.0 1.0
  outer loop
    vertex 76.83491475373967 18.080279814965944 80.0
    vertex 86.81026351028528 13.474218243708311 80.0
    vertex 85.95323351582825 18.444007886301446 80.0
  endloop
endfacet
facet normal 0.0 0.0 1.0
  outer loop
    vertex 85.95323351582825 18.444007886301446 80.0
    vertex 86.81026351028528 13.474218243708311 80.0
    vertex 94.66671334836566 21.15533677909484 80.0
  endloop
endfacet
facet normal 0.0 0.0 1.0
  outer loop
    vertex 94.66671334836566 21.15533677909484 80.0
    vertex 86.81026351028528 13.474218243708311 80.0
    vertex 96.78081696357249 16.576704296879832 80.0
  endloop
endfacet
facet normal 0.0 0.0 1.0
  outer loop
    vertex 94.66671334836566 21.15533677909484 80.0
    vertex 96.78081696357249 16.576704296879832 80.0
    vertex 102.38154500047091 26.029493909985195 80.0
  endloop
endfacet
facet normal 0.0 0.0 1.0
  outer loop
    vertex 102.38154500047091 26.029493909985195 80.0
    vertex 96.78081696357249 16.576704296879832 80.0
    vertex 105.60864956877252 22.154044825263295 80.0
  endloop
endfacet
facet normal 0.0 0.0 1.0
  outer loop
    vertex 102.38154500047091 26.029493909985195 80.0
    vertex 105.60864956877252 22.154044825263295 80.0
    vertex 108.57197544441505 32.73431352542783 80.0
  endloop
endfacet
facet normal 0.0 0.0 1.0
  outer loop
    vertex 108.57197544441505 32.73431352542783 80.0
    vertex 105.60864956877252 22.154044825263295 80.0
    vertex 112.69215912252415 29.826153288840377 80.0
  endloop
endfacet
facet normal 0.0 0.0 1.0
  outer loop
    vertex 108.57197544441505 32.73431352542783 80.0
    vertex 112.69215912252415 29.826153288840377 80.0
    vertex 112.81613707561326 40.81287324886853 80.0
  endloop
endfacet
facet normal 0.0 0.0 1.0
  outer loop
    vertex 112.81613707561326 40.81287324886853 80.0
    vertex 112.69215912252415 29.826153288840377 80.0
    vertex 117.54861615479221 39.07018817457698 80.0
  endloop
endfacet
facet normal 0.0 0.0 1.0
  outer loop
    vertex 112.81613707561326 40.81287324886853 80.0
    vertex 117.54861615479221 39.07018817457698 80.0
    vertex 114.82479729270814 49.714632585606 80.0
  endloop
endfacet
facet normal 0.0 0.0 1.0
  outer loop
    vertex 114.82479729270814 49.714632585606 80.0
    vertex 117.54861615479221 39.07018817457698 80.0
    vertex 116.32837281079425 69.66053479543886 80.0
  endloop
endfacet
facet normal 0.0 0.0 1.0
  outer loop
    vertex 116.32837281079425 69.66053479543886 80.0
    vertex 117.54861615479221 39.07018817457698 80.0
    vertex 119.43085886396577 59.68998134215165 80.0
  endloop
endfacet
facet normal 0.0 0.0 1.0
  outer loop
    vertex 119.43085886396577 59.68998134215165 80.0
    vertex 117.54861615479221 39.07018817457698 80.0
    vertex 119.84706114450235 49.256183781500134 80.0
  endloop
endfacet
facet normal 0.0 0.0 1.0
  outer loop
    vertex 40.59450041184192 46.09481359738881 80.0
    vertex 42.47674312101548 66.71460676496348 80.0
    vertex 40.17829813130535 56.52861115804032 80.0
  endloop
endfacet
facet normal 0.0 0.0 1.0
  outer loop
    vertex 42.47674312101548 66.71460676496348 80.0
    vertex 40.59450041184192 46.09481359738881 80.0
    vertex 43.69698646501346 36.12426014410159 80.0
  endloop
endfacet
facet normal 0.0 0.0 1.0
  outer loop
    vertex 42.47674312101548 66.71460676496348 80.0
    vertex 43.69698646501346 36.12426014410159 80.0
    vertex 45.200561983099554 56.070162353934435 80.0
  endloop
endfacet
facet normal 0.0 0.0 1.0
  outer loop
    vertex 42.47674312101548 66.71460676496348 80.0
    vertex 45.200561983099554 56.070162353934435 80.0
    vertex 47.33320015328354 75.95864165070009 80.0
  endloop
endfacet
facet normal 0.0 0.0 1.0
  outer loop
    vertex 47.33320015328354 75.95864165070009 80.0
    vertex 45.200561983099554 56.070162353934435 80.0
    vertex 47.20922220019445 64.97192169067199 80.0
  endloop
endfacet
facet normal 0.0 0.0 1.0
  outer loop
    vertex 47.33320015328354 75.95864165070009 80.0
    vertex 47.20922220019445 64.97192169067199 80.0
    vertex 51.453383831392635 73.05048141411264 80.0
  endloop
endfacet
facet normal 0.0 0.0 1.0
  outer loop
    vertex 47.33320015328354 75.95864165070009 80.0
    vertex 51.453383831392635 73.05048141411264 80.0
    vertex 54.416709707035196 83.63075011427719 80.0
  endloop
endfacet
facet normal 0.0 0.0 1.0
  outer loop
    vertex 54.416709707035196 83.63075011427719 80.0
    vertex 51.453383831392635 73.05048141411264 80.0
    vertex 57.64381427533682 79.7553010295553 80.0
  endloop
endfacet
facet normal 0.0 0.0 1.0
  outer loop
    vertex 54.416709707035196 83.63075011427719 80.0
    vertex 57.64381427533682 79.7553010295553 80.0
    vertex 63.24454231223522 89.20809064266064 80.0
  endloop
endfacet
facet normal 0.0 0.0 1.0
  outer loop
    vertex 63.24454231223522 89.20809064266064 80.0
    vertex 57.64381427533682 79.7553010295553 80.0
    vertex 65.35864592744201 84.62945816044561 80.0
  endloop
endfacet
facet normal 0.0 0.0 1.0
  outer loop
    vertex 63.24454231223522 89.20809064266064 80.0
    vertex 65.35864592744201 84.62945816044561 80.0
    vertex 73.21509576552242 92.31057669583215 80.0
  endloop
endfacet
facet normal 0.0 0.0 1.0
  outer loop
    vertex 73.21509576552242 92.31057669583215 80.0
    vertex 65.35864592744201 84.62945816044561 80.0
    vertex 74.07212575997949 87.34078705323904 80.0
  endloop
endfacet
facet normal 0.0 0.0 1.0
  outer loop
    vertex 73.21509576552242 92.31057669583215 80.0
    vertex 74.07212575997949 87.34078705323904 80.0
    vertex 83.64889332617398 92.72677897636873 80.0
  endloop
endfacet
facet normal 0.0 0.0 1.0
  outer loop
    vertex 83.64889332617398 92.72677897636873 80.0
    vertex 74.07212575997949 87.34078705323904 80.0
    vertex 83.190444522068 87.70451512457453 80.0
  endloop
endfacet
facet normal 0.0 0.0 1.0
  outer loop
    vertex 83.64889332617398 92.72677897636873 80.0
    vertex 83.190444522068 87.70451512457453 80.0
    vertex 92.09220385880559 85.69585490747963 80.0
  endloop
endfacet
facet normal 0.0 0.0 1.0
  outer loop
    vertex 83.64889332617398 92.72677897636873 80.0
    vertex 92.09220385880559 85.69585490747963 80.0
    vertex 93.8348889330971 90.4283339866586 80.0
  endloop
endfacet
facet normal 0.0 0.0 1.0
  outer loop
    vertex 93.8348889330971 90.4283339866586 80.0
    vertex 92.09220385880559 85.69585490747963 80.0
    vertex 100.17076358224632 81.45169327628139 80.0
  endloop
endfacet
facet normal 0.0 0.0 1.0
  outer loop
    vertex 93.8348889330971 90.4283339866586 80.0
    vertex 100.17076358224632 81.45169327628139 80.0
    vertex 103.0789238188337 85.57187695439053 80.0
  endloop
endfacet
facet normal 0.0 0.0 1.0
  outer loop
    vertex 103.0789238188337 85.57187695439053 80.0
    vertex 100.17076358224632 81.45169327628139 80.0
    vertex 106.87558319768888 75.26126283233731 80.0
  endloop
endfacet
facet normal 0.0 0.0 1.0
  outer loop
    vertex 103.0789238188337 85.57187695439053 80.0
    vertex 106.87558319768888 75.26126283233731 80.0
    vertex 110.7510322824108 78.4883674006389 80.0
  endloop
endfacet
facet normal 0.0 0.0 1.0
  outer loop
    vertex 110.7510322824108 78.4883674006389 80.0
    vertex 106.87558319768888 75.26126283233731 80.0
    vertex 111.74974032857921 67.54643118023206 80.0
  endloop
endfacet
facet normal 0.0 0.0 1.0
  outer loop
    vertex 110.7510322824108 78.4883674006389 80.0
    vertex 111.74974032857921 67.54643118023206 80.0
    vertex 116.32837281079425 69.66053479543886 80.0
  endloop
endfacet
facet normal 0.0 0.0 1.0
  outer loop
    vertex 116.32837281079425 69.66053479543886 80.0
    vertex 111.74974032857921 67.54643118023206 80.0
    vertex 114.46106922137265 58.832951347694554 80.0
  endloop
endfacet
facet normal 0.0 0.0 1.0
  outer loop
    vertex 116.32837281079425 69.66053479543886 80.0
    vertex 114.46106922137265 58.832951347694554 80.0
    vertex 114.82479729270814 49.714632585606 80.0
  endloop
endfacet
endsolid AdamsEricHomework5 (1)
