solid EricWheel
facet normal 0.9915706013761377 -4.230702341630424e-17 0.12956752095554175
  outer loop
    vertex -34710.80469141669 8860.288392050415 4521.7054649849315
    vertex -34845.66253479959 -5389.7116079496245 5553.76251043344
    vertex -34710.80469141669 -5389.7116079496245 4521.705464984927
  endloop
endfacet
facet normal 0.9915706013761377 -4.230702341630424e-17 0.12956752095554175
  outer loop
    vertex -34845.66253479959 -5389.7116079496245 5553.76251043344
    vertex -34710.80469141669 8860.288392050415 4521.7054649849315
    vertex -34845.66253479959 8860.288392050415 5553.762510433444
  endloop
endfacet
facet normal -0.9235090909153204 5.024699989803439e-16 0.383576536035194
  outer loop
    vertex -43458.337955579336 -5389.711607949619 7280.164587378657
    vertex -44009.072586989285 -7389.711607949608 5954.201211083096
    vertex -43458.337955579336 -7389.71160794962 7280.164587378675
  endloop
endfacet
facet normal -0.9235090909153204 5.024699989803439e-16 0.383576536035194
  outer loop
    vertex -44009.072586989285 -7389.711607949608 5954.201211083096
    vertex -43458.337955579336 -5389.711607949619 7280.164587378657
    vertex -44009.072586989285 -5389.7116079496245 5954.201211083108
  endloop
endfacet
facet normal 0.13148474146068356 -1.7076383835724187e-15 0.99131819450821
  outer loop
    vertex -37662.210040753256 -5389.711607949636 8375.76182871926
    vertex -38694.00437340452 8860.288392050415 8512.6151739124
    vertex -38694.00437340452 -5389.711607949619 8512.615173912383
  endloop
endfacet
facet normal 0.13148474146068356 -1.7076383835724187e-15 0.99131819450821
  outer loop
    vertex -38694.00437340452 8860.288392050415 8512.6151739124
    vertex -37662.210040753256 -5389.711607949636 8375.76182871926
    vertex -37662.210040753256 8860.288392050415 8375.76182871929
  endloop
endfacet
facet normal -0.6079940653409366 -1.9308375510879943e-15 0.7939415699597807
  outer loop
    vertex -40688.04819500639 -5389.711607949613 7980.378637734007
    vertex -41514.406892828025 8860.288392050432 7347.55979674065
    vertex -41514.406892828025 -5389.711607949619 7347.559796740616
  endloop
endfacet
facet normal -0.6079940653409366 -1.9308375510879943e-15 0.7939415699597807
  outer loop
    vertex -41514.406892828025 8860.288392050432 7347.55979674065
    vertex -40688.04819500639 -5389.711607949613 7980.378637734007
    vertex -40688.04819500639 8860.288392050415 7980.378637734042
  endloop
endfacet
facet normal 0.3835765360351931 -1.6859593960130913e-15 0.9235090909153209
  outer loop
    vertex -36700.99349954873 -5389.711607949607 7976.523624264198
    vertex -37662.210040753256 8860.288392050415 8375.76182871929
    vertex -37662.210040753256 -5389.711607949636 8375.76182871926
  endloop
endfacet
facet normal 0.3835765360351931 -1.6859593960130913e-15 0.9235090909153209
  outer loop
    vertex -37662.210040753256 8860.288392050415 8375.76182871929
    vertex -36700.99349954873 -5389.711607949607 7976.523624264198
    vertex -36700.99349954873 8860.288392050432 7976.523624264218
  endloop
endfacet
facet normal 0.3835765360352033 -8.001301142921784e-15 0.9235090909153166
  outer loop
    vertex -35943.25527795042 -7389.711607949597 9286.039047159724
    vertex -37269.21865424598 -5389.711607949613 9836.773678569702
    vertex -37269.21865424598 -7389.711607949608 9836.773678569682
  endloop
endfacet
facet normal 0.3835765360352033 -8.001301142921784e-15 0.9235090909153166
  outer loop
    vertex -37269.21865424598 -5389.711607949613 9836.773678569702
    vertex -35943.25527795042 -7389.711607949597 9286.039047159724
    vertex -35943.25527795042 -5389.7116079496245 9286.039047159738
  endloop
endfacet
facet normal -0.7927643689474736 1.7597552256666812e-15 0.6095282235691092
  outer loop
    vertex -42583.18457677492 -7389.711607949591 8418.406245849577
    vertex -43458.337955579336 -5389.711607949619 7280.164587378657
    vertex -43458.337955579336 -7389.71160794962 7280.164587378675
  endloop
endfacet
facet normal -0.7927643689474736 1.7597552256666812e-15 0.6095282235691092
  outer loop
    vertex -43458.337955579336 -5389.711607949619 7280.164587378657
    vertex -42583.18457677492 -7389.711607949591 8418.406245849577
    vertex -42583.18457677492 -5389.711607949607 8418.406245849585
  endloop
endfacet
facet normal 0.9242491104081765 -1.82307082463835e-17 0.3817899709391205
  outer loop
    vertex -34845.66253479959 8860.288392050415 5553.762510433444
    vertex -35243.04122759508 -5389.7116079496245 6515.749286586784
    vertex -34845.66253479959 -5389.7116079496245 5553.76251043344
  endloop
endfacet
facet normal 0.9242491104081765 -1.82307082463835e-17 0.3817899709391205
  outer loop
    vertex -35243.04122759508 -5389.7116079496245 6515.749286586784
    vertex -34845.66253479959 8860.288392050415 5553.762510433444
    vertex -35243.04122759508 8860.288392050397 6515.749286586781
  endloop
endfacet
facet normal -0.9913181945082086 -1.9858092480064914e-17 0.13148474146069516
  outer loop
    vertex -42548.06073713886 -5389.711607949619 5561.209824575804
    vertex -42684.91408233199 8860.288392050397 4529.4154919245675
    vertex -42684.91408233199 -5389.7116079496245 4529.415491924577
  endloop
endfacet
facet normal -0.9913181945082086 -1.9858092480064914e-17 0.13148474146069516
  outer loop
    vertex -42684.91408233199 8860.288392050397 4529.4154919245675
    vertex -42548.06073713886 -5389.711607949619 5561.209824575804
    vertex -42548.06073713886 8860.288392050415 5561.209824575818
  endloop
endfacet
facet normal 0.13148474146067946 3.369206960224382e-16 0.9913181945082107
  outer loop
    vertex -37662.210040753256 8860.288392050415 8375.76182871929
    vertex -38694.00437340452 25860.288392050355 8512.615173912398
    vertex -38694.00437340452 8860.288392050415 8512.6151739124
  endloop
endfacet
facet normal 0.13148474146067946 3.369206960224382e-16 0.9913181945082107
  outer loop
    vertex -38694.00437340452 25860.288392050355 8512.615173912398
    vertex -37662.210040753256 8860.288392050415 8375.76182871929
    vertex -37662.210040753256 25860.28839205039 8375.761828719282
  endloop
endfacet
facet normal -0.12956752095552024 2.526033075247206e-16 0.9915706013761406
  outer loop
    vertex -38694.00437340452 8860.288392050415 8512.6151739124
    vertex -39726.061418853016 25860.288392050355 8377.757330529526
    vertex -39726.061418853016 8860.288392050421 8377.757330529534
  endloop
endfacet
facet normal -0.12956752095552024 2.526033075247206e-16 0.9915706013761406
  outer loop
    vertex -39726.061418853016 25860.288392050355 8377.757330529526
    vertex -38694.00437340452 8860.288392050415 8512.6151739124
    vertex -38694.00437340452 25860.288392050355 8512.615173912398
  endloop
endfacet
facet normal -0.38178997093910205 1.5705965615926083e-16 0.924249110408184
  outer loop
    vertex -39726.061418853016 8860.288392050421 8377.757330529534
    vertex -40688.04819500639 25860.288392050345 7980.378637734042
    vertex -40688.04819500639 8860.288392050415 7980.378637734042
  endloop
endfacet
facet normal -0.38178997093910205 1.5705965615926083e-16 0.924249110408184
  outer loop
    vertex -40688.04819500639 25860.288392050345 7980.378637734042
    vertex -39726.061418853016 8860.288392050421 8377.757330529534
    vertex -39726.061418853016 25860.288392050355 8377.757330529526
  endloop
endfacet
facet normal 0.6095282235691002 -1.2859231650927705e-15 0.7927643689474805
  outer loop
    vertex -35875.86006858849 -5389.711607949613 7342.107984408428
    vertex -36700.99349954873 8860.288392050432 7976.523624264218
    vertex -36700.99349954873 -5389.711607949607 7976.523624264198
  endloop
endfacet
facet normal 0.6095282235691002 -1.2859231650927705e-15 0.7927643689474805
  outer loop
    vertex -36700.99349954873 8860.288392050432 7976.523624264218
    vertex -35875.86006858849 -5389.711607949613 7342.107984408428
    vertex -35875.86006858849 8860.288392050426 7342.107984408453
  endloop
endfacet
facet normal -0.792764368947501 -1.6035766338213715e-15 0.6095282235690739
  outer loop
    vertex -41514.406892828025 8860.288392050432 7347.55979674065
    vertex -42148.82253268377 -5389.711607949607 6522.426365780354
    vertex -41514.406892828025 -5389.711607949619 7347.559796740616
  endloop
endfacet
facet normal -0.792764368947501 -1.6035766338213715e-15 0.6095282235690739
  outer loop
    vertex -42148.82253268377 -5389.711607949607 6522.426365780354
    vertex -41514.406892828025 8860.288392050432 7347.55979674065
    vertex -42148.82253268377 8860.288392050432 6522.426365780394
  endloop
endfacet
facet normal 0.9915706013761373 -2.3405710162615184e-16 0.12956752095554566
  outer loop
    vertex -33197.861957742476 -5389.7116079496245 4520.242627110158
    vertex -33383.89346434538 -7389.711607949603 5943.927911174855
    vertex -33197.861957742476 -7389.711607949608 4520.2426271101485
  endloop
endfacet
facet normal 0.9915706013761373 -2.3405710162615184e-16 0.12956752095554566
  outer loop
    vertex -33383.89346434538 -7389.711607949603 5943.927911174855
    vertex -33197.861957742476 -5389.7116079496245 4520.242627110158
    vertex -33383.89346434538 -5389.7116079496245 5943.927911174854
  endloop
endfacet
facet normal -0.9235090909153161 -7.307917630615819e-16 0.38357653603520436
  outer loop
    vertex -42148.82253268377 -5389.711607949607 6522.426365780354
    vertex -42548.06073713886 8860.288392050415 5561.209824575818
    vertex -42548.06073713886 -5389.711607949619 5561.209824575804
  endloop
endfacet
facet normal -0.9235090909153161 -7.307917630615819e-16 0.38357653603520436
  outer loop
    vertex -42548.06073713886 8860.288392050415 5561.209824575818
    vertex -42148.82253268377 -5389.711607949607 6522.426365780354
    vertex -42148.82253268377 8860.288392050432 6522.426365780394
  endloop
endfacet
facet normal -0.12956752095551752 -1.105430069797454e-15 0.991570601376141
  outer loop
    vertex -38694.00437340452 -5389.711607949619 8512.615173912383
    vertex -39726.061418853016 8860.288392050421 8377.757330529534
    vertex -39726.061418853016 -5389.711607949613 8377.75733052952
  endloop
endfacet
facet normal -0.12956752095551752 -1.105430069797454e-15 0.991570601376141
  outer loop
    vertex -39726.061418853016 8860.288392050421 8377.757330529534
    vertex -38694.00437340452 -5389.711607949619 8512.615173912383
    vertex -38694.00437340452 8860.288392050415 8512.6151739124
  endloop
endfacet
facet normal -0.7927643689474912 4.659192943975483e-16 0.6095282235690865
  outer loop
    vertex -41514.406892828025 25860.288392050366 7347.559796740613
    vertex -42148.82253268377 8860.288392050432 6522.426365780394
    vertex -41514.406892828025 8860.288392050432 7347.55979674065
  endloop
endfacet
facet normal -0.7927643689474912 4.659192943975483e-16 0.6095282235690865
  outer loop
    vertex -42148.82253268377 8860.288392050432 6522.426365780394
    vertex -41514.406892828025 25860.288392050366 7347.559796740613
    vertex -42148.82253268377 25860.288392050414 6522.426365780406
  endloop
endfacet
facet normal -0.9235090909153166 -4.804556168611004e-16 0.3835765360352033
  outer loop
    vertex -42148.82253268377 8860.288392050432 6522.426365780394
    vertex -42548.06073713886 25860.2883920504 5561.209824575849
    vertex -42548.06073713886 8860.288392050415 5561.209824575818
  endloop
endfacet
facet normal -0.9235090909153166 -4.804556168611004e-16 0.3835765360352033
  outer loop
    vertex -42548.06073713886 25860.2883920504 5561.209824575849
    vertex -42148.82253268377 8860.288392050432 6522.426365780394
    vertex -42148.82253268377 25860.288392050414 6522.426365780406
  endloop
endfacet
facet normal -0.9913181945082098 -3.109156792087793e-16 0.13148474146068612
  outer loop
    vertex -44009.072586989285 -5389.7116079496245 5954.201211083108
    vertex -44197.85681600619 -7389.711607949597 4530.87832979937
    vertex -44009.072586989285 -7389.711607949608 5954.201211083096
  endloop
endfacet
facet normal -0.9913181945082098 -3.109156792087793e-16 0.13148474146068612
  outer loop
    vertex -44197.85681600619 -7389.711607949597 4530.87832979937
    vertex -44009.072586989285 -5389.7116079496245 5954.201211083108
    vertex -44197.85681600619 -5389.711607949607 4530.878329799367
  endloop
endfacet
facet normal -0.38178997093911277 -1.5915691630585282e-15 0.9242491104081797
  outer loop
    vertex -39726.061418853016 -5389.711607949613 8377.75733052952
    vertex -40688.04819500639 8860.288392050415 7980.378637734042
    vertex -40688.04819500639 -5389.711607949613 7980.378637734007
  endloop
endfacet
facet normal -0.38178997093911277 -1.5915691630585282e-15 0.9242491104081797
  outer loop
    vertex -40688.04819500639 8860.288392050415 7980.378637734042
    vertex -39726.061418853016 -5389.711607949613 8377.75733052952
    vertex -39726.061418853016 8860.288392050421 8377.757330529534
  endloop
endfacet
facet normal 5.703211521250819e-15 1.0 -2.3531456334525296e-16
  outer loop
    vertex -42684.91408233199 25860.288392050366 4529.415491924611
    vertex -34845.66253479959 25860.288392050308 5553.76251043344
    vertex -34710.80469141669 25860.288392050345 4521.705464984997
  endloop
endfacet
facet normal 5.703211521250819e-15 1.0 -2.3531456334525296e-16
  outer loop
    vertex -34845.66253479959 25860.288392050308 5553.76251043344
    vertex -42684.91408233199 25860.288392050366 4529.415491924611
    vertex -42548.06073713886 25860.2883920504 5561.209824575849
  endloop
endfacet
facet normal 5.703211521250819e-15 1.0 -2.3531456334525296e-16
  outer loop
    vertex -34845.66253479959 25860.288392050308 5553.76251043344
    vertex -42548.06073713886 25860.2883920504 5561.209824575849
    vertex -35243.04122759508 25860.288392050355 6515.749286586804
  endloop
endfacet
facet normal 5.703211521250819e-15 1.0 -2.3531456334525296e-16
  outer loop
    vertex -35243.04122759508 25860.288392050355 6515.749286586804
    vertex -42548.06073713886 25860.2883920504 5561.209824575849
    vertex -42148.82253268377 25860.288392050414 6522.426365780406
  endloop
endfacet
facet normal 5.703211521250819e-15 1.0 -2.3531456334525296e-16
  outer loop
    vertex -35243.04122759508 25860.288392050355 6515.749286586804
    vertex -42148.82253268377 25860.288392050414 6522.426365780406
    vertex -35875.86006858849 25860.288392050366 7342.107984408442
  endloop
endfacet
facet normal 5.703211521250819e-15 1.0 -2.3531456334525296e-16
  outer loop
    vertex -35875.86006858849 25860.288392050366 7342.107984408442
    vertex -42148.82253268377 25860.288392050414 6522.426365780406
    vertex -41514.406892828025 25860.288392050366 7347.559796740613
  endloop
endfacet
facet normal 5.703211521250819e-15 1.0 -2.3531456334525296e-16
  outer loop
    vertex -35875.86006858849 25860.288392050366 7342.107984408442
    vertex -41514.406892828025 25860.288392050366 7347.559796740613
    vertex -36700.99349954873 25860.28839205033 7976.52362426422
  endloop
endfacet
facet normal 5.703211521250819e-15 1.0 -2.3531456334525296e-16
  outer loop
    vertex -36700.99349954873 25860.28839205033 7976.52362426422
    vertex -41514.406892828025 25860.288392050366 7347.559796740613
    vertex -40688.04819500639 25860.288392050345 7980.378637734042
  endloop
endfacet
facet normal 5.703211521250819e-15 1.0 -2.3531456334525296e-16
  outer loop
    vertex -36700.99349954873 25860.28839205033 7976.52362426422
    vertex -40688.04819500639 25860.288392050345 7980.378637734042
    vertex -37662.210040753256 25860.28839205039 8375.761828719282
  endloop
endfacet
facet normal 5.703211521250819e-15 1.0 -2.3531456334525296e-16
  outer loop
    vertex -37662.210040753256 25860.28839205039 8375.761828719282
    vertex -40688.04819500639 25860.288392050345 7980.378637734042
    vertex -39726.061418853016 25860.288392050355 8377.757330529526
  endloop
endfacet
facet normal 5.703211521250819e-15 1.0 -2.3531456334525296e-16
  outer loop
    vertex -37662.210040753256 25860.28839205039 8375.761828719282
    vertex -39726.061418853016 25860.288392050355 8377.757330529526
    vertex -38694.00437340452 25860.288392050355 8512.615173912398
  endloop
endfacet
facet normal 0.6095282235691027 2.038100070503938e-16 0.7927643689474785
  outer loop
    vertex -35875.86006858849 8860.288392050426 7342.107984408453
    vertex -36700.99349954873 25860.28839205033 7976.52362426422
    vertex -36700.99349954873 8860.288392050432 7976.523624264218
  endloop
endfacet
facet normal 0.6095282235691027 2.038100070503938e-16 0.7927643689474785
  outer loop
    vertex -36700.99349954873 25860.28839205033 7976.52362426422
    vertex -35875.86006858849 8860.288392050426 7342.107984408453
    vertex -35875.86006858849 25860.288392050366 7342.107984408442
  endloop
endfacet
facet normal 0.13148474146069478 -4.298944621901036e-15 0.9913181945082086
  outer loop
    vertex -37269.21865424598 -7389.711607949608 9836.773678569682
    vertex -38692.54153552973 -5389.711607949613 10025.557907586617
    vertex -38692.54153552973 -7389.711607949608 10025.557907586619
  endloop
endfacet
facet normal 0.13148474146069478 -4.298944621901036e-15 0.9913181945082086
  outer loop
    vertex -38692.54153552973 -5389.711607949613 10025.557907586617
    vertex -37269.21865424598 -7389.711607949608 9836.773678569682
    vertex -37269.21865424598 -5389.711607949613 9836.773678569702
  endloop
endfacet
facet normal 0.7939415699597802 -4.906411229764912e-16 0.6079940653409373
  outer loop
    vertex -35243.04122759508 8860.288392050397 6515.749286586781
    vertex -35875.86006858849 -5389.711607949613 7342.107984408428
    vertex -35243.04122759508 -5389.7116079496245 6515.749286586784
  endloop
endfacet
facet normal 0.7939415699597802 -4.906411229764912e-16 0.6079940653409373
  outer loop
    vertex -35875.86006858849 -5389.711607949613 7342.107984408428
    vertex -35243.04122759508 8860.288392050397 6515.749286586781
    vertex -35875.86006858849 8860.288392050426 7342.107984408453
  endloop
endfacet
facet normal -8.746490473690891e-17 -1.0 -1.2525583949770955e-16
  outer loop
    vertex -33383.89346434538 -7389.711607949603 5943.927911174855
    vertex -44197.85681600619 -7389.711607949597 4530.87832979937
    vertex -33197.861957742476 -7389.711607949608 4520.2426271101485
  endloop
endfacet
facet normal -8.746490473690891e-17 -1.0 -1.2525583949770955e-16
  outer loop
    vertex -44197.85681600619 -7389.711607949597 4530.87832979937
    vertex -33383.89346434538 -7389.711607949603 5943.927911174855
    vertex -44009.072586989285 -7389.711607949608 5954.201211083096
  endloop
endfacet
facet normal -8.746490473690891e-17 -1.0 -1.2525583949770955e-16
  outer loop
    vertex -44009.072586989285 -7389.711607949608 5954.201211083096
    vertex -33383.89346434538 -7389.711607949603 5943.927911174855
    vertex -33932.062966824735 -7389.7116079496145 7270.953798662695
  endloop
endfacet
facet normal -8.746490473690891e-17 -1.0 -1.2525583949770955e-16
  outer loop
    vertex -44009.072586989285 -7389.711607949608 5954.201211083096
    vertex -33932.062966824735 -7389.7116079496145 7270.953798662695
    vertex -43458.337955579336 -7389.71160794962 7280.164587378675
  endloop
endfacet
facet normal -8.746490473690891e-17 -1.0 -1.2525583949770955e-16
  outer loop
    vertex -43458.337955579336 -7389.71160794962 7280.164587378675
    vertex -33932.062966824735 -7389.7116079496145 7270.953798662695
    vertex -34805.013619479505 -7389.711607949603 8410.885668355351
  endloop
endfacet
facet normal -8.746490473690891e-17 -1.0 -1.2525583949770955e-16
  outer loop
    vertex -43458.337955579336 -7389.71160794962 7280.164587378675
    vertex -34805.013619479505 -7389.711607949603 8410.885668355351
    vertex -42583.18457677492 -7389.711607949591 8418.406245849577
  endloop
endfacet
facet normal -8.746490473690891e-17 -1.0 -1.2525583949770955e-16
  outer loop
    vertex -42583.18457677492 -7389.711607949591 8418.406245849577
    vertex -34805.013619479505 -7389.711607949603 8410.885668355351
    vertex -35943.25527795042 -7389.711607949597 9286.039047159724
  endloop
endfacet
facet normal -8.746490473690891e-17 -1.0 -1.2525583949770955e-16
  outer loop
    vertex -42583.18457677492 -7389.711607949591 8418.406245849577
    vertex -35943.25527795042 -7389.711607949597 9286.039047159724
    vertex -41443.2527070823 -7389.711607949608 9291.356898504358
  endloop
endfacet
facet normal -8.746490473690891e-17 -1.0 -1.2525583949770955e-16
  outer loop
    vertex -41443.2527070823 -7389.711607949608 9291.356898504358
    vertex -35943.25527795042 -7389.711607949597 9286.039047159724
    vertex -37269.21865424598 -7389.711607949608 9836.773678569682
  endloop
endfacet
facet normal -8.746490473690891e-17 -1.0 -1.2525583949770955e-16
  outer loop
    vertex -41443.2527070823 -7389.711607949608 9291.356898504358
    vertex -37269.21865424598 -7389.711607949608 9836.773678569682
    vertex -40116.226819594456 -7389.711607949608 9839.526400983705
  endloop
endfacet
facet normal -8.746490473690891e-17 -1.0 -1.2525583949770955e-16
  outer loop
    vertex -40116.226819594456 -7389.711607949608 9839.526400983705
    vertex -37269.21865424598 -7389.711607949608 9836.773678569682
    vertex -38692.54153552973 -7389.711607949608 10025.557907586619
  endloop
endfacet
facet normal 0.7939415699597768 3.9477198982231226e-15 0.6079940653409415
  outer loop
    vertex -33932.062966824735 -5389.711607949613 7270.953798662686
    vertex -34805.013619479505 -7389.711607949603 8410.885668355351
    vertex -33932.062966824735 -7389.7116079496145 7270.953798662695
  endloop
endfacet
facet normal 0.7939415699597768 3.9477198982231226e-15 0.6079940653409415
  outer loop
    vertex -34805.013619479505 -7389.711607949603 8410.885668355351
    vertex -33932.062966824735 -5389.711607949613 7270.953798662686
    vertex -34805.013619479505 -5389.711607949613 8410.885668355335
  endloop
endfacet
facet normal 0.9242491104081784 9.520966841747401e-16 0.38178997093911604
  outer loop
    vertex -33383.89346434538 -7389.711607949603 5943.927911174855
    vertex -33932.062966824735 -5389.711607949613 7270.953798662686
    vertex -33932.062966824735 -7389.7116079496145 7270.953798662695
  endloop
endfacet
facet normal 0.9242491104081784 9.520966841747401e-16 0.38178997093911604
  outer loop
    vertex -33932.062966824735 -5389.711607949613 7270.953798662686
    vertex -33383.89346434538 -7389.711607949603 5943.927911174855
    vertex -33383.89346434538 -5389.7116079496245 5943.927911174854
  endloop
endfacet
facet normal -0.38178997093911304 1.352521943750794e-15 0.9242491104081797
  outer loop
    vertex -40116.226819594456 -7389.711607949608 9839.526400983705
    vertex -41443.2527070823 -5389.71160794963 9291.35689850435
    vertex -41443.2527070823 -7389.711607949608 9291.356898504358
  endloop
endfacet
facet normal -0.38178997093911304 1.352521943750794e-15 0.9242491104081797
  outer loop
    vertex -41443.2527070823 -5389.71160794963 9291.35689850435
    vertex -40116.226819594456 -7389.711607949608 9839.526400983705
    vertex -40116.226819594456 -5389.7116079496245 9839.526400983708
  endloop
endfacet
facet normal -0.6079940653409568 5.756485405106974e-16 0.793941569959765
  outer loop
    vertex -41443.2527070823 -7389.711607949608 9291.356898504358
    vertex -42583.18457677492 -5389.711607949607 8418.406245849585
    vertex -42583.18457677492 -7389.711607949591 8418.406245849577
  endloop
endfacet
facet normal -0.6079940653409568 5.756485405106974e-16 0.793941569959765
  outer loop
    vertex -42583.18457677492 -5389.711607949607 8418.406245849585
    vertex -41443.2527070823 -7389.711607949608 9291.356898504358
    vertex -41443.2527070823 -5389.71160794963 9291.35689850435
  endloop
endfacet
facet normal 0.6095282235690951 5.693967675636359e-16 0.7927643689474847
  outer loop
    vertex -34805.013619479505 -7389.711607949603 8410.885668355351
    vertex -35943.25527795042 -5389.7116079496245 9286.039047159738
    vertex -35943.25527795042 -7389.711607949597 9286.039047159724
  endloop
endfacet
facet normal 0.6095282235690951 5.693967675636359e-16 0.7927643689474847
  outer loop
    vertex -35943.25527795042 -5389.7116079496245 9286.039047159738
    vertex -34805.013619479505 -7389.711607949603 8410.885668355351
    vertex -34805.013619479505 -5389.711607949613 8410.885668355335
  endloop
endfacet
facet normal -0.12956752095554572 2.65936853287579e-18 0.9915706013761373
  outer loop
    vertex -38692.54153552973 -7389.711607949608 10025.557907586619
    vertex -40116.226819594456 -5389.7116079496245 9839.526400983708
    vertex -40116.226819594456 -7389.711607949608 9839.526400983705
  endloop
endfacet
facet normal -0.12956752095554572 2.65936853287579e-18 0.9915706013761373
  outer loop
    vertex -40116.226819594456 -5389.7116079496245 9839.526400983708
    vertex -38692.54153552973 -7389.711607949608 10025.557907586619
    vertex -38692.54153552973 -5389.711607949613 10025.557907586617
  endloop
endfacet
facet normal 0.924249110408178 -2.1843511569494073e-16 0.3817899709391171
  outer loop
    vertex -34845.66253479959 8860.288392050415 5553.762510433444
    vertex -35243.04122759508 25860.288392050355 6515.749286586804
    vertex -35243.04122759508 8860.288392050397 6515.749286586781
  endloop
endfacet
facet normal 0.924249110408178 -2.1843511569494073e-16 0.3817899709391171
  outer loop
    vertex -35243.04122759508 25860.288392050355 6515.749286586804
    vertex -34845.66253479959 8860.288392050415 5553.762510433444
    vertex -34845.66253479959 25860.288392050308 5553.76251043344
  endloop
endfacet
facet normal 0.7939415699597789 -2.0809827344105447e-16 0.6079940653409386
  outer loop
    vertex -35243.04122759508 25860.288392050355 6515.749286586804
    vertex -35875.86006858849 8860.288392050426 7342.107984408453
    vertex -35243.04122759508 8860.288392050397 6515.749286586781
  endloop
endfacet
facet normal 0.7939415699597789 -2.0809827344105447e-16 0.6079940653409386
  outer loop
    vertex -35875.86006858849 8860.288392050426 7342.107984408453
    vertex -35243.04122759508 25860.288392050355 6515.749286586804
    vertex -35875.86006858849 25860.288392050366 7342.107984408442
  endloop
endfacet
facet normal -0.000966882062655851 1.2455971931465785e-15 -0.9999995325694293
  outer loop
    vertex -34710.80469141669 25860.288392050345 4521.705464984997
    vertex -42684.91408233199 8860.288392050397 4529.4154919245675
    vertex -42684.91408233199 25860.288392050366 4529.415491924611
  endloop
endfacet
facet normal -0.000966882062655851 1.2455971931465785e-15 -0.9999995325694293
  outer loop
    vertex -42684.91408233199 8860.288392050397 4529.4154919245675
    vertex -34710.80469141669 25860.288392050345 4521.705464984997
    vertex -42684.91408233199 -5389.7116079496245 4529.415491924577
  endloop
endfacet
facet normal -0.000966882062655851 1.2455971931465785e-15 -0.9999995325694293
  outer loop
    vertex -42684.91408233199 -5389.7116079496245 4529.415491924577
    vertex -44197.85681600619 -7389.711607949597 4530.87832979937
    vertex -44197.85681600619 -5389.711607949607 4530.878329799367
  endloop
endfacet
facet normal -0.000966882062655851 1.2455971931465785e-15 -0.9999995325694293
  outer loop
    vertex -44197.85681600619 -7389.711607949597 4530.87832979937
    vertex -42684.91408233199 -5389.7116079496245 4529.415491924577
    vertex -33197.861957742476 -7389.711607949608 4520.2426271101485
  endloop
endfacet
facet normal -0.000966882062655851 1.2455971931465785e-15 -0.9999995325694293
  outer loop
    vertex -33197.861957742476 -7389.711607949608 4520.2426271101485
    vertex -42684.91408233199 -5389.7116079496245 4529.415491924577
    vertex -34710.80469141669 -5389.7116079496245 4521.705464984927
  endloop
endfacet
facet normal -0.000966882062655851 1.2455971931465785e-15 -0.9999995325694293
  outer loop
    vertex -34710.80469141669 -5389.7116079496245 4521.705464984927
    vertex -42684.91408233199 -5389.7116079496245 4529.415491924577
    vertex -34710.80469141669 25860.288392050345 4521.705464984997
  endloop
endfacet
facet normal -0.000966882062655851 1.2455971931465785e-15 -0.9999995325694293
  outer loop
    vertex -34710.80469141669 -5389.7116079496245 4521.705464984927
    vertex -34710.80469141669 25860.288392050345 4521.705464984997
    vertex -34710.80469141669 8860.288392050415 4521.7054649849315
  endloop
endfacet
facet normal -0.000966882062655851 1.2455971931465785e-15 -0.9999995325694293
  outer loop
    vertex -33197.861957742476 -7389.711607949608 4520.2426271101485
    vertex -34710.80469141669 -5389.7116079496245 4521.705464984927
    vertex -33197.861957742476 -5389.7116079496245 4520.242627110158
  endloop
endfacet
facet normal -0.6079940653409478 8.762016327182091e-16 0.793941569959772
  outer loop
    vertex -40688.04819500639 8860.288392050415 7980.378637734042
    vertex -41514.406892828025 25860.288392050366 7347.559796740613
    vertex -41514.406892828025 8860.288392050432 7347.55979674065
  endloop
endfacet
facet normal -0.6079940653409478 8.762016327182091e-16 0.793941569959772
  outer loop
    vertex -41514.406892828025 25860.288392050366 7347.559796740613
    vertex -40688.04819500639 8860.288392050415 7980.378637734042
    vertex -40688.04819500639 25860.288392050345 7980.378637734042
  endloop
endfacet
facet normal 4.2064312447678997e-16 1.0 -4.829384674631562e-16
  outer loop
    vertex -44197.85681600619 -5389.711607949607 4530.878329799367
    vertex -42548.06073713886 -5389.711607949619 5561.209824575804
    vertex -42684.91408233199 -5389.7116079496245 4529.415491924577
  endloop
endfacet
facet normal 4.2064312447678997e-16 1.0 -4.829384674631562e-16
  outer loop
    vertex -42548.06073713886 -5389.711607949619 5561.209824575804
    vertex -44197.85681600619 -5389.711607949607 4530.878329799367
    vertex -44009.072586989285 -5389.7116079496245 5954.201211083108
  endloop
endfacet
facet normal 4.2064312447678997e-16 1.0 -4.829384674631562e-16
  outer loop
    vertex -42548.06073713886 -5389.711607949619 5561.209824575804
    vertex -44009.072586989285 -5389.7116079496245 5954.201211083108
    vertex -42148.82253268377 -5389.711607949607 6522.426365780354
  endloop
endfacet
facet normal 4.2064312447678997e-16 1.0 -4.829384674631562e-16
  outer loop
    vertex -42148.82253268377 -5389.711607949607 6522.426365780354
    vertex -44009.072586989285 -5389.7116079496245 5954.201211083108
    vertex -43458.337955579336 -5389.711607949619 7280.164587378657
  endloop
endfacet
facet normal 4.2064312447678997e-16 1.0 -4.829384674631562e-16
  outer loop
    vertex -42148.82253268377 -5389.711607949607 6522.426365780354
    vertex -43458.337955579336 -5389.711607949619 7280.164587378657
    vertex -41514.406892828025 -5389.711607949619 7347.559796740616
  endloop
endfacet
facet normal 4.2064312447678997e-16 1.0 -4.829384674631562e-16
  outer loop
    vertex -41514.406892828025 -5389.711607949619 7347.559796740616
    vertex -43458.337955579336 -5389.711607949619 7280.164587378657
    vertex -42583.18457677492 -5389.711607949607 8418.406245849585
  endloop
endfacet
facet normal 4.2064312447678997e-16 1.0 -4.829384674631562e-16
  outer loop
    vertex -41514.406892828025 -5389.711607949619 7347.559796740616
    vertex -42583.18457677492 -5389.711607949607 8418.406245849585
    vertex -40688.04819500639 -5389.711607949613 7980.378637734007
  endloop
endfacet
facet normal 4.2064312447678997e-16 1.0 -4.829384674631562e-16
  outer loop
    vertex -40688.04819500639 -5389.711607949613 7980.378637734007
    vertex -42583.18457677492 -5389.711607949607 8418.406245849585
    vertex -39726.061418853016 -5389.711607949613 8377.75733052952
  endloop
endfacet
facet normal 4.2064312447678997e-16 1.0 -4.829384674631562e-16
  outer loop
    vertex -39726.061418853016 -5389.711607949613 8377.75733052952
    vertex -42583.18457677492 -5389.711607949607 8418.406245849585
    vertex -38694.00437340452 -5389.711607949619 8512.615173912383
  endloop
endfacet
facet normal 4.2064312447678997e-16 1.0 -4.829384674631562e-16
  outer loop
    vertex -38694.00437340452 -5389.711607949619 8512.615173912383
    vertex -42583.18457677492 -5389.711607949607 8418.406245849585
    vertex -41443.2527070823 -5389.71160794963 9291.35689850435
  endloop
endfacet
facet normal 4.2064312447678997e-16 1.0 -4.829384674631562e-16
  outer loop
    vertex -38694.00437340452 -5389.711607949619 8512.615173912383
    vertex -41443.2527070823 -5389.71160794963 9291.35689850435
    vertex -35943.25527795042 -5389.7116079496245 9286.039047159738
  endloop
endfacet
facet normal 4.2064312447678997e-16 1.0 -4.829384674631562e-16
  outer loop
    vertex -35943.25527795042 -5389.7116079496245 9286.039047159738
    vertex -41443.2527070823 -5389.71160794963 9291.35689850435
    vertex -37269.21865424598 -5389.711607949613 9836.773678569702
  endloop
endfacet
facet normal 4.2064312447678997e-16 1.0 -4.829384674631562e-16
  outer loop
    vertex -37269.21865424598 -5389.711607949613 9836.773678569702
    vertex -41443.2527070823 -5389.71160794963 9291.35689850435
    vertex -40116.226819594456 -5389.7116079496245 9839.526400983708
  endloop
endfacet
facet normal 4.2064312447678997e-16 1.0 -4.829384674631562e-16
  outer loop
    vertex -37269.21865424598 -5389.711607949613 9836.773678569702
    vertex -40116.226819594456 -5389.7116079496245 9839.526400983708
    vertex -38692.54153552973 -5389.711607949613 10025.557907586617
  endloop
endfacet
facet normal 4.2064312447678997e-16 1.0 -4.829384674631562e-16
  outer loop
    vertex -34710.80469141669 -5389.7116079496245 4521.705464984927
    vertex -33383.89346434538 -5389.7116079496245 5943.927911174854
    vertex -33197.861957742476 -5389.7116079496245 4520.242627110158
  endloop
endfacet
facet normal 4.2064312447678997e-16 1.0 -4.829384674631562e-16
  outer loop
    vertex -33383.89346434538 -5389.7116079496245 5943.927911174854
    vertex -34710.80469141669 -5389.7116079496245 4521.705464984927
    vertex -34845.66253479959 -5389.7116079496245 5553.76251043344
  endloop
endfacet
facet normal 4.2064312447678997e-16 1.0 -4.829384674631562e-16
  outer loop
    vertex -33383.89346434538 -5389.7116079496245 5943.927911174854
    vertex -34845.66253479959 -5389.7116079496245 5553.76251043344
    vertex -35243.04122759508 -5389.7116079496245 6515.749286586784
  endloop
endfacet
facet normal 4.2064312447678997e-16 1.0 -4.829384674631562e-16
  outer loop
    vertex -33383.89346434538 -5389.7116079496245 5943.927911174854
    vertex -35243.04122759508 -5389.7116079496245 6515.749286586784
    vertex -33932.062966824735 -5389.711607949613 7270.953798662686
  endloop
endfacet
facet normal 4.2064312447678997e-16 1.0 -4.829384674631562e-16
  outer loop
    vertex -33932.062966824735 -5389.711607949613 7270.953798662686
    vertex -35243.04122759508 -5389.7116079496245 6515.749286586784
    vertex -35875.86006858849 -5389.711607949613 7342.107984408428
  endloop
endfacet
facet normal 4.2064312447678997e-16 1.0 -4.829384674631562e-16
  outer loop
    vertex -33932.062966824735 -5389.711607949613 7270.953798662686
    vertex -35875.86006858849 -5389.711607949613 7342.107984408428
    vertex -34805.013619479505 -5389.711607949613 8410.885668355335
  endloop
endfacet
facet normal 4.2064312447678997e-16 1.0 -4.829384674631562e-16
  outer loop
    vertex -34805.013619479505 -5389.711607949613 8410.885668355335
    vertex -35875.86006858849 -5389.711607949613 7342.107984408428
    vertex -36700.99349954873 -5389.711607949607 7976.523624264198
  endloop
endfacet
facet normal 4.2064312447678997e-16 1.0 -4.829384674631562e-16
  outer loop
    vertex -34805.013619479505 -5389.711607949613 8410.885668355335
    vertex -36700.99349954873 -5389.711607949607 7976.523624264198
    vertex -37662.210040753256 -5389.711607949636 8375.76182871926
  endloop
endfacet
facet normal 4.2064312447678997e-16 1.0 -4.829384674631562e-16
  outer loop
    vertex -34805.013619479505 -5389.711607949613 8410.885668355335
    vertex -37662.210040753256 -5389.711607949636 8375.76182871926
    vertex -38694.00437340452 -5389.711607949619 8512.615173912383
  endloop
endfacet
facet normal 4.2064312447678997e-16 1.0 -4.829384674631562e-16
  outer loop
    vertex -34805.013619479505 -5389.711607949613 8410.885668355335
    vertex -38694.00437340452 -5389.711607949619 8512.615173912383
    vertex -35943.25527795042 -5389.7116079496245 9286.039047159738
  endloop
endfacet
facet normal 0.9915706013761371 -2.3402723448796955e-16 0.12956752095554608
  outer loop
    vertex -34710.80469141669 25860.288392050345 4521.705464984997
    vertex -34845.66253479959 8860.288392050415 5553.762510433444
    vertex -34710.80469141669 8860.288392050415 4521.7054649849315
  endloop
endfacet
facet normal 0.9915706013761371 -2.3402723448796955e-16 0.12956752095554608
  outer loop
    vertex -34845.66253479959 8860.288392050415 5553.762510433444
    vertex -34710.80469141669 25860.288392050345 4521.705464984997
    vertex -34845.66253479959 25860.288392050308 5553.76251043344
  endloop
endfacet
facet normal 0.38357653603519304 1.560155552580262e-16 0.9235090909153209
  outer loop
    vertex -36700.99349954873 8860.288392050432 7976.523624264218
    vertex -37662.210040753256 25860.28839205039 8375.761828719282
    vertex -37662.210040753256 8860.288392050415 8375.76182871929
  endloop
endfacet
facet normal 0.38357653603519304 1.560155552580262e-16 0.9235090909153209
  outer loop
    vertex -37662.210040753256 25860.28839205039 8375.761828719282
    vertex -36700.99349954873 8860.288392050432 7976.523624264218
    vertex -36700.99349954873 25860.28839205033 7976.52362426422
  endloop
endfacet
facet normal -0.9913181945082086 -2.901370375142684e-16 0.13148474146069453
  outer loop
    vertex -42548.06073713886 8860.288392050415 5561.209824575818
    vertex -42684.91408233199 25860.288392050366 4529.415491924611
    vertex -42684.91408233199 8860.288392050397 4529.4154919245675
  endloop
endfacet
facet normal -0.9913181945082086 -2.901370375142684e-16 0.13148474146069453
  outer loop
    vertex -42684.91408233199 25860.288392050366 4529.415491924611
    vertex -42548.06073713886 8860.288392050415 5561.209824575818
    vertex -42548.06073713886 25860.2883920504 5561.209824575849
  endloop
endfacet
endsolid EricWheel
