solid BallLifter
facet normal -0.0 -0.0 1.0
  outer loop
    vertex 113.88294707436384 4.103371705367708 1.5
    vertex 73.88294707436386 5.553371705367639 1.5
    vertex 73.88294707436386 4.103371705367651 1.5
  endloop
endfacet
facet normal -0.0 -0.0 1.0
  outer loop
    vertex 73.88294707436386 5.553371705367639 1.5
    vertex 113.88294707436384 4.103371705367708 1.5
    vertex 113.88294707436384 5.553371705367706 1.5
  endloop
endfacet
facet normal 0.0 0.0 -1.0
  outer loop
    vertex 113.88294707436384 5.553371705367706 0.0
    vertex 73.88294707436386 1.5533717053676455 0.0
    vertex 73.88294707436386 5.553371705367639 0.0
  endloop
endfacet
facet normal 0.0 0.0 -1.0
  outer loop
    vertex 73.88294707436386 1.5533717053676455 0.0
    vertex 113.88294707436384 5.553371705367706 0.0
    vertex 113.88294707436386 1.5533717053677105 0.0
  endloop
endfacet
facet normal 1.6265566671336277e-15 -1.0 0.0
  outer loop
    vertex 113.88294707436386 1.5533717053677105 1.5
    vertex 73.88294707436386 1.5533717053676455 0.0
    vertex 113.88294707436386 1.5533717053677105 0.0
  endloop
endfacet
facet normal 1.6265566671336277e-15 -1.0 0.0
  outer loop
    vertex 73.88294707436386 1.5533717053676455 0.0
    vertex 113.88294707436386 1.5533717053677105 1.5
    vertex 73.88294707436386 1.5533717053676455 1.5
  endloop
endfacet
facet normal 1.4438228390645241e-15 -1.0 -1.640707771664223e-16
  outer loop
    vertex 113.88294707436384 3.0033717053677025 1.5
    vertex 73.88294707436386 3.003371705367634 66.50000000000001
    vertex 73.88294707436386 3.0033717053676448 1.4999999999999996
  endloop
endfacet
facet normal 1.4438228390645241e-15 -1.0 -1.640707771664223e-16
  outer loop
    vertex 73.88294707436386 3.003371705367634 66.50000000000001
    vertex 113.88294707436384 3.0033717053677025 1.5
    vertex 113.88294707436384 3.003371705367692 66.50000000000001
  endloop
endfacet
facet normal -1.6603962649242021e-15 1.0 0.0
  outer loop
    vertex 73.88294707436386 5.553371705367639 1.5
    vertex 113.88294707436384 5.553371705367706 0.0
    vertex 73.88294707436386 5.553371705367639 0.0
  endloop
endfacet
facet normal -1.6603962649242021e-15 1.0 0.0
  outer loop
    vertex 113.88294707436384 5.553371705367706 0.0
    vertex 73.88294707436386 5.553371705367639 1.5
    vertex 113.88294707436384 5.553371705367706 1.5
  endloop
endfacet
facet normal -4.511946372076827e-18 1.2446748612625266e-16 1.0
  outer loop
    vertex 113.88294707436386 1.5533717053677105 1.5
    vertex 73.88294707436386 3.0033717053676448 1.4999999999999996
    vertex 73.88294707436386 1.5533717053676455 1.5
  endloop
endfacet
facet normal -4.511946372076827e-18 1.2446748612625266e-16 1.0
  outer loop
    vertex 73.88294707436386 3.0033717053676448 1.4999999999999996
    vertex 113.88294707436386 1.5533717053677105 1.5
    vertex 113.88294707436384 3.0033717053677025 1.5
  endloop
endfacet
facet normal -1.0 0.0 0.0
  outer loop
    vertex 73.88294707436386 4.103371705367639 66.50000000000001
    vertex 73.88294707436386 3.0033717053676448 1.4999999999999996
    vertex 73.88294707436386 3.003371705367634 66.50000000000001
  endloop
endfacet
facet normal -1.0 0.0 0.0
  outer loop
    vertex 73.88294707436386 3.0033717053676448 1.4999999999999996
    vertex 73.88294707436386 1.5533717053676455 0.0
    vertex 73.88294707436386 1.5533717053676455 1.5
  endloop
endfacet
facet normal -1.0 0.0 0.0
  outer loop
    vertex 73.88294707436386 1.5533717053676455 0.0
    vertex 73.88294707436386 3.0033717053676448 1.4999999999999996
    vertex 73.88294707436386 5.553371705367639 0.0
  endloop
endfacet
facet normal -1.0 0.0 0.0
  outer loop
    vertex 73.88294707436386 5.553371705367639 0.0
    vertex 73.88294707436386 3.0033717053676448 1.4999999999999996
    vertex 73.88294707436386 4.103371705367651 1.5
  endloop
endfacet
facet normal -1.0 0.0 0.0
  outer loop
    vertex 73.88294707436386 4.103371705367651 1.5
    vertex 73.88294707436386 3.0033717053676448 1.4999999999999996
    vertex 73.88294707436386 4.103371705367639 66.50000000000001
  endloop
endfacet
facet normal -1.0 0.0 0.0
  outer loop
    vertex 73.88294707436386 5.553371705367639 0.0
    vertex 73.88294707436386 4.103371705367651 1.5
    vertex 73.88294707436386 5.553371705367639 1.5
  endloop
endfacet
facet normal 1.0 5.564869719971667e-15 3.8501942375054005e-15
  outer loop
    vertex 113.88294707436384 5.553371705367706 0.0
    vertex 113.88294707436386 1.5533717053677105 1.5
    vertex 113.88294707436386 1.5533717053677105 0.0
  endloop
endfacet
facet normal 1.0 5.564869719971667e-15 3.8501942375054005e-15
  outer loop
    vertex 113.88294707436386 1.5533717053677105 1.5
    vertex 113.88294707436384 5.553371705367706 0.0
    vertex 113.88294707436384 3.0033717053677025 1.5
  endloop
endfacet
facet normal 1.0 5.564869719971667e-15 3.8501942375054005e-15
  outer loop
    vertex 113.88294707436384 3.0033717053677025 1.5
    vertex 113.88294707436384 5.553371705367706 0.0
    vertex 113.88294707436384 4.103371705367708 1.5
  endloop
endfacet
facet normal 1.0 5.564869719971667e-15 3.8501942375054005e-15
  outer loop
    vertex 113.88294707436384 3.0033717053677025 1.5
    vertex 113.88294707436384 4.103371705367708 1.5
    vertex 113.88294707436384 4.103371705367697 66.50000000000001
  endloop
endfacet
facet normal 1.0 5.564869719971667e-15 3.8501942375054005e-15
  outer loop
    vertex 113.88294707436384 4.103371705367708 1.5
    vertex 113.88294707436384 5.553371705367706 0.0
    vertex 113.88294707436384 5.553371705367706 1.5
  endloop
endfacet
facet normal 1.0 5.564869719971667e-15 3.8501942375054005e-15
  outer loop
    vertex 113.88294707436384 4.103371705367697 66.50000000000001
    vertex 113.88294707436384 3.003371705367692 66.50000000000001
    vertex 113.88294707436384 3.0033717053677025 1.5
  endloop
endfacet
facet normal -4.511946372076401e-18 -1.640707771664223e-16 1.0
  outer loop
    vertex 113.88294707436384 3.003371705367692 66.50000000000001
    vertex 73.88294707436386 4.103371705367639 66.50000000000001
    vertex 73.88294707436386 3.003371705367634 66.50000000000001
  endloop
endfacet
facet normal -4.511946372076401e-18 -1.640707771664223e-16 1.0
  outer loop
    vertex 73.88294707436386 4.103371705367639 66.50000000000001
    vertex 113.88294707436384 3.003371705367692 66.50000000000001
    vertex 113.88294707436384 4.103371705367697 66.50000000000001
  endloop
endfacet
facet normal -1.4438228390645241e-15 1.0 1.640707771664223e-16
  outer loop
    vertex 73.88294707436386 4.103371705367639 66.50000000000001
    vertex 113.88294707436384 4.103371705367708 1.5
    vertex 73.88294707436386 4.103371705367651 1.5
  endloop
endfacet
facet normal -1.4438228390645241e-15 1.0 1.640707771664223e-16
  outer loop
    vertex 113.88294707436384 4.103371705367708 1.5
    vertex 73.88294707436386 4.103371705367639 66.50000000000001
    vertex 113.88294707436384 4.103371705367697 66.50000000000001
  endloop
endfacet
endsolid BallLifter
